<?xml version="1.0" encoding="utf-8"?>
<!-- Generator: Adobe Illustrator 20.1.0, SVG Export Plug-In . SVG Version: 6.00 Build 0)  -->
<svg version="1.1" id="Layer_1" xmlns="http://www.w3.org/2000/svg" xmlns:xlink="http://www.w3.org/1999/xlink" x="0px" y="0px"
	 viewBox="0 0 509 629" style="enable-background:new 0 0 509 629;" xml:space="preserve">
<style type="text/css">
	.st0{fill:url(#SVGID_1_);}
	.st1{fill:#8D8C80;}
	.st2{fill:none;}
	.st3{clip-path:url(#SVGID_3_);fill:#BEBCAD;}
	.st4{fill:url(#SVGID_4_);}
	.st5{display:none;}
	.st6{display:inline;}
	.st7{clip-path:url(#SVGID_6_);}
	.st8{opacity:0.1;}
	.st9{fill:none;stroke:#000000;stroke-width:0.5;stroke-linecap:round;stroke-linejoin:round;stroke-miterlimit:10;}
	.st10{fill:url(#SVGID_7_);}
	.st11{fill:url(#SVGID_8_);}
	.st12{fill:#B25599;}
	.st13{fill:#FFFFFF;}
	.st14{display:inline;opacity:0.5;}
</style>
<g id="Layer_1_1_">
	<g>
		<g>
			<g>
				
					<linearGradient id="SVGID_1_" gradientUnits="userSpaceOnUse" x1="254.5" y1="1537" x2="254.5" y2="1023.0029" gradientTransform="matrix(1 0 0 -1 0 1606)">
					<stop  offset="0" style="stop-color:#BDBBAB"/>
					<stop  offset="1" style="stop-color:#B2B1A2"/>
				</linearGradient>
				<path class="st0" d="M34,0h441c18.8,0,34,15.2,34,34v561c0,18.8-15.2,34-34,34H34c-18.8,0-34-15.2-34-34V34C0,15.2,15.2,0,34,0z
					"/>
			</g>
		</g>
	</g>
</g>
<g>
	<path class="st1" d="M34,0h441c18.8,0,34,15.2,34,34v561c0,18.8-15.2,34-34,34H34c-18.8,0-34-15.2-34-34V34C0,15.2,15.2,0,34,0z"/>
</g>
<path class="st2" d="M34,0h441c18.8,0,34,15.2,34,34v561c0,18.8-15.2,34-34,34H34c-18.8,0-34-15.2-34-34V34C0,15.2,15.2,0,34,0z"/>
<g>
	<g>
		<g>
			<defs>
				<path id="SVGID_2_" d="M34,0h441c18.8,0,34,15.2,34,34v561c0,18.8-15.2,34-34,34H34c-18.8,0-34-15.2-34-34V34
					C0,15.2,15.2,0,34,0z"/>
			</defs>
			<clipPath id="SVGID_3_">
				<use xlink:href="#SVGID_2_"  style="overflow:visible;"/>
			</clipPath>
			<rect x="390" y="-9" class="st3" width="127.8" height="648"/>
		</g>
	</g>
</g>
<g>
	<g>
		
			<linearGradient id="SVGID_4_" gradientUnits="userSpaceOnUse" x1="254.5" y1="1606" x2="254.5" y2="977" gradientTransform="matrix(1 0 0 -1 0 1606)">
			<stop  offset="0" style="stop-color:#FFF4D8"/>
			<stop  offset="8.685090e-02" style="stop-color:#CCC3AC"/>
			<stop  offset="0.8988" style="stop-color:#C0B7A2"/>
			<stop  offset="0.9851" style="stop-color:#878272"/>
		</linearGradient>
		<path class="st4" d="M475,1c18.2,0,33,14.8,33,33v561c0,18.2-14.8,33-33,33H34c-18.2,0-33-14.8-33-33V34C1,15.8,15.8,1,34,1H475
			 M475,0H34C15.2,0,0,15.2,0,34v561c0,18.8,15.2,34,34,34h441c18.8,0,34-15.2,34-34V34C509,15.2,493.8,0,475,0L475,0z"/>
	</g>
</g>
<g id="Layer_2" class="st5">
	<g class="st6">
		<g>
			<g>
				<g>
					<g>
						<g>
							<defs>
								<path id="SVGID_5_" d="M34,0h441c18.8,0,34,15.2,34,34v561c0,18.8-15.2,34-34,34H34c-18.8,0-34-15.2-34-34V34
									C0,15.2,15.2,0,34,0z"/>
							</defs>
							<clipPath id="SVGID_6_">
								<use xlink:href="#SVGID_5_"  style="overflow:visible;"/>
							</clipPath>
							<g class="st7">
								<g class="st8">
									<g>
										<polyline class="st9" points="318.9,249 318.9,291.6 340.2,312.9 340.2,355.5 361.5,376.8 361.5,355.5 361.5,312.9 
																					"/>
										<polyline class="st9" points="361.5,376.8 382.8,376.8 404.1,355.5 404.1,291.6 										"/>
										<polyline class="st9" points="468.1,334.2 446.8,334.2 425.4,355.5 404.1,376.8 382.8,398.1 382.8,376.8 										"/>
										<polyline class="st9" points="468.1,227.7 468.1,249 446.8,270.3 446.8,291.6 425.4,312.9 404.1,334.2 										"/>
										<polyline class="st9" points="382.8,206.4 382.8,227.7 361.5,249 361.5,270.3 382.8,291.6 404.1,312.9 										"/>
										<polyline class="st9" points="404.1,227.7 382.8,249 382.8,270.3 361.5,270.3 										"/>
										<polyline class="st9" points="510.7,227.7 489.4,249 489.4,270.3 468.1,291.6 446.8,312.9 425.4,312.9 										"/>
										<polyline class="st9" points="297.6,227.7 297.6,249 297.6,270.3 276.3,291.6 276.3,312.9 297.6,334.2 318.9,355.5 
											340.2,355.5 										"/>
										<polyline class="st9" points="297.6,312.9 318.9,334.2 340.2,334.2 										"/>
										<polyline class="st9" points="297.6,270.3 276.3,249 276.3,206.4 255,185.1 										"/>
										<polyline class="st9" points="276.3,249 255,249 255,227.7 										"/>
										<polyline class="st9" points="382.8,227.7 361.5,227.7 340.2,206.4 318.9,185.1 318.9,142.5 										"/>
										<polyline class="st9" points="340.2,142.5 361.5,121.2 361.5,163.8 340.2,185.1 340.2,206.4 										"/>
										<polyline class="st9" points="318.9,270.3 340.2,249 340.2,227.7 297.6,185.1 297.6,163.8 276.3,142.5 										"/>
										<polyline class="st9" points="276.3,227.7 255,206.4 233.7,206.4 212.4,185.1 										"/>
										<polyline class="st9" points="276.3,291.6 255,270.3 212.4,270.3 212.4,227.7 191.1,206.4 										"/>
										<polyline class="st9" points="318.9,355.5 297.6,376.8 255,334.2 255,312.9 233.7,291.6 										"/>
										<polyline class="st9" points="276.3,355.5 233.7,355.5 212.4,334.2 212.4,312.9 										"/>
										<polyline class="st9" points="212.4,334.2 169.8,291.6 169.8,270.3 191.1,249 										"/>
										<line class="st9" x1="191.1" y1="312.9" x2="191.1" y2="291.6"/>
										<polyline class="st9" points="255,504.7 255,462.1 276.3,440.8 276.3,398.1 297.6,376.8 297.6,419.4 										"/>
										<polyline class="st9" points="297.6,376.8 318.9,376.8 340.2,398.1 340.2,462.1 										"/>
										<polyline class="st9" points="404.1,419.4 382.8,419.4 361.5,398.1 340.2,376.8 318.9,355.5 										"/>
										<polyline class="st9" points="404.1,526 404.1,504.7 382.8,483.4 382.8,462.1 361.5,440.8 340.2,419.4 										"/>
										<line class="st9" x1="297.6" y1="483.4" x2="340.2" y2="440.8"/>
										<polyline class="st9" points="446.8,526 425.4,504.7 425.4,483.4 404.1,462.1 382.8,440.8 361.5,440.8 										"/>
										<polyline class="st9" points="233.7,526 233.7,504.7 233.7,483.4 212.4,462.1 212.4,440.8 233.7,419.4 255,398.1 
											276.3,398.1 										"/>
										<polyline class="st9" points="233.7,440.8 255,419.4 276.3,419.4 										"/>
										<polyline class="st9" points="233.7,483.4 212.4,504.7 212.4,547.3 191.1,568.6 										"/>
										<polyline class="st9" points="212.4,504.7 191.1,504.7 191.1,526 										"/>
										<polyline class="st9" points="255,483.4 276.3,504.7 276.3,526 233.7,568.6 233.7,589.9 212.4,611.2 										"/>
										<polyline class="st9" points="212.4,526 191.1,547.3 169.8,547.3 148.5,568.6 										"/>
										<polyline class="st9" points="212.4,462.1 191.1,483.4 148.5,483.4 148.5,526 127.2,547.3 										"/>
										<polyline class="st9" points="191.1,419.4 191.1,440.8 169.8,462.1 										"/>
										<polyline class="st9" points="255,398.1 233.7,398.1 212.4,419.4 169.8,419.4 148.5,440.8 148.5,462.1 127.2,462.1 
																					"/>
										<polyline class="st9" points="127.2,419.4 148.5,419.4 169.8,398.1 212.4,398.1 212.4,419.4 										"/>
										<polyline class="st9" points="148.5,419.4 105.9,462.1 105.9,483.4 127.2,504.7 										"/>
										<line class="st9" x1="127.2" y1="440.8" x2="84.6" y2="440.8"/>
										<polyline class="st9" points="318.9,547.3 318.9,526 318.9,504.7 318.9,483.4 										"/>
										<polyline class="st9" points="276.7,569.9 297.6,547.3 297.6,483.4 318.9,483.4 										"/>
										<polyline class="st9" points="318.9,526 340.2,526 361.5,547.3 382.8,568.6 382.8,611.2 										"/>
										<polyline class="st9" points="361.5,547.3 361.5,568.6 340.2,589.9 340.2,632.5 										"/>
									</g>
									<polyline class="st9" points="42,483.4 42,526 63.3,547.3 63.3,589.9 84.6,611.2 84.6,568.6 									"/>
									<polyline class="st9" points="425.4,462.1 446.8,462.1 468.1,440.8 468.1,376.8 									"/>
									<polyline class="st9" points="20.7,291.6 42,291.6 63.3,270.3 63.3,206.4 									"/>
									<polyline class="st9" points="63.3,206.4 84.6,206.4 105.9,185.1 105.9,121.2 									"/>
									<polyline class="st9" points="169.8,249 148.5,249 127.2,270.3 105.9,291.6 84.6,312.9 84.6,291.6 									"/>
									<polyline class="st9" points="446.8,334.2 446.8,355.5 425.4,376.8 425.4,398.1 446.8,419.4 468.1,440.8 									"/>
									<polyline class="st9" points="63.3,291.6 84.6,291.6 105.9,270.3 127.2,249 127.2,227.7 148.5,206.4 169.8,227.7 
										169.8,185.1 148.5,163.6 169.8,143.1 									"/>
									<polyline class="st9" points="318.9,462.1 340.2,483.4 361.5,483.4 382.8,504.7 382.8,526.7 382.8,547.3 404.1,568.6 
										425.4,568.6 425.4,589.9 404.1,611.2 									"/>
									<polyline class="st9" points="63.1,462.1 63.1,419.4 84.4,398.1 84.4,355.5 105.7,334.2 105.7,376.8 									"/>
									<polyline class="st9" points="169.8,376.8 148.5,376.8 127.2,355.5 105.9,334.2 84.6,312.9 63.1,312.9 63.1,376.8 
																			"/>
									<polyline class="st9" points="340.2,504.7 361.5,504.7 361.5,483.4 									"/>
									<polyline class="st9" points="20.5,227.7 20.7,249 41.6,270.3 63.3,270.3 									"/>
									<polyline class="st9" points="20.7,185.1 41.6,206.4 42,227.7 63.1,249 									"/>
									<polyline class="st9" points="105.7,163.6 84.6,163.6 84.6,185.1 63.1,185.1 									"/>
									<polyline class="st9" points="41.6,163.6 63.3,142.5 42,142.5 20.5,142.5 20.5,163.6 -0.6,185.1 -0.6,227.7 									"/>
									<polyline class="st9" points="148.5,142.5 127.1,163.8 127.2,185.1 105.9,206.4 105.9,227.7 84.6,249 84.6,270.3 
										63.3,291.6 42,312.9 									"/>
									<polyline class="st9" points="105.7,355.5 127.2,376.8 127.2,398.1 									"/>
									<polyline class="st9" points="84.4,376.8 105.7,398.1 105.7,419.4 84.6,419.4 									"/>
									<line class="st9" x1="84.4" y1="227.7" x2="84.6" y2="249"/>
									<line class="st9" x1="148.5" y1="185.1" x2="105.9" y2="227.7"/>
									<polyline class="st9" points="255,355.5 255.1,376.8 233.7,376.8 212.4,355.5 169.8,355.5 148.5,334.2 127.2,334.2 
										127.2,313.1 148.5,291.8 148.5,270.3 									"/>
									<line class="st9" x1="106.1" y1="313.1" x2="127.2" y2="313.1"/>
									<polyline class="st9" points="148.5,334.2 169.8,312.9 191.1,334.2 									"/>
									<line class="st9" x1="148.5" y1="227.7" x2="127.2" y2="227.7"/>
									<line class="st9" x1="212.4" y1="376.8" x2="191.1" y2="398.1"/>
									<polyline class="st9" points="404.1,440.8 425.4,440.8 446.8,419.4 									"/>
									<polyline class="st9" points="63.3,334.2 42,355.5 41.8,376.8 41.8,398.1 41.8,419.4 20.5,440.8 20.5,462.1 41.8,483.4 
										63.1,504.7 84.4,504.7 									"/>
									<polyline class="st9" points="20.5,376.8 -0.6,355.5 -0.6,312.9 20.5,312.9 20.5,334.2 42,355.5 									"/>
									<polyline class="st9" points="297.6,121.2 255,121.2 233.7,143.1 276.3,185.1 297.6,185.1 									"/>
									<polyline class="st9" points="404.1,632.5 468.1,632.5 489.2,611.2 446.8,611.2 468.1,589.9 446.8,568.5 446.8,547.3 
										468.1,547.3 468.1,526 446.8,504.7 468.1,483.4 									"/>
									<line class="st9" x1="425.4" y1="547.3" x2="404.1" y2="568.6"/>
									<polyline class="st9" points="468.1,568.6 489.2,547.3 489.4,589.9 510.7,568.6 510.7,547.3 468.1,504.7 468.1,483.4 
										446.8,462.1 									"/>
									<polyline class="st9" points="-0.6,526 20.5,547.3 20.7,568.6 -0.6,589.9 -0.6,632.5 20.5,632.5 20.5,611.2 									"/>
									<polyline class="st9" points="41.6,504.7 20.7,504.7 20.5,483.4 -0.6,462.1 -0.6,419.6 									"/>
									<polyline class="st9" points="191.1,632.5 148.5,632.5 148.5,611.2 169.9,589.9 191.1,589.9 169.9,611.2 									"/>
									<polyline class="st9" points="191.1,121.4 191.1,163.6 212.4,142.5 233.7,163.8 									"/>
									<line class="st9" x1="233.7" y1="143.1" x2="233.7" y2="121.2"/>
									<polyline class="st9" points="233.7,630.8 233.7,611.2 255.1,589.9 276.3,589.9 297.6,568.6 									"/>
									<polyline class="st9" points="297.8,632.5 318.9,611.2 276.3,611.2 297.8,589.9 318.9,589.9 340.2,568.6 340.2,547.3 
																			"/>
									<polyline class="st9" points="41.8,440.8 84.8,483.4 106.1,504.7 106.1,547.3 84.4,526 									"/>
									<polyline class="st9" points="106.1,568.6 127.2,589.9 127.2,611.2 105.7,611.2 105.9,632.5 									"/>
									<polyline class="st9" points="-0.6,589.9 20.7,589.9 42,568.6 42,547.3 									"/>
									<polyline class="st9" points="63.3,589.9 42,611.2 63.3,632.5 									"/>
									<line class="st9" x1="63.1" y1="121.2" x2="84.4" y2="143.1"/>
									<polyline class="st9" points="41.8,398.1 20.5,398.1 -0.6,398.1 									"/>
									<polyline class="st9" points="510.7,504.7 510.7,504.7 510.7,483.4 489.2,483.4 468.1,462.1 489.2,440.8 489.2,398.1 
										510.7,398.1 									"/>
									<polyline class="st9" points="361.5,355.5 382.8,334.2 382.8,312.9 361.5,291.6 340.2,291.6 340.2,270.3 									"/>
									<polyline class="st9" points="468.3,313.1 489.2,312.9 510.7,291.6 510.7,249 									"/>
									<polyline class="st9" points="403.5,270.3 425.9,270.3 425.4,185.1 404.1,163.8 382.8,142.5 404.1,142.5 425.4,163.8 
										468.1,163.8 468.1,142.5 489.5,142.5 489.5,206.4 									"/>
									<polyline class="st9" points="425.9,206.4 446.8,206.4 468.3,185.2 									"/>
									<line class="st9" x1="468.1" y1="249" x2="447.1" y2="249"/>
									<polyline class="st9" points="489.2,121.2 510.7,142.5 510.7,163.6 489.3,163.6 									"/>
									<line class="st9" x1="425.4" y1="163.8" x2="446.7" y2="142.4"/>
									<polyline class="st9" points="446.8,355.5 489.5,355.5 489.5,334.2 									"/>
									<g>
										<circle cx="361.5" cy="312.9" r="5.3"/>
									</g>
									<g>
										<circle cx="404.1" cy="227.7" r="5.3"/>
									</g>
									<g>
										<circle cx="382.8" cy="206.4" r="5.3"/>
									</g>
									<g>
										<circle cx="318.9" cy="142.5" r="5.3"/>
									</g>
									<g>
										<circle cx="276.3" cy="142.5" r="5.3"/>
									</g>
									<g>
										<circle cx="255" cy="185.1" r="5.3"/>
									</g>
									<g>
										<circle cx="212.4" cy="185.1" r="5.3"/>
									</g>
									<g>
										<circle cx="191.1" cy="206.4" r="5.3"/>
									</g>
									<g>
										<circle cx="20.5" cy="142.5" r="5.3"/>
									</g>
									<g>
										<circle cx="20.5" cy="185.1" r="5.3"/>
									</g>
									<g>
										<circle cx="63.2" cy="185.1" r="5.3"/>
									</g>
									<g>
										<circle cx="169.9" cy="143.1" r="5.3"/>
									</g>
									<g>
										<circle cx="41.6" cy="313.1" r="5.3"/>
									</g>
									<g>
										<circle cx="41.9" cy="291.8" r="5.3"/>
									</g>
									<g>
										<circle cx="-0.6" cy="419.5" r="5.3"/>
									</g>
									<g>
										<circle cx="510.7" cy="419.5" r="5.3"/>
									</g>
									<g>
										<circle cx="510.7" cy="504.7" r="5.3"/>
									</g>
									<g>
										<circle cx="510.7" cy="526" r="5.3"/>
									</g>
									<g>
										<circle cx="-0.7" cy="504.7" r="5.3"/>
									</g>
									<g>
										<circle cx="-0.7" cy="526" r="5.3"/>
									</g>
									<g>
										<circle cx="105.7" cy="376.8" r="5.3"/>
									</g>
									<g>
										<circle cx="84.8" cy="419.6" r="5.3"/>
									</g>
									<g>
										<circle cx="127.2" cy="398.1" r="5.3"/>
									</g>
									<g>
										<circle cx="169.8" cy="376.8" r="5.3"/>
									</g>
									<g>
										<circle cx="20.6" cy="291.8" r="5.3"/>
									</g>
									<g>
										<circle cx="20.6" cy="227.7" r="5.3"/>
									</g>
									<g>
										<circle cx="41.8" cy="163.6" r="5.3"/>
									</g>
									<g>
										<circle cx="84.6" cy="142.5" r="5.3"/>
									</g>
									<g>
										<circle cx="148.4" cy="142.5" r="5.3"/>
									</g>
									<g>
										<circle cx="148.4" cy="185.2" r="5.3"/>
									</g>
									<g>
										<circle cx="106.1" cy="121.4" r="5.3"/>
									</g>
									<g>
										<circle cx="489.5" cy="121.4" r="5.3"/>
									</g>
									<g>
										<circle cx="489.5" cy="632.5" r="5.3"/>
									</g>
									<g>
										<circle cx="106.1" cy="632.5" r="5.3"/>
									</g>
									<g>
										<circle cx="148.5" cy="270.3" r="5.3"/>
									</g>
									<g>
										<circle cx="169.9" cy="249" r="5.3"/>
									</g>
									<g>
										<circle cx="148.5" cy="227.7" r="5.3"/>
									</g>
									<g>
										<circle cx="84.6" cy="227.7" r="5.3"/>
									</g>
									<g>
										<circle cx="191.1" cy="249" r="5.3"/>
									</g>
									<g>
										<circle cx="191.1" cy="291.6" r="5.3"/>
									</g>
									<g>
										<circle cx="191.1" cy="334.2" r="5.3"/>
									</g>
									<g>
										<circle cx="212.4" cy="312.9" r="5.3"/>
									</g>
									<g>
										<circle cx="106.1" cy="312.9" r="5.3"/>
									</g>
									<g>
										<circle cx="233.7" cy="291.6" r="5.3"/>
									</g>
									<g>
										<circle cx="255" cy="227.7" r="5.3"/>
									</g>
									<g>
										<circle cx="361.5" cy="121.2" r="5.3"/>
									</g>
									<g>
										<circle cx="361.5" cy="632.5" r="5.3"/>
									</g>
									<g>
										<circle cx="297.8" cy="569.9" r="5.3"/>
									</g>
									<g>
										<circle cx="340.6" cy="548.2" r="5.3"/>
									</g>
									<g>
										<circle cx="340.7" cy="504.3" r="5.3"/>
									</g>
									<g>
										<circle cx="425.9" cy="547.6" r="5.3"/>
									</g>
									<g>
										<circle cx="404.1" cy="611.2" r="5.3"/>
									</g>
									<g>
										<circle cx="404.1" cy="632.7" r="5.3"/>
									</g>
									<g>
										<circle cx="404.1" cy="121.2" r="5.3"/>
									</g>
									<g>
										<circle cx="468.2" cy="568.9" r="5.3"/>
									</g>
									<g>
										<circle cx="426.9" cy="463.7" r="5.3"/>
									</g>
									<g>
										<circle cx="405.4" cy="441.4" r="5.3"/>
									</g>
									<g>
										<circle cx="468.3" cy="377.5" r="5.3"/>
									</g>
									<g>
										<circle cx="63.8" cy="378.6" r="5.3"/>
									</g>
									<g>
										<circle cx="20.3" cy="377" r="5.3"/>
									</g>
									<g>
										<circle cx="42" cy="441.4" r="5.3"/>
									</g>
									<g>
										<circle cx="84.4" cy="526" r="5.3"/>
									</g>
									<g>
										<circle cx="84.4" cy="504.8" r="5.3"/>
									</g>
									<g>
										<circle cx="41.7" cy="547.4" r="5.3"/>
									</g>
									<g>
										<circle cx="84.4" cy="568.6" r="5.3"/>
									</g>
									<g>
										<circle cx="105.7" cy="568.6" r="5.3"/>
									</g>
									<g>
										<circle cx="169.8" cy="611.2" r="5.3"/>
									</g>
									<g>
										<circle cx="20.6" cy="611.3" r="5.3"/>
									</g>
									<g>
										<circle cx="233.7" cy="164.9" r="5.3"/>
									</g>
									<g>
										<circle cx="468.1" cy="227.7" r="5.3"/>
									</g>
									<g>
										<circle cx="510.7" cy="227.7" r="5.3"/>
									</g>
									<g>
										<circle cx="-0.6" cy="227.7" r="5.3"/>
									</g>
									<g>
										<circle cx="404.1" cy="291.6" r="5.3"/>
									</g>
									<g>
										<circle cx="468.1" cy="334.2" r="5.3"/>
									</g>
									<g>
										<circle cx="489.1" cy="334.2" r="5.3"/>
									</g>
									<g>
										<circle cx="468.1" cy="313.6" r="5.3"/>
									</g>
									<g>
										<circle cx="446.8" cy="249.3" r="5.3"/>
									</g>
									<g>
										<circle cx="468.2" cy="185.2" r="5.3"/>
									</g>
									<g>
										<circle cx="489.3" cy="206.6" r="5.3"/>
									</g>
									<g>
										<circle cx="446.3" cy="142.1" r="5.3"/>
									</g>
									<g>
										<circle cx="404.1" cy="270.5" r="5.3"/>
									</g>
									<g>
										<circle cx="340.1" cy="270.5" r="5.3"/>
									</g>
									<g>
										<circle cx="340.2" cy="142.3" r="5.3"/>
									</g>
									<g>
										<circle cx="318.9" cy="249" r="5.3"/>
									</g>
									<g>
										<circle cx="297.6" cy="227.7" r="5.3"/>
									</g>
									<g>
										<circle cx="297.6" cy="312.9" r="5.3"/>
									</g>
									<g>
										<circle cx="340.2" cy="312.9" r="5.3"/>
									</g>
									<g>
										<circle cx="297.6" cy="419.5" r="5.3"/>
									</g>
									<g>
										<circle cx="212.4" cy="611.2" r="5.3"/>
									</g>
									<g>
										<circle cx="191.1" cy="568.6" r="5.3"/>
									</g>
									<g>
										<circle cx="148.5" cy="568.6" r="5.3"/>
									</g>
									<g>
										<circle cx="127.2" cy="547.3" r="5.3"/>
									</g>
									<g>
										<circle cx="127.2" cy="504.7" r="5.3"/>
									</g>
									<g>
										<circle cx="84.6" cy="440.8" r="5.3"/>
									</g>
									<g>
										<circle cx="127.2" cy="419.5" r="5.3"/>
									</g>
									<g>
										<circle cx="169.8" cy="462.1" r="5.3"/>
									</g>
									<g>
										<circle cx="127.2" cy="462.1" r="5.3"/>
									</g>
									<g>
										<circle cx="191.1" cy="526" r="5.3"/>
									</g>
									<g>
										<circle cx="404.1" cy="526" r="5.3"/>
									</g>
									<g>
										<circle cx="446.8" cy="526" r="5.3"/>
									</g>
									<g>
										<circle cx="340.2" cy="462.1" r="5.3"/>
									</g>
									<g>
										<circle cx="404.1" cy="419.5" r="5.3"/>
									</g>
									<g>
										<circle cx="233.7" cy="398.1" r="5.3"/>
									</g>
									<g>
										<circle cx="212.4" cy="376.8" r="5.3"/>
									</g>
									<g>
										<circle cx="255" cy="504.7" r="5.3"/>
									</g>
									<g>
										<circle cx="233.7" cy="526.7" r="5.3"/>
									</g>
									<g>
										<circle cx="233.7" cy="440.8" r="5.3"/>
									</g>
									<g>
										<circle cx="276.3" cy="440.8" r="5.3"/>
									</g>
									<g>
										<circle cx="276.7" cy="569.9" r="5.3"/>
									</g>
									<g>
										<circle cx="318.9" cy="547.3" r="5.3"/>
									</g>
									<g>
										<circle cx="382.8" cy="611.2" r="5.3"/>
									</g>
									<g>
										<circle cx="340.2" cy="632.5" r="5.3"/>
									</g>
									<g>
										<circle cx="340.2" cy="121.4" r="5.3"/>
									</g>
									<path d="M84.4,227.7"/>
									<path d="M510.7,163.6"/>
									<polyline class="st9" points="41.6,270.3 20.3,270.3 -0.6,249 									"/>
								</g>
								<g>
									
										<linearGradient id="SVGID_7_" gradientUnits="userSpaceOnUse" x1="254.5" y1="1546" x2="254.5" y2="1248.5139" gradientTransform="matrix(1 0 0 -1 0 1606)">
										<stop  offset="5.701959e-02" style="stop-color:#BDBBAB"/>
										<stop  offset="1" style="stop-color:#B2B1A2;stop-opacity:0"/>
									</linearGradient>
									<path class="st10" d="M34,0h441c18.8,0,34,15.2,34,34v561c0,18.8-15.2,34-34,34H34c-18.8,0-34-15.2-34-34V34
										C0,15.2,15.2,0,34,0z"/>
								</g>
							</g>
						</g>
					</g>
				</g>
			</g>
		</g>
	</g>
	<g class="st6">
		<g>
			
				<linearGradient id="SVGID_8_" gradientUnits="userSpaceOnUse" x1="254.5" y1="1606" x2="254.5" y2="977" gradientTransform="matrix(1 0 0 -1 0 1606)">
				<stop  offset="0" style="stop-color:#FFF4D8"/>
				<stop  offset="8.685090e-02" style="stop-color:#CCC3AC"/>
				<stop  offset="0.8988" style="stop-color:#C0B7A2"/>
				<stop  offset="0.9851" style="stop-color:#878272"/>
			</linearGradient>
			<path class="st11" d="M475,1c18.2,0,33,14.8,33,33v561c0,18.2-14.8,33-33,33H34c-18.2,0-33-14.8-33-33V34C1,15.8,15.8,1,34,1H475
				 M475,0H34C15.2,0,0,15.2,0,34v561c0,18.8,15.2,34,34,34h441c18.8,0,34-15.2,34-34V34C509,15.2,493.8,0,475,0L475,0z"/>
		</g>
	</g>
	<g id="aarfd0_1_" class="st6">
		
			<image style="overflow:visible;enable-background:new    ;" width="47" height="48" id="aarfd0_4_" xlink:href="EA59E48E9D34508A.png"  transform="matrix(1 0 0 1 422 43)">
		</image>
	</g>
	<g class="st6">
		
			<image style="overflow:visible;opacity:0.4;enable-background:new    ;" width="321" height="282" xlink:href="EA59E48E9D34508E.png"  transform="matrix(1 0 0 1 90 154)">
		</image>
		<g>
			<path class="st12" d="M116.6,427.3c-11,0-19.9-8.9-19.9-19.9v-28c0-5.9,2.6-11.5,7.2-15.3l19.7-16.3c8-6.6,12.6-16.5,12.6-26.8
				v-56.3c0-10.4-4.6-20.2-12.6-26.8l-19.7-16.3c-4.6-3.8-7.2-9.4-7.2-15.3v-28.2c0-11,8.9-19.9,19.9-19.9H346
				c11,0,19.9,8.9,19.9,19.9v32.3c0,10.4,4.6,20.2,12.6,26.8l19.2,16c4.6,3.8,7.2,9.4,7.2,15.3v48.8c0,5.9-2.6,11.5-7.2,15.3
				l-19.2,16c-8,6.6-12.6,16.5-12.6,26.8v32.1c0,11-8.9,19.9-19.9,19.9H116.6V427.3z"/>
		</g>
	</g>
	<g class="st6">
		<path class="st13" d="M323,313c0,1.2-0.9,2.1-2.1,2.1h-7.3c-2,0-3.1,2.5-1.6,3.9l17.6,17.6l17.6-17.6c1.4-1.4,0.4-3.9-1.6-3.9
			h-7.3c-1.2,0-2.1-0.9-2.1-2.1v-63.8c0-1.2,0.9-2.1,2.1-2.1h7.3c2,0,3.1-2.5,1.6-3.9l-17.6-17.6L312,243.3
			c-1.4,1.4-0.4,3.9,1.6,3.9h7.3c1.2,0,2.1,0.9,2.1,2.1V313z"/>
	</g>
	<g class="st6">
		<g>
			<g>
				<polygon class="st13" points="291.7,206.8 291.7,212 293.3,218 293.4,222 298.6,221.8 303.1,216.4 303.3,214.8 306.1,214.8 
					306.1,229.7 303.7,236.3 301.1,238.6 293.7,239.6 294.3,267.8 285,268.6 285,254.6 280.6,241.8 280,209.3 283.6,207.9 				"/>
			</g>
			<g>
				<path class="st13" d="M189,287.5c0.5,0,1,0.1,1.5,0.2c2.2-1.7,5-4.2,7.4-7.1c4.7-5.6,10.8-16.1,16.2-24.9s15.2-25.5,15.2-25.5
					s5.9-11.6,25.2-11.6c17,0,27.5,0,27.5,0V229c0,0-16.9,0-27.4,0s-16.9,3.7-30,25.5c-11.8,19.6-23.3,33.9-28.8,39.2
					c0,0.2,0,0.5,0,0.7c0,3.8-3.1,6.9-6.9,6.9c-3.8,0-6.9-3.1-6.9-6.9C182.1,290.6,185.2,287.5,189,287.5z"/>
			</g>
			<g>
				<path class="st13" d="M194.9,310.9c1.1,0,2.2,0.2,3.3,0.5c2.2-1.9,4.5-4.1,6.5-6.4c5.4-6.2,14.5-20.1,14.5-20.1l17.8-26.7
					c0,0,8.2-10,24.2-11.6c12.4-1.3,22.9-1.2,22.9-1.2l3,9.8c0,0-16.7,0.1-27,2c-12.2,2.2-16.3,5.3-30.9,30.8
					c-11.7,20.4-18,26.1-23.9,30.9c0.2,0.9,0.4,1.8,0.4,2.7c0,5.8-4.7,10.5-10.5,10.5s-10.5-4.7-10.5-10.5
					C184.4,315.6,189.1,310.9,194.9,310.9z"/>
			</g>
		</g>
	</g>
	<g class="st14">
		<g>
			<circle class="st13" cx="268.6" cy="363.6" r="23.3"/>
		</g>
		<g>
			<circle class="st13" cx="175.4" cy="370" r="16.9"/>
		</g>
		<g>
			<path class="st13" d="M239.8,345.9l1.3,1.9c0,0-4.3,5.8-4.3,16.7s7,17.1,7,17.1l-0.9,2.2h-5.3l-9.5-8.4l-17.6,1l-8.8,7.5h-2.6
				l-0.9-2.3c0,0,3.5-4.1,3.5-13s-5.2-12.7-5.2-12.7l0.5-1.7l5.5-0.9l6.2,6.3l19.2-3.2l5.9-8.5L239.8,345.9z"/>
		</g>
		<g>
			<g>
				<path class="st13" d="M199.2,313L199.2,313L199.2,313z"/>
			</g>
		</g>
		<g>
			<g>
				<path class="st13" d="M214.1,325.8c-2.2,8.5-9.9,14.8-19,14.8c-10.8,0-19.6-8.8-19.6-19.6c0-7.6,2.4-10.5,6.7-12.7
					c-6.6-2.2-8.1-6.5-8.1-14.3c0-8.2,8.8-14.7,17-14.9c1.9-1.6,1.1-0.7,2.7-2.5c1.4-1.6,2.9-3.8,4.5-6.2h-0.1
					c-23.2,5.7-27.7,7.7-27.7,7.7s-9.4,12.9-16.6,39.6v11l2.1,3l3.3,11.8l14.2,2.7l66-10.9c0,0-18.5-4.9-23.2-12.5
					c-0.4-0.7-0.7-1.4-0.9-2.1L214.1,325.8z"/>
			</g>
		</g>
		<g>
			<path class="st13" d="M252.6,270.4c-3.7,3.6-5.8,10-13.2,22.9c-6.4,11.1-12.5,20.6-16.6,25.5c6.5,7.5,14.2,12.6,32.2,13.8
				c13.7,1.2,21.7-7,23-11c1-3.4,2.2-7.8,2.9-12.3c1.2-8.1,1.4-14.9,1.1-22.5s-6-19.4-20.5-21.7
				C261.4,265.1,257.3,265.8,252.6,270.4z"/>
		</g>
	</g>
</g>
</svg>
