<?xml version="1.0" encoding="utf-8"?>
<!-- Generator: Adobe Illustrator 21.1.0, SVG Export Plug-In . SVG Version: 6.00 Build 0)  -->
<svg version="1.1" id="Layer_1" xmlns="http://www.w3.org/2000/svg" xmlns:xlink="http://www.w3.org/1999/xlink" x="0px" y="0px"
	 width="507px" height="629px" viewBox="0 0 507 629" style="enable-background:new 0 0 507 629;" xml:space="preserve">
<style type="text/css">
	.st0{fill:#C8C8C8;}
	.st1{fill:#FFCE00;}
	.st2{fill:url(#SVGID_1_);}
	.st3{display:none;}
	.st4{display:inline;}
	.st5{fill:#8D8C80;}
	.st6{clip-path:url(#SVGID_3_);}
	.st7{fill:#77766F;}
	.st8{opacity:0.15;}
	.st9{fill:#141414;}
	.st10{fill:#FFDB3A;}
	.st11{fill:#BEBCAD;}
	.st12{fill:none;}
	.st13{fill:url(#SVGID_4_);}
	.st14{fill:#808080;}
	.st15{fill:url(#SVGID_5_);}
	.st16{fill:#93C114;}
	.st17{fill:#F98A1C;}
	.st18{fill:#CE57B7;}
	.st19{fill:#3CAEBA;}
	.st20{fill:#6454D3;}
	.st21{opacity:0.6;fill:#EFEFEF;}
</style>
<g>
	<path class="st0" d="M36,627c-18.7,0-34-15.3-34-34V36C2,17.3,17.3,2,36,2h435c18.7,0,34,15.3,34,34v557c0,18.7-15.3,34-34,34H36z"
		/>
	<path class="st1" d="M471,4c17.6,0,32,14.4,32,32v557c0,17.6-14.4,32-32,32H36c-17.6,0-32-14.4-32-32V36C4,18.4,18.4,4,36,4H471
		 M471,0H36C16.2,0,0,16.2,0,36v557c0,19.8,16.2,36,36,36h435c19.8,0,36-16.2,36-36V36C507,16.2,490.8,0,471,0L471,0z"/>
</g>
<g>
	<linearGradient id="SVGID_1_" gradientUnits="userSpaceOnUse" x1="253.0742" y1="238.4048" x2="262.9329" y2="97.4188">
		<stop  offset="0" style="stop-color:#FFE22A"/>
		<stop  offset="6.466995e-03" style="stop-color:#FFE025"/>
		<stop  offset="3.574688e-02" style="stop-color:#FFDB14"/>
		<stop  offset="7.203343e-02" style="stop-color:#FFD809"/>
		<stop  offset="0.1231" style="stop-color:#FFD602"/>
		<stop  offset="0.265" style="stop-color:#FFD500"/>
		<stop  offset="0.6919" style="stop-color:#E8B90E"/>
		<stop  offset="1" style="stop-color:#DBAA16"/>
	</linearGradient>
	<path class="st2" d="M4.2,375.9v-340c0-17.6,14.4-32,32-32h434.7c17.6,0,32,14.4,32,32v394L4.2,375.9z"/>
</g>
<g id="Layer_3" class="st3">
	<g class="st4">
		<path class="st5" d="M33,0h441c18.8,0,34,15.2,34,34v561c0,18.8-15.2,34-34,34H33c-18.8,0-34-15.2-34-34V34C-1,15.2,14.2,0,33,0z"
			/>
	</g>
	<g class="st4">
		<g>
			<g>
				<g>
					<g>
						<defs>
							<path id="SVGID_2_" d="M33,0h441c18.8,0,34,15.2,34,34v561c0,18.8-15.2,34-34,34H33c-18.8,0-34-15.2-34-34V34
								C-1,15.2,14.2,0,33,0z"/>
						</defs>
						<clipPath id="SVGID_3_">
							<use xlink:href="#SVGID_2_"  style="overflow:visible;"/>
						</clipPath>
						<g class="st6">
							<g>
								<g>
									<g>
										<path class="st7" d="M-2.1,495.7c-6.6,0-11.9-5.3-11.9-11.9v-16.7c0-3.5,1.6-6.9,4.3-9.1L2,448.2c4.8-4,7.5-9.8,7.5-16
											v-33.6c0-6.2-2.8-12.1-7.5-16l-11.7-9.8c-2.7-2.3-4.3-5.6-4.3-9.1v-16.8c0-6.6,5.3-11.9,11.9-11.9h136.9
											c6.6,0,11.9,5.3,11.9,11.9v19.3c0,6.2,2.8,12.1,7.5,16l11.5,9.5c2.7,2.3,4.3,5.6,4.3,9.1V430c0,3.5-1.6,6.9-4.3,9.1
											l-11.5,9.5c-4.8,4-7.5,9.8-7.5,16v19.1c0,6.6-5.3,11.9-11.9,11.9H-2.1V495.7z"/>
										<path class="st7" d="M181.9,495.7c-6.6,0-11.9-5.3-11.9-11.9v-16.7c0-3.5,1.6-6.9,4.3-9.1l11.7-9.8c4.8-4,7.5-9.8,7.5-16
											v-33.6c0-6.2-2.8-12.1-7.5-16l-11.7-9.8c-2.7-2.3-4.3-5.6-4.3-9.1v-16.8c0-6.6,5.3-11.9,11.9-11.9h136.9
											c6.6,0,11.9,5.3,11.9,11.9v19.3c0,6.2,2.8,12.1,7.5,16l11.5,9.5c2.7,2.3,4.3,5.6,4.3,9.1V430c0,3.5-1.6,6.9-4.3,9.1
											l-11.5,9.5c-4.8,4-7.5,9.8-7.5,16v19.1c0,6.6-5.3,11.9-11.9,11.9H181.9V495.7z"/>
										<path class="st7" d="M365.9,495.7c-6.6,0-11.9-5.3-11.9-11.9v-16.7c0-3.5,1.6-6.9,4.3-9.1l11.7-9.8c4.8-4,7.5-9.8,7.5-16
											v-33.6c0-6.2-2.8-12.1-7.5-16l-11.7-9.8c-2.7-2.3-4.3-5.6-4.3-9.1v-16.8c0-6.6,5.3-11.9,11.9-11.9h136.9
											c6.6,0,11.9,5.3,11.9,11.9v19.3c0,6.2,2.8,12.1,7.5,16l11.5,9.5c2.7,2.3,4.3,5.6,4.3,9.1V430c0,3.5-1.6,6.9-4.3,9.1
											l-11.5,9.5c-4.8,4-7.5,9.8-7.5,16v19.1c0,6.6-5.3,11.9-11.9,11.9H365.9V495.7z"/>
									</g>
								</g>
								<g class="st8">
									<g>
										<path class="st9" d="M-2.1,495.7c-6.6,0-11.9-5.3-11.9-11.9v-16.7c0-3.5,1.6-6.9,4.3-9.1L2,448.2c4.8-4,7.5-9.8,7.5-16
											v-33.6c0-6.2-2.8-12.1-7.5-16l-11.7-9.8c-2.7-2.3-4.3-5.6-4.3-9.1v-16.8c0-6.6,5.3-11.9,11.9-11.9h136.9
											c6.6,0,11.9,5.3,11.9,11.9v19.3c0,6.2,2.8,12.1,7.5,16l11.5,9.5c2.7,2.3,4.3,5.6,4.3,9.1V430c0,3.5-1.6,6.9-4.3,9.1
											l-11.5,9.5c-4.8,4-7.5,9.8-7.5,16v19.1c0,6.6-5.3,11.9-11.9,11.9H-2.1V495.7z"/>
										<path class="st9" d="M181.9,495.7c-6.6,0-11.9-5.3-11.9-11.9v-16.7c0-3.5,1.6-6.9,4.3-9.1l11.7-9.8c4.8-4,7.5-9.8,7.5-16
											v-33.6c0-6.2-2.8-12.1-7.5-16l-11.7-9.8c-2.7-2.3-4.3-5.6-4.3-9.1v-16.8c0-6.6,5.3-11.9,11.9-11.9h136.9
											c6.6,0,11.9,5.3,11.9,11.9v19.3c0,6.2,2.8,12.1,7.5,16l11.5,9.5c2.7,2.3,4.3,5.6,4.3,9.1V430c0,3.5-1.6,6.9-4.3,9.1
											l-11.5,9.5c-4.8,4-7.5,9.8-7.5,16v19.1c0,6.6-5.3,11.9-11.9,11.9H181.9V495.7z"/>
										<path class="st9" d="M365.9,495.7c-6.6,0-11.9-5.3-11.9-11.9v-16.7c0-3.5,1.6-6.9,4.3-9.1l11.7-9.8c4.8-4,7.5-9.8,7.5-16
											v-33.6c0-6.2-2.8-12.1-7.5-16l-11.7-9.8c-2.7-2.3-4.3-5.6-4.3-9.1v-16.8c0-6.6,5.3-11.9,11.9-11.9h136.9
											c6.6,0,11.9,5.3,11.9,11.9v19.3c0,6.2,2.8,12.1,7.5,16l11.5,9.5c2.7,2.3,4.3,5.6,4.3,9.1V430c0,3.5-1.6,6.9-4.3,9.1
											l-11.5,9.5c-4.8,4-7.5,9.8-7.5,16v19.1c0,6.6-5.3,11.9-11.9,11.9H365.9V495.7z"/>
									</g>
								</g>
							</g>
							<g>
								<g>
									
										<image style="overflow:visible;opacity:0.4;enable-background:new    ;" width="197" height="173" xlink:href="CB3AEB517BCABF10.png"  transform="matrix(1 0 0 1 -33 322)">
									</image>
									<g>
										<path class="st10" d="M-14.1,486.9c-6.6,0-11.9-5.4-11.9-11.9v-16.7c0-3.5,1.6-6.9,4.3-9.1l11.7-9.8c4.8-4,7.5-9.8,7.5-16
											v-33.6c0-6.2-2.8-12.1-7.5-16l-11.7-9.8c-2.7-2.3-4.3-5.6-4.3-9.1V338c0-6.6,5.3-11.9,11.9-11.9h136.9
											c6.6,0,11.9,5.3,11.9,11.9v19.3c0,6.2,2.8,12.1,7.5,16l11.5,9.5c2.7,2.3,4.3,5.6,4.3,9.1V421c0,3.5-1.6,6.9-4.3,9.1
											l-11.5,9.5c-4.8,4-7.5,9.8-7.5,16V475c0,6.6-5.3,11.9-11.9,11.9H-14.1z"/>
									</g>
								</g>
								<g>
									
										<image style="overflow:visible;opacity:0.4;enable-background:new    ;" width="197" height="173" xlink:href="CB3AEB517BCABF11.png"  transform="matrix(1 0 0 1 151 322)">
									</image>
									<g>
										<path class="st10" d="M169.9,486.9c-6.6,0-11.9-5.3-11.9-11.9v-16.7c0-3.5,1.6-6.9,4.3-9.1l11.7-9.8c4.8-4,7.5-9.8,7.5-16
											v-33.6c0-6.2-2.8-12.1-7.5-16l-11.7-9.8c-2.7-2.3-4.3-5.6-4.3-9.1V338c0-6.6,5.3-11.9,11.9-11.9h136.9
											c6.6,0,11.9,5.3,11.9,11.9v19.3c0,6.2,2.8,12.1,7.5,16l11.5,9.5c2.7,2.3,4.3,5.6,4.3,9.1V421c0,3.5-1.6,6.9-4.3,9.1
											l-11.5,9.5c-4.8,4-7.5,9.8-7.5,16V475c0,6.6-5.3,11.9-11.9,11.9H169.9z"/>
									</g>
								</g>
								<g>
									
										<image style="overflow:visible;opacity:0.4;enable-background:new    ;" width="197" height="173" xlink:href="CB3AEB517BCABF17.png"  transform="matrix(1 0 0 1 335 322)">
									</image>
									<g>
										<path class="st10" d="M353.9,486.9c-6.6,0-11.9-5.3-11.9-11.9v-16.7c0-3.5,1.6-6.9,4.3-9.1l11.7-9.8c4.8-4,7.5-9.8,7.5-16
											v-33.6c0-6.2-2.8-12.1-7.5-16l-11.7-9.8c-2.7-2.3-4.3-5.6-4.3-9.1V338c0-6.6,5.3-11.9,11.9-11.9h136.9
											c6.6,0,11.9,5.3,11.9,11.9v19.3c0,6.2,2.8,12.1,7.5,16l11.5,9.5c2.7,2.3,4.3,5.6,4.3,9.1V421c0,3.5-1.6,6.9-4.3,9.1
											l-11.5,9.5c-4.8,4-7.5,9.8-7.5,16V475c0,6.6-5.3,11.9-11.9,11.9H353.9z"/>
									</g>
								</g>
							</g>
							<rect x="389" y="-9" class="st11" width="127.8" height="648"/>
						</g>
					</g>
				</g>
			</g>
		</g>
	</g>
	<g class="st4">
		<path class="st12" d="M33,0h441c18.8,0,34,15.2,34,34v561c0,18.8-15.2,34-34,34H33c-18.8,0-34-15.2-34-34V34C-1,15.2,14.2,0,33,0z
			"/>
	</g>
	<g class="st4">
		<g>
			
				<linearGradient id="SVGID_4_" gradientUnits="userSpaceOnUse" x1="253.5" y1="-1150" x2="253.5" y2="-521" gradientTransform="matrix(1 0 0 1 0 1150)">
				<stop  offset="0" style="stop-color:#FFF4D8"/>
				<stop  offset="8.685090e-02" style="stop-color:#CCC3AC"/>
				<stop  offset="0.8988" style="stop-color:#C0B7A2"/>
				<stop  offset="0.9851" style="stop-color:#878272"/>
			</linearGradient>
			<path class="st13" d="M474,1c18.2,0,33,14.8,33,33v561c0,18.2-14.8,33-33,33H33c-18.2,0-33-14.8-33-33V34C0,15.8,14.8,1,33,1H474
				 M474,0H33C14.2,0-1,15.2-1,34v561c0,18.8,15.2,34,34,34h441c18.8,0,34-15.2,34-34V34C508,15.2,492.8,0,474,0L474,0z"/>
		</g>
	</g>
	<g id="exa8al_1_" class="st4">
		
			<image style="overflow:visible;enable-background:new    ;" width="49" height="69" id="exa8al" xlink:href="CB3AEB517BCABF12.png"  transform="matrix(1 0 0 1 420 32)">
		</image>
	</g>
</g>
<g id="Layer_4" class="st3">
	<g class="st4">
		<path class="st14" d="M33,0h441c18.8,0,34,15.2,34,34v561c0,18.8-15.2,34-34,34H33c-18.8,0-34-15.2-34-34V34C-1,15.2,14.2,0,33,0z
			"/>
	</g>
	<g class="st4">
		<path class="st12" d="M33,0h441c18.8,0,34,15.2,34,34v561c0,18.8-15.2,34-34,34H33c-18.8,0-34-15.2-34-34V34C-1,15.2,14.2,0,33,0z
			"/>
	</g>
	<g class="st4">
		<path class="st12" d="M33,0h441c18.8,0,34,15.2,34,34v561c0,18.8-15.2,34-34,34H33c-18.8,0-34-15.2-34-34V34C-1,15.2,14.2,0,33,0z
			"/>
	</g>
	<g class="st4">
		<g>
			
				<linearGradient id="SVGID_5_" gradientUnits="userSpaceOnUse" x1="253.5" y1="-521" x2="253.5" y2="-1150" gradientTransform="matrix(1 0 0 1 0 1150)">
				<stop  offset="0" style="stop-color:#CCCCCC"/>
				<stop  offset="8.685090e-02" style="stop-color:#B3B3B3"/>
				<stop  offset="0.8988" style="stop-color:#B3B3B3"/>
				<stop  offset="0.9851" style="stop-color:#636363"/>
			</linearGradient>
			<path class="st15" d="M474,4c16.5,0,30,13.5,30,30v561c0,16.5-13.5,30-30,30H33c-16.5,0-30-13.5-30-30V34C3,17.5,16.5,4,33,4H474
				 M474,0H33C14.2,0-1,15.2-1,34v561c0,18.8,15.2,34,34,34h441c18.8,0,34-15.2,34-34V34C508,15.2,492.8,0,474,0L474,0z"/>
		</g>
	</g>
	<g id="_x32_amLmD_1_" class="st4">
		
			<image style="overflow:visible;enable-background:new    ;" width="419" height="503" id="_x32_amLmD" xlink:href="CB3AEB517BCABF13.png"  transform="matrix(1 0 0 1 49 88)">
		</image>
	</g>
</g>
<g>
	<g>
		
			<image style="overflow:visible;opacity:0.5;" width="312" height="88" xlink:href="CB3AEB517BCABF1E.png"  transform="matrix(1 0 0 1 87.3098 163)">
		</image>
		<g>
			<path class="st16" d="M376.3,232.8h-269c-3.3,0-6-2.7-6-6V182c0-3.3,2.7-6,6-6h269c3.3,0,6,2.7,6,6v44.8
				C382.3,230.1,379.6,232.8,376.3,232.8z"/>
		</g>
	</g>
	<g>
		
			<image style="overflow:visible;opacity:0.5;" width="334" height="88" xlink:href="CB3AEB517BCABF1F.png"  transform="matrix(1 0 0 1 87.3098 96)">
		</image>
		<g>
			<path class="st17" d="M399.2,165.6H107.4c-3.3,0-6-2.7-6-6v-44.8c0-3.3,2.7-6,6-6h291.9c3.3,0,6,2.7,6,6v44.8
				C405.2,162.9,402.5,165.6,399.2,165.6z"/>
		</g>
	</g>
	<g>
		
			<image style="overflow:visible;opacity:0.5;" width="266" height="87" xlink:href="CB3AEB517BCABF14.png"  transform="matrix(1 0 0 1 87.3098 231)">
		</image>
		<g>
			<path class="st18" d="M330.5,299.9H107.4c-3.3,0-6-2.7-6-6v-44.8c0-3.3,2.7-6,6-6h223.2c3.3,0,6,2.7,6,6v44.8
				C336.5,297.2,333.8,299.9,330.5,299.9z"/>
		</g>
	</g>
	<g>
		
			<image style="overflow:visible;opacity:0.5;" width="334" height="88" xlink:href="CB3AEB517BCABF15.png"  transform="matrix(1 0 0 1 87.3098 297)">
		</image>
		<g>
			<path class="st19" d="M399.2,366.4H107.4c-3.3,0-6-2.7-6-6v-44.8c0-3.3,2.7-6,6-6h291.9c3.3,0,6,2.7,6,6v44.8
				C405.2,363.7,402.5,366.4,399.2,366.4z"/>
		</g>
	</g>
	<g>
		
			<image style="overflow:visible;opacity:0.5;" width="289" height="88" xlink:href="5F8402C6E44D9DAF.png"  transform="matrix(1 0 0 1 87.3098 365)">
		</image>
		<g>
			<path class="st20" d="M353.4,434.6H107.4c-3.3,0-6-2.7-6-6v-44.8c0-3.3,2.7-6,6-6h246.1c3.3,0,6,2.7,6,6v44.8
				C359.4,431.9,356.7,434.6,353.4,434.6z"/>
		</g>
	</g>
</g>
<path class="st21" d="M465.1,40c0.6,0,1.1,0.2,1.6,0.6l2.2,2.2c0.9,0.9,0.9,2.3,0,3.1l-8.1,8.1c-1,1-1.6,2.4-1.6,3.9
	c0,1.5,0.6,2.8,1.6,3.9l8.2,8.2c0.4,0.4,0.6,1,0.6,1.6c0,0.6-0.2,1.1-0.6,1.6l-2.2,2.2c-0.4,0.4-1,0.6-1.6,0.6
	c-0.6,0-1.1-0.2-1.6-0.6l-10-10l-1.3-1.3l-1.3,1.3l-10,10c-0.4,0.4-1,0.6-1.6,0.6s-1.1-0.2-1.6-0.6l-2.2-2.2c-0.9-0.9-0.9-2.3,0-3.1
	l8.1-8.1c2.1-2.1,2.1-5.6,0-7.8l-8.2-8.2c-0.4-0.4-0.6-1-0.6-1.6c0-0.6,0.2-1.1,0.6-1.6l2.2-2.2c0.4-0.4,1-0.6,1.6-0.6
	s1.1,0.2,1.6,0.6l10,10l1.3,1.3l1.3-1.3l10-10C464,40.2,464.6,40,465.1,40 M465.1,38.2c-1,0-2.1,0.4-2.8,1.2l-10,10l-10-10
	c-0.8-0.8-1.8-1.2-2.8-1.2s-2.1,0.4-2.8,1.2l-2.2,2.2c-1.6,1.6-1.6,4.1,0,5.7l8.2,8.2c1.4,1.4,1.4,3.8,0,5.2l-8.1,8.1
	c-1.6,1.6-1.6,4.1,0,5.7l2.2,2.2c0.8,0.8,1.8,1.2,2.8,1.2c1,0,2.1-0.4,2.8-1.2l10-10l10,10c0.8,0.8,1.8,1.2,2.8,1.2
	c1,0,2.1-0.4,2.8-1.2l2.2-2.2c1.6-1.6,1.6-4.1,0-5.7l-8.2-8.2c-1.4-1.4-1.4-3.8,0-5.2l8.1-8.1c1.6-1.6,1.6-4.1,0-5.7l-2.2-2.2
	C467.2,38.6,466.2,38.2,465.1,38.2L465.1,38.2z"/>
</svg>
