<?xml version="1.0" encoding="utf-8"?>
<!-- Generator: Adobe Illustrator 20.1.0, SVG Export Plug-In . SVG Version: 6.00 Build 0)  -->
<svg version="1.1" id="Layer_1" xmlns="http://www.w3.org/2000/svg" xmlns:xlink="http://www.w3.org/1999/xlink" x="0px" y="0px"
	 viewBox="0 0 455.5 85" style="enable-background:new 0 0 455.5 85;" xml:space="preserve">
<style type="text/css">
	.st0{opacity:0.5;fill:none;stroke:url(#SVGID_1_);stroke-miterlimit:10;}
	.st1{fill:#767776;}
	.st2{fill:none;stroke:url(#SVGID_2_);stroke-miterlimit:10;}
	.st3{fill:none;stroke:url(#SVGID_3_);stroke-miterlimit:10;}
	.st4{fill:none;stroke:url(#SVGID_4_);stroke-miterlimit:10;}
	.st5{fill:none;stroke:url(#SVGID_5_);stroke-miterlimit:10;}
	.st6{fill:none;stroke:url(#SVGID_6_);stroke-miterlimit:10;}
	.st7{fill:none;stroke:url(#SVGID_7_);stroke-miterlimit:10;}
	.st8{fill:none;stroke:url(#SVGID_8_);stroke-miterlimit:10;}
	.st9{fill:none;stroke:url(#SVGID_9_);stroke-miterlimit:10;}
	.st10{fill:none;stroke:url(#SVGID_10_);stroke-miterlimit:10;}
	.st11{fill:none;stroke:url(#SVGID_11_);stroke-miterlimit:10;}
</style>
<linearGradient id="SVGID_1_" gradientUnits="userSpaceOnUse" x1="228.2327" y1="79.1088" x2="228.2327" y2="5.8912">
	<stop  offset="0" style="stop-color:#C8C8C8"/>
	<stop  offset="1" style="stop-color:#242424"/>
</linearGradient>
<path class="st0" d="M448.3,46.4C448.3,46.4,448.3,46.4,448.3,46.4c-0.1-0.6-0.2-1.2-0.3-1.8c0,0,0,0,0,0c-0.4-1.4-0.8-2.5-1.3-3.5
	c-0.5-1.1-1-2.1-1.7-3.1c0.1-0.3,0.1-0.7,0.1-1c0.1-1.3,0.1-2.5,0.1-3.5c0.2-2.5,0.4-4.3,0.5-5.6c0,0,0-0.1,0-0.1
	c0.1-1.7,0.2-3.2,0.3-4.2c0.1-1.1,0.1-2.8-0.3-4.6c-0.7-3.3-2.6-5.9-5.3-7.6c0,0,0,0,0,0c-2-1.2-4.3-1.9-6.6-1.9
	c-0.7,0-1.4,0.1-2,0.2c-1.1,0.2-2.1,0.5-3,0.9c-0.4,0.2-0.9,0.4-1.3,0.6c-1.1-0.2-2.2-0.3-3.3-0.3c-3.3,0-6.4,0.7-9.3,2.2
	c-1.7-0.7-3.7-1.1-5.7-1.1h-1.5c-0.2,0-0.5,0-0.7,0c0,0,0,0,0,0c-0.2,0-0.5,0-0.7,0c-0.1,0-0.2,0-0.2,0c-2.3,0-4.1,0.1-5.4,0.2
	c-5.8,0-7.5,0.2-9,0.6c-0.3,0.1-0.5,0.2-0.8,0.2c-0.9-0.2-1.7-0.3-2.7-0.3c-1.3,0-2.6,0.2-4.2,0.6c-0.5,0.1-0.8,0.2-1,0.2
	c-2.5,0.5-4.5,0.8-6,1.1c-1.7-1.4-4.4-2.7-8.2-2.7c-3.8,0-7.2,1.6-9.5,4.3c-0.6,0-1.1,0-1.7,0c-1.7,0-3.3,0.2-4.9,0.5c0,0,0,0,0,0
	c-1.1,0.2-2.4,0.7-3.7,1.4c-0.8-1.1-1.7-2-2.6-2.8c-5.1-4.3-11.3-6.6-18.1-6.6c-0.1,0-0.2,0-0.3,0c-4.6,0-8.9,2.2-12.9,6.4
	c-2.1,2.1-3.9,4.6-5.3,7.3c-0.9,1.6-1.7,3.3-2.4,5.2c0.2-1,0.4-2,0.4-3c0-3.2-1.2-6.3-3.3-8.5c0,0,0,0,0,0c-1.6-1.7-4.6-3.8-9.4-3.8
	c0,0-0.1,0-0.1,0c-4.2,0.1-6.1,0.2-7.2,0.3c-1.4-0.2-2.4-0.3-3.4-0.3c-4.3,0-7.5,1.2-9.8,3.1c-0.2-0.1-0.4-0.1-0.6-0.2
	c0,0-0.1,0-0.1,0c-1.5-0.3-3.6-0.6-7-0.9c-0.5,0-1.1-0.1-1.8-0.1c-1.8,0-5,0.1-10.1,0.4c-0.5,0-1.1,0.1-1.6,0.2
	c-0.4,0.1-0.7,0.1-0.9,0.2c0,0,0,0,0,0c0,0-0.2,0-0.6,0.1c-0.1,0-0.3,0-0.4,0c-1.9,0-3.7,0.3-5.3,0.9c-2.6,0.9-4.8,2.6-6.2,4.9
	c0.1-0.5,0.1-1,0.1-1.6c0-1.8-0.4-3.6-1.2-5.3c-2.1-4.7-6.6-7.5-12.2-7.5c-0.7,0-1.5,0-2.5,0.2c-0.2,0-0.3,0-0.4,0h-2.7
	c-0.7-0.1-1.3-0.1-1.6-0.1c-0.7,0-1.5,0-2.7,0c-3.8,0-7.2,1.3-10,3.6c-0.4,0-1,0.1-1.9,0.1c-0.1,0-0.3,0-0.4,0c0,0-0.1,0-0.1,0
	c-0.3,0-0.9,0-2.2-0.1c0,0,0,0-0.1,0c-1.9-0.2-2.6-0.2-2.8-0.2c-0.4,0-0.7-0.1-1.1-0.1c-2.9,0-5.6,0.8-7.9,2.2
	c-3.7,0.1-7,1.6-9.2,4.3c-0.6,0-1.1,0-1.7,0c-1.1,0-2.2,0.1-3.3,0.2c-0.3-0.3-0.6-0.6-0.9-0.8c-2.4-2.1-5.5-3.2-8.8-3.2
	c-0.4,0-0.9,0-1.4,0.1c-0.5,0-1.1,0.1-1.6,0.3v0c-0.4,0.1-0.8,0.2-1.1,0.3c-3.1,0.4-6.2,0.7-9.4,0.8c0,0,0,0,0,0
	c-1.2,0.1-2.5,0.1-3.8,0.1c-1.3,0-2.7,0-4.1-0.1c-0.2,0-0.4,0-0.7,0h-8.1c-0.5,0-1.1,0-1.6,0.1c0,0,0,0,0,0
	c-1.7,0.3-3.3,0.8-4.7,1.6c-1.8-1.5-4.1-2.5-6.5-2.8c0,0,0,0,0,0c-0.4-0.1-0.9-0.1-1.3-0.1c-0.4,0-0.4,0-2.6,0.2
	c-3,0.2-5.7,0.5-7.9,0.9c0,0-0.1,0-0.1,0c-1.3,0.3-1.9,0.4-2.1,0.4c-2,0.3-3.8,1.1-5.4,2.3c-0.5-0.4-1.1-0.9-1.7-1.3
	c-0.1,0-0.1-0.1-0.2-0.1c-3-1.9-7-3-12.7-3.4c-0.2,0-0.4,0-0.6,0c-2-0.1-3-0.1-3.5-0.1c-0.4-0.1-0.9-0.1-1.3-0.1
	c-0.5,0-0.9,0-1.4,0.1c0,0,0,0,0,0c-4.8,0.6-8,1.1-9.8,1.5c-0.4,0.1-0.9,0.1-1.3,0.2c-1.5-0.7-3.5-1.3-5.9-1.3
	c-3.8,0-7.2,1.6-9.5,4.3c-0.6,0-1.1,0-1.7,0c-1.7,0-3.3,0.2-4.9,0.5c0,0,0,0,0,0c-0.1,0-0.1,0-0.2,0c-1-2.3-2.6-4.2-4.6-5.5
	c0,0,0,0,0,0c-2-1.2-4.3-1.9-6.6-1.9c0,0,0,0,0,0c-0.7,0-1.4,0.1-2,0.2c-1.1,0.2-2.1,0.5-3,0.9c-0.4,0.2-0.9,0.4-1.3,0.6
	c-1.1-0.2-2.2-0.3-3.3-0.3c-3.3,0-6.4,0.7-9.3,2.2c-1.9,1-4.6,3-6.4,6.9c-0.3,0.7-0.5,1.3-1.2,3.5c-1.6,5-1.9,7.1-1.9,8.8v3.7
	c0,1.3,0.2,2.6,0.5,3.9c-1.2,1.7-2,3.6-2.3,5.7C8,45.8,8,46.3,8,46.8c0,0.9,0.1,1.7,0.3,2.5c0,0.4,0,0.8,0,1.1
	c-0.1,0.7-0.2,1.3-0.2,2v3.5c0,0.7,0.1,1.3,0.2,1.9c0,0.1,0,0.3,0,0.6c-0.1,1-0.1,1.7-0.1,2.2c0,4.1,1.2,7.4,3.6,9.8
	c2.2,2.3,5.2,3.6,8.5,3.6c2.7,0,5.4-0.9,8.2-2.7c0.8-0.5,1.6-1.2,2.2-1.9c0.1,0,0.3,0,0.4,0c5-0.6,9.1-1.8,12.4-3.7
	c0.3-0.1,0.5-0.3,0.8-0.5c0.8,0.5,1.7,1,2.6,1.5c3.2,1.5,6.8,2.3,10.7,2.3c2.5,0,4.9-0.4,7.2-1.1c0.1,0,0.2-0.1,0.4-0.1
	c0.5-0.2,0.9-0.3,1.3-0.5c1.8,1.7,5,3.7,10,3.7c1.6,0,3.6-0.2,6.3-0.8c2.4-0.4,4.3-0.8,5.6-1c0.8-0.2,1.6-0.4,2.4-0.7
	c2.9,2.7,6.5,4.2,10.3,4.2c0.4,0,0.9,0,1.3-0.1c0,0,0,0,0,0c3.5-0.3,6.4-1.3,8.7-2.8c1-0.7,2-1.5,2.8-2.4c0.9,0.1,1.3,0.2,1.5,0.2
	c0.6,0.1,1.2,0.1,1.7,0.1c0.9,0,1.8-0.1,2.7-0.3c0.5,0.6,1,1.1,1.6,1.5c2.3,1.9,4.9,2.9,7.8,2.9c0.1,0,0.3,0,0.4,0
	c2.6-0.1,4.8-0.6,6.7-1.6c2.5,2.2,6,3.3,10.3,3.3c0.4,0,0.7,0,1.1,0c0.1,0,0.1,0,0.2,0c2.6-0.1,4.5-0.3,5.9-0.4c0.4,0,0.7,0,1,0
	c0.3,0,0.4,0,0.5,0c0.8,0.1,1.5,0.1,2.1,0.1c2,0,3.7-0.3,5.3-0.9c0,0,0.1,0,0.1,0c0.1,0,0.2-0.1,0.3-0.1c3.1-1.3,5.4-3.7,6.6-6.5
	c0.6,0.4,1.2,0.7,1.9,1c3.2,1.5,6.8,2.3,10.7,2.3c2,0,4-0.2,5.8-0.7c0.8,0.7,1.6,1.4,2.6,1.9c2,1.2,4.2,1.8,6.5,2c0,0,0,0,0,0
	c0.2,0,0.4,0,0.6,0h3.7c0.8,0.1,1.5,0.1,2.1,0.2c0.7,1.1,1.5,2.1,2.5,3c2.4,2.1,5.3,3.2,8.4,3.2c2.1,0,4.3-0.5,7-1.6
	c0.6-0.2,1-0.4,1.2-0.5c0.1,0,0.3,0,0.4,0c0.5,0,1.1,0,1.9-0.1h1.2c5.4,0,8.6-2.3,10.4-4.2c0,0,0,0,0,0c2.5-2.7,3.7-6.1,3.5-9.5
	c-0.3-4.2-2.6-7.7-6-9.7c0-0.1,0-0.2,0-0.3c0-0.1,0-0.1,0-0.2c0-0.1,0-0.2,0-0.3V35.7c0-2,0-4.1-0.1-6.3c1.2-0.7,2.1-1.5,2.8-2.2
	c0.5-0.5,0.9-1.1,1.3-1.6c-0.2,1.3-0.1,2.3,0,2.9c0.2,2.6,1.4,5.1,3.4,6.9c1.1,1,2.2,1.8,3.4,2.4c-0.2,1.4,0,2.7,0.3,4
	c0,0.4,0.1,0.9,0.1,1.4c0,0,0,0.1,0,0.1c0.2,2.8,0.4,5.2,0.5,7.3c-2.7,3-3.7,7-2.6,11c0.1,0.3,0.2,0.6,0.3,1
	c0.9,2.3,2.3,4.2,4.3,5.7c1.2,0.8,2.5,1.5,4.1,2c0,0,0,0,0.1,0c1,0.3,2,0.4,3.1,0.4c2.1,0,4.1-0.6,6.3-1.4c0.4-0.2,1.7-0.6,4.5-1.2
	c0,0,0,0,0,0c3-0.7,5-1.3,6.5-1.9c0,0,0,0,0,0c0.8-0.3,1.6-0.7,2.4-1c2.6,2.5,6.1,3.9,9.9,3.9c1,0,1.8-0.1,4.4-0.6
	c4.1-0.4,6.1-0.6,7-0.7c0.1,0,0.1,0,0.2,0c8.7-0.7,10.7-0.8,11.2-0.9c1,0,2-0.1,3.1-0.2c0.9-0.1,1.8-0.2,2.6-0.4
	c1.8,1.7,3.8,2.9,5.5,3.8c0.3,0.2,0.7,0.3,1,0.4c4.9,1.8,9.3,2.7,13.2,2.7c0.1,0,0.2,0,0.2,0c0.2,0,0.4,0,0.6,0
	c3.4,0,6.7-1.1,10.3-3.3c1.8-1.1,3.3-2.3,4.6-3.6c0.3,0.2,0.7,0.4,1.1,0.5c3.2,1.5,6.8,2.3,10.7,2.3c2.5,0,4.9-0.4,7.2-1.1
	c0.1,0,0.3-0.1,0.4-0.1c0.7-0.2,1.3-0.5,1.9-0.7c2.3,1.3,4.9,1.9,7.5,1.9c1.2,0,2.4-0.1,3.9-0.4c0.1,0,0.1,0,0.2,0
	c1.2,0,2.4-0.2,4.2-0.6c0.1,0,0.2-0.1,0.3-0.1c0.2,0,0.4,0,0.5,0c1,0,2-0.1,3-0.2c2.6,2.1,5.1,2.7,7,2.8c0.3,0,0.6,0,0.9,0
	c1.3,0,2.7-0.2,4.2-0.5c0.2,0,0.3-0.1,0.4-0.1c0,0,0,0,0,0c1.3-0.3,2.6-0.7,4-1c0.4,0.5,0.8,1,1.2,1.5c2.2,2.3,5.2,3.6,8.5,3.6
	c2.7,0,5.4-0.9,8.2-2.7c0.8-0.5,1.6-1.2,2.2-1.9c0.1,0,0.3,0,0.4,0c5-0.6,9.1-1.8,12.4-3.7c4.2-2.3,7.2-5.7,8.7-9.8
	C448.5,53.6,448.7,50.9,448.3,46.4z"/>
<g>
	<path class="st1" d="M43.6,46.9c-0.2-0.9-0.5-1.5-0.7-2c-1.6-4.1-5.6-6.4-11.8-6.8c-2.8-0.2-3.8-0.6-4.1-0.8
		c-0.5-0.4-0.9-0.9-1-1.6c-0.1-0.7-0.3-1.4-0.4-2.2c0-0.2,0.1-0.4,0.1-0.6c0.1-1.3,0.4-2.8,0.9-4.3c0,0,0,0,0-0.1
		c0.3-1,0.5-1.8,0.7-2.3c0.1-0.4,0.5-1,2-0.9c0.3,0,1.3,0.1,2.2,2.2c0.8,1.8,1.5,3.2,1.9,4.1c0.5,1.7,0.7,3.1,0.6,4c0,0,0,0.1,0,0.1
		c0,0.3,0.1,0.5,0.2,0.7c0,0.1,0.1,0.3,0.2,0.7c0.1,0.3,0.3,0.6,0.6,0.7c0.7,0.4,1.5,0.6,2.3,0.6c2.4,0,3-1.5,3.2-2.2
		c0-0.1,0-0.2,0-0.2c0.1-1.2,0.1-2.2,0-2.9c0.3-2.8,0.4-4.9,0.6-6.4c0.1-1.7,0.2-3,0.3-4c0.1-1.3,0-3.1-1.2-3.9
		c-0.8-0.5-1.5-0.6-2.3-0.5c-0.4,0.1-0.7,0.1-1,0.3c-1.1,0.4-1.7,1.3-1.7,2.4c0,0,0,0.1,0,0.1c0,0.3,0.1,0.6,0.1,0.9
		c-1.7-1.6-3.8-2.4-6.5-2.4c-1.8,0-3.6,0.4-5.2,1.2c-0.9,0.4-1.6,1.3-2.1,2.4c-0.1,0.1-0.2,0.4-0.8,2.4c-1.3,4.2-1.5,5.5-1.5,6.1
		v3.7c0,2.2,1.1,4.2,3.2,5.8c2,1.5,4.2,2.3,6.5,2.3c0.1,0,0.5,0,2.2,0.2c2.8,0.4,3.8,0.9,4.2,1.1c1.5,1,2.3,2.6,2.3,4.7
		c0,0.7-0.1,1.3-0.3,1.9c-0.1,0.3-0.7,1.1-3.1,2c-1.4,0.5-2.9,0.9-4.3,1c-1.1,0.1-2.3-1-3.2-2c-1.2-1.3-1.9-2.7-2.1-3.9
		c-0.2-1.2-0.2-2.2-0.2-2.8c0-0.1,0-0.3-0.1-0.4c-0.2-0.6-0.8-2-3.1-2c-3.2,0-3.8,2-3.9,2.9c0,0.1,0,0.1,0,0.2
		c0,0.3,0.1,0.6,0.4,1.2c0,0.1,0,0.4-0.1,0.9c0,0,0,0,0,0.1c-0.1,1.1-0.1,2-0.1,2.6c0,0,0,0,0,0c-0.1,0.3-0.2,0.5-0.2,0.8v3.5
		c0,0.2,0,0.4,0.1,0.5c0,0,0.1,0.2,0.1,1c0,0.3,0,0.7-0.1,1.5c0,0.8-0.1,1.3-0.1,1.7c0,3.7,1.7,4.2,2.8,4.2c0.9,0,2-0.4,3.3-1.2
		c0.3-0.2,0.5-0.5,0.6-0.9c0.2-1,0.2-2.3,0.1-3.8c0-0.1,0-0.2,0-0.2c1.9,1.3,3.8,1.8,5.8,1.6c7.6-1,12.1-3.5,13.6-7.5
		c0.3-0.7,0.5-1.9,0.2-5.7C43.6,47.1,43.6,47,43.6,46.9z"/>
	<path class="st1" d="M71.1,41.5c0-0.5-0.2-1.3-1.2-2c-0.7-0.4-1.2-0.6-1.8-0.6c0,0-0.1,0-0.1,0c-0.7,0.1-2.9,0.3-3.4,2
		c-0.2,0.8-0.3,1.5-0.1,2.1c0.3,1.5,0.3,3.5-0.1,5.8c-0.7,4-3.1,5.8-7.6,5.6c-0.8,0-1.7-0.3-2.6-0.7c-0.9-0.4-1.5-1-1.8-1.6
		c-0.6-1.1-1-2.4-1.2-4c0-0.5-0.1-1.9-0.2-3.9c-0.1-4.5,0.4-8.3,1.5-11.1c0.6-1.6,1.4-2.4,2.2-2.4c0.9,0,2.1,0.3,3.6,0.8
		c1.4,0.5,2.5,1.1,3.4,1.8c0.7,1,1,1.6,1.1,1.9c0.1,0.3,0.3,0.6,0.7,0.7c0.3,0.1,0.6,0.2,0.9,0.3c1.2,0.6,2.7,0.1,3.2-0.1
		c0.6-0.2,1.4-0.7,1.7-1.9c0.1-0.1,0.1-0.3,0.1-0.5V23.6c0-0.1,0-0.1,0-0.2c-0.1-0.7-0.7-2.3-3.4-2.3c-1.5,0-2.3,0.7-2.6,1.3
		c-0.4,0.7-0.5,1.6-0.5,2.9c0,1.2,0,1.7,0,1.9c-2.5-1.2-5.2-1.8-8.1-1.8c-1.1,0-2.1,0.1-3,0.3c-2.3,0.5-4.2,2.9-5.9,7.3
		c-0.1,0.2-0.2,0.5-0.7,3.6c-0.4,2.7-0.5,3.6-0.5,4v6.3c0,0.1,0,0.2,0,0.2c0.5,2.5,0.8,4.4,1,5.7c0,0.1,0.1,0.3,0.1,0.4
		c0.2,0.4,0.4,0.6,0.5,0.9c0.6,1.8,2.1,3.2,4.3,4.2c2,0.9,4.3,1.4,6.8,1.4c1.6,0,3.1-0.2,4.4-0.6c0,0,0,0,0,0c3-1.1,4.8-2,5.7-3
		c1.8-1.9,2.9-4.8,3.2-8.8C71.1,45.3,71.2,43.3,71.1,41.5z"/>
	<path class="st1" d="M143.5,55.7C143.6,55.7,143.6,55.6,143.5,55.7c0.4-0.5,0.6-1.2,0.5-2.1c0,0,0-0.1,0-0.1
		c-0.1-0.8-0.3-1.3-0.7-1.7c0,0-0.1-0.1-0.1-0.1c-0.7-0.6-1.5-0.9-2.3-0.9c-0.8,0-1.8,0.4-3.2,1.1c-0.6,0.3-1,0.5-1.4,0.7
		c-1.4-3.6-2.5-6.4-3.2-8.2c0,0,0,0,0,0c-2.1-5-3.6-8.7-4.6-11c0,0,0,0,0,0c-0.4-1-0.8-1.7-0.9-2.2c0,0,0-0.1,0-0.1
		c-0.3-0.8-0.6-1.3-0.7-1.7c-0.1-0.1-0.2-0.6-0.8-2.7c-0.4-1.4-0.8-2.4-1.2-3.1c-0.6-0.9-1.4-1.5-2.5-1.6c-0.1,0-0.1,0-0.2,0
		c-0.1,0-0.1,0-2,0.1c-2.6,0.2-4.9,0.4-6.8,0.8c-1.1,0.2-1.8,0.4-2.3,0.4c-0.8,0.1-1.5,0.5-2.1,1.1c-0.8,0.8-1,1.7-0.7,2.7
		c0.1,0.2,0.2,0.4,0.4,0.6c0.8,0.7,1.5,1,2.1,1c0.9,0,2.2-0.2,3.9-0.8c1.6-0.5,2.5-0.6,3-0.6c-1.3,7.4-2.7,13.6-3.9,18.5
		c0,0,0,0.1,0,0.1c-0.5,2.5-0.8,4.7-1.1,6.3c-2.7-0.2-3.4-0.3-3.6-0.3c0,0-0.1,0-0.1,0c-1.1-0.2-2-0.2-2.8-0.1
		c-1.5,0.2-2.4,1.2-2.6,2.5c0,0,0,0-0.1,0.1c-0.1,0.1-0.2,0.2-0.3,0.4c-0.5,0.9-0.7,1.7-0.7,2.4c-0.1,0.5-0.4,0.6-0.9,0.6
		c-0.1,0-0.3-0.2-0.6-0.5c-0.4-0.4-0.5-0.6-0.6-0.6c0,0,0,0,0,0c-0.2-0.8-0.6-2.9-1.3-8.6c-0.4-3.6-1.2-6.4-2.4-8.4
		c-0.3-0.4-0.6-0.8-1.1-1.3c2.3-1.3,3.9-2.8,4.9-4.5c0.4-0.7,0.6-1.6,0.7-3c0.1-1.3,0-2.2-0.2-3c-0.6-2-1.9-3.7-3.8-4.9
		c-1.7-1.1-4.5-1.7-8.5-2.1c0,0,0,0-0.1,0c-2.9-0.1-3.9-0.1-4.2-0.1c-0.2,0-0.3-0.1-0.5,0c-4.7,0.6-7.9,1.1-9.5,1.4
		c-3.1,0.4-3.6,2.1-3.7,3.1c-0.1,0.7,0.2,1.4,0.6,1.9c0.7,0.8,2,1.2,4,1.2c0.1,0,0.2,0,1.2-0.2c0.1,2.3,0.3,5.2,0.7,8.6
		c0,0.2,0,0.4,0.1,0.6c-0.8,0.2-1.5,0.8-2.1,1.7c-0.1,0.2-0.2,0.4-0.2,0.6c0,0,0,0.1,0,0.1c-0.1,0.2-0.2,0.4-0.2,0.7v0.2
		c0,0.1,0,0.2,0.1,0.4c0.3,1,1,1.8,2.1,2.1c0.1,0,0.3,0.1,0.6,0.1c0,0.6,0.1,1.4,0.1,2.2c0.4,5.3,0.6,8.6,0.7,10
		c-1,0.1-1.9,0.2-2.9,0.3c0,0-0.1,0-0.1,0c-2.3,0.4-3.4,1.9-3.2,4c0,0.3,0.1,0.5,0.3,0.7c0.8,1,2.2,1.5,4,1.5c1,0,2.5-0.2,4.6-0.6
		c2.4-0.4,4.3-0.8,5.6-1c1.9-0.4,3-1.6,3-3.4c0-1.4-0.7-2.4-1.9-2.8c0,0,0,0-0.1,0c-1-0.3-2-0.2-3.1,0.1c-0.1-2.2-0.2-3.7-0.3-4.3
		c0-0.3,0-0.9-0.1-1.6C84,47.2,84,47.1,84,47.1v-5.2c1.3-0.4,2.2-0.6,2.7-0.7c0,0,0,0,0,0c1,0.4,2,0.8,2.9,1.1
		c1,0.5,1.7,1.1,1.9,1.7c0.4,1.1,0.6,1.7,0.6,2c0,0.1,0,0.1,0.1,0.2c0.7,1.9,1.3,5.2,1.7,9.8c0.2,1.9,1,3.7,2.4,5.3
		c1.4,1.5,2.9,2.3,4.6,2.3c0.2,0,0.3,0,0.5,0c2-0.2,3.4-0.6,4.5-1.3c1-0.7,1.9-1.7,2.8-3.2c0.2-0.4,0.4-0.8,0.6-1.2
		c4.3,0.4,5.2,0.4,5.3,0.5c0.6,0.1,1.9,0.3,2.2,0.3c0.1,0,0.2,0,0.3,0c1,0,1.9-0.4,2.6-1.1c0.9-0.9,1.1-1.8,1.1-2.4
		c0-0.5-0.2-1-0.5-1.4c-0.2-0.3-0.6-0.6-1.1-0.8c0-0.3,0.1-0.5,0.1-0.7c4.1-1.3,7.2-2,9.4-2.1c1,3.3,1.4,4.8,1.6,5.6
		c-0.6,0.4-1.1,0.7-1.7,1.1c0,0,0,0-0.1,0c-1.6,1.1-2.3,2.1-2.3,3.1c0,0.5,0.2,1.3,1,2c0.6,0.5,1.2,0.7,1.9,0.7c0,0,0,0,0,0
		c1.5-0.1,2.5-0.3,3.2-0.8c0,0,0,0,0,0c2.4-1.9,5.3-3.6,8.7-4.9C142.3,56.6,143.1,56.2,143.5,55.7z M126.5,44.8
		c-1.6,0.3-3.6,0.7-5.9,1.1l2-10.2c0.9,1.9,1.5,3.2,1.8,3.9C125.2,41.8,125.9,43.5,126.5,44.8z M83.8,36.2c0-0.6-0.1-1.5-0.2-2.8
		c-0.1-1.7-0.1-3.1-0.1-4.2c0,0,0-0.1,0-0.1c0-0.5,0-1,0-1.5c0.1-0.3,0.1-0.6,0.1-0.9c0.2-0.1,0.3-0.1,0.3-0.1
		c6-0.1,8.4,0.5,9.3,1.1c0.7,0.4,1.7,1.3,1.7,3.6c0,0.5-0.1,0.8-0.2,0.9c0,0,0,0,0,0C92.8,34,91,34.9,89,34.9
		c-1.8,0-2.3,0.1-2.7,0.2c-0.1,0-0.3,0.1-0.4,0.2c-0.3,0.2-0.6,0.4-0.8,0.6C84.6,36,84.1,36.1,83.8,36.2z"/>
	<path class="st1" d="M169.6,32.6c-0.1-0.5-0.2-1.2-0.1-2c0.2-2,0.5-3.6,0.7-4.7c0,0,0,0,0-0.1c0.3-1.3-0.1-2.5-1.1-3.3
		c-0.9-0.7-2-1.1-3.3-1c-0.1,0-0.1,0-0.2,0c-0.5,0.1-0.9,0.2-1.2,0.4c-3.7,0.5-7.4,0.8-11.1,1c-2.6,0.1-5.6,0.1-8.9,0
		c0,0-0.1,0-0.2,0h-8.1c-0.1,0-0.1,0-0.2,0c-1.1,0.2-2,0.6-2.6,1.3c-0.6,0.7-1,1.4-1,2c0,0.5,0.1,1.2,0.5,2.1
		c0.3,0.9,0.4,1.2,0.4,1.3c0,0,0,0.1,0,0.1l1.1,6.1c0,0,0,0,0,0c0.5,2.5,0.7,3.2,0.8,3.5c0.1,0.4,0.6,1.5,2.2,1.5
		c2.5,0,2.9-1.6,2.9-2.2c0.1-1.3,0.1-1.7,0.1-1.8c0,0,0-0.1,0-0.1c-0.1-1.7-0.4-4.3-0.8-7.5c1.6-0.1,2.2-0.1,2.4-0.1
		c2.7,0.1,4.8,0.2,6.3,0.2c-0.3,4.4-0.3,9.5-0.2,15.2c0.1,4.2,0.1,7.5,0,9.6c0,0,0,0.1,0,0.1v3.7c-0.2,0-0.4,0-0.7,0
		c-3,0-4.9,0.7-5.8,2c-0.6,1-0.6,2.1,0,3c0,0,0,0,0,0c0.7,1,2.2,1.5,4.6,1.5c0.2,0,0.5,0,0.7,0c2.7-0.2,4.6-0.3,5.8-0.4
		c1.2,0,2.2,0,2.8,0c1.6,0.1,2.8,0.1,3.5-0.2c0,0,0,0,0,0c1.4-0.6,2.1-1.7,2.1-3.2c0-1-0.4-1.8-1.1-2.5c-0.5-0.5-1.4-1-2.7-0.9h-2.9
		c0-0.1,0-0.1,0-0.2v-4.7c0-10.9-0.1-13.5-0.3-14.4c0-2.5,0.1-4.4,0.2-5.6c0-0.1,0-0.1,0-0.2c0-0.2,0-0.6-0.3-2.5c0-0.3,0-0.5,0-0.7
		c2.8-0.3,5.7-0.5,8.8-0.6c0,0.6-0.1,1.3-0.1,1.6c-0.1,1.5-0.1,3.2-0.1,5c0,0.2,0.1,0.4,0.2,0.6c0.4,0.7,1.2,1.5,3,1.5
		c1.1,0,2.1-0.3,2.8-1c0,0,0,0,0,0C170.3,34.9,169.8,33.2,169.6,32.6z"/>
	<path class="st1" d="M227.3,60.5c-0.1,0-0.2,0-0.3,0c-0.2,0-0.8,0.1-1.8,0.3c0-0.9,0-2,0-3.3c0-1.1-0.1-2.3-0.2-3.5
		c-0.1-0.9-0.2-1.2-0.2-1.3v-17c0-4.3-0.2-8.8-0.6-13.4l2.5-0.1c0,0,0.1,0,0.1,0c3.3-0.3,3.8-2,3.8-3c0-0.5-0.1-1-0.4-1.5
		c-0.4-1-1.4-2.1-3.8-2.1c-0.4,0-0.9,0-1.6,0.1c-0.8,0.1-1,0.1-1.1,0.1h-3.9c-0.4-0.1-0.8-0.1-1.1-0.2c-0.5,0-1.2,0-2.2,0
		c-1.6,0-2.9,0.5-4,1.4c-0.6,0.5-0.9,1.2-0.9,2c0,0.3,0,0.5,0.1,0.7c-0.8-0.5-1.8-0.7-3.2-0.7c0,0,0,0,0,0c0,0,0,0,0,0c0,0,0,0,0,0
		c0,0,0,0,0,0c0,0,0,0,0,0c0,0,0,0,0,0c0,0,0,0,0,0c-0.1,0-0.1,0-0.2,0c-0.3,0-1,0.1-3,0.2c0,0,0,0-0.1,0c-0.8,0.1-2.1,0-3.9-0.1
		c-1.9-0.2-2.8-0.2-2.9-0.2c-0.1,0-0.1,0-0.2,0c-2.8,0-4.1,1.5-4.7,2.7c-0.1,0.2-0.1,0.3-0.1,0.5c-0.5-0.5-1.3-1-2.8-1
		c-1.5,0-2.3,0.7-2.6,1.3c-0.4,0.7-0.5,1.6-0.5,2.9c0,1.2,0,1.7,0,1.9c-2.5-1.2-5.2-1.8-8.1-1.8c-1.1,0-2.1,0.1-3,0.3
		c-2.3,0.5-4.2,2.9-5.9,7.3c-0.1,0.2-0.2,0.5-0.7,3.6c-0.4,2.7-0.5,3.6-0.5,4v6.3c0,0.1,0,0.2,0,0.2c0.5,2.5,0.8,4.4,1,5.7
		c0,0.1,0.1,0.3,0.1,0.4c0.2,0.4,0.4,0.6,0.6,0.9c0.6,1.7,2.1,3.2,4.3,4.2c2,0.9,4.3,1.4,6.8,1.4c1.6,0,3.1-0.2,4.4-0.6c0,0,0,0,0,0
		c3-1.1,4.8-2,5.7-3c1.8-1.9,2.9-4.8,3.2-8.8c0.2-2.1,0.3-4.1,0.3-6c0-0.5-0.2-1.3-1.2-2c-0.7-0.4-1.2-0.6-1.8-0.6c0,0-0.1,0-0.1,0
		c-0.7,0.1-2.9,0.3-3.4,2c-0.2,0.8-0.3,1.5-0.2,2c0.3,1.5,0.3,3.5-0.1,5.8c-0.7,4-3.1,5.8-7.6,5.6c-0.8,0-1.7-0.3-2.6-0.7
		c-0.9-0.4-1.5-1-1.8-1.6c-0.6-1.1-1-2.4-1.2-4c0-0.5-0.1-1.8-0.2-3.9c-0.1-4.5,0.4-8.3,1.5-11.1c0.6-1.6,1.4-2.4,2.2-2.4
		c0.9,0,2.1,0.3,3.6,0.8c1.4,0.5,2.5,1.1,3.4,1.8c0.7,1,1,1.6,1.1,1.9c0.1,0.3,0.3,0.6,0.7,0.7c0.3,0.1,0.6,0.2,0.9,0.3
		c1.2,0.6,2.7,0.1,3.2-0.1c0.6-0.2,1.4-0.7,1.7-1.9c0.1-0.1,0.1-0.3,0.1-0.5v-9.7c0.7,1.1,2,2.1,4.8,2.1c0.4,0,0.9,0,1.5-0.1v5.1
		c0,0,0,0.1,0,0.1c0.3,2.9,0.3,3.9,0.3,4.3c0,0.2,0,0.5-0.1,1.2c-0.1,0.7-0.1,1.1-0.1,1.4c0,0,0,0.1,0,0.1c0.1,1.6-0.1,2.3-0.2,2.6
		c0,0,0,0.1,0,0.1c-0.2,0.5-0.2,1.1,0,1.6c0,0.1,0.1,0.2,0.1,0.3c0.1,0.2,0.2,0.4,0.3,0.5c0,0.1,0,0.1-0.1,0.2
		c-0.1,0.5-0.2,0.9-0.2,1.1v5.3c-0.1,2.6-0.1,4.7,0,6.3c-0.1,0-0.2,0-0.3,0c-0.8,0-1.3,0-1.6,0c-1,0-1.9,0.2-2.7,0.6c0,0,0,0-0.1,0
		c-1.6,0.8-1.9,2-1.9,2.8c0,0.7,0.3,1.6,1.6,2.4c0.8,0.5,1.7,0.7,2.6,0.8c0,0,0.1,0,0.1,0h4.1c3.7,0.3,6,0.5,7,0.6
		c0.5,0,1-0.1,1.9-0.5c0,0,0,0,0.1,0c0.6-0.3,1.1-0.8,1.5-1.5c0.3-0.5,0.7-1.4,0.4-2.2c-0.3-0.9-1.2-2.3-3.8-2.4
		c-1.3-0.1-2-0.1-2.5-0.1c0-0.2,0-0.5,0-1c0-1.8,0-2.4-0.1-2.6v-8c1.6-0.4,2.9-0.6,3.8-0.9c2.7-0.5,5.1-0.8,7.2-0.9
		c0.5,0,0.8,0,1.1,0c0,0.1,0,0.2,0,0.4c0,0,0,0.1,0,0.1v4.6c0,0,0,0.1,0,0.1c0,0.3,0.1,1.9,0.2,4.6c0.1,3,0.2,5.9,0.3,8.4
		c-0.7,0.2-1.8,0.5-3.6,0.9c-1,0.3-4.1,1-4.1,3.4c0,0.9,0.4,1.8,1.2,2.4c0.7,0.6,1.5,0.9,2.4,0.9c0.9,0,2-0.3,3.6-0.9
		c1.9-0.7,2.6-0.9,2.8-1c0.8-0.1,1.5-0.2,2.3-0.2c0.4,0,0.9,0,1.6-0.1h1.4c1.7,0,2.9-0.4,3.7-1.3c0.8-0.8,1.1-1.7,1-2.5
		C230.9,61.6,229.5,60.5,227.3,60.5z M213,22.8C213,22.8,213,22.8,213,22.8c0.1-0.3,0.1-0.6,0.1-0.8c0.2,0.1,0.4,0.2,0.5,0.3
		c0.9,0.4,1.9,0.6,3,0.6h1.4c0.5,3.9,0.7,7.4,0.7,10.6c0,1.4-0.1,2.6-0.2,3.6c-1.1,0.1-2.7,0.3-5.1,0.6c-2.4,0.3-4.4,0.4-6,0.4
		c-0.3,0-0.6,0-0.9,0v-8.8c0,0,0,0,0-0.1c-0.1-1.3-0.1-2.5-0.3-3.7l2.4-0.1C211.8,25.4,212.7,24,213,22.8z"/>
	<path class="st1" d="M281.5,47.1c0.1-1.6-0.1-2.6-0.5-3.3c0,0,0,0,0,0c-2-2.8-5.1-4.9-9.4-6.4c0.8-0.3,1.4-0.6,1.8-0.9
		c2.6-1.4,4.2-3.1,4.7-5.2c0,0,0,0,0-0.1c0.3-1.5,0.2-2.6-0.3-3.5c0,0,0,0,0,0c-1.2-1.8-3.2-3-6.1-3.7c-1-0.2-2.9-0.4-5.8-0.7
		c-0.6-0.1-2.4-0.1-10.8,0.3c-0.1,0-0.1,0-0.2,0c-0.4,0.1-0.7,0.1-1,0.2c-0.1,0-0.4,0.1-1.1,0.2c-0.6,0.1-0.8,0.1-0.8,0.1
		c-1-0.1-3.9-0.2-4.9,1.9c-0.2,0.4-0.2,0.8-0.1,1.5c0,0.3,0.2,0.6,0.4,0.9c1.1,1,2.3,1.5,3.6,1.5c0.4,0,0.9,0,1.5-0.1
		c0.4-0.1,0.8-0.1,1-0.1c0.5,3.5,0.6,6.5,0.2,8.9c-0.1,0.4,0,0.7,0.3,1c0,0.7,0.1,1.6,0.2,2.7c0.4,5,0.7,8.9,0.8,11.5
		c0,0.1-0.1,0.5-0.2,1.4c0,0,0,0,0,0c-1,0.2-1.5,0.4-1.7,0.6c-1.2,0.7-1.6,1.8-1.3,3c0,0,0,0.1,0,0.1c0.2,0.6,0.6,1.1,1.1,1.4
		c0.3,0.2,0.7,0.4,1.3,0.6c0.1,0,0.3,0.1,0.5,0.1c0.6,0,1.4-0.2,3.1-0.9c1.2-0.4,3.1-1,5.6-1.6c2.4-0.6,4.1-1.1,5.1-1.5
		c1.3-0.5,2.6-1.1,3.8-1.6c1.4-0.6,2.9-1.5,4.7-2.8c2.3-1.6,3.7-3.5,4.2-5.6C281.5,47.3,281.5,47.2,281.5,47.1z M261.6,53.9
		c-0.4-4.2-0.7-8.3-0.9-12.3c0.6,0,1.3,0,1.8,0c5.6,0,9.7,1.7,12.5,5.2c0,0,0,0.1-0.1,0.4c-0.9,1.8-3,3.3-6.1,4.7
		c-2.8,1.2-5.2,2-7.2,2.3V54C261.7,53.9,261.7,53.9,261.6,53.9z M260.4,33c0-1-0.2-2.3-0.4-4.1c0.6-0.1,1.2-0.1,1.7-0.1h3.4
		c2.1,0.1,3.8,0.3,5.2,0.7c1.1,0.3,1.3,0.6,1.3,0.6c0,0-0.1,0.4-0.8,1.4c-0.1,0.2-0.7,0.8-3.1,1.6c-3,1-5.5,1.7-7.4,2.2L260.4,33
		C260.4,33.1,260.4,33,260.4,33z"/>
	<path class="st1" d="M314.3,53c-0.3-0.7-0.5-1.2-0.8-1.6c-0.5-2.8-0.6-5-0.5-6.3c0.1-0.8,0-1.6-0.2-2.6c-0.3-1.1-0.8-1.9-1.5-2.3
		c-0.4-0.2-0.9-0.4-1.4-0.4c-0.8,0-1.6,0.2-2.3,0.6c-0.7,0.5-1.1,1-1.2,1.5c0,0,0,0,0,0c-0.3,0.3-0.4,0.7-0.3,1.1
		c0.2,0.8,0.3,1.7,0.5,2.8c0,0.9,0,1.4-0.1,1.6c0,0.1,0,0.3,0,0.4l0.4,2.3c0.1,0.4,0.1,0.7,0.2,1c-0.9,0.2-1.8,0.3-2.7,0.4
		c-1,0.1-2,0.1-3,0.2c0,0,0,0,0,0c-1.6,0.1-3.2,0.3-4.8,0.4c-1,0.1-2.1,0-3.2-0.1c-0.2-2.1-0.3-3.6-0.4-4.6
		c-0.7-6.5-0.8-8.1-0.8-8.4v-3.1c0,0,0-0.1,0-0.1c-0.2-3.2-0.4-5.9-0.5-7.8c0.4,0,1,0,1.8,0c1.6,0.1,2.8-0.2,3.7-0.7
		c0.6-0.4,1.4-1.1,1.4-2.7c0-0.9-0.3-1.7-0.8-2.2c-0.6-0.6-1.5-0.9-2.7-0.9c-3.5,0-5.7,0.1-6.6,0.3c-0.1,0-0.4,0-1.5,0
		c-1.2-0.2-2-0.3-2.6-0.3c-1.9,0-5.1,0.4-5.1,3.3c0,0.5,0.1,1,0.3,1.6c0.3,0.7,0.9,1.7,2.6,2c0,0,0.1,0,0.1,0
		c0.7,0.1,1.3,0.2,1.9,0.3c0.3,0.1,0.6,0.1,1.1,0c0.1,1.9,0.2,3.4,0.3,4.5c0,0,0,0,0,0c0.5,5.1,0.8,8.9,0.8,11v3.6
		c0,0.1,0,0.2,0,0.3c0.4,1.7,0.6,3.2,0.6,4.6c-0.8,0.1-1.5,0.1-2.3,0.2c-2.3,0.2-3.4,1.3-3.9,2.2c-0.3,0.4-0.3,1-0.2,2.2
		c0,0.3,0.1,0.5,0.3,0.7c0.9,1.1,2.2,1.6,3.8,1.6c0.2,0,0.4,0,3.1-0.5c3.6-0.4,6.2-0.6,7.9-0.7c7-0.6,10.8-0.9,11.4-0.9
		c0.9,0,2-0.1,3.1-0.2c1.3-0.1,2.4-0.4,3.2-1c1-0.7,1.4-1.9,1.2-3.1C314.3,53.2,314.3,53.1,314.3,53z"/>
	<path class="st1" d="M346.6,37.4c-0.1-1.5-0.3-2.8-0.6-3.9c0,0,0-0.1,0-0.1c-0.5-1.5-0.9-2.6-1.2-3.5c-0.3-1.1-0.9-2.4-1.7-3.9
		c-0.9-1.8-1.8-3.1-2.7-3.8c-3.4-2.9-7.5-4.4-12.1-4.4c-0.1,0-0.1,0-0.2,0c-2,0-4,1.2-6.2,3.6c-1.5,1.6-2.9,3.4-4,5.4
		c-1.4,2.4-2.5,5.4-3.3,8.8c-0.6,2.6-0.9,5.1-0.9,7.5c0,0.8,0,1.6,0.1,2.3c0,0.1,0,0.1,0,0.2c0.4,2.3,0.6,3.1,0.7,3.5
		c0.9,6,3.8,10.2,8.4,12.5c0,0,0.1,0,0.1,0.1c4,1.5,7.5,2.2,10.4,2.1c0.2,0,0.3,0,0.5,0c1.6,0,3.4-0.6,5.5-1.9
		c2.2-1.4,3.8-2.9,4.7-4.6c1-2.1,1.8-4.5,2.2-7.1c0.7-3.8,0.9-7,0.6-9.5C346.7,39.7,346.7,38.6,346.6,37.4z M332.6,58.3
		c-0.1,0-0.8,0.1-3.7-0.5c-1.9-0.4-3.6-1.2-4.9-2.5c-1.5-1.4-2.6-3.8-3.2-7c0,0,0-0.1,0-0.1c-0.2-0.6-0.3-1-0.5-1.4
		c-0.1-1.2-0.2-2.5-0.2-3.8c0-5.8,1.4-11,4.2-15.6c1.6-2.7,3.4-4,5.5-4c1.3,0,2.7,0.4,4,1.2c1.5,1.2,2.6,2.2,3.5,3.1
		c0,0.1,0.1,0.3,0.2,0.4c0.3,0.4,0.4,0.7,0.5,0.9c0.4,1.4,0.7,2.4,0.9,3c0,0.1,0,0.1,0.1,0.2c0.6,1.2,1,2.3,1.2,3.3
		c0.3,1.3,0.6,4.1,0.7,8.3c0,0,0,0,0,0c0,0.1,0,0.2-0.1,0.4c0,0.3-0.1,0.8-0.2,1.5c-0.3,3-1.2,12.2-7.6,12.3
		C332.8,58.3,332.7,58.3,332.6,58.3z"/>
	<path class="st1" d="M374.1,41.5c0-0.5-0.2-1.3-1.2-2c-0.7-0.4-1.2-0.6-1.8-0.6c0,0-0.1,0-0.1,0c-0.7,0.1-2.9,0.3-3.4,2
		c-0.2,0.8-0.3,1.5-0.2,2c0.3,1.5,0.3,3.5-0.1,5.8c-0.7,4-3.1,5.8-7.6,5.6c-0.8,0-1.7-0.3-2.6-0.7c-0.9-0.4-1.5-1-1.8-1.6
		c-0.6-1.1-1-2.4-1.2-4c0-0.5-0.1-1.8-0.2-3.9c-0.1-4.5,0.4-8.3,1.5-11.1c0.6-1.6,1.4-2.4,2.2-2.4c0.9,0,2.1,0.3,3.6,0.8
		c1.4,0.5,2.5,1.1,3.4,1.8c0.7,1,1,1.6,1.1,1.9c0.1,0.3,0.3,0.6,0.7,0.7c0.3,0.1,0.6,0.2,0.9,0.3c1.2,0.6,2.7,0.1,3.2-0.1
		c0.6-0.2,1.3-0.7,1.7-1.9c0.1-0.1,0.1-0.3,0.1-0.5V23.6c0-0.1,0-0.1,0-0.2c-0.1-0.7-0.7-2.3-3.4-2.3c-1.5,0-2.3,0.7-2.6,1.3
		c-0.4,0.7-0.5,1.6-0.5,2.9c0,1.2,0,1.7,0,1.9c-2.5-1.2-5.2-1.8-8.1-1.8c-1.1,0-2.1,0.1-3,0.3c-2.3,0.5-4.2,2.9-5.9,7.3
		c-0.1,0.2-0.2,0.5-0.7,3.6c-0.4,2.7-0.5,3.6-0.5,4v6.3c0,0.1,0,0.2,0,0.2c0.5,2.5,0.8,4.4,1,5.7c0,0.1,0.1,0.3,0.1,0.4
		c0.2,0.4,0.4,0.6,0.6,0.9c0.6,1.8,2.1,3.2,4.3,4.2c2,0.9,4.3,1.4,6.8,1.4c1.6,0,3.1-0.2,4.4-0.6c0,0,0,0,0,0c3-1.1,4.8-2,5.7-3
		c1.8-1.9,2.9-4.8,3.2-8.8C374,45.3,374.1,43.3,374.1,41.5z"/>
	<path class="st1" d="M439.1,47.1c0-0.1,0-0.2,0-0.2c-0.2-0.9-0.5-1.5-0.7-2c-1.6-4.1-5.6-6.4-11.8-6.8c-2.8-0.2-3.8-0.6-4.1-0.8
		c-0.5-0.4-0.9-0.9-1-1.6c-0.1-0.7-0.3-1.4-0.4-2.2c0-0.2,0.1-0.4,0.1-0.6c0.1-1.3,0.4-2.8,0.9-4.3c0,0,0,0,0-0.1
		c0.3-1,0.5-1.8,0.7-2.3c0.1-0.4,0.5-1,2-0.9c0.3,0,1.3,0.1,2.2,2.2c0.8,1.8,1.5,3.2,1.9,4.1c0.5,1.7,0.7,3.1,0.6,4c0,0,0,0.1,0,0.1
		c0,0.3,0.1,0.5,0.2,0.7c0,0.1,0.1,0.3,0.2,0.7c0.1,0.3,0.3,0.6,0.6,0.7c0.7,0.4,1.5,0.6,2.3,0.6c2.4,0,3-1.5,3.2-2.2
		c0-0.1,0-0.2,0-0.2c0.1-1.2,0.1-2.2,0-2.9c0.3-2.8,0.4-4.9,0.6-6.4c0.1-1.7,0.2-3,0.3-4c0.1-1.3,0-3.1-1.2-3.9
		c-0.8-0.5-1.5-0.6-2.3-0.5c-0.4,0.1-0.7,0.1-1,0.3c-1.1,0.4-1.7,1.3-1.7,2.4c0,0,0,0.1,0,0.1c0,0.3,0,0.6,0.1,0.9
		c-1.7-1.6-3.8-2.4-6.5-2.4c-1.8,0-3.6,0.4-5.2,1.2c-0.9,0.4-1.6,1.3-2.1,2.4c-0.1,0.1-0.2,0.4-0.8,2.4c-1.3,4.1-1.5,5.4-1.5,6.1
		v3.7c0,2.2,1.1,4.2,3.2,5.8c2,1.5,4.2,2.3,6.5,2.3c0.1,0,0.5,0,2.2,0.2c2.8,0.4,3.8,0.9,4.2,1.1c1.5,1,2.3,2.6,2.3,4.7
		c0,0.7-0.1,1.3-0.4,1.9c-0.1,0.3-0.7,1.1-3.1,1.9c-1.4,0.5-2.9,0.9-4.3,1c-1.1,0.1-2.3-1-3.2-2c-1.2-1.3-1.9-2.7-2.1-3.9
		c-0.2-1.2-0.2-2.2-0.2-2.8c0-0.1,0-0.3-0.1-0.4c-0.2-0.6-0.8-2-3.1-2c-3.2,0-3.8,2-3.9,2.9c0,0.1,0,0.1,0,0.2
		c0,0.3,0.1,0.6,0.4,1.2c0,0.1,0,0.4-0.1,0.9c0,0,0,0,0,0.1c-0.1,1.1-0.1,2-0.1,2.6c0,0,0,0,0,0.1c-0.1,0.2-0.1,0.4-0.2,0.6
		c-0.2,0-0.5,0-0.7,0.1c-2.1,0.3-3.7,0.5-4.9,0.6c-0.3-0.4-1-1.4-2.5-3.6c-0.8-1.6-1.5-2.8-1.9-3.6c-0.1-0.1-0.2-0.3-0.3-0.4
		c-0.2-0.2-0.7-1.2-2.2-5.1c-1-2.4-1.7-4.3-2.3-5.6c1.1-1.1,2.1-2.2,3.1-3.3c1.4-1.4,2.6-2.4,3.4-3c0.4-0.2,0.7-0.5,0.9-0.8
		c0.7,0,1.2,0,1.6,0c1.5,0.2,2.5,0.2,3.2,0c1.1-0.3,1.7-0.6,2.1-1.1c1.2-1.4,1-2.7,0.7-3.3c0,0,0,0,0,0c-0.5-1-1.5-2.1-4-2.1h-1.5
		c0,0-0.1,0-0.1,0c-0.7,0-1,0-1.2,0c-0.1,0-0.1,0-0.2,0c-2.3,0-4.1,0.1-5.3,0.2c-5,0-6.3,0.1-6.8,0.3c-0.6,0.1-1.1,0.5-1.6,1
		c-0.6,0.6-0.9,1.2-0.9,1.9c0,0,0,0.1,0,0.1c0.2,3,2.8,3.6,4.2,3.7l-9.9,9.4v-3.3c0-0.8,0.1-2.1,0.4-4.1c0.1-0.9,0.2-1.5,0.3-1.9
		c0.2,0,0.4,0,0.6,0c1.3-0.1,2.2-0.3,2.9-0.8c0.1-0.1,0.2-0.2,0.3-0.3c0.6-0.8,0.9-1.7,0.9-2.7c0-1.3-0.8-2.6-3.1-2.6
		c-0.5,0-1,0.1-1.8,0.3c-1,0.3-1.4,0.3-1.4,0.4c-3.2,0.6-5.6,1-7.2,1.3c-1.4,0.2-4.7,0.8-4.7,3.1c0,1,0.5,1.9,1.4,2.4
		c0.7,0.5,1.5,0.7,2.4,0.7c0.6,0,1.4-0.1,2.6-0.4c0.3-0.1,0.6-0.1,0.8-0.2c-0.2,2.4-0.4,4.4-0.4,6.1c0,1.3,0,3.3,0,6
		c0,1.3,0,2.3-0.2,3c-0.1,0.3,0,0.7,0.1,1c0,0.1,0.1,0.1,0.1,0.2v7.6c-0.4,0.1-1.3,0.2-2.8,0.4c-1.9,0.2-3.2,1.4-3.4,3.3
		c-0.1,0.8,0.2,1.6,0.9,2c0,0,0.1,0,0.1,0.1c1,0.5,2,0.8,3.1,0.8c0.6,0,1.3-0.1,2.1-0.2c0.9-0.2,1.3-0.2,1.6-0.2
		c0.6,0,1.4-0.1,2.6-0.4c1.2-0.3,1.6-0.3,1.6-0.3c2.9,0.2,4.8-0.2,5.9-1.2c0.6-0.6,0.9-1.3,0.9-2.1c0-0.4-0.1-0.9-0.4-1.5
		c0,0,0,0,0-0.1c-0.5-1-1.5-1.6-2.7-1.6c-0.2,0-0.7,0-2,0.2c-0.3,0.1-0.7,0.1-1,0.1c-0.2-1.7-0.4-3.9-0.3-6.6
		c0.5-0.4,0.7-0.6,0.9-0.7c0,0,0.1-0.1,0.1-0.1c0.8-0.7,1.9-1.8,3.5-3.5c0.8-0.8,1.5-1.5,2.2-2.1c0.2,0.4,0.3,0.7,0.4,0.9
		c0,0,0,0,0,0.1c1.4,3,2.4,5.2,3,6.5c0,0,0,0.1,0.1,0.1c1.7,3.1,3.1,5.5,4.2,7.4c-0.4,0.1-0.9,0.2-1.7,0.4c0,0,0,0,0,0
		c-1.8,0.4-3.1,1.2-3.9,2.3c-0.2,0.3-0.4,0.8-0.4,1.2c0,0.7,0.3,1.4,1,2c0.6,0.6,1.2,0.9,1.8,0.9c0.1,0,0.2,0,0.4,0
		c0.6,0,1.4-0.1,2.3-0.3c0,0,0,0,0,0c1.7-0.4,3.4-0.9,5.1-1.3c1.6-0.4,2.9-0.6,3.7-0.6c3,0,3.9-0.1,4.4-0.2c0,0.8-0.1,1.3-0.1,1.7
		c0,3.7,1.7,4.2,2.8,4.2c0.9,0,2-0.4,3.3-1.2c0.3-0.2,0.5-0.5,0.6-0.9c0.2-1,0.2-2.3,0.1-3.8c0-0.1,0-0.2,0-0.2
		c1.9,1.3,3.8,1.8,5.8,1.6c7.6-1,12.1-3.5,13.6-7.5C439.2,52.2,439.4,50.9,439.1,47.1z"/>
</g>
<g>
	<linearGradient id="SVGID_2_" gradientUnits="userSpaceOnUse" x1="30.4931" y1="18.0306" x2="30.4931" y2="65.3382">
		<stop  offset="0" style="stop-color:#D1D1D1"/>
		<stop  offset="0.3734" style="stop-color:#767776"/>
		<stop  offset="0.6798" style="stop-color:#767776"/>
		<stop  offset="1" style="stop-color:#575757"/>
	</linearGradient>
	<path class="st2" d="M43.6,46.9c-0.2-0.9-0.5-1.5-0.7-2c-1.6-4.1-5.6-6.4-11.8-6.8c-2.8-0.2-3.8-0.6-4.1-0.8
		c-0.5-0.4-0.9-0.9-1-1.6c-0.1-0.7-0.3-1.4-0.4-2.2c0-0.2,0.1-0.4,0.1-0.6c0.1-1.3,0.4-2.8,0.9-4.3c0,0,0,0,0-0.1
		c0.3-1,0.5-1.8,0.7-2.3c0.1-0.4,0.5-1,2-0.9c0.3,0,1.3,0.1,2.2,2.2c0.8,1.8,1.5,3.2,1.9,4.1c0.5,1.7,0.7,3.1,0.6,4c0,0,0,0.1,0,0.1
		c0,0.3,0.1,0.5,0.2,0.7c0,0.1,0.1,0.3,0.2,0.7c0.1,0.3,0.3,0.6,0.6,0.7c0.7,0.4,1.5,0.6,2.3,0.6c2.4,0,3-1.5,3.2-2.2
		c0-0.1,0-0.2,0-0.2c0.1-1.2,0.1-2.2,0-2.9c0.3-2.8,0.4-4.9,0.6-6.4c0.1-1.7,0.2-3,0.3-4c0.1-1.3,0-3.1-1.2-3.9
		c-0.8-0.5-1.5-0.6-2.3-0.5c-0.4,0.1-0.7,0.1-1,0.3c-1.1,0.4-1.7,1.3-1.7,2.4c0,0,0,0.1,0,0.1c0,0.3,0.1,0.6,0.1,0.9
		c-1.7-1.6-3.8-2.4-6.5-2.4c-1.8,0-3.6,0.4-5.2,1.2c-0.9,0.4-1.6,1.3-2.1,2.4c-0.1,0.1-0.2,0.4-0.8,2.4c-1.3,4.2-1.5,5.5-1.5,6.1
		v3.7c0,2.2,1.1,4.2,3.2,5.8c2,1.5,4.2,2.3,6.5,2.3c0.1,0,0.5,0,2.2,0.2c2.8,0.4,3.8,0.9,4.2,1.1c1.5,1,2.3,2.6,2.3,4.7
		c0,0.7-0.1,1.3-0.3,1.9c-0.1,0.3-0.7,1.1-3.1,2c-1.4,0.5-2.9,0.9-4.3,1c-1.1,0.1-2.3-1-3.2-2c-1.2-1.3-1.9-2.7-2.1-3.9
		c-0.2-1.2-0.2-2.2-0.2-2.8c0-0.1,0-0.3-0.1-0.4c-0.2-0.6-0.8-2-3.1-2c-3.2,0-3.8,2-3.9,2.9c0,0.1,0,0.1,0,0.2
		c0,0.3,0.1,0.6,0.4,1.2c0,0.1,0,0.4-0.1,0.9c0,0,0,0,0,0.1c-0.1,1.1-0.1,2-0.1,2.6c0,0,0,0,0,0c-0.1,0.3-0.2,0.5-0.2,0.8v3.5
		c0,0.2,0,0.4,0.1,0.5c0,0,0.1,0.2,0.1,1c0,0.3,0,0.7-0.1,1.5c0,0.8-0.1,1.3-0.1,1.7c0,3.7,1.7,4.2,2.8,4.2c0.9,0,2-0.4,3.3-1.2
		c0.3-0.2,0.5-0.5,0.6-0.9c0.2-1,0.2-2.3,0.1-3.8c0-0.1,0-0.2,0-0.2c1.9,1.3,3.8,1.8,5.8,1.6c7.6-1,12.1-3.5,13.6-7.5
		c0.3-0.7,0.5-1.9,0.2-5.7C43.6,47.1,43.6,47,43.6,46.9z"/>
	<linearGradient id="SVGID_3_" gradientUnits="userSpaceOnUse" x1="57.8923" y1="20.6237" x2="57.8923" y2="60.339">
		<stop  offset="0" style="stop-color:#D1D1D1"/>
		<stop  offset="0.3734" style="stop-color:#767776"/>
		<stop  offset="0.6798" style="stop-color:#767776"/>
		<stop  offset="1" style="stop-color:#575757"/>
	</linearGradient>
	<path class="st3" d="M71.1,41.5c0-0.5-0.2-1.3-1.2-2c-0.7-0.4-1.2-0.6-1.8-0.6c0,0-0.1,0-0.1,0c-0.7,0.1-2.9,0.3-3.4,2
		c-0.2,0.8-0.3,1.5-0.1,2.1c0.3,1.5,0.3,3.5-0.1,5.8c-0.7,4-3.1,5.8-7.6,5.6c-0.8,0-1.7-0.3-2.6-0.7c-0.9-0.4-1.5-1-1.8-1.6
		c-0.6-1.1-1-2.4-1.2-4c0-0.5-0.1-1.9-0.2-3.9c-0.1-4.5,0.4-8.3,1.5-11.1c0.6-1.6,1.4-2.4,2.2-2.4c0.9,0,2.1,0.3,3.6,0.8
		c1.4,0.5,2.5,1.1,3.4,1.8c0.7,1,1,1.6,1.1,1.9c0.1,0.3,0.3,0.6,0.7,0.7c0.3,0.1,0.6,0.2,0.9,0.3c1.2,0.6,2.7,0.1,3.2-0.1
		c0.6-0.2,1.4-0.7,1.7-1.9c0.1-0.1,0.1-0.3,0.1-0.5V23.6c0-0.1,0-0.1,0-0.2c-0.1-0.7-0.7-2.3-3.4-2.3c-1.5,0-2.3,0.7-2.6,1.3
		c-0.4,0.7-0.5,1.6-0.5,2.9c0,1.2,0,1.7,0,1.9c-2.5-1.2-5.2-1.8-8.1-1.8c-1.1,0-2.1,0.1-3,0.3c-2.3,0.5-4.2,2.9-5.9,7.3
		c-0.1,0.2-0.2,0.5-0.7,3.6c-0.4,2.7-0.5,3.6-0.5,4v6.3c0,0.1,0,0.2,0,0.2c0.5,2.5,0.8,4.4,1,5.7c0,0.1,0.1,0.3,0.1,0.4
		c0.2,0.4,0.4,0.6,0.5,0.9c0.6,1.8,2.1,3.2,4.3,4.2c2,0.9,4.3,1.4,6.8,1.4c1.6,0,3.1-0.2,4.4-0.6c0,0,0,0,0,0c3-1.1,4.8-2,5.7-3
		c1.8-1.9,2.9-4.8,3.2-8.8C71.1,45.3,71.2,43.3,71.1,41.5z"/>
	<linearGradient id="SVGID_4_" gradientUnits="userSpaceOnUse" x1="107.3977" y1="20.1112" x2="107.3977" y2="64.1367">
		<stop  offset="0" style="stop-color:#D1D1D1"/>
		<stop  offset="0.3734" style="stop-color:#767776"/>
		<stop  offset="0.6798" style="stop-color:#767776"/>
		<stop  offset="1" style="stop-color:#575757"/>
	</linearGradient>
	<path class="st4" d="M143.5,55.7C143.6,55.7,143.6,55.6,143.5,55.7c0.4-0.5,0.6-1.2,0.5-2.1c0,0,0-0.1,0-0.1
		c-0.1-0.8-0.3-1.3-0.7-1.7c0,0-0.1-0.1-0.1-0.1c-0.7-0.6-1.5-0.9-2.3-0.9c-0.8,0-1.8,0.4-3.2,1.1c-0.6,0.3-1,0.5-1.4,0.7
		c-1.4-3.6-2.5-6.4-3.2-8.2c0,0,0,0,0,0c-2.1-5-3.6-8.7-4.6-11c0,0,0,0,0,0c-0.4-1-0.8-1.7-0.9-2.2c0,0,0-0.1,0-0.1
		c-0.3-0.8-0.6-1.3-0.7-1.7c-0.1-0.1-0.2-0.6-0.8-2.7c-0.4-1.4-0.8-2.4-1.2-3.1c-0.6-0.9-1.4-1.5-2.5-1.6c-0.1,0-0.1,0-0.2,0
		c-0.1,0-0.1,0-2,0.1c-2.6,0.2-4.9,0.4-6.8,0.8c-1.1,0.2-1.8,0.4-2.3,0.4c-0.8,0.1-1.5,0.5-2.1,1.1c-0.8,0.8-1,1.7-0.7,2.7
		c0.1,0.2,0.2,0.4,0.4,0.6c0.8,0.7,1.5,1,2.1,1c0.9,0,2.2-0.2,3.9-0.8c1.6-0.5,2.5-0.6,3-0.6c-1.3,7.4-2.7,13.6-3.9,18.5
		c0,0,0,0.1,0,0.1c-0.5,2.5-0.8,4.7-1.1,6.3c-2.7-0.2-3.4-0.3-3.6-0.3c0,0-0.1,0-0.1,0c-1.1-0.2-2-0.2-2.8-0.1
		c-1.5,0.2-2.4,1.2-2.6,2.5c0,0,0,0-0.1,0.1c-0.1,0.1-0.2,0.2-0.3,0.4c-0.5,0.9-0.7,1.7-0.7,2.4c-0.1,0.5-0.4,0.6-0.9,0.6
		c-0.1,0-0.3-0.2-0.6-0.5c-0.4-0.4-0.5-0.6-0.6-0.6c0,0,0,0,0,0c-0.2-0.8-0.6-2.9-1.3-8.6c-0.4-3.6-1.2-6.4-2.4-8.4
		c-0.3-0.4-0.6-0.8-1.1-1.3c2.3-1.3,3.9-2.8,4.9-4.5c0.4-0.7,0.6-1.6,0.7-3c0.1-1.3,0-2.2-0.2-3c-0.6-2-1.9-3.7-3.8-4.9
		c-1.7-1.1-4.5-1.7-8.5-2.1c0,0,0,0-0.1,0c-2.9-0.1-3.9-0.1-4.2-0.1c-0.2,0-0.3-0.1-0.5,0c-4.7,0.6-7.9,1.1-9.5,1.4
		c-3.1,0.4-3.6,2.1-3.7,3.1c-0.1,0.7,0.2,1.4,0.6,1.9c0.7,0.8,2,1.2,4,1.2c0.1,0,0.2,0,1.2-0.2c0.1,2.3,0.3,5.2,0.7,8.6
		c0,0.2,0,0.4,0.1,0.6c-0.8,0.2-1.5,0.8-2.1,1.7c-0.1,0.2-0.2,0.4-0.2,0.6c0,0,0,0.1,0,0.1c-0.1,0.2-0.2,0.4-0.2,0.7v0.2
		c0,0.1,0,0.2,0.1,0.4c0.3,1,1,1.8,2.1,2.1c0.1,0,0.3,0.1,0.6,0.1c0,0.6,0.1,1.4,0.1,2.2c0.4,5.3,0.6,8.6,0.7,10
		c-1,0.1-1.9,0.2-2.9,0.3c0,0-0.1,0-0.1,0c-2.3,0.4-3.4,1.9-3.2,4c0,0.3,0.1,0.5,0.3,0.7c0.8,1,2.2,1.5,4,1.5c1,0,2.5-0.2,4.6-0.6
		c2.4-0.4,4.3-0.8,5.6-1c1.9-0.4,3-1.6,3-3.4c0-1.4-0.7-2.4-1.9-2.8c0,0,0,0-0.1,0c-1-0.3-2-0.2-3.1,0.1c-0.1-2.2-0.2-3.7-0.3-4.3
		c0-0.3,0-0.9-0.1-1.6C84,47.2,84,47.1,84,47.1v-5.2c1.3-0.4,2.2-0.6,2.7-0.7c0,0,0,0,0,0c1,0.4,2,0.8,2.9,1.1
		c1,0.5,1.7,1.1,1.9,1.7c0.4,1.1,0.6,1.7,0.6,2c0,0.1,0,0.1,0.1,0.2c0.7,1.9,1.3,5.2,1.7,9.8c0.2,1.9,1,3.7,2.4,5.3
		c1.4,1.5,2.9,2.3,4.6,2.3c0.2,0,0.3,0,0.5,0c2-0.2,3.4-0.6,4.5-1.3c1-0.7,1.9-1.7,2.8-3.2c0.2-0.4,0.4-0.8,0.6-1.2
		c4.3,0.4,5.2,0.4,5.3,0.5c0.6,0.1,1.9,0.3,2.2,0.3c0.1,0,0.2,0,0.3,0c1,0,1.9-0.4,2.6-1.1c0.9-0.9,1.1-1.8,1.1-2.4
		c0-0.5-0.2-1-0.5-1.4c-0.2-0.3-0.6-0.6-1.1-0.8c0-0.3,0.1-0.5,0.1-0.7c4.1-1.3,7.2-2,9.4-2.1c1,3.3,1.4,4.8,1.6,5.6
		c-0.6,0.4-1.1,0.7-1.7,1.1c0,0,0,0-0.1,0c-1.6,1.1-2.3,2.1-2.3,3.1c0,0.5,0.2,1.3,1,2c0.6,0.5,1.2,0.7,1.9,0.7c0,0,0,0,0,0
		c1.5-0.1,2.5-0.3,3.2-0.8c0,0,0,0,0,0c2.4-1.9,5.3-3.6,8.7-4.9C142.3,56.6,143.1,56.2,143.5,55.7z M126.5,44.8
		c-1.6,0.3-3.6,0.7-5.9,1.1l2-10.2c0.9,1.9,1.5,3.2,1.8,3.9C125.2,41.8,125.9,43.5,126.5,44.8z M83.8,36.2c0-0.6-0.1-1.5-0.2-2.8
		c-0.1-1.7-0.1-3.1-0.1-4.2c0,0,0-0.1,0-0.1c0-0.5,0-1,0-1.5c0.1-0.3,0.1-0.6,0.1-0.9c0.2-0.1,0.3-0.1,0.3-0.1
		c6-0.1,8.4,0.5,9.3,1.1c0.7,0.4,1.7,1.3,1.7,3.6c0,0.5-0.1,0.8-0.2,0.9c0,0,0,0,0,0C92.8,34,91,34.9,89,34.9
		c-1.8,0-2.3,0.1-2.7,0.2c-0.1,0-0.3,0.1-0.4,0.2c-0.3,0.2-0.6,0.4-0.8,0.6C84.6,36,84.1,36.1,83.8,36.2z"/>
	<linearGradient id="SVGID_5_" gradientUnits="userSpaceOnUse" x1="151.4805" y1="21.0534" x2="151.4805" y2="65.0294">
		<stop  offset="0" style="stop-color:#D1D1D1"/>
		<stop  offset="0.3734" style="stop-color:#767776"/>
		<stop  offset="0.6798" style="stop-color:#767776"/>
		<stop  offset="1" style="stop-color:#575757"/>
	</linearGradient>
	<path class="st5" d="M169.6,32.6c-0.1-0.5-0.2-1.2-0.1-2c0.2-2,0.5-3.6,0.7-4.7c0,0,0,0,0-0.1c0.3-1.3-0.1-2.5-1.1-3.3
		c-0.9-0.7-2-1.1-3.3-1c-0.1,0-0.1,0-0.2,0c-0.5,0.1-0.9,0.2-1.2,0.4c-3.7,0.5-7.4,0.8-11.1,1c-2.6,0.1-5.6,0.1-8.9,0
		c0,0-0.1,0-0.2,0h-8.1c-0.1,0-0.1,0-0.2,0c-1.1,0.2-2,0.6-2.6,1.3c-0.6,0.7-1,1.4-1,2c0,0.5,0.1,1.2,0.5,2.1
		c0.3,0.9,0.4,1.2,0.4,1.3c0,0,0,0.1,0,0.1l1.1,6.1c0,0,0,0,0,0c0.5,2.5,0.7,3.2,0.8,3.5c0.1,0.4,0.6,1.5,2.2,1.5
		c2.5,0,2.9-1.6,2.9-2.2c0.1-1.3,0.1-1.7,0.1-1.8c0,0,0-0.1,0-0.1c-0.1-1.7-0.4-4.3-0.8-7.5c1.6-0.1,2.2-0.1,2.4-0.1
		c2.7,0.1,4.8,0.2,6.3,0.2c-0.3,4.4-0.3,9.5-0.2,15.2c0.1,4.2,0.1,7.5,0,9.6c0,0,0,0.1,0,0.1v3.7c-0.2,0-0.4,0-0.7,0
		c-3,0-4.9,0.7-5.8,2c-0.6,1-0.6,2.1,0,3c0,0,0,0,0,0c0.7,1,2.2,1.5,4.6,1.5c0.2,0,0.5,0,0.7,0c2.7-0.2,4.6-0.3,5.8-0.4
		c1.2,0,2.2,0,2.8,0c1.6,0.1,2.8,0.1,3.5-0.2c0,0,0,0,0,0c1.4-0.6,2.1-1.7,2.1-3.2c0-1-0.4-1.8-1.1-2.5c-0.5-0.5-1.4-1-2.7-0.9h-2.9
		c0-0.1,0-0.1,0-0.2v-4.7c0-10.9-0.1-13.5-0.3-14.4c0-2.5,0.1-4.4,0.2-5.6c0-0.1,0-0.1,0-0.2c0-0.2,0-0.6-0.3-2.5c0-0.3,0-0.5,0-0.7
		c2.8-0.3,5.7-0.5,8.8-0.6c0,0.6-0.1,1.3-0.1,1.6c-0.1,1.5-0.1,3.2-0.1,5c0,0.2,0.1,0.4,0.2,0.6c0.4,0.7,1.2,1.5,3,1.5
		c1.1,0,2.1-0.3,2.8-1c0,0,0,0,0,0C170.3,34.9,169.8,33.2,169.6,32.6z"/>
	<linearGradient id="SVGID_6_" gradientUnits="userSpaceOnUse" x1="200.2254" y1="15.1119" x2="200.2254" y2="69.8881">
		<stop  offset="0" style="stop-color:#D1D1D1"/>
		<stop  offset="0.3734" style="stop-color:#767776"/>
		<stop  offset="0.6798" style="stop-color:#767776"/>
		<stop  offset="1" style="stop-color:#575757"/>
	</linearGradient>
	<path class="st6" d="M227.3,60.5c-0.1,0-0.2,0-0.3,0c-0.2,0-0.8,0.1-1.8,0.3c0-0.9,0-2,0-3.3c0-1.1-0.1-2.3-0.2-3.5
		c-0.1-0.9-0.2-1.2-0.2-1.3v-17c0-4.3-0.2-8.8-0.6-13.4l2.5-0.1c0,0,0.1,0,0.1,0c3.3-0.3,3.8-2,3.8-3c0-0.5-0.1-1-0.4-1.5
		c-0.4-1-1.4-2.1-3.8-2.1c-0.4,0-0.9,0-1.6,0.1c-0.8,0.1-1,0.1-1.1,0.1h-3.9c-0.4-0.1-0.8-0.1-1.1-0.2c-0.5,0-1.2,0-2.2,0
		c-1.6,0-2.9,0.5-4,1.4c-0.6,0.5-0.9,1.2-0.9,2c0,0.3,0,0.5,0.1,0.7c-0.8-0.5-1.8-0.7-3.2-0.7c0,0,0,0,0,0c0,0,0,0,0,0c0,0,0,0,0,0
		c0,0,0,0,0,0c0,0,0,0,0,0c0,0,0,0,0,0c0,0,0,0,0,0c-0.1,0-0.1,0-0.2,0c-0.3,0-1,0.1-3,0.2c0,0,0,0-0.1,0c-0.8,0.1-2.1,0-3.9-0.1
		c-1.9-0.2-2.8-0.2-2.9-0.2c-0.1,0-0.1,0-0.2,0c-2.8,0-4.1,1.5-4.7,2.7c-0.1,0.2-0.1,0.3-0.1,0.5c-0.5-0.5-1.3-1-2.8-1
		c-1.5,0-2.3,0.7-2.6,1.3c-0.4,0.7-0.5,1.6-0.5,2.9c0,1.2,0,1.7,0,1.9c-2.5-1.2-5.2-1.8-8.1-1.8c-1.1,0-2.1,0.1-3,0.3
		c-2.3,0.5-4.2,2.9-5.9,7.3c-0.1,0.2-0.2,0.5-0.7,3.6c-0.4,2.7-0.5,3.6-0.5,4v6.3c0,0.1,0,0.2,0,0.2c0.5,2.5,0.8,4.4,1,5.7
		c0,0.1,0.1,0.3,0.1,0.4c0.2,0.4,0.4,0.6,0.6,0.9c0.6,1.7,2.1,3.2,4.3,4.2c2,0.9,4.3,1.4,6.8,1.4c1.6,0,3.1-0.2,4.4-0.6c0,0,0,0,0,0
		c3-1.1,4.8-2,5.7-3c1.8-1.9,2.9-4.8,3.2-8.8c0.2-2.1,0.3-4.1,0.3-6c0-0.5-0.2-1.3-1.2-2c-0.7-0.4-1.2-0.6-1.8-0.6c0,0-0.1,0-0.1,0
		c-0.7,0.1-2.9,0.3-3.4,2c-0.2,0.8-0.3,1.5-0.2,2c0.3,1.5,0.3,3.5-0.1,5.8c-0.7,4-3.1,5.8-7.6,5.6c-0.8,0-1.7-0.3-2.6-0.7
		c-0.9-0.4-1.5-1-1.8-1.6c-0.6-1.1-1-2.4-1.2-4c0-0.5-0.1-1.8-0.2-3.9c-0.1-4.5,0.4-8.3,1.5-11.1c0.6-1.6,1.4-2.4,2.2-2.4
		c0.9,0,2.1,0.3,3.6,0.8c1.4,0.5,2.5,1.1,3.4,1.8c0.7,1,1,1.6,1.1,1.9c0.1,0.3,0.3,0.6,0.7,0.7c0.3,0.1,0.6,0.2,0.9,0.3
		c1.2,0.6,2.7,0.1,3.2-0.1c0.6-0.2,1.4-0.7,1.7-1.9c0.1-0.1,0.1-0.3,0.1-0.5v-9.7c0.7,1.1,2,2.1,4.8,2.1c0.4,0,0.9,0,1.5-0.1v5.1
		c0,0,0,0.1,0,0.1c0.3,2.9,0.3,3.9,0.3,4.3c0,0.2,0,0.5-0.1,1.2c-0.1,0.7-0.1,1.1-0.1,1.4c0,0,0,0.1,0,0.1c0.1,1.6-0.1,2.3-0.2,2.6
		c0,0,0,0.1,0,0.1c-0.2,0.5-0.2,1.1,0,1.6c0,0.1,0.1,0.2,0.1,0.3c0.1,0.2,0.2,0.4,0.3,0.5c0,0.1,0,0.1-0.1,0.2
		c-0.1,0.5-0.2,0.9-0.2,1.1v5.3c-0.1,2.6-0.1,4.7,0,6.3c-0.1,0-0.2,0-0.3,0c-0.8,0-1.3,0-1.6,0c-1,0-1.9,0.2-2.7,0.6c0,0,0,0-0.1,0
		c-1.6,0.8-1.9,2-1.9,2.8c0,0.7,0.3,1.6,1.6,2.4c0.8,0.5,1.7,0.7,2.6,0.8c0,0,0.1,0,0.1,0h4.1c3.7,0.3,6,0.5,7,0.6
		c0.5,0,1-0.1,1.9-0.5c0,0,0,0,0.1,0c0.6-0.3,1.1-0.8,1.5-1.5c0.3-0.5,0.7-1.4,0.4-2.2c-0.3-0.9-1.2-2.3-3.8-2.4
		c-1.3-0.1-2-0.1-2.5-0.1c0-0.2,0-0.5,0-1c0-1.8,0-2.4-0.1-2.6v-8c1.6-0.4,2.9-0.6,3.8-0.9c2.7-0.5,5.1-0.8,7.2-0.9
		c0.5,0,0.8,0,1.1,0c0,0.1,0,0.2,0,0.4c0,0,0,0.1,0,0.1v4.6c0,0,0,0.1,0,0.1c0,0.3,0.1,1.9,0.2,4.6c0.1,3,0.2,5.9,0.3,8.4
		c-0.7,0.2-1.8,0.5-3.6,0.9c-1,0.3-4.1,1-4.1,3.4c0,0.9,0.4,1.8,1.2,2.4c0.7,0.6,1.5,0.9,2.4,0.9c0.9,0,2-0.3,3.6-0.9
		c1.9-0.7,2.6-0.9,2.8-1c0.8-0.1,1.5-0.2,2.3-0.2c0.4,0,0.9,0,1.6-0.1h1.4c1.7,0,2.9-0.4,3.7-1.3c0.8-0.8,1.1-1.7,1-2.5
		C230.9,61.6,229.5,60.5,227.3,60.5z M213,22.8C213,22.8,213,22.8,213,22.8c0.1-0.3,0.1-0.6,0.1-0.8c0.2,0.1,0.4,0.2,0.5,0.3
		c0.9,0.4,1.9,0.6,3,0.6h1.4c0.5,3.9,0.7,7.4,0.7,10.6c0,1.4-0.1,2.6-0.2,3.6c-1.1,0.1-2.7,0.3-5.1,0.6c-2.4,0.3-4.4,0.4-6,0.4
		c-0.3,0-0.6,0-0.9,0v-8.8c0,0,0,0,0-0.1c-0.1-1.3-0.1-2.5-0.3-3.7l2.4-0.1C211.8,25.4,212.7,24,213,22.8z"/>
	<linearGradient id="SVGID_7_" gradientUnits="userSpaceOnUse" x1="264.3315" y1="22.9026" x2="264.3315" y2="61.7653">
		<stop  offset="0" style="stop-color:#D1D1D1"/>
		<stop  offset="0.3734" style="stop-color:#767776"/>
		<stop  offset="0.6798" style="stop-color:#767776"/>
		<stop  offset="1" style="stop-color:#575757"/>
	</linearGradient>
	<path class="st7" d="M281.5,47.1c0.1-1.6-0.1-2.6-0.5-3.3c0,0,0,0,0,0c-2-2.8-5.1-4.9-9.4-6.4c0.8-0.3,1.4-0.6,1.8-0.9
		c2.6-1.4,4.2-3.1,4.7-5.2c0,0,0,0,0-0.1c0.3-1.5,0.2-2.6-0.3-3.5c0,0,0,0,0,0c-1.2-1.8-3.2-3-6.1-3.7c-1-0.2-2.9-0.4-5.8-0.7
		c-0.6-0.1-2.4-0.1-10.8,0.3c-0.1,0-0.1,0-0.2,0c-0.4,0.1-0.7,0.1-1,0.2c-0.1,0-0.4,0.1-1.1,0.2c-0.6,0.1-0.8,0.1-0.8,0.1
		c-1-0.1-3.9-0.2-4.9,1.9c-0.2,0.4-0.2,0.8-0.1,1.5c0,0.3,0.2,0.6,0.4,0.9c1.1,1,2.3,1.5,3.6,1.5c0.4,0,0.9,0,1.5-0.1
		c0.4-0.1,0.8-0.1,1-0.1c0.5,3.5,0.6,6.5,0.2,8.9c-0.1,0.4,0,0.7,0.3,1c0,0.7,0.1,1.6,0.2,2.7c0.4,5,0.7,8.9,0.8,11.5
		c0,0.1-0.1,0.5-0.2,1.4c0,0,0,0,0,0c-1,0.2-1.5,0.4-1.7,0.6c-1.2,0.7-1.6,1.8-1.3,3c0,0,0,0.1,0,0.1c0.2,0.6,0.6,1.1,1.1,1.4
		c0.3,0.2,0.7,0.4,1.3,0.6c0.1,0,0.3,0.1,0.5,0.1c0.6,0,1.4-0.2,3.1-0.9c1.2-0.4,3.1-1,5.6-1.6c2.4-0.6,4.1-1.1,5.1-1.5
		c1.3-0.5,2.6-1.1,3.8-1.6c1.4-0.6,2.9-1.5,4.7-2.8c2.3-1.6,3.7-3.5,4.2-5.6C281.5,47.3,281.5,47.2,281.5,47.1z M261.6,53.9
		c-0.4-4.2-0.7-8.3-0.9-12.3c0.6,0,1.3,0,1.8,0c5.6,0,9.7,1.7,12.5,5.2c0,0,0,0.1-0.1,0.4c-0.9,1.8-3,3.3-6.1,4.7
		c-2.8,1.2-5.2,2-7.2,2.3V54C261.7,53.9,261.7,53.9,261.6,53.9z M260.4,33c0-1-0.2-2.3-0.4-4.1c0.6-0.1,1.2-0.1,1.7-0.1h3.4
		c2.1,0.1,3.8,0.3,5.2,0.7c1.1,0.3,1.3,0.6,1.3,0.6c0,0-0.1,0.4-0.8,1.4c-0.1,0.2-0.7,0.8-3.1,1.6c-3,1-5.5,1.7-7.4,2.2L260.4,33
		C260.4,33.1,260.4,33,260.4,33z"/>
	<linearGradient id="SVGID_8_" gradientUnits="userSpaceOnUse" x1="296.8611" y1="20.944" x2="296.8611" y2="60.083">
		<stop  offset="0" style="stop-color:#D1D1D1"/>
		<stop  offset="0.3734" style="stop-color:#767776"/>
		<stop  offset="0.6798" style="stop-color:#767776"/>
		<stop  offset="1" style="stop-color:#575757"/>
	</linearGradient>
	<path class="st8" d="M314.3,53c-0.3-0.7-0.5-1.2-0.8-1.6c-0.5-2.8-0.6-5-0.5-6.3c0.1-0.8,0-1.6-0.2-2.6c-0.3-1.1-0.8-1.9-1.5-2.3
		c-0.4-0.2-0.9-0.4-1.4-0.4c-0.8,0-1.6,0.2-2.3,0.6c-0.7,0.5-1.1,1-1.2,1.5c0,0,0,0,0,0c-0.3,0.3-0.4,0.7-0.3,1.1
		c0.2,0.8,0.3,1.7,0.5,2.8c0,0.9,0,1.4-0.1,1.6c0,0.1,0,0.3,0,0.4l0.4,2.3c0.1,0.4,0.1,0.7,0.2,1c-0.9,0.2-1.8,0.3-2.7,0.4
		c-1,0.1-2,0.1-3,0.2c0,0,0,0,0,0c-1.6,0.1-3.2,0.3-4.8,0.4c-1,0.1-2.1,0-3.2-0.1c-0.2-2.1-0.3-3.6-0.4-4.6
		c-0.7-6.5-0.8-8.1-0.8-8.4v-3.1c0,0,0-0.1,0-0.1c-0.2-3.2-0.4-5.9-0.5-7.8c0.4,0,1,0,1.8,0c1.6,0.1,2.8-0.2,3.7-0.7
		c0.6-0.4,1.4-1.1,1.4-2.7c0-0.9-0.3-1.7-0.8-2.2c-0.6-0.6-1.5-0.9-2.7-0.9c-3.5,0-5.7,0.1-6.6,0.3c-0.1,0-0.4,0-1.5,0
		c-1.2-0.2-2-0.3-2.6-0.3c-1.9,0-5.1,0.4-5.1,3.3c0,0.5,0.1,1,0.3,1.6c0.3,0.7,0.9,1.7,2.6,2c0,0,0.1,0,0.1,0
		c0.7,0.1,1.3,0.2,1.9,0.3c0.3,0.1,0.6,0.1,1.1,0c0.1,1.9,0.2,3.4,0.3,4.5c0,0,0,0,0,0c0.5,5.1,0.8,8.9,0.8,11v3.6
		c0,0.1,0,0.2,0,0.3c0.4,1.7,0.6,3.2,0.6,4.6c-0.8,0.1-1.5,0.1-2.3,0.2c-2.3,0.2-3.4,1.3-3.9,2.2c-0.3,0.4-0.3,1-0.2,2.2
		c0,0.3,0.1,0.5,0.3,0.7c0.9,1.1,2.2,1.6,3.8,1.6c0.2,0,0.4,0,3.1-0.5c3.6-0.4,6.2-0.6,7.9-0.7c7-0.6,10.8-0.9,11.4-0.9
		c0.9,0,2-0.1,3.1-0.2c1.3-0.1,2.4-0.4,3.2-1c1-0.7,1.4-1.9,1.2-3.1C314.3,53.2,314.3,53.1,314.3,53z"/>
	<linearGradient id="SVGID_9_" gradientUnits="userSpaceOnUse" x1="330.2901" y1="17.4184" x2="330.2901" y2="64.395">
		<stop  offset="0" style="stop-color:#D1D1D1"/>
		<stop  offset="0.3734" style="stop-color:#767776"/>
		<stop  offset="0.6798" style="stop-color:#767776"/>
		<stop  offset="1" style="stop-color:#575757"/>
	</linearGradient>
	<path class="st9" d="M346.6,37.4c-0.1-1.5-0.3-2.8-0.6-3.9c0,0,0-0.1,0-0.1c-0.5-1.5-0.9-2.6-1.2-3.5c-0.3-1.1-0.9-2.4-1.7-3.9
		c-0.9-1.8-1.8-3.1-2.7-3.8c-3.4-2.9-7.5-4.4-12.1-4.4c-0.1,0-0.1,0-0.2,0c-2,0-4,1.2-6.2,3.6c-1.5,1.6-2.9,3.4-4,5.4
		c-1.4,2.4-2.5,5.4-3.3,8.8c-0.6,2.6-0.9,5.1-0.9,7.5c0,0.8,0,1.6,0.1,2.3c0,0.1,0,0.1,0,0.2c0.4,2.3,0.6,3.1,0.7,3.5
		c0.9,6,3.8,10.2,8.4,12.5c0,0,0.1,0,0.1,0.1c4,1.5,7.5,2.2,10.4,2.1c0.2,0,0.3,0,0.5,0c1.6,0,3.4-0.6,5.5-1.9
		c2.2-1.4,3.8-2.9,4.7-4.6c1-2.1,1.8-4.5,2.2-7.1c0.7-3.8,0.9-7,0.6-9.5C346.7,39.7,346.7,38.6,346.6,37.4z M332.6,58.3
		c-0.1,0-0.8,0.1-3.7-0.5c-1.9-0.4-3.6-1.2-4.9-2.5c-1.5-1.4-2.6-3.8-3.2-7c0,0,0-0.1,0-0.1c-0.2-0.6-0.3-1-0.5-1.4
		c-0.1-1.2-0.2-2.5-0.2-3.8c0-5.8,1.4-11,4.2-15.6c1.6-2.7,3.4-4,5.5-4c1.3,0,2.7,0.4,4,1.2c1.5,1.2,2.6,2.2,3.5,3.1
		c0,0.1,0.1,0.3,0.2,0.4c0.3,0.4,0.4,0.7,0.5,0.9c0.4,1.4,0.7,2.4,0.9,3c0,0.1,0,0.1,0.1,0.2c0.6,1.2,1,2.3,1.2,3.3
		c0.3,1.3,0.6,4.1,0.7,8.3c0,0,0,0,0,0c0,0.1,0,0.2-0.1,0.4c0,0.3-0.1,0.8-0.2,1.5c-0.3,3-1.2,12.2-7.6,12.3
		C332.8,58.3,332.7,58.3,332.6,58.3z"/>
	<linearGradient id="SVGID_10_" gradientUnits="userSpaceOnUse" x1="360.8298" y1="20.6237" x2="360.8298" y2="60.339">
		<stop  offset="0" style="stop-color:#D1D1D1"/>
		<stop  offset="0.3734" style="stop-color:#767776"/>
		<stop  offset="0.6798" style="stop-color:#767776"/>
		<stop  offset="1" style="stop-color:#575757"/>
	</linearGradient>
	<path class="st10" d="M374.1,41.5c0-0.5-0.2-1.3-1.2-2c-0.7-0.4-1.2-0.6-1.8-0.6c0,0-0.1,0-0.1,0c-0.7,0.1-2.9,0.3-3.4,2
		c-0.2,0.8-0.3,1.5-0.2,2c0.3,1.5,0.3,3.5-0.1,5.8c-0.7,4-3.1,5.8-7.6,5.6c-0.8,0-1.7-0.3-2.6-0.7c-0.9-0.4-1.5-1-1.8-1.6
		c-0.6-1.1-1-2.4-1.2-4c0-0.5-0.1-1.8-0.2-3.9c-0.1-4.5,0.4-8.3,1.5-11.1c0.6-1.6,1.4-2.4,2.2-2.4c0.9,0,2.1,0.3,3.6,0.8
		c1.4,0.5,2.5,1.1,3.4,1.8c0.7,1,1,1.6,1.1,1.9c0.1,0.3,0.3,0.6,0.7,0.7c0.3,0.1,0.6,0.2,0.9,0.3c1.2,0.6,2.7,0.1,3.2-0.1
		c0.6-0.2,1.3-0.7,1.7-1.9c0.1-0.1,0.1-0.3,0.1-0.5V23.6c0-0.1,0-0.1,0-0.2c-0.1-0.7-0.7-2.3-3.4-2.3c-1.5,0-2.3,0.7-2.6,1.3
		c-0.4,0.7-0.5,1.6-0.5,2.9c0,1.2,0,1.7,0,1.9c-2.5-1.2-5.2-1.8-8.1-1.8c-1.1,0-2.1,0.1-3,0.3c-2.3,0.5-4.2,2.9-5.9,7.3
		c-0.1,0.2-0.2,0.5-0.7,3.6c-0.4,2.7-0.5,3.6-0.5,4v6.3c0,0.1,0,0.2,0,0.2c0.5,2.5,0.8,4.4,1,5.7c0,0.1,0.1,0.3,0.1,0.4
		c0.2,0.4,0.4,0.6,0.6,0.9c0.6,1.8,2.1,3.2,4.3,4.2c2,0.9,4.3,1.4,6.8,1.4c1.6,0,3.1-0.2,4.4-0.6c0,0,0,0,0,0c3-1.1,4.8-2,5.7-3
		c1.8-1.9,2.9-4.8,3.2-8.8C374,45.3,374.1,43.3,374.1,41.5z"/>
	<linearGradient id="SVGID_11_" gradientUnits="userSpaceOnUse" x1="406.0405" y1="18.0306" x2="406.0405" y2="65.3382">
		<stop  offset="0" style="stop-color:#D1D1D1"/>
		<stop  offset="0.3734" style="stop-color:#767776"/>
		<stop  offset="0.6798" style="stop-color:#767776"/>
		<stop  offset="1" style="stop-color:#575757"/>
	</linearGradient>
	<path class="st11" d="M439.1,47.1c0-0.1,0-0.2,0-0.2c-0.2-0.9-0.5-1.5-0.7-2c-1.6-4.1-5.6-6.4-11.8-6.8c-2.8-0.2-3.8-0.6-4.1-0.8
		c-0.5-0.4-0.9-0.9-1-1.6c-0.1-0.7-0.3-1.4-0.4-2.2c0-0.2,0.1-0.4,0.1-0.6c0.1-1.3,0.4-2.8,0.9-4.3c0,0,0,0,0-0.1
		c0.3-1,0.5-1.8,0.7-2.3c0.1-0.4,0.5-1,2-0.9c0.3,0,1.3,0.1,2.2,2.2c0.8,1.8,1.5,3.2,1.9,4.1c0.5,1.7,0.7,3.1,0.6,4c0,0,0,0.1,0,0.1
		c0,0.3,0.1,0.5,0.2,0.7c0,0.1,0.1,0.3,0.2,0.7c0.1,0.3,0.3,0.6,0.6,0.7c0.7,0.4,1.5,0.6,2.3,0.6c2.4,0,3-1.5,3.2-2.2
		c0-0.1,0-0.2,0-0.2c0.1-1.2,0.1-2.2,0-2.9c0.3-2.8,0.4-4.9,0.6-6.4c0.1-1.7,0.2-3,0.3-4c0.1-1.3,0-3.1-1.2-3.9
		c-0.8-0.5-1.5-0.6-2.3-0.5c-0.4,0.1-0.7,0.1-1,0.3c-1.1,0.4-1.7,1.3-1.7,2.4c0,0,0,0.1,0,0.1c0,0.3,0,0.6,0.1,0.9
		c-1.7-1.6-3.8-2.4-6.5-2.4c-1.8,0-3.6,0.4-5.2,1.2c-0.9,0.4-1.6,1.3-2.1,2.4c-0.1,0.1-0.2,0.4-0.8,2.4c-1.3,4.1-1.5,5.4-1.5,6.1
		v3.7c0,2.2,1.1,4.2,3.2,5.8c2,1.5,4.2,2.3,6.5,2.3c0.1,0,0.5,0,2.2,0.2c2.8,0.4,3.8,0.9,4.2,1.1c1.5,1,2.3,2.6,2.3,4.7
		c0,0.7-0.1,1.3-0.4,1.9c-0.1,0.3-0.7,1.1-3.1,1.9c-1.4,0.5-2.9,0.9-4.3,1c-1.1,0.1-2.3-1-3.2-2c-1.2-1.3-1.9-2.7-2.1-3.9
		c-0.2-1.2-0.2-2.2-0.2-2.8c0-0.1,0-0.3-0.1-0.4c-0.2-0.6-0.8-2-3.1-2c-3.2,0-3.8,2-3.9,2.9c0,0.1,0,0.1,0,0.2
		c0,0.3,0.1,0.6,0.4,1.2c0,0.1,0,0.4-0.1,0.9c0,0,0,0,0,0.1c-0.1,1.1-0.1,2-0.1,2.6c0,0,0,0,0,0.1c-0.1,0.2-0.1,0.4-0.2,0.6
		c-0.2,0-0.5,0-0.7,0.1c-2.1,0.3-3.7,0.5-4.9,0.6c-0.3-0.4-1-1.4-2.5-3.6c-0.8-1.6-1.5-2.8-1.9-3.6c-0.1-0.1-0.2-0.3-0.3-0.4
		c-0.2-0.2-0.7-1.2-2.2-5.1c-1-2.4-1.7-4.3-2.3-5.6c1.1-1.1,2.1-2.2,3.1-3.3c1.4-1.4,2.6-2.4,3.4-3c0.4-0.2,0.7-0.5,0.9-0.8
		c0.7,0,1.2,0,1.6,0c1.5,0.2,2.5,0.2,3.2,0c1.1-0.3,1.7-0.6,2.1-1.1c1.2-1.4,1-2.7,0.7-3.3c0,0,0,0,0,0c-0.5-1-1.5-2.1-4-2.1h-1.5
		c0,0-0.1,0-0.1,0c-0.7,0-1,0-1.2,0c-0.1,0-0.1,0-0.2,0c-2.3,0-4.1,0.1-5.3,0.2c-5,0-6.3,0.1-6.8,0.3c-0.6,0.1-1.1,0.5-1.6,1
		c-0.6,0.6-0.9,1.2-0.9,1.9c0,0,0,0.1,0,0.1c0.2,3,2.8,3.6,4.2,3.7l-9.9,9.4v-3.3c0-0.8,0.1-2.1,0.4-4.1c0.1-0.9,0.2-1.5,0.3-1.9
		c0.2,0,0.4,0,0.6,0c1.3-0.1,2.2-0.3,2.9-0.8c0.1-0.1,0.2-0.2,0.3-0.3c0.6-0.8,0.9-1.7,0.9-2.7c0-1.3-0.8-2.6-3.1-2.6
		c-0.5,0-1,0.1-1.8,0.3c-1,0.3-1.4,0.3-1.4,0.4c-3.2,0.6-5.6,1-7.2,1.3c-1.4,0.2-4.7,0.8-4.7,3.1c0,1,0.5,1.9,1.4,2.4
		c0.7,0.5,1.5,0.7,2.4,0.7c0.6,0,1.4-0.1,2.6-0.4c0.3-0.1,0.6-0.1,0.8-0.2c-0.2,2.4-0.4,4.4-0.4,6.1c0,1.3,0,3.3,0,6
		c0,1.3,0,2.3-0.2,3c-0.1,0.3,0,0.7,0.1,1c0,0.1,0.1,0.1,0.1,0.2v7.6c-0.4,0.1-1.3,0.2-2.8,0.4c-1.9,0.2-3.2,1.4-3.4,3.3
		c-0.1,0.8,0.2,1.6,0.9,2c0,0,0.1,0,0.1,0.1c1,0.5,2,0.8,3.1,0.8c0.6,0,1.3-0.1,2.1-0.2c0.9-0.2,1.3-0.2,1.6-0.2
		c0.6,0,1.4-0.1,2.6-0.4c1.2-0.3,1.6-0.3,1.6-0.3c2.9,0.2,4.8-0.2,5.9-1.2c0.6-0.6,0.9-1.3,0.9-2.1c0-0.4-0.1-0.9-0.4-1.5
		c0,0,0,0,0-0.1c-0.5-1-1.5-1.6-2.7-1.6c-0.2,0-0.7,0-2,0.2c-0.3,0.1-0.7,0.1-1,0.1c-0.2-1.7-0.4-3.9-0.3-6.6
		c0.5-0.4,0.7-0.6,0.9-0.7c0,0,0.1-0.1,0.1-0.1c0.8-0.7,1.9-1.8,3.5-3.5c0.8-0.8,1.5-1.5,2.2-2.1c0.2,0.4,0.3,0.7,0.4,0.9
		c0,0,0,0,0,0.1c1.4,3,2.4,5.2,3,6.5c0,0,0,0.1,0.1,0.1c1.7,3.1,3.1,5.5,4.2,7.4c-0.4,0.1-0.9,0.2-1.7,0.4c0,0,0,0,0,0
		c-1.8,0.4-3.1,1.2-3.9,2.3c-0.2,0.3-0.4,0.8-0.4,1.2c0,0.7,0.3,1.4,1,2c0.6,0.6,1.2,0.9,1.8,0.9c0.1,0,0.2,0,0.4,0
		c0.6,0,1.4-0.1,2.3-0.3c0,0,0,0,0,0c1.7-0.4,3.4-0.9,5.1-1.3c1.6-0.4,2.9-0.6,3.7-0.6c3,0,3.9-0.1,4.4-0.2c0,0.8-0.1,1.3-0.1,1.7
		c0,3.7,1.7,4.2,2.8,4.2c0.9,0,2-0.4,3.3-1.2c0.3-0.2,0.5-0.5,0.6-0.9c0.2-1,0.2-2.3,0.1-3.8c0-0.1,0-0.2,0-0.2
		c1.9,1.3,3.8,1.8,5.8,1.6c7.6-1,12.1-3.5,13.6-7.5C439.2,52.2,439.4,50.9,439.1,47.1z"/>
</g>
</svg>
