<?xml version="1.0" encoding="utf-8"?>
<!-- Generator: Adobe Illustrator 20.1.0, SVG Export Plug-In . SVG Version: 6.00 Build 0)  -->
<svg version="1.1" id="Layer_2" xmlns="http://www.w3.org/2000/svg" xmlns:xlink="http://www.w3.org/1999/xlink" x="0px" y="0px"
	 viewBox="0 0 121 170" style="enable-background:new 0 0 121 170;" xml:space="preserve">
<style type="text/css">
	.st0{opacity:0.5;}
	.st1{fill:#07C4EF;}
	.st2{fill:#FFFFFF;}
	.st3{fill:none;stroke:#000000;stroke-width:2;stroke-miterlimit:10;}
</style>
<g class="st0">
	<g>
		<path class="st1" d="M68,29.5c0-13.3-10.8-24-24-24c-13.3,0-24,10.8-24,24c0,9.7,5.7,18,13.9,21.8V29.3c0-5.7,4.6-10.4,10.4-10.4
			s10.4,4.6,10.4,10.4V51C62.6,47.1,68,38.9,68,29.5z"/>
	</g>
</g>
<g>
	<path class="st2" d="M50,161.9c-13,0-24.8-8.5-28.9-20.9l-0.1,0l-0.4-1.3c-0.1-0.3-0.2-0.6-0.3-1L7.7,90.6
		c-1.8-5.4,1-11.3,6.4-13.2c1.1-0.4,2.3-0.6,3.4-0.6c4.4,0,8.4,2.8,9.8,6.9l6.3,16.2V29.3c0-5.7,4.7-10.4,10.4-10.4
		s10.4,4.7,10.4,10.4v28c1.7-3.5,5.2-5.9,9.3-5.9c5.7,0,10.4,4.7,10.4,10.4v1c1.8-3,5.1-5,8.8-5c5.7,0,10.4,4.7,10.4,10.4v6.9
		c1.9-2.6,4.9-4.2,8.4-4.2c5.7,0,10.4,4.7,10.4,10.4v50.1c0,16.5-14.2,30.4-30.9,30.4H50z"/>
	<path d="M44,20.9c4.6,0,8.4,3.8,8.4,8.4v58.8l3,0.6V61.9c0-4.6,3.8-8.4,8.4-8.4c4.6,0,8.4,3.8,8.4,8.4v29.9l2.5,0.5V68.3
		c0-4.6,3.8-8.4,8.4-8.4s8.4,3.8,8.4,8.4v27.6c0.5,0.1,1.5,0.3,2,0.4v-15c0-4.6,3.8-8.4,8.4-8.4s8.4,3.8,8.4,8.4v34.7v2.3v13.1
		c0,15.6-13.3,28.4-28.9,28.4H50c-12.9,0-23.8-8.6-27.3-20.4c0,0,0,0,0,0l-0.1-0.4c-0.1-0.3-0.2-0.6-0.2-0.9L9.6,90
		c-1.5-4.3,0.8-9.2,5.1-10.7c0.9-0.3,1.8-0.5,2.8-0.5c3.5,0,6.7,2.2,7.9,5.6l9.8,24.9c0.2-0.1,0.3-0.3,0.5-0.5V29.3
		C35.6,24.7,39.4,20.9,44,20.9 M44,16.9c-6.8,0-12.4,5.6-12.4,12.4v60.1L29.2,83c-1.8-4.9-6.4-8.2-11.7-8.2c-1.4,0-2.8,0.2-4.1,0.7
		C7,77.8,3.6,84.8,5.8,91.2l12.8,48c0.1,0.3,0.2,0.7,0.3,1l0.1,0.3l0.6,2.2l0.2,0c4.7,12.6,16.9,21.1,30.4,21.1h31.1
		c8.6,0,16.9-3.4,23.1-9.5c6.3-6.2,9.8-14.3,9.8-22.9v-13.1v-2.3V81.4c0-6.8-5.6-12.4-12.4-12.4c-2.3,0-4.5,0.6-6.4,1.8v-2.4
		c0-6.8-5.6-12.4-12.4-12.4c-2.8,0-5.3,0.9-7.4,2.4c-1.5-5.1-6.3-8.8-11.9-8.8c-2.7,0-5.3,0.9-7.3,2.4V29.3
		C56.4,22.5,50.9,16.9,44,16.9L44,16.9z"/>
</g>
<g>
	<path class="st3" d="M28.4,47.7C23.3,43.3,20,36.8,20,29.5c0-13.3,10.8-24,24-24c13.3,0,24,10.8,24,24c0,7.3-3.2,13.8-8.4,18.2"/>
</g>
</svg>
