<?xml version="1.0" encoding="utf-8"?>
<!-- Generator: Adobe Illustrator 20.1.0, SVG Export Plug-In . SVG Version: 6.00 Build 0)  -->
<svg version="1.1" id="CLOSEBUTTON_x5F_On" xmlns="http://www.w3.org/2000/svg" xmlns:xlink="http://www.w3.org/1999/xlink" x="0px"
	 y="0px" viewBox="0 0 77.6 77.6" style="enable-background:new 0 0 77.6 77.6;" xml:space="preserve">
<style type="text/css">
	.st0{opacity:0.5;fill:none;stroke:#EFEFEF;stroke-width:4;stroke-miterlimit:10;}
	.st1{opacity:0.25;fill:#FFFFFF;stroke:#EFEFEF;stroke-width:0.5;stroke-miterlimit:10;}
	.st2{fill:none;stroke:#EFEFEF;stroke-width:2;stroke-miterlimit:10;}
</style>
<path class="st0" d="M39,71.4c-30,0-32,1.5-32-37.7c0-23,0-28.6,32-28.6c33.1,0,33.1,5.6,33.1,28.8C72.1,73,69.5,71.4,39,71.4z"/>
<path class="st1" d="M57.1,48.7l-8-8c-1.4-1.4-1.4-3.6,0-5l7.9-7.9c1.5-1.5,1.5-4,0-5.5l-2.2-2.2c-1.5-1.5-4-1.5-5.5,0l-9.7,9.7
	l-9.7-9.7c-1.5-1.5-4-1.5-5.5,0l-2.2,2.2c-1.5,1.5-1.5,4,0,5.5l7.9,7.9c1.4,1.4,1.4,3.6,0,5l-8,8c-1.5,1.5-1.5,4,0,5.5l2.2,2.2
	c1.5,1.5,4,1.5,5.5,0l9.8-9.8l9.8,9.8c1.5,1.5,4,1.5,5.5,0l2.2-2.2C58.6,52.7,58.6,50.2,57.1,48.7z"/>
<path class="st2" d="M57.1,48.7l-8-8c-1.4-1.4-1.4-3.6,0-5l7.9-7.9c1.5-1.5,1.5-4,0-5.5l-2.2-2.2c-1.5-1.5-4-1.5-5.5,0l-9.7,9.7
	l-9.7-9.7c-1.5-1.5-4-1.5-5.5,0l-2.2,2.2c-1.5,1.5-1.5,4,0,5.5l7.9,7.9c1.4,1.4,1.4,3.6,0,5l-8,8c-1.5,1.5-1.5,4,0,5.5l2.2,2.2
	c1.5,1.5,4,1.5,5.5,0l9.8-9.8l9.8,9.8c1.5,1.5,4,1.5,5.5,0l2.2-2.2C58.6,52.7,58.6,50.2,57.1,48.7z"/>
</svg>
