<?xml version="1.0" encoding="utf-8"?>
<!-- Generator: Adobe Illustrator 20.1.0, SVG Export Plug-In . SVG Version: 6.00 Build 0)  -->
<svg version="1.1" id="Layer_1" xmlns="http://www.w3.org/2000/svg" xmlns:xlink="http://www.w3.org/1999/xlink" x="0px" y="0px"
	 viewBox="0 0 40.3 40.4" style="enable-background:new 0 0 40.3 40.4;" xml:space="preserve">
<style type="text/css">
	.st0{opacity:0.5;fill:#FFFFFF;enable-background:new    ;}
	.st1{fill:#3780FF;}
</style>
<g id="COZMO_-_Blue">
	
		<ellipse transform="matrix(4.269949e-02 -0.9991 0.9991 4.269949e-02 0.5767 57.3895)" class="st0" cx="30.2" cy="28.4" rx="4.6" ry="4.6"/>
	
		<ellipse transform="matrix(4.269949e-02 -0.9991 0.9991 4.269949e-02 -17.3657 39.6201)" class="st0" cx="12" cy="28.9" rx="3.3" ry="3.3"/>
	<path class="st0" d="M24.7,24.7l0.2,0.4c0,0-0.9,1.1-1,3.2c-0.1,2.1,1.2,3.4,1.2,3.4L25,32.2l-1,0l-1.8-1.7l-3.4,0L17,31.8l-0.5,0
		l-0.2-0.5c0,0,0.7-0.8,0.8-2.5c0.1-1.7-0.9-2.5-0.9-2.5l0.1-0.3l1.1-0.1l1.2,1.3l3.8-0.5l1.2-1.6L24.7,24.7z"/>
	<path class="st0" d="M20.9,18.6c1.5,1.7,3.2,2.9,7.3,3.2c3.1,0.3,4.9-1.6,5.2-2.5c0.2-0.8,0.5-1.8,0.7-2.8c0.3-1.8,0.3-3.4,0.3-5.1
		C34.3,9.7,33,7,29.7,6.4c-3.8-0.7-7.8-0.4-9.4,2.7C18.9,12.3,19.1,16.2,20.9,18.6z"/>
	<path class="st0" d="M21.7,21.6c-3-2.1-4.7-6.6-4-10.7c0.3-2,1.5-3.5,3.3-4.5l0-0.1c0,0-1.6,0.4-3.4,0.9v0.6L14.3,9l-0.5,1.4
		l-3.5,1.3c-0.7,1.4-1.6,3.2-2.4,5.6l0.4,2.5l1,0.7l0.6,2.7l3.2,0.8L24,22.7C23.2,22.4,22.4,22,21.7,21.6z"/>
	<g>
		<path class="st1" d="M35.1,40.1H6.4c-0.6,0-1-0.5-1-1v-1c0-0.6,0.4-1,1-1h28.7c0.6,0,1,0.5,1,1v1C36.1,39.7,35.7,40.1,35.1,40.1z"
			/>
		<polygon class="st1" points="16.2,6.3 16.2,6.7 12.9,7.8 12.5,9.3 8.8,10.6 8.3,10.1 11.1,6.4 		"/>
		<rect x="8.2" y="1.1" transform="matrix(0.9009 -0.4341 0.4341 0.9009 -0.3767 4.0492)" class="st1" width="0.9" height="3.6"/>
		<rect x="12.2" y="1.6" transform="matrix(0.1532 -0.9882 0.9882 0.1532 9.8238 15.5566)" class="st1" width="3.7" height="0.9"/>
		<rect x="4.5" y="5.5" transform="matrix(0.1862 -0.9825 0.9825 0.1862 -3.2487 10.8435)" class="st1" width="0.9" height="3.8"/>
	</g>
</g>
<g id="Layer_1_1_">
</g>
</svg>
