<?xml version="1.0" encoding="utf-8"?>
<!-- Generator: Adobe Illustrator 20.1.0, SVG Export Plug-In . SVG Version: 6.00 Build 0)  -->
<svg version="1.1" xmlns="http://www.w3.org/2000/svg" xmlns:xlink="http://www.w3.org/1999/xlink" x="0px" y="0px" width="116.3px"
	 height="232.6px" viewBox="0 0 116.3 232.6" style="enable-background:new 0 0 116.3 232.6;" xml:space="preserve">
<style type="text/css">
	.st0{display:none;}
	.st1{display:inline;opacity:0.5;fill:#EFEFEF;}
	.st2{display:inline;opacity:0.5;fill:#C6C6C6;}
	.st3{display:inline;}
	.st4{fill:#EAEAEA;fill-opacity:0.3;}
	.st5{fill:#EAEAEA;}
	.st6{fill:#D1D1D1;}
	.st7{fill:#A5A5A5;fill-opacity:0.3;}
	.st8{fill:#CECECE;}
	.st9{display:inline;fill:#AAAAAA;}
	.st10{fill:#AAAAAA;}
	.st11{display:inline;fill:#62B146;}
	.st12{display:inline;fill:#54913A;}
	.st13{display:inline;fill:#DD4122;}
	.st14{display:inline;fill:#B73520;}
	.st15{display:inline;fill:#EAEAEA;fill-opacity:0.3;}
	.st16{display:inline;fill:#EFEFEF;}
	.st17{display:inline;fill:#EAEAEA;}
	.st18{fill:#EFEFEF;}
	.st19{display:inline;fill:#CECECE;}
	.st20{display:inline;fill:none;stroke:#E70012;stroke-width:0.25;stroke-miterlimit:10;}
</style>
<g id="Framing_-_ON" class="st0">
	<path class="st1" d="M68.4,115.8c-1.7,0-3.4,0-5.2,0c-1.9,0-3.9,0-5.9,0c-1.8,0-3.5,0-5.2,0c-22,0-34.1,0.1-41.6-7.4
		c-8.2-8.2-9-23.9-9-57.8v-0.2c0-19.2,0-31.8,7.4-39.7C16,3.2,28.6,0.5,57.3,0.5c25.3,0,41.6,1.7,49.9,10.3
		c7.6,7.9,7.6,20.7,7.6,40.1c0,32.7-0.9,49-9.3,57.3C98.5,115.2,87.5,115.8,68.4,115.8z M57.3,109.9c2.1,0,4,0,6,0
		c20.8,0,32.3,0.1,38.2-5.8c6.5-6.5,7.6-21.6,7.6-53.2c0-18.7,0-29.9-6-36.1c-5.9-6.1-18.7-8.5-45.7-8.5c-26.1,0-38.5,2.4-44.2,8.4
		C7.3,20.9,7.3,32,7.3,50.4v0.2c0,31.5,0.7,47.1,7.3,53.7c5.7,5.7,17,5.7,37.4,5.7C53.7,109.9,55.5,109.9,57.3,109.9z"/>
</g>
<g id="Framing_-_DOWN" class="st0">
	<path class="st2" d="M68,230.4c-1.6,0-3.3,0-5,0c-1.9,0-3.8,0-5.8,0c-1.7,0-3.4,0-5.1,0c-21.4,0-33.2,0.1-40.4-7.2
		c-8-7.9-8.8-23.2-8.8-56.2v-0.2c0-18.6,0-30.9,7.2-38.6c6.9-7.4,19.2-10,47-10c24.6,0,40.5,1.6,48.5,10c7.4,7.7,7.4,20.2,7.4,39
		c0,31.8-0.9,47.6-9.1,55.7C97.3,229.9,86.6,230.4,68,230.4z M57.3,224.7c2,0,3.9,0,5.8,0c20.2,0,31.4,0.1,37.1-5.7
		c6.3-6.3,7.4-21,7.4-51.6c0-18.1,0-29-5.8-35.1c-5.7-6-18.2-8.3-44.4-8.3c-25.3,0-37.4,2.3-42.9,8.2c-5.7,6-5.7,16.8-5.7,34.7v0.2
		c0,30.6,0.7,45.8,7.1,52.2c5.6,5.6,16.5,5.5,36.4,5.5C53.8,224.7,55.5,224.7,57.3,224.7z"/>
</g>
<g id="Export_-_ON" class="st0">
	<g class="st3">
		<g>
			<g>
				<path class="st4" d="M26.4,91.1c0,2.3,1.8,4.1,4.1,4.1h54.9c2.5,0,4.4-2,4.4-4.4V59.6c0-1.4-1.1-2.5-2.5-2.5H71.5v16.7
					c0,3.1-2.5,5.6-5.6,5.6H50.2c-2.9,0-5.3-2.4-5.3-5.3v-17h-16c-1.4,0-2.5,1.1-2.5,2.5V91.1z"/>
				<path class="st5" d="M87.1,59.8v31c0,1-0.8,1.7-1.7,1.7H30.6c-0.8,0-1.4-0.6-1.4-1.4V59.8h13.1v14.3c0,4.4,3.6,8,8,8h15.7
					c4.6,0,8.3-3.7,8.3-8.3v-14H87.1 M87.4,57.1H71.5v16.7c0,3.1-2.5,5.6-5.6,5.6H50.2c-2.9,0-5.3-2.4-5.3-5.3v-17h-16
					c-1.4,0-2.5,1.1-2.5,2.5v31.6c0,2.3,1.8,4.1,4.1,4.1h54.9c2.5,0,4.4-2,4.4-4.4V59.6C89.8,58.2,88.7,57.1,87.4,57.1L87.4,57.1z"
					/>
			</g>
		</g>
		<path class="st6" d="M60.6,23.8h-4.9c-1.2,0-2.2,1-2.2,2.2v43.4c0,1.2,1,2.2,2.2,2.2h4.9c1.2,0,2.2-1,2.2-2.2V26
			C62.8,24.8,61.8,23.8,60.6,23.8z"/>
		<path class="st6" d="M59.5,21.6L59.5,21.6c-0.8-0.8-2.1-0.8-2.9,0L41.1,37.1c-0.8,0.8-0.8,2.1,0,2.9h0c0.8,0.8,2.1,0.8,2.9,0
			l15.5-15.5C60.3,23.7,60.3,22.4,59.5,21.6z"/>
		<path class="st6" d="M56.6,21.6L56.6,21.6c0.8-0.8,2.1-0.8,2.9,0L75,37.1c0.8,0.8,0.8,2.1,0,2.9l0,0c-0.8,0.8-2.1,0.8-2.9,0
			L56.6,24.5C55.9,23.7,55.9,22.4,56.6,21.6z"/>
	</g>
</g>
<g id="Export_-_DOWN" class="st0">
	<g class="st3">
		<g>
			<path class="st7" d="M27.7,206.1c0,2.2,1.8,3.9,3.9,3.9h52.6c2.4,0,4.3-1.9,4.3-4.3v-30c0-1.3-1.1-2.4-2.4-2.4H70.9v16
				c0,3-2.4,5.4-5.4,5.4H50.5c-2.8,0-5-2.3-5-5v-16.3H30.1c-1.3,0-2.4,1.1-2.4,2.4V206.1z"/>
			<path class="st8" d="M86,176v29.8c0,0.9-0.7,1.7-1.7,1.7H31.7c-0.7,0-1.3-0.6-1.3-1.3V176h12.6v13.7c0,4.2,3.4,7.6,7.6,7.6h15.1
				c4.4,0,8-3.6,8-8V176H86 M86.2,173.4H70.9v16c0,3-2.4,5.4-5.4,5.4H50.5c-2.8,0-5-2.3-5-5v-16.3H30.1c-1.3,0-2.4,1.1-2.4,2.4v30.3
				c0,2.2,1.8,3.9,3.9,3.9h52.6c2.4,0,4.3-1.9,4.3-4.3v-30C88.6,174.5,87.5,173.4,86.2,173.4L86.2,173.4z"/>
		</g>
	</g>
	<path class="st9" d="M60.4,141.5h-4.5c-1.2,0-2.2,1-2.2,2.2v41.4c0,1.2,1,2.2,2.2,2.2h4.5c1.2,0,2.2-1,2.2-2.2v-41.4
		C62.6,142.5,61.6,141.5,60.4,141.5z"/>
	<path class="st9" d="M59.5,139.4L59.5,139.4c-0.8-0.8-2-0.8-2.7,0l-14.9,14.9c-0.8,0.8-0.8,2,0,2.7h0c0.8,0.8,2,0.8,2.7,0
		l14.9-14.9C60.2,141.3,60.2,140.1,59.5,139.4z"/>
	<path class="st9" d="M56.7,139.4L56.7,139.4c0.8-0.8,2-0.8,2.7,0l14.8,14.8c0.8,0.8,0.8,2,0,2.7h0c-0.8,0.8-2,0.8-2.7,0l-14.8-14.8
		C55.9,141.3,55.9,140.1,56.7,139.4z"/>
</g>
<g id="Glossary_-_ON" class="st0">
	<g class="st3">
		<g>
			<path class="st6" d="M45.8,98.7c-1.4,0.4-2.8-0.4-3.2-1.8l-2.2-8.1c-0.3-1.2,0.4-2.4,1.6-2.8l49.7-13.8L76.1,16.4l-24.9,6.9
				l9.6,34.6l-10.9-4.8l-6.8,9.7l-9.6-34.6l-9.3,2.6c-2.3,0.6-3.6,3-3,5.2l17.7,63.7c0.7,2.4,3.2,3.9,5.7,3.2l51.6-14.4l-1-3.7
				L45.8,98.7z"/>
		</g>
		<rect x="44.9" y="84" transform="matrix(0.9634 -0.268 0.268 0.9634 -20.5673 21.3118)" class="st6" width="45.9" height="3.9"/>
	</g>
</g>
<g id="Glossary_-_DOWN" class="st0">
	<g class="st3">
		<g>
			<path class="st10" d="M46.4,213.1c-1.3,0.4-2.7-0.4-3-1.7l-2.1-7.7c-0.3-1.1,0.4-2.3,1.5-2.6l47.4-13.2l-14.8-53.1l-23.7,6.6
				l9.2,32.9l-10.4-4.6l-6.5,9.3L34.7,146l-8.9,2.5c-2.2,0.6-3.4,2.8-2.8,5l16.9,60.6c0.6,2.3,3.1,3.7,5.4,3l49.2-13.7l-1-3.5
				L46.4,213.1z"/>
		</g>
		
			<rect x="45.5" y="199.1" transform="matrix(0.9634 -0.268 0.268 0.9634 -51.3958 25.4009)" class="st10" width="43.7" height="3.7"/>
	</g>
</g>
<g id="Re-Do_-_ON" class="st0">
	<g class="st3">
		<polygon class="st6" points="62.7,57.8 61.1,46.8 89.2,42.8 85.2,14.7 96.2,13.1 101.8,52.2 		"/>
		<path class="st6" d="M73.1,76.2c-4.2,3.6-9.5,5.6-15.1,5.6c-6.2,0-11.9-2.4-16.3-6.7c-4.4-4.4-6.7-10.1-6.7-16.3
			s2.4-11.9,6.7-16.3c4.4-4.4,10.1-6.7,16.3-6.7c6.2,0,11.9,2.4,16.3,6.7c2.6,2.6,4.5,5.7,5.6,9l19.5-6.5c-0.4-1.1-0.8-2.2-1.2-3.3
			C96,36.7,92.8,32,88.8,28c-4-4-8.7-7.1-13.9-9.3c-5.4-2.3-11.1-3.4-17-3.4s-11.6,1.2-17,3.4c-5.2,2.2-9.9,5.3-13.9,9.3
			c-4,4-7.1,8.7-9.3,13.9c-2.3,5.4-3.4,11.1-3.4,17c0,5.9,1.2,11.6,3.4,17c2.2,5.2,5.3,9.9,9.3,13.9c4,4,8.7,7.1,13.9,9.3
			c5.4,2.3,11.1,3.4,17,3.4s11.6-1.2,17-3.4c4.2-1.8,8.1-4.2,11.6-7.2L73.1,76.2z"/>
	</g>
</g>
<g id="Un-Do_-_ON">
	<g>
		<polygon class="st6" points="53.4,58.8 55,47.8 26.9,43.8 30.9,15.7 20,14.1 14.3,53.2 		"/>
		<path class="st6" d="M43.1,77.2c4.2,3.6,9.5,5.6,15.1,5.6c6.2,0,11.9-2.4,16.3-6.7c4.4-4.4,6.7-10.1,6.7-16.3s-2.4-11.9-6.7-16.3
			c-4.4-4.4-10.1-6.7-16.3-6.7c-6.2,0-11.9,2.4-16.3,6.7c-2.6,2.6-4.5,5.7-5.6,9l-19.5-6.5c0.4-1.1,0.8-2.2,1.2-3.3
			c2.2-5.2,5.3-9.9,9.3-13.9c4-4,8.7-7.1,13.9-9.3c5.4-2.3,11.1-3.4,17-3.4s11.6,1.2,17,3.4C80.3,21.8,85,25,89,29
			c4,4,7.1,8.7,9.3,13.9c2.3,5.4,3.4,11.1,3.4,17c0,5.9-1.2,11.6-3.4,17C96.1,82,93,86.7,89,90.7c-4,4-8.7,7.1-13.9,9.3
			c-5.4,2.3-11.1,3.4-17,3.4s-11.6-1.2-17-3.4c-4.2-1.8-8.1-4.2-11.6-7.2L43.1,77.2z"/>
	</g>
</g>
<g id="Re-Do_-_DOWN" class="st0">
	<g class="st3">
		<polygon class="st10" points="62.4,174.8 60.9,164.4 87.5,160.6 83.7,134.1 94,132.6 99.3,169.5 		"/>
		<path class="st10" d="M72.2,192.2c-4,3.4-9,5.3-14.2,5.3c-5.8,0-11.3-2.3-15.4-6.4c-4.1-4.1-6.4-9.6-6.4-15.4
			c0-5.8,2.3-11.3,6.4-15.4c4.1-4.1,9.6-6.4,15.4-6.4c5.8,0,11.3,2.3,15.4,6.4c2.4,2.4,4.2,5.3,5.3,8.5l18.4-6.1
			c-0.3-1-0.7-2.1-1.2-3.1c-2.1-4.9-5-9.3-8.8-13.1c-3.8-3.8-8.2-6.7-13.1-8.8c-5.1-2.1-10.5-3.2-16-3.2s-10.9,1.1-16,3.2
			c-4.9,2.1-9.3,5-13.1,8.8c-3.8,3.8-6.7,8.2-8.8,13.1c-2.1,5.1-3.2,10.5-3.2,16c0,5.6,1.1,10.9,3.2,16c2.1,4.9,5,9.3,8.8,13.1
			c3.8,3.8,8.2,6.7,13.1,8.8c5.1,2.1,10.5,3.2,16,3.2s10.9-1.1,16-3.2c4-1.7,7.7-4,10.9-6.8L72.2,192.2z"/>
	</g>
</g>
<g id="Un-Do_-_DOWN">
	<g>
		<polygon class="st10" points="53.7,175.8 55.2,165.4 28.6,161.6 32.5,135.1 22.1,133.6 16.8,170.5 		"/>
		<path class="st10" d="M43.9,193.2c4,3.4,9,5.3,14.2,5.3c5.8,0,11.3-2.3,15.4-6.4c4.1-4.1,6.4-9.6,6.4-15.4
			c0-5.8-2.3-11.3-6.4-15.4c-4.1-4.1-9.6-6.4-15.4-6.4c-5.8,0-11.3,2.3-15.4,6.4c-2.4,2.4-4.2,5.3-5.3,8.5l-18.4-6.1
			c0.3-1,0.7-2.1,1.2-3.1c2.1-4.9,5-9.3,8.8-13.1c3.8-3.8,8.2-6.7,13.1-8.8c5.1-2.1,10.5-3.2,16-3.2s10.9,1.1,16,3.2
			c4.9,2.1,9.3,5,13.1,8.8c3.8,3.8,6.7,8.2,8.8,13.1c2.1,5.1,3.2,10.5,3.2,16c0,5.6-1.1,10.9-3.2,16c-2.1,4.9-5,9.3-8.8,13.1
			c-3.8,3.8-8.2,6.7-13.1,8.8c-5.1,2.1-10.5,3.2-16,3.2s-10.9-1.1-16-3.2c-4-1.7-7.7-4-10.9-6.8L43.9,193.2z"/>
	</g>
</g>
<g id="Zoom_In_-_ON" class="st0">
	<g class="st3">
		<path class="st6" d="M57.9,41.5c-9.2,0-16.7,7.5-16.7,16.7s7.5,16.7,16.7,16.7s16.7-7.5,16.7-16.7S67.1,41.5,57.9,41.5z
			 M68.9,60.3h-8.9v8.9h-4.4v-8.9h-8.9v-4.4h8.9v-8.9h4.4v8.9h8.9V60.3z"/>
		<path class="st6" d="M73.5,81c-4.4,3-9.8,4.8-15.6,4.8c-15.3,0-27.7-12.4-27.7-27.7c0-15.3,12.4-27.7,27.7-27.7
			c15.3,0,27.7,12.4,27.7,27.7c0,5.9-1.9,11.4-5.1,15.9l9.7,9.7c5.6-7,8.9-16,8.9-25.7c0-22.8-18.5-41.3-41.3-41.3
			c-22.8,0-41.3,18.5-41.3,41.3s18.5,41.3,41.3,41.3c9.5,0,18.3-3.2,25.3-8.7L73.5,81z"/>
	</g>
</g>
<g id="Zoom_out_-_ON" class="st0">
	<g class="st3">
		<path class="st6" d="M57.9,41.5c-9.2,0-16.7,7.5-16.7,16.7s7.5,16.7,16.7,16.7s16.7-7.5,16.7-16.7S67.1,41.5,57.9,41.5z M68.9,60
			H46.8v-4.4h22.1V60z"/>
		<path class="st6" d="M73.7,80.9c-4.5,3.1-9.9,5-15.8,5c-15.3,0-27.7-12.4-27.7-27.7c0-15.3,12.4-27.7,27.7-27.7
			c15.3,0,27.7,12.4,27.7,27.7c0,5.8-1.8,11.3-4.9,15.7l9.7,9.7c5.5-7,8.8-15.9,8.8-25.5c0-22.8-18.5-41.3-41.3-41.3
			c-22.8,0-41.3,18.5-41.3,41.3s18.5,41.3,41.3,41.3c9.6,0,18.5-3.3,25.5-8.8L73.7,80.9z"/>
	</g>
</g>
<g id="Reset_Scale_-_ON" class="st0">
	<g class="st3">
		<path class="st6" d="M57.9,41.5c-9.2,0-16.7,7.5-16.7,16.7s7.5,16.7,16.7,16.7s16.7-7.5,16.7-16.7S67.1,41.5,57.9,41.5z
			 M68.9,65.5H46.8v-4.4h22.1V65.5z M68.9,55.8H46.8v-4.4h22.1V55.8z"/>
		<path class="st6" d="M73.8,80.8c-4.5,3.2-10,5.1-15.9,5.1c-15.3,0-27.7-12.4-27.7-27.7c0-15.3,12.4-27.7,27.7-27.7
			c15.3,0,27.7,12.4,27.7,27.7c0,5.8-1.8,11.1-4.8,15.6l9.7,9.7c5.4-7,8.7-15.8,8.7-25.3c0-22.8-18.5-41.3-41.3-41.3
			c-22.8,0-41.3,18.5-41.3,41.3c0,22.8,18.5,41.3,41.3,41.3c9.7,0,18.6-3.3,25.6-8.9L73.8,80.8z"/>
	</g>
</g>
<g id="Zoom_In_-_DOWN" class="st0">
	<g class="st3">
		<g>
			<path class="st10" d="M57.9,158.7c-8.7,0-15.8,7.1-15.8,15.8c0,8.7,7.1,15.8,15.8,15.8s15.8-7.1,15.8-15.8
				C73.6,165.7,66.6,158.7,57.9,158.7z M68.3,176.5H60v8.4h-4.1v-8.4h-8.4v-4.1h8.4V164H60v8.4h8.4V176.5z"/>
		</g>
		<g>
			<path class="st10" d="M72.6,196c-4.2,2.9-9.3,4.6-14.7,4.6c-14.4,0-26.2-11.7-26.2-26.2c0-14.4,11.7-26.2,26.2-26.2
				c14.4,0,26.2,11.7,26.2,26.2c0,5.6-1.8,10.8-4.8,15l9.2,9.2c5.3-6.7,8.5-15.1,8.5-24.2c0-21.6-17.5-39-39-39
				c-21.6,0-39,17.5-39,39s17.5,39,39,39c9,0,17.3-3.1,23.9-8.2L72.6,196z"/>
		</g>
	</g>
</g>
<g id="Zoom_out_-_DOWN" class="st0">
	<g class="st3">
		<g>
			<path class="st10" d="M57.9,158.7c-8.7,0-15.8,7.1-15.8,15.8c0,8.7,7.1,15.8,15.8,15.8s15.8-7.1,15.8-15.8
				C73.6,165.7,66.6,158.7,57.9,158.7z M68.3,176.2H47.4V172h20.9V176.2z"/>
		</g>
		<g>
			<path class="st10" d="M72.8,195.9c-4.2,2.9-9.4,4.7-14.9,4.7c-14.4,0-26.2-11.7-26.2-26.2c0-14.4,11.7-26.2,26.2-26.2
				c14.4,0,26.2,11.7,26.2,26.2c0,5.5-1.7,10.6-4.7,14.9l9.2,9.2c5.2-6.6,8.3-15,8.3-24.1c0-21.6-17.5-39-39-39
				c-21.6,0-39,17.5-39,39s17.5,39,39,39c9.1,0,17.5-3.1,24.1-8.4L72.8,195.9z"/>
		</g>
	</g>
</g>
<g id="Reset_Scale_-_DOWN" class="st0">
	<g class="st3">
		<g>
			<path class="st10" d="M57.9,158.7c-8.7,0-15.8,7.1-15.8,15.8c0,8.7,7.1,15.8,15.8,15.8s15.8-7.1,15.8-15.8
				C73.6,165.7,66.6,158.7,57.9,158.7z M68.3,181.4H47.4v-4.1h20.9V181.4z M68.3,172.2H47.4v-4.1h20.9V172.2z"/>
		</g>
		<g>
			<path class="st10" d="M72.9,195.8c-4.3,3-9.4,4.8-15,4.8c-14.4,0-26.2-11.7-26.2-26.2c0-14.4,11.7-26.2,26.2-26.2
				c14.4,0,26.2,11.7,26.2,26.2c0,5.5-1.7,10.5-4.6,14.7l9.2,9.2c5.1-6.6,8.2-14.9,8.2-23.9c0-21.6-17.5-39-39-39
				c-21.6,0-39,17.5-39,39c0,21.6,17.5,39,39,39c9.2,0,17.6-3.2,24.2-8.4L72.9,195.8z"/>
		</g>
	</g>
</g>
<g id="Play_-_ON" class="st0">
	<path class="st11" d="M92.7,37L65,40V29.5c0-1.2-1-2-2.1-1.9L32,31v-3.5h-5.4v68.6H32V72.5l29-3.2v10.5c0,1.2,1,2,2.1,1.9l29.6-3.2
		c1.2-0.1,2.1-1.2,2.1-2.4V38.9C94.8,37.8,93.9,36.9,92.7,37z"/>
</g>
<g id="Play_-_DOWN" class="st0">
	<path class="st12" d="M90.6,154.5l-26.1,2.8v-9.9c0-1.1-0.9-1.9-2-1.8l-29.1,3.2v-3.3h-5v64.5h5v-22.3l27.3-3v9.9
		c0,1.1,0.9,1.9,2,1.8l27.8-3c1.1-0.1,2-1.1,2-2.2v-35C92.7,155.2,91.7,154.4,90.6,154.5z"/>
</g>
<g id="Stop_-_ON" class="st0">
	<polygon class="st13" points="73,25.7 93.2,45.9 93.2,74.4 73,94.5 44.5,94.5 24.4,74.4 24.4,45.9 44.5,25.7 	"/>
</g>
<g id="Stop_-_DOWN" class="st0">
	<polygon class="st14" points="72.1,143.8 91.1,162.8 91.1,189.6 72.1,208.5 45.3,208.5 26.4,189.6 26.4,162.8 45.3,143.8 	"/>
</g>
<g id="Back_-_ON" class="st0">
	<path class="st15" d="M34.1,58l29.2,29.2c2.4,2.4,6.4,2.4,8.8,0l3.5-3.5c2.4-2.4,2.4-6.4,0-8.8L60.6,59.8c-1-1-1-2.6,0-3.6
		l14.9-14.9c2.4-2.4,2.4-6.4,0-8.8L72,29c-2.4-2.4-6.4-2.4-8.8,0L34.1,58L34.1,58z"/>
	<path class="st16" d="M67.8,90.5c-2.1,0-4-0.8-5.4-2.2L32.1,58l30-30c1.4-1.4,3.4-2.2,5.4-2.2c2.1,0,4,0.8,5.4,2.2l3.5,3.5
		c3,3,3,7.9,0,10.9L61.6,57.2c-0.2,0.2-0.3,0.5-0.3,0.8c0,0.3,0.1,0.6,0.3,0.8l15.1,15.1c1.4,1.4,2.2,3.4,2.2,5.4
		c0,2.1-0.8,4-2.2,5.4l-3.5,3.5C71.7,89.7,69.8,90.5,67.8,90.5z M36.1,58l28.2,28.2c0.9,0.9,2.1,1.4,3.4,1.4c1.3,0,2.5-0.5,3.4-1.4
		l3.5-3.5c0.9-0.9,1.4-2.1,1.4-3.4c0-1.3-0.5-2.5-1.4-3.4L59.6,60.8c-1.5-1.5-1.5-4.1,0-5.6l14.9-14.9c1.9-1.9,1.9-5,0-6.8L71,30
		c-0.9-0.9-2.1-1.4-3.4-1.4s-2.5,0.5-3.4,1.4L36.1,58z"/>
	<path class="st17" d="M67.8,90.5c-2.1,0-4-0.8-5.4-2.2L32.1,58l30-30c1.4-1.4,3.4-2.2,5.4-2.2c2.1,0,4,0.8,5.4,2.2l3.5,3.5
		c3,3,3,7.9,0,10.9L61.6,57.2c-0.2,0.2-0.3,0.5-0.3,0.8c0,0.3,0.1,0.6,0.3,0.8l15.1,15.1c1.4,1.4,2.2,3.4,2.2,5.4
		c0,2.1-0.8,4-2.2,5.4l-3.5,3.5C71.7,89.7,69.8,90.5,67.8,90.5z M36.1,58l28.2,28.2c0.9,0.9,2.1,1.4,3.4,1.4c1.3,0,2.5-0.5,3.4-1.4
		l3.5-3.5c0.9-0.9,1.4-2.1,1.4-3.4c0-1.3-0.5-2.5-1.4-3.4L59.6,60.8c-1.5-1.5-1.5-4.1,0-5.6l14.9-14.9c1.9-1.9,1.9-5,0-6.8L71,30
		c-0.9-0.9-2.1-1.4-3.4-1.4s-2.5,0.5-3.4,1.4L36.1,58z"/>
</g>
<g id="Back_-_DOWN" class="st0">
	<g class="st3">
		<path class="st7" d="M35.2,174.3l27.7,27.7c2.3,2.3,6.1,2.3,8.4,0l3.3-3.3c2.3-2.3,2.3-6.1,0-8.4L60.3,176c-0.9-0.9-0.9-2.5,0-3.4
			l14.1-14.1c2.3-2.3,2.3-6.1,0-8.4l-3.3-3.3c-2.3-2.3-6.1-2.3-8.4,0L35.2,174.3L35.2,174.3z"/>
		<path class="st18" d="M67.1,205.1c-2,0-3.8-0.8-5.2-2.1l-28.7-28.7l28.5-28.5c1.4-1.4,3.2-2.1,5.2-2.1c2,0,3.8,0.8,5.2,2.1
			l3.3,3.3c2.8,2.8,2.8,7.5,0,10.3l-14.1,14.1c-0.2,0.2-0.3,0.5-0.3,0.8s0.1,0.6,0.3,0.8l14.3,14.3c1.4,1.4,2.1,3.2,2.1,5.2
			s-0.8,3.8-2.1,5.2l-3.3,3.3C70.9,204.4,69.1,205.1,67.1,205.1z M37.1,174.3l26.8,26.8c0.9,0.9,2,1.3,3.2,1.3
			c1.2,0,2.4-0.5,3.2-1.3l3.3-3.3c0.9-0.9,1.3-2,1.3-3.2s-0.5-2.4-1.3-3.2L59.4,177c-1.5-1.5-1.5-3.8,0-5.3l14.1-14.1
			c1.8-1.8,1.8-4.7,0-6.5l-3.3-3.3c-0.9-0.9-2-1.3-3.2-1.3c-1.2,0-2.4,0.5-3.2,1.3L37.1,174.3z"/>
	</g>
	<path class="st19" d="M67.1,205.1c-2,0-3.8-0.8-5.2-2.1l-28.7-28.7l28.5-28.5c1.4-1.4,3.2-2.1,5.2-2.1c2,0,3.8,0.8,5.2,2.1l3.3,3.3
		c2.8,2.8,2.8,7.5,0,10.3l-14.1,14.1c-0.2,0.2-0.3,0.5-0.3,0.8s0.1,0.6,0.3,0.8l14.3,14.3c1.4,1.4,2.1,3.2,2.1,5.2s-0.8,3.8-2.1,5.2
		l-3.3,3.3C70.9,204.4,69.1,205.1,67.1,205.1z M37.1,174.3l26.8,26.8c0.9,0.9,2,1.3,3.2,1.3c1.2,0,2.4-0.5,3.2-1.3l3.3-3.3
		c0.9-0.9,1.3-2,1.3-3.2s-0.5-2.4-1.3-3.2L59.4,177c-1.5-1.5-1.5-3.8,0-5.3l14.1-14.1c1.8-1.8,1.8-4.7,0-6.5l-3.3-3.3
		c-0.9-0.9-2-1.3-3.2-1.3c-1.2,0-2.4,0.5-3.2,1.3L37.1,174.3z"/>
</g>
<g id="Layer_23" class="st0">
	<rect class="st20" width="116.3" height="116.3"/>
	<rect y="116.3" class="st20" width="116.3" height="116.3"/>
</g>
</svg>
