<?xml version="1.0" encoding="utf-8"?>
<!-- Generator: Adobe Illustrator 20.1.0, SVG Export Plug-In . SVG Version: 6.00 Build 0)  -->
<svg version="1.1" id="CLOSEBUTTON_x5F_On" xmlns="http://www.w3.org/2000/svg" xmlns:xlink="http://www.w3.org/1999/xlink" x="0px"
	 y="0px" viewBox="0 0 88 88" style="enable-background:new 0 0 88 88;" xml:space="preserve">
<style type="text/css">
	.st0{fill:#535252;stroke:#CECECE;stroke-width:4;stroke-miterlimit:10;enable-background:new    ;}
	.st1{fill:#2A9FBA;}
</style>
<path class="st0" d="M43.8,83.4c-35.1,0-37.4,1.7-37.4-43.9c0-26.8,0-33.3,37.4-33.3c38.7,0,38.5,6.5,38.5,33.6
	C82.4,85.4,79.5,83.4,43.8,83.4z"/>
<g>
	<path class="st1" d="M53.1,18.2H36.6c-6.8,0-12.4,5.6-12.4,12.4v16.6c0,6.8,5.6,12.4,12.4,12.4h16.6c6.8,0,12.4-5.6,12.4-12.4V30.6
		C65.6,23.7,60,18.2,53.1,18.2z M57.5,42.5c0,4.9-4,8.9-8.9,8.9h-7.5c-4.9,0-8.9-4-8.9-8.9v-7.4c0-4.9,4-8.9,8.9-8.9h7.4
		c4.9,0,8.9,4,8.9,8.9L57.5,42.5L57.5,42.5z"/>
	<path class="st1" d="M48.2,47.3h-6.6c-2.8,0-5.2-2.3-5.2-5.2v-6.6c0-2.8,2.3-5.2,5.2-5.2h6.6c2.8,0,5.2,2.3,5.2,5.2v6.6
		C53.3,45,51,47.3,48.2,47.3z"/>
	<path class="st1" d="M54.1,61.8h-4.9l4.6,12.4l5.3-5.7l7.7,0.9l-4-10.7C60.4,60.6,57.3,61.8,54.1,61.8z"/>
	<polygon class="st1" points="37.9,61.8 35.4,71.1 43,69.5 48.8,74.8 49.8,71 46.4,61.8 	"/>
</g>
</svg>
