<?xml version="1.0" encoding="utf-8"?>
<!-- Generator: Adobe Illustrator 20.1.0, SVG Export Plug-In . SVG Version: 6.00 Build 0)  -->
<svg version="1.1" id="CLOSEBUTTON_x5F_On" xmlns="http://www.w3.org/2000/svg" xmlns:xlink="http://www.w3.org/1999/xlink" x="0px"
	 y="0px" viewBox="0 0 88 88" style="enable-background:new 0 0 88 88;" xml:space="preserve">
<style type="text/css">
	.st0{fill:url(#SVGID_1_);}
	.st1{fill:#D3B226;}
	.st2{fill:url(#SVGID_2_);}
</style>
<g>
	<g>
		<linearGradient id="SVGID_1_" gradientUnits="userSpaceOnUse" x1="17.1509" y1="10.3412" x2="71.6357" y2="80.0786">
			<stop  offset="0" style="stop-color:#D9D9A0"/>
			<stop  offset="0.2744" style="stop-color:#D9C00F"/>
			<stop  offset="0.4278" style="stop-color:#AB8943"/>
			<stop  offset="0.6254" style="stop-color:#C7AD39"/>
			<stop  offset="0.7151" style="stop-color:#D9C00F"/>
			<stop  offset="1" style="stop-color:#D1D19A"/>
		</linearGradient>
		<path class="st0" d="M43.8,81.7l-6.6,0c-13.2,0-20.9-0.3-24.9-5.7C8.6,70.8,8,61,8,39.7C8,14,8,7.9,43.8,7.9
			c19.1,0,27.8,1.7,32.3,6.3c4.6,4.7,4.6,12.5,4.6,25.5V40c0,22.3-0.7,32.4-5.6,37.3c-4,4-10.6,4.5-23.6,4.5
			C51.5,81.7,45.3,81.7,43.8,81.7z M40.6,76.5c0.4,0.7,1.5,1.9,3.9,1.9c2.4,0,3.4-1.1,3.8-1.9h3.8v-2h-4.5l-0.8,0l-0.2,0.8
			c0,0.1-0.3,1.1-2.2,1.1c-1.9,0-2.2-1-2.3-1.1l-0.2-0.8h-5.2v2H40.6z M36.9,71.9h15.3v-2H36.9V71.9z M36.9,67.6h15.3v-2H36.9V67.6z
			 M44.3,19.8c-11.6,0-18.8,7.8-18.8,20.3c0,8.6,4,12.1,7.6,15.2c2.6,2.3,4.9,4.2,4.9,7.8v0.1h12.7v-0.1c0-3.6,2.3-5.7,5-8
			c3.5-3.1,7.5-6.7,7.5-14.9C63.1,27.6,55.9,19.8,44.3,19.8z M58,56.2l4.4,2.4l0.4-0.4l-2.1-4.7L58,56.2z M25.4,57.3l0.7,0.7
			l4.4-2.5l-2.8-2.8L25.4,57.3z M65.7,41.5l4.8-1.3v-1l-4.8-1.6V41.5z M18.1,38.6v0.5L23,41v-3.9L18.1,38.6z M58.1,22.9l2.8,2.8
			l2.3-4.6l-0.6-0.6L58.1,22.9z M25.4,21l2.4,4.4l2.8-2.8L26,20.5L25.4,21z M42.3,17.9h3.9l-2-5.1L42.3,17.9z"/>
		<path class="st1" d="M43.8,8c19,0,27.8,1.7,32.2,6.2c4.5,4.7,4.5,12.5,4.5,25.4l0,0.4c0,22.3-0.7,32.4-5.5,37.2
			c-4,4-10.5,4.4-23.5,4.4c-1.1,0-2.3,0-3.6,0c-1.3,0-2.7,0-4.1,0c-1.2,0-2.4,0-3.5,0c-1.1,0-2.1,0-3.1,0c-27,0-29.1-1-29.1-41.9
			C8.2,14.1,8.2,8,43.8,8 M42.2,18h0.4h3.6h0.4l-0.1-0.3l-1.8-4.6l-0.2-0.6l-0.2,0.6l-1.8,4.6L42.2,18 M37.8,63.3h0.2h12.5h0.2v-0.2
			c0-3.6,2.3-5.6,4.9-7.9c3.5-3.1,7.6-6.7,7.6-15c0-12.6-7.3-20.5-19-20.5c-11.7,0-19,7.8-19,20.5c0,8.7,4.1,12.2,7.6,15.2
			c2.6,2.2,4.8,4.2,4.8,7.7V63.3 M60.9,25.9l0.2-0.3l2.2-4.3l0.1-0.2L63.2,21l-0.5-0.5l-0.1-0.1l-0.2,0.1l-4.2,2.3l-0.3,0.2l0.2,0.2
			l2.5,2.5L60.9,25.9 M27.9,25.6l0.2-0.2l2.5-2.5l0.3-0.3l-0.3-0.2l-4.4-2.1l-0.2-0.1l-0.1,0.1l-0.4,0.4L25.3,21l0.1,0.2l2.3,4.2
			L27.9,25.6 M23.1,41.2v-0.4v-3.6v-0.3L22.8,37l-4.6,1.4L18,38.5v0.2V39v0.2l0.2,0.1l4.6,1.8L23.1,41.2 M65.6,41.7l0.3-0.1l4.6-1.3
			l0.2-0.1v-0.2v-0.8v-0.2L70.5,39l-4.6-1.5l-0.3-0.1v0.3v3.6V41.7 M26.1,58.1l0.2-0.1l4.1-2.3l0.3-0.2l-0.2-0.2l-2.5-2.5l-0.2-0.2
			l-0.2,0.3l-2.2,4.3l-0.1,0.2l0.1,0.1l0.5,0.5L26.1,58.1 M62.4,58.7l0.1-0.1l0.3-0.3l0.1-0.1L62.9,58l-2-4.5l-0.1-0.3l-0.3,0.3
			L58,56l-0.2,0.2l0.3,0.2l4.2,2.3L62.4,58.7 M36.7,67.7H37h15.1h0.2v-0.2v-1.8v-0.2h-0.2H37h-0.2v0.2v1.8V67.7 M36.7,72H37h15.1
			h0.2v-0.2V70v-0.2h-0.2H37h-0.2V70v1.8V72 M44.5,76.2c-1.8,0-2.1-0.9-2.1-1l-0.2-0.7l0-0.2H42h-5h-0.2v0.2v1.8v0.2H37h3.6
			c0.5,0.7,1.6,1.9,4,1.9c2.4,0,3.5-1.1,3.9-1.9h3.6h0.2v-0.2v-1.8v-0.2h-0.2l-4.4,0l-0.7,0l-0.2,0l0,0.2l-0.2,0.7
			C46.6,75.3,46.3,76.2,44.5,76.2 M43.8,7.7C7.9,7.7,7.9,14,7.9,39.7c0,40.7,1.9,42.2,29.3,42.2c2,0,4.2,0,6.6,0c2.8,0,5.3,0,7.7,0
			c27,0,29.4-1.6,29.3-41.9C80.8,14,81,7.7,43.8,7.7L43.8,7.7z M42.5,17.8l1.8-4.6l1.8,4.6H42.5L42.5,17.8z M38.1,63.1
			c0-8.5-12.5-8-12.5-23c0-12.7,7.2-20.2,18.7-20.2c11.5,0,18.7,7.5,18.7,20.2c0,14.5-12.5,14.5-12.5,23H38.1L38.1,63.1z M60.9,25.5
			L58.3,23l4.2-2.3l0.5,0.5L60.9,25.5L60.9,25.5z M27.9,25.2l-2.3-4.2l0.4-0.4l4.4,2.1L27.9,25.2L27.9,25.2z M22.8,40.8L18.2,39
			v-0.4l4.6-1.4V40.8L22.8,40.8z M65.9,41.4v-3.6l4.6,1.5v0.8L65.9,41.4L65.9,41.4z M26.1,57.8l-0.5-0.5l2.2-4.3l2.5,2.5L26.1,57.8
			L26.1,57.8z M62.4,58.4l-4.2-2.3l2.5-2.5l2,4.5L62.4,58.4L62.4,58.4z M37,67.4v-1.8h15.1v1.8H37L37,67.4z M37,71.8V70h15.1v1.8H37
			L37,71.8z M44.5,76.4c2,0,2.3-1,2.3-1.2l0.2-0.7l0.7,0h4.4v1.8h-3.8c-0.4,0.8-1.4,1.9-3.8,1.9c-2.3,0-3.4-1.1-3.8-1.9H37v-1.8h5
			l0.2,0.7C42.2,75.4,42.5,76.4,44.5,76.4L44.5,76.4z"/>
	</g>
	<g>
		<linearGradient id="SVGID_2_" gradientUnits="userSpaceOnUse" x1="36.5358" y1="29.3275" x2="52.0756" y2="49.2175">
			<stop  offset="0" style="stop-color:#D9D9A0"/>
			<stop  offset="0.2744" style="stop-color:#D9C00F"/>
			<stop  offset="0.4278" style="stop-color:#AB8943"/>
			<stop  offset="0.6254" style="stop-color:#C7AD39"/>
			<stop  offset="0.7151" style="stop-color:#D9C00F"/>
			<stop  offset="1" style="stop-color:#D1D19A"/>
		</linearGradient>
		<path class="st2" d="M42.1,51.7v-2.5l-0.1,0c-1.1-0.2-2.1-0.7-3-1.3l-0.1-0.1l-1.8,1.8l-3.2-3.2l1.8-1.8l-0.1-0.1
			c-0.6-0.9-1-2-1.3-3l0-0.1h-2.5V37h2.5l0-0.1c0.2-1.1,0.7-2.1,1.3-3l0.1-0.1L33.9,32l3.2-3.2l1.8,1.8l0.1-0.1c0.9-0.6,2-1,3-1.3
			l0.1,0v-2.5h4.4v2.5l0.1,0c1.1,0.2,2.1,0.7,3,1.3l0.1,0.1l1.8-1.8l3.2,3.2l-1.8,1.8l0.1,0.1c0.6,0.9,1,2,1.3,3l0,0.1h2.5v4.5h-2.5
			l0,0.1c-0.2,1.1-0.7,2.1-1.3,3l-0.1,0.1l1.8,1.8l-3.2,3.2l-1.8-1.8l-0.1,0.1c-0.9,0.6-2,1-3,1.3l-0.1,0v2.5H42.1z M44.3,32.3
			c-0.1,0-0.2,0-0.2,0c-0.1,0-0.1,0-0.2,0c-0.5,0-0.9,0.1-1.4,0.3l-0.1,0c-0.1,0-0.3,0.1-0.4,0.1c-0.5,0.2-1,0.5-1.5,0.8
			c-1.9,1.3-3,3.4-3,5.7c0,2.3,1.1,4.4,3,5.7c0.4,0.3,1,0.6,1.5,0.8c0.1,0.1,0.3,0.1,0.4,0.1l0.1,0c0.5,0.1,1,0.2,1.4,0.3l0.1,0
			c0.1,0,0.2,0,0.3,0c0.1,0,0.2,0,0.3,0l0.1,0c0.5,0,0.9-0.1,1.4-0.3l0.1,0c0.1,0,0.3-0.1,0.4-0.1c0.5-0.2,1-0.5,1.5-0.8
			c1.9-1.3,3-3.4,3-5.7c0-2.3-1.1-4.4-3-5.7c-0.5-0.3-1-0.6-1.5-0.8c-0.1,0-0.2-0.1-0.4-0.1l-0.2,0c-0.5-0.1-1-0.2-1.4-0.3
			c-0.1,0-0.1,0-0.2,0C44.5,32.3,44.4,32.3,44.3,32.3L44.3,32.3L44.3,32.3z"/>
		<path class="st1" d="M46.4,26.9v2.3v0.2l0.2,0c1,0.2,2,0.7,3,1.2l0.2,0.1l0.1-0.1l1.6-1.6l3,3l-1.6,1.6l-0.1,0.1l0.1,0.2
			c0.6,0.9,1,1.9,1.2,3l0,0.2h0.2h2.3v4.2h-2.3h-0.2l0,0.2c-0.2,1-0.7,2-1.2,3l-0.1,0.2l0.1,0.1l1.6,1.6l-3,3l-1.6-1.6l-0.1-0.1
			l-0.2,0.1c-0.9,0.6-1.9,1-3,1.2l-0.2,0v0.2v2.3h-0.3h-3.8v-2.3v-0.2l-0.2,0c-1-0.2-2-0.7-3-1.2l-0.2-0.1l-0.1,0.1l-1.6,1.6l-3-3
			l1.6-1.6l0.1-0.1l-0.1-0.2c-0.6-0.9-1-1.9-1.2-3l0-0.2h-0.2H32v-4.2h2.3h0.2l0-0.2c0.2-1,0.7-2,1.2-3l0.1-0.2l-0.1-0.1L34.1,32
			l3-3l1.6,1.6l0.1,0.1l0.2-0.1c0.9-0.6,1.9-1,3-1.2l0.2,0v-0.2v-2.3h0.3h3.5H46.4 M44.3,46.4L44.3,46.4c0.1,0,0.2,0,0.3,0
			c0,0,0.1,0,0.1,0c0.5,0,1-0.1,1.4-0.3l0.1,0c0.2,0,0.3-0.1,0.5-0.1c0.6-0.2,1.1-0.5,1.5-0.8c1.9-1.3,3-3.5,3-5.8
			c0-2.3-1.1-4.5-3-5.8c-0.5-0.3-1-0.6-1.5-0.8c-0.1,0-0.2-0.1-0.4-0.1l-0.2-0.1c-0.5-0.2-1-0.2-1.5-0.3c-0.1,0-0.1,0-0.2,0
			c-0.1,0-0.2,0-0.3,0c-0.1,0-0.2,0-0.3,0c-0.1,0-0.1,0-0.2,0c-0.5,0-0.9,0.1-1.4,0.3l-0.1,0c-0.1,0-0.3,0.1-0.4,0.1
			c-0.5,0.2-1,0.5-1.5,0.8c-1.9,1.3-3,3.5-3,5.8c0,2.3,1.1,4.5,3,5.8c0.5,0.3,1,0.6,1.5,0.8c0.1,0.1,0.3,0.1,0.4,0.1l0.1,0
			c0.5,0.2,1,0.2,1.4,0.3l0.1,0C44.1,46.3,44.2,46.4,44.3,46.4L44.3,46.4 M46.6,26.7h-0.6h-3.5H42v2.5c-1.1,0.3-2.1,0.7-3.1,1.3
			l-1.8-1.8L33.8,32l1.8,1.8c-0.6,0.9-1,2-1.3,3.1h-2.5v4.7h2.5c0.3,1.1,0.7,2.1,1.3,3.1l-1.8,1.8l3.4,3.4l1.8-1.8
			c0.9,0.6,2,1,3.1,1.3v2.5h4.1h0.6v-2.5c1.1-0.3,2.1-0.7,3.1-1.3l1.8,1.8l3.4-3.4L53,44.7c0.6-0.9,1-2,1.3-3.1h2.5v-4.7h-2.5
			c-0.3-1.1-0.7-2.1-1.3-3.1l1.8-1.8l-3.4-3.4l-1.8,1.8c-0.9-0.6-2-1-3.1-1.3V26.7L46.6,26.7z M44.3,46.1c-0.1,0-0.3,0-0.4,0
			c-0.5,0-0.9-0.1-1.4-0.2c-0.2-0.1-0.4-0.1-0.5-0.2c-0.5-0.2-1-0.5-1.5-0.8c-1.8-1.2-2.9-3.3-2.9-5.6c0-2.3,1.2-4.4,2.9-5.6
			c0.5-0.3,0.9-0.6,1.5-0.8c0.2-0.1,0.4-0.1,0.6-0.2c0.4-0.1,0.9-0.2,1.4-0.2c0.1,0,0.3,0,0.4,0c0.1,0,0.3,0,0.4,0
			c0.5,0,1,0.1,1.4,0.3c0.2,0.1,0.4,0.1,0.5,0.2c0.5,0.2,1,0.5,1.5,0.8c1.8,1.2,2.9,3.3,2.9,5.6c0,2.3-1.2,4.4-2.9,5.6
			c-0.5,0.3-0.9,0.6-1.5,0.8c-0.2,0.1-0.4,0.1-0.5,0.2c-0.4,0.1-0.9,0.2-1.4,0.2C44.6,46.1,44.4,46.1,44.3,46.1L44.3,46.1z"/>
	</g>
</g>
</svg>
