<?xml version="1.0" encoding="utf-8"?>
<!-- Generator: Adobe Illustrator 20.1.0, SVG Export Plug-In . SVG Version: 6.00 Build 0)  -->
<svg version="1.1" id="Layer_1" xmlns="http://www.w3.org/2000/svg" xmlns:xlink="http://www.w3.org/1999/xlink" x="0px" y="0px"
	 width="40.3px" height="80.5px" viewBox="0 0 40.3 80.5" style="enable-background:new 0 0 40.3 80.5;" xml:space="preserve">
<style type="text/css">
	.st0{fill:#F4D71F;}
	.st1{fill:url(#SVGID_1_);}
	.st2{fill:url(#SVGID_2_);}
	.st3{fill:url(#SVGID_3_);}
	.st4{fill:url(#SVGID_4_);}
	.st5{fill:url(#SVGID_5_);}
	.st6{fill:url(#SVGID_6_);}
	.st7{fill:url(#SVGID_7_);}
	.st8{fill:url(#SVGID_8_);}
	.st9{fill:url(#SVGID_9_);}
	.st10{fill:url(#SVGID_10_);}
	.st11{fill:url(#SVGID_11_);}
	.st12{fill:url(#SVGID_12_);}
	.st13{fill:url(#SVGID_13_);}
	.st14{fill:url(#SVGID_14_);}
	.st15{fill:url(#SVGID_15_);}
	.st16{fill:url(#SVGID_16_);}
	.st17{fill:url(#SVGID_17_);}
	.st18{fill:url(#SVGID_18_);}
	.st19{fill:url(#SVGID_19_);}
	.st20{fill:url(#SVGID_20_);}
	.st21{fill:url(#SVGID_21_);}
	.st22{fill:url(#SVGID_22_);}
	.st23{fill:url(#SVGID_23_);}
	.st24{fill:url(#SVGID_24_);}
	.st25{fill:url(#SVGID_25_);}
	.st26{fill:url(#SVGID_26_);}
	.st27{fill:url(#SVGID_27_);}
	.st28{fill:url(#SVGID_28_);}
	.st29{fill:url(#SVGID_29_);}
	.st30{fill:url(#SVGID_30_);}
	.st31{opacity:0.3;}
	.st32{fill:#7C6A11;}
</style>
<g id="Layer_1_1_">
</g>
<g id="Layer_1_2_">
</g>
<g id="Layer_1_3_">
</g>
<g>
	
		<image style="overflow:visible;opacity:0.3;enable-background:new    ;" width="26" height="26" xlink:href="A304C5EAD1B95F3E.png"  transform="matrix(1.1543 0 0 1.1543 4.9946 5.4946)">
	</image>
	<g>
		<g>
			<path class="st0" d="M23,16.3l0.6-0.6l-1.1-1.1l-0.7,0.5c-0.4-0.2-0.6-0.4-1.1-0.5v-0.7h-0.2h-1.2H19v0.8
				c-0.4,0.1-0.7,0.2-1.1,0.5l-0.4-0.7l-1.1,1.1l0.6,0.6c-0.2,0.4-0.4,0.6-0.5,1.1h-0.8v1.6h0.8c0.1,0.4,0.2,0.7,0.5,1.1l-0.6,0.6
				l1.1,1.1l0.6-0.6c0.4,0.2,0.6,0.4,1.1,0.5v0.8h1.4H21v-0.8c0.4-0.1,0.7-0.2,1.1-0.5l0.6,0.6l1.1-1.1L23,19.9
				c0.2-0.4,0.4-0.6,0.5-1.1h0.8v-1.6h-0.8C23.4,16.9,23.2,16.7,23,16.3z M21.3,20c-0.1,0.1-0.4,0.2-0.5,0.2c0,0-0.1,0-0.2,0
				s-0.4,0.1-0.5,0.1H20h-0.1c-0.1,0-0.4,0-0.5-0.1c-0.1,0-0.1,0-0.2,0c-0.1-0.1-0.4-0.1-0.5-0.2c-0.6-0.4-1-1.1-1-1.9
				c0-0.8,0.4-1.4,1-1.9c0.1-0.1,0.4-0.2,0.5-0.2c0.1,0,0.1,0,0.2,0s0.4-0.1,0.5-0.1H20h0.1c0.1,0,0.4,0,0.5,0.1h0.1
				c0.1,0.1,0.4,0.1,0.5,0.2c0.6,0.4,1,1.1,1,1.9C22.3,18.9,21.9,19.5,21.3,20z"/>
			<path class="st0" d="M25.3,7.1H15c-4.3,0-7.8,3.5-7.8,7.8v10.3c0,4.3,3.5,7.8,7.8,7.8h10.3c4.3,0,7.8-3.5,7.8-7.8V14.9
				C33.1,10.7,29.6,7.1,25.3,7.1z M19.4,9.3h1.2v1.6h-1.2V9.3z M14.2,11.4l1.1,1.1l-0.8,0.8l-1.1-1.1L14.2,11.4z M12.8,18.7h-1.6
				v-1.2h1.6V18.7z M14.2,24.7l-0.8-0.8l1.1-1.1l0.8,0.8L14.2,24.7z M22.6,30.6h-1.3c-0.1,0.2-0.5,0.6-1.3,0.6s-1.2-0.4-1.3-0.6
				h-1.2V30h1.7v0.2c0,0,0.1,0.4,0.8,0.4s0.7-0.4,0.8-0.4V30h0.2h1.4v0.6H22.6z M22.6,29.1h-5v-0.6h5V29.1z M22.6,27.6h-5V27h5V27.6
				z M22.2,26.1H18c0-2.9-4.2-2.6-4.2-7.8c0-4.3,2.4-6.8,6.4-6.8c3.8,0,6.4,2.5,6.4,6.8C26.4,23.3,22.2,23.3,22.2,26.1z M25.8,24.9
				l-1.1-1.1l0.8-0.8l1.1,1.1L25.8,24.9z M25.6,13.4l-0.8-0.8l1.1-1.1l0.8,0.8L25.6,13.4z M28.9,18.8h-1.6v-1.2h1.6V18.8z"/>
		</g>
	</g>
</g>
<g>
	
		<linearGradient id="SVGID_1_" gradientUnits="userSpaceOnUse" x1="12.9715" y1="72.3971" x2="29.8465" y2="52.1709" gradientTransform="matrix(1 0 0 -1 0 82)">
		<stop  offset="8.452248e-02" style="stop-color:#F0C91C"/>
		<stop  offset="0.3994" style="stop-color:#CAA806"/>
		<stop  offset="0.6584" style="stop-color:#F4D71F"/>
		<stop  offset="0.8596" style="stop-color:#F0C91C"/>
		<stop  offset="1" style="stop-color:#FFD62A"/>
	</linearGradient>
	<path class="st1" d="M23,16.3l0.6-0.6l-1.1-1.1l-0.7,0.5c-0.4-0.2-0.6-0.4-1.1-0.5v-0.7h-0.2h-1.2H19v0.8c-0.4,0.1-0.7,0.2-1.1,0.5
		l-0.4-0.7l-1.1,1.1l0.6,0.6c-0.2,0.4-0.4,0.6-0.5,1.1h-0.8v1.6h0.8c0.1,0.4,0.2,0.7,0.5,1.1l-0.6,0.6l1.1,1.1l0.6-0.6
		c0.4,0.2,0.6,0.4,1.1,0.5v0.8h1.4H21v-0.8c0.4-0.1,0.7-0.2,1.1-0.5l0.6,0.6l1.1-1.1L23,19.9c0.2-0.4,0.4-0.6,0.5-1.1h0.8v-1.6h-0.8
		C23.4,16.9,23.2,16.7,23,16.3z M21.3,20c-0.1,0.1-0.4,0.2-0.5,0.2c0,0-0.1,0-0.2,0s-0.4,0.1-0.5,0.1H20h-0.1c-0.1,0-0.4,0-0.5-0.1
		c-0.1,0-0.1,0-0.2,0c-0.1-0.1-0.4-0.1-0.5-0.2c-0.6-0.4-1-1.1-1-1.9c0-0.8,0.4-1.4,1-1.9c0.1-0.1,0.4-0.2,0.5-0.2
		c0.1,0,0.1,0,0.2,0s0.4-0.1,0.5-0.1H20h0.1c0.1,0,0.4,0,0.5,0.1h0.1c0.1,0.1,0.4,0.1,0.5,0.2c0.6,0.4,1,1.1,1,1.9
		C22.3,18.9,21.9,19.5,21.3,20z"/>
	
		<linearGradient id="SVGID_2_" gradientUnits="userSpaceOnUse" x1="12.0498" y1="71.6283" x2="28.9249" y2="51.402" gradientTransform="matrix(1 0 0 -1 0 82)">
		<stop  offset="8.452248e-02" style="stop-color:#F0C91C"/>
		<stop  offset="0.3994" style="stop-color:#CAA806"/>
		<stop  offset="0.6584" style="stop-color:#F4D71F"/>
		<stop  offset="0.8596" style="stop-color:#F0C91C"/>
		<stop  offset="1" style="stop-color:#FFD62A"/>
	</linearGradient>
	<path class="st2" d="M25.3,7.1H15c-4.3,0-7.8,3.5-7.8,7.8v10.3c0,4.3,3.5,7.8,7.8,7.8h10.3c4.3,0,7.8-3.5,7.8-7.8V14.9
		C33.1,10.7,29.6,7.1,25.3,7.1z M19.4,9.3h1.2v1.6h-1.2V9.3z M14.2,11.4l1.1,1.1l-0.8,0.8l-1.1-1.1L14.2,11.4z M12.8,18.7h-1.6v-1.2
		h1.6V18.7z M14.2,24.7l-0.8-0.8l1.1-1.1l0.8,0.8L14.2,24.7z M22.6,30.6h-1.3c-0.1,0.2-0.5,0.6-1.3,0.6s-1.2-0.4-1.3-0.6h-1.2V30
		h1.7v0.2c0,0,0.1,0.4,0.8,0.4s0.7-0.4,0.8-0.4V30h0.2h1.4v0.6H22.6z M22.6,29.1h-5v-0.6h5V29.1z M22.6,27.6h-5V27h5V27.6z
		 M22.2,26.1H18c0-2.9-4.2-2.6-4.2-7.8c0-4.3,2.4-6.8,6.4-6.8c3.8,0,6.4,2.5,6.4,6.8C26.4,23.3,22.2,23.3,22.2,26.1z M25.8,24.9
		l-1.1-1.1l0.8-0.8l1.1,1.1L25.8,24.9z M25.6,13.4l-0.8-0.8l1.1-1.1l0.8,0.8L25.6,13.4z M28.9,18.8h-1.6v-1.2h1.6V18.8z"/>
	<g>
		<g>
			
				<linearGradient id="SVGID_3_" gradientUnits="userSpaceOnUse" x1="17.2741" y1="51.5364" x2="22.9609" y2="51.5364" gradientTransform="matrix(1 0 0 -1 0 82)">
				<stop  offset="0" style="stop-color:#E0BD23"/>
				<stop  offset="0.1747" style="stop-color:#E8C32A"/>
				<stop  offset="0.8417" style="stop-color:#EBC223"/>
				<stop  offset="1" style="stop-color:#EFD984"/>
			</linearGradient>
			<path class="st3" d="M22.6,30v0.6h-1.3c-0.1,0.2-0.5,0.6-1.3,0.6s-1.2-0.4-1.3-0.6h-1.2V30h1.7v0.2c0,0,0.1,0.4,0.8,0.4
				s0.7-0.4,0.8-0.4V30h0.2H22.6 M23,29.7h-0.2h-1.6H21h-0.2V30v0.2c0,0-0.1,0.1-0.5,0.1c-0.5,0-0.5-0.1-0.5-0.2v-0.2v-0.2h-0.2
				h-1.9h-0.2v0.2v0.6v0.2h0.2h1.1c0.2,0.2,0.6,0.6,1.4,0.6c0.8,0,1.2-0.4,1.4-0.6h1.1h0.2v-0.2v-0.6v-0.1H23z"/>
		</g>
	</g>
	<g>
		<g>
			
				<linearGradient id="SVGID_4_" gradientUnits="userSpaceOnUse" x1="20.12" y1="48.9761" x2="20.12" y2="74.9053" gradientTransform="matrix(1 0 0 -1 0 82)">
				<stop  offset="0" style="stop-color:#E0BD23"/>
				<stop  offset="0.1747" style="stop-color:#E8C32A"/>
				<stop  offset="0.8417" style="stop-color:#EBC223"/>
				<stop  offset="1" style="stop-color:#EFD984"/>
			</linearGradient>
			<path class="st4" d="M25.3,7.4c4.1,0,7.4,3.4,7.4,7.4v10.3c0,4.1-3.4,7.4-7.4,7.4H15c-4.1,0-7.4-3.4-7.4-7.4V14.9
				c0-4.1,3.4-7.4,7.4-7.4L25.3,7.4 M25.3,7.1H15c-4.3,0-7.8,3.5-7.8,7.8v10.3c0,4.3,3.5,7.8,7.8,7.8h10.3c4.3,0,7.8-3.5,7.8-7.8
				V14.9C33.1,10.7,29.6,7.1,25.3,7.1L25.3,7.1z"/>
		</g>
	</g>
	<g>
		<g>
			
				<linearGradient id="SVGID_5_" gradientUnits="userSpaceOnUse" x1="20" y1="55.5398" x2="20" y2="70.7145" gradientTransform="matrix(1 0 0 -1 0 82)">
				<stop  offset="0" style="stop-color:#E0BD23"/>
				<stop  offset="0.1747" style="stop-color:#E8C32A"/>
				<stop  offset="0.8417" style="stop-color:#EBC223"/>
				<stop  offset="1" style="stop-color:#EFD984"/>
			</linearGradient>
			<path class="st5" d="M20,11.6c3.8,0,6.4,2.5,6.4,6.8c0,4.9-4.2,4.9-4.2,7.8H18c0-2.9-4.2-2.6-4.2-7.8
				C13.8,14.1,16.2,11.6,20,11.6 M20,11.3c-4.1,0-6.6,2.8-6.6,7.1c0,3,1.4,4.3,2.6,5.3c0.8,0.7,1.6,1.3,1.6,2.4v0.2h0.2H22h0.4V26
				c0-1.1,0.7-1.7,1.6-2.5c1.2-1.1,2.6-2.3,2.6-5.3C26.6,14,24.1,11.3,20,11.3L20,11.3z"/>
		</g>
	</g>
	<g>
		<g>
			
				<linearGradient id="SVGID_6_" gradientUnits="userSpaceOnUse" x1="20.06" y1="59.6276" x2="20.06" y2="68.1337" gradientTransform="matrix(1 0 0 -1 0 82)">
				<stop  offset="0" style="stop-color:#E0BD23"/>
				<stop  offset="0.1747" style="stop-color:#E8C32A"/>
				<stop  offset="0.8417" style="stop-color:#EBC223"/>
				<stop  offset="1" style="stop-color:#EFD984"/>
			</linearGradient>
			<path class="st6" d="M20.5,14.1v0.6V15h0.2c0.4,0.1,0.6,0.2,1,0.4l0.2,0.1l0.1-0.1l0.4-0.4l0.7,0.7l-0.4,0.4l-0.1,0.2l0.1,0.2
				c0.2,0.2,0.4,0.6,0.4,1v0.2h0.2H24v1h-0.6h-0.2v0.2c-0.1,0.4-0.2,0.6-0.4,1l-0.1,0.2l0.1,0.1l0.4,0.4l-0.7,0.7L22,21l-0.1-0.1
				L21.7,21c-0.2,0.2-0.6,0.4-1,0.4h-0.2v0.2v0.6h-1v-0.6v-0.2h-0.2c-0.4-0.1-0.6-0.2-1-0.4l-0.2-0.1L18,21l-0.4,0.2l-0.7-0.7
				l0.4-0.4l0.1-0.1l-0.1-0.2c-0.2-0.2-0.4-0.6-0.4-1v-0.2h-0.2H16v-1h0.6h0.2v-0.2c0.1-0.4,0.2-0.6,0.4-1l0.1-0.2l-0.1-0.1
				l-0.4-0.4l0.7-0.7l0.4,0.4l0.1,0.1l0.2-0.1c0.2-0.2,0.6-0.4,1-0.4h0.2v-0.2v-0.6L20.5,14.1 M20.8,13.9h-0.2h-1.2h-0.2v0.8
				c-0.4,0.1-0.7,0.2-1.1,0.5l-0.5-0.7l-1.1,1.1l0.6,0.6c-0.2,0.4-0.4,0.6-0.5,1.1h-0.8v1.6h0.8c0.1,0.4,0.2,0.7,0.5,1.1l-0.6,0.6
				l1.1,1.1l0.6-0.6c0.4,0.2,0.6,0.4,1.1,0.5v0.8h1.4H21v-0.8c0.4-0.1,0.7-0.2,1.1-0.5l0.6,0.6l1.1-1.1L23,19.9
				c0.2-0.4,0.4-0.6,0.5-1.1h0.8v-1.6h-0.8c-0.1-0.4-0.2-0.7-0.5-1.1l0.6-0.6l-1.1-1.1l-0.7,0.6c-0.4-0.2-0.6-0.4-1.1-0.5v-0.7H20.8
				z"/>
		</g>
	</g>
	<g>
		<g>
			
				<linearGradient id="SVGID_7_" gradientUnits="userSpaceOnUse" x1="20.12" y1="70.8328" x2="20.12" y2="72.9823" gradientTransform="matrix(1 0 0 -1 0 82)">
				<stop  offset="0" style="stop-color:#E0BD23"/>
				<stop  offset="0.1747" style="stop-color:#E8C32A"/>
				<stop  offset="0.8417" style="stop-color:#EBC223"/>
				<stop  offset="1" style="stop-color:#EFD984"/>
			</linearGradient>
			<path class="st7" d="M20.6,9.3v1.6h-1.2V9.3H20.6 M21,9h-0.2h-1.2h-0.2v0.2v1.6V11h0.2h1.2H21v-0.2V9.2V9L21,9z"/>
		</g>
		<g>
			
				<linearGradient id="SVGID_8_" gradientUnits="userSpaceOnUse" x1="25.7621" y1="68.1136" x2="25.7621" y2="70.9068" gradientTransform="matrix(1 0 0 -1 0 82)">
				<stop  offset="0" style="stop-color:#E0BD23"/>
				<stop  offset="0.1747" style="stop-color:#E8C32A"/>
				<stop  offset="0.8417" style="stop-color:#EBC223"/>
				<stop  offset="1" style="stop-color:#EFD984"/>
			</linearGradient>
			<path class="st8" d="M25.9,11.5l0.8,0.8l-1.1,1.1l-0.8-0.8L25.9,11.5 M25.9,11.1l-0.2,0.2l-1.1,1.1l-0.2,0.2l0.2,0.2l0.8,0.8
				l0.2,0.2l0.2-0.2l1.1-1.1l0.2-0.2L27,12.2l-0.8-0.8L25.9,11.1L25.9,11.1z"/>
		</g>
		<g>
			
				<linearGradient id="SVGID_9_" gradientUnits="userSpaceOnUse" x1="14.358" y1="68.1992" x2="14.358" y2="70.9917" gradientTransform="matrix(1 0 0 -1 0 82)">
				<stop  offset="0" style="stop-color:#E0BD23"/>
				<stop  offset="0.1747" style="stop-color:#E8C32A"/>
				<stop  offset="0.8417" style="stop-color:#EBC223"/>
				<stop  offset="1" style="stop-color:#EFD984"/>
			</linearGradient>
			<path class="st9" d="M14.2,11.4l1.1,1.1l-0.8,0.8l-1.1-1.1L14.2,11.4 M14.2,11L14,11.3l-0.8,0.8l-0.2,0.2l0.2,0.2l1.1,1.1
				l0.2,0.2l0.2-0.2l0.8-0.8l0.2-0.2l-0.2-0.2l-1.1-1.1L14.2,11L14.2,11z"/>
		</g>
		<g>
			
				<linearGradient id="SVGID_10_" gradientUnits="userSpaceOnUse" x1="12.0172" y1="63.0606" x2="12.0172" y2="64.8612" gradientTransform="matrix(1 0 0 -1 0 82)">
				<stop  offset="0" style="stop-color:#E0BD23"/>
				<stop  offset="0.1747" style="stop-color:#E8C32A"/>
				<stop  offset="0.8417" style="stop-color:#EBC223"/>
				<stop  offset="1" style="stop-color:#EFD984"/>
			</linearGradient>
			<path class="st10" d="M12.8,17.5v1.2h-1.6v-1.2H12.8 M13,17.1h-0.2h-1.6H11v0.4v1.2v0.2h0.2h1.6H13v-0.2v-1.2V17.1L13,17.1z"/>
		</g>
		<g>
			
				<linearGradient id="SVGID_11_" gradientUnits="userSpaceOnUse" x1="28.1029" y1="62.8765" x2="28.1029" y2="64.6772" gradientTransform="matrix(1 0 0 -1 0 82)">
				<stop  offset="0" style="stop-color:#E0BD23"/>
				<stop  offset="0.1747" style="stop-color:#E8C32A"/>
				<stop  offset="0.8417" style="stop-color:#EBC223"/>
				<stop  offset="1" style="stop-color:#EFD984"/>
			</linearGradient>
			<path class="st11" d="M28.9,17.6v1.2h-1.6v-1.2H28.9 M29.1,17.4h-0.2h-1.6h-0.2v0.2v1.2v0.2h0.2h1.6h0.2v-0.2v-1.2V17.4
				L29.1,17.4z"/>
		</g>
		<g>
			
				<linearGradient id="SVGID_12_" gradientUnits="userSpaceOnUse" x1="20" y1="56.6691" x2="20" y2="59.6985" gradientTransform="matrix(1 0 0 -1 0 82)">
				<stop  offset="0" style="stop-color:#E0BD23"/>
				<stop  offset="0.1747" style="stop-color:#E8C32A"/>
				<stop  offset="0.8417" style="stop-color:#EBC223"/>
				<stop  offset="1" style="stop-color:#EFD984"/>
			</linearGradient>
			<path class="st12" d="M14.5,22.8l0.8,0.8l-1.1,1.1l-0.8-0.8L14.5,22.8 M25.5,23l1.1,1.1l-0.8,0.8l-1.1-1.1L25.5,23 M14.5,22.3
				l-0.2,0.2l-1.1,1.1l-0.2,0.2l0.2,0.2l0.8,0.8l0.2,0.2l0.2-0.2l1.1-1.1l0.2-0.2l-0.2-0.2l-0.8-0.8L14.5,22.3L14.5,22.3z
				 M25.5,22.5l-0.2,0.2l-0.8,0.8l-0.2,0.2l0.2,0.2l1.1,1.1l0.2,0.2l0.2-0.2l0.8-0.8l0.2-0.2l-0.2-0.2l-1.1-1.1L25.5,22.5L25.5,22.5
				z"/>
		</g>
	</g>
	<g>
		
			<linearGradient id="SVGID_13_" gradientUnits="userSpaceOnUse" x1="20.1801" y1="54.0726" x2="20.1801" y2="55.273" gradientTransform="matrix(1 0 0 -1 0 82)">
			<stop  offset="0" style="stop-color:#E0BD23"/>
			<stop  offset="0.1747" style="stop-color:#E8C32A"/>
			<stop  offset="0.8417" style="stop-color:#EBC223"/>
			<stop  offset="1" style="stop-color:#EFD984"/>
		</linearGradient>
		<path class="st13" d="M22.6,27v0.6h-5V27H22.6 M23,26.7h-0.2h-5.2h-0.2V27v0.6v0.2h0.2h5h0.2v-0.2V27v-0.2H23z"/>
	</g>
	<g>
		
			<linearGradient id="SVGID_14_" gradientUnits="userSpaceOnUse" x1="20.1801" y1="52.6019" x2="20.1801" y2="53.8024" gradientTransform="matrix(1 0 0 -1 0 82)">
			<stop  offset="0" style="stop-color:#E0BD23"/>
			<stop  offset="0.1747" style="stop-color:#E8C32A"/>
			<stop  offset="0.8417" style="stop-color:#EBC223"/>
			<stop  offset="1" style="stop-color:#EFD984"/>
		</linearGradient>
		<path class="st14" d="M22.6,28.5v0.6h-5v-0.6H22.6 M23,28.2h-0.2h-5.2h-0.2v0.2V29v0.2h0.2h5h0.2V29v-0.6v-0.2H23z"/>
	</g>
	<g>
		
			<linearGradient id="SVGID_15_" gradientUnits="userSpaceOnUse" x1="19.94" y1="61.272" x2="19.94" y2="66.4813" gradientTransform="matrix(1 0 0 -1 0 82)">
			<stop  offset="0" style="stop-color:#E0BD23"/>
			<stop  offset="0.1747" style="stop-color:#E8C32A"/>
			<stop  offset="0.8417" style="stop-color:#EBC223"/>
			<stop  offset="1" style="stop-color:#EFD984"/>
		</linearGradient>
		<path class="st15" d="M20,15.8h0.1c0.1,0,0.4,0,0.5,0.1h0.1c0.1,0.1,0.4,0.1,0.5,0.2c0.6,0.4,1,1.1,1,1.9c0,0.8-0.4,1.4-1,1.9
			c-0.1,0.1-0.4,0.2-0.5,0.2c0,0-0.1,0-0.2,0s-0.4,0.1-0.5,0.1h-0.1h-0.1c-0.1,0-0.4,0-0.5-0.1c-0.1,0-0.1,0-0.2,0
			c-0.1-0.1-0.4-0.1-0.5-0.2c-0.6-0.4-1-1.1-1-1.9c0-0.8,0.4-1.4,1-1.9c0.1-0.1,0.4-0.2,0.5-0.2s0.1,0,0.2,0c0.1,0,0.4-0.1,0.5-0.1
			C20,15.8,20,15.8,20,15.8 M20,15.6L20,15.6h-0.1c-0.2,0-0.4,0-0.6,0.1c-0.1,0-0.1,0-0.2,0.1c-0.2,0.1-0.4,0.1-0.6,0.2
			c-0.7,0.5-1.1,1.3-1.1,2.2s0.4,1.7,1.1,2.2c0.1,0.1,0.4,0.2,0.6,0.2c0.1,0,0.1,0,0.1,0c0.2,0.1,0.4,0.1,0.6,0.1c0.1,0,0.1,0,0.1,0
			H20c0.2,0,0.4,0,0.6-0.1c0.1,0,0.1,0,0.2-0.1c0.2-0.1,0.4-0.2,0.6-0.2c0.7-0.5,1.1-1.3,1.1-2.2c0-0.8-0.4-1.7-1.1-2.2
			c-0.2-0.1-0.4-0.2-0.6-0.2h-0.1c-0.2-0.1-0.4-0.1-0.6-0.1H20L20,15.6L20,15.6z"/>
	</g>
</g>
<g>
	
		<linearGradient id="SVGID_16_" gradientUnits="userSpaceOnUse" x1="13.4148" y1="31.7512" x2="29.2827" y2="12.7321" gradientTransform="matrix(1 0 0 -1 0 82)">
		<stop  offset="8.452248e-02" style="stop-color:#F0C91C"/>
		<stop  offset="0.3994" style="stop-color:#CAA806"/>
		<stop  offset="0.6584" style="stop-color:#F4D71F"/>
		<stop  offset="0.8596" style="stop-color:#F0C91C"/>
		<stop  offset="1" style="stop-color:#FFD62A"/>
	</linearGradient>
	<path class="st16" d="M22.9,56.5l0.6-0.6l-1.1-1l-0.6,0.6c-0.3-0.2-0.6-0.3-0.9-0.5v-0.8h-0.2h-1.1h-0.2v0.8
		c-0.3,0.1-0.7,0.2-0.9,0.5l-0.6-0.6l-1,1l0.6,0.6c-0.2,0.3-0.3,0.6-0.5,0.9H16v1.5h0.8c0.1,0.3,0.2,0.7,0.5,0.9l-0.6,0.6l1,1
		l0.6-0.6c0.3,0.2,0.6,0.3,0.9,0.5v0.9h1.3h0.2v-0.8c0.3-0.1,0.7-0.2,0.9-0.5l0.6,0.6l1-1L22.9,60c0.2-0.3,0.3-0.6,0.5-0.9h0.8v-1.5
		h-0.8C23.1,57.2,23,56.9,22.9,56.5z M21.3,60.1c-0.1,0.1-0.3,0.2-0.5,0.2c0,0-0.1,0-0.2,0c-0.1,0-0.3,0.1-0.5,0.1H20h-0.1
		c-0.1,0-0.3,0-0.5-0.1c-0.1,0-0.1,0-0.1,0c-0.1-0.1-0.3-0.1-0.5-0.2c-0.6-0.3-0.9-1-0.9-1.8c0-0.7,0.3-1.4,0.9-1.8
		c0.1-0.1,0.3-0.2,0.5-0.2c0,0,0.1,0,0.2,0c0.1,0,0.2-0.1,0.5-0.1h0.1h0.1c0.1,0,0.3,0,0.5,0.1h0.1c0.1,0.1,0.3,0.1,0.5,0.2
		c0.6,0.3,0.9,1,0.9,1.8C22.2,59.1,21.8,59.6,21.3,60.1z"/>
	
		<linearGradient id="SVGID_17_" gradientUnits="userSpaceOnUse" x1="12.4674" y1="30.9608" x2="28.3354" y2="11.9417" gradientTransform="matrix(1 0 0 -1 0 82)">
		<stop  offset="8.452248e-02" style="stop-color:#F0C91C"/>
		<stop  offset="0.3994" style="stop-color:#CAA806"/>
		<stop  offset="0.6584" style="stop-color:#F4D71F"/>
		<stop  offset="0.8596" style="stop-color:#F0C91C"/>
		<stop  offset="1" style="stop-color:#FFD62A"/>
	</linearGradient>
	<path class="st17" d="M24.9,47.9h-9.7c-4,0-7.3,3.3-7.3,7.3V65c0,4,3.3,7.3,7.3,7.3h9.7c4,0,7.3-3.3,7.3-7.3v-9.7
		C32.3,51.3,29,47.9,24.9,47.9z M19.4,50h1.1v1.5h-1.1V50z M14.6,52l1,1l-0.8,0.8l-1-1L14.6,52z M13.2,58.7h-1.5v-1.1h1.5V58.7z
		 M14.5,64.4l-0.8-0.8l1-1l0.8,0.8L14.5,64.4z M22.5,70.1h-1.1c-0.1,0.2-0.5,0.6-1.1,0.6c-0.7,0-1-0.3-1.3-0.6h-1.1v-0.6h1.6v0.2
		c0,0,0.1,0.3,0.8,0.3c0.6,0,0.7-0.3,0.7-0.3v-0.2h0.2h1.4C22.5,69.5,22.5,70.1,22.5,70.1z M22.5,68.6h-4.8V68h4.8V68.6z M22.5,67.2
		h-4.8v-0.6h4.8V67.2z M22.1,65.8h-4c0-2.6-4-2.5-4-7.3c0-4,2.3-6.4,6-6.4s6,2.4,6,6.4C26,63.2,22.1,63.2,22.1,65.8z M25.5,64.7
		l-1-1l0.8-0.8l1,1L25.5,64.7z M25.3,53.9l-0.8-0.8l1-1l0.8,0.8L25.3,53.9z M28.4,58.9h-1.5v-1.1h1.5V58.9z"/>
	<g>
		<g>
			
				<linearGradient id="SVGID_18_" gradientUnits="userSpaceOnUse" x1="17.4258" y1="11.9939" x2="22.7817" y2="11.9939" gradientTransform="matrix(1 0 0 -1 0 82)">
				<stop  offset="0" style="stop-color:#E0BD23"/>
				<stop  offset="0.1747" style="stop-color:#E8C32A"/>
				<stop  offset="0.8417" style="stop-color:#EBC223"/>
				<stop  offset="1" style="stop-color:#EFD984"/>
			</linearGradient>
			<path class="st18" d="M22.5,69.5v0.6h-1.1c-0.1,0.2-0.5,0.6-1.1,0.6c-0.7,0-1-0.3-1.3-0.6h-1.1v-0.6h1.6v0.2c0,0,0.1,0.3,0.8,0.3
				c0.6,0,0.7-0.3,0.7-0.3v-0.2h0.2H22.5 M22.7,69.3h-0.2h-1.4h-0.2h-0.2v0.2v0.2c0,0-0.1,0.1-0.5,0.1c-0.5,0-0.5-0.1-0.5-0.2v-0.2
				v-0.2h-0.2h-1.8h-0.2v0.2v0.6v0.3h0.2h1c0.2,0.2,0.6,0.6,1.4,0.6s1.1-0.3,1.4-0.6h1h0.2v-0.2v-0.6L22.7,69.3L22.7,69.3z"/>
		</g>
	</g>
	<g>
		<g>
			
				<linearGradient id="SVGID_19_" gradientUnits="userSpaceOnUse" x1="20.05" y1="9.7024" x2="20.05" y2="34.0766" gradientTransform="matrix(1 0 0 -1 0 82)">
				<stop  offset="0" style="stop-color:#E0BD23"/>
				<stop  offset="0.1747" style="stop-color:#E8C32A"/>
				<stop  offset="0.8417" style="stop-color:#EBC223"/>
				<stop  offset="1" style="stop-color:#EFD984"/>
			</linearGradient>
			<path class="st19" d="M24.9,48.2c3.9,0,7,3.2,7,7v9.7c0,3.9-3.2,7-7,7h-9.7c-3.9,0-7-3.2-7-7v-9.7c0-3.9,3.2-7,7-7L24.9,48.2
				 M24.9,47.9h-9.7c-4,0-7.3,3.3-7.3,7.3V65c0,4,3.3,7.3,7.3,7.3h9.7c4,0,7.3-3.3,7.3-7.3v-9.7C32.3,51.3,29,47.9,24.9,47.9
				L24.9,47.9z"/>
		</g>
	</g>
	<g>
		<g>
			
				<linearGradient id="SVGID_20_" gradientUnits="userSpaceOnUse" x1="20.05" y1="15.87" x2="20.05" y2="30.1478" gradientTransform="matrix(1 0 0 -1 0 82)">
				<stop  offset="0" style="stop-color:#E0BD23"/>
				<stop  offset="0.1747" style="stop-color:#E8C32A"/>
				<stop  offset="0.8417" style="stop-color:#EBC223"/>
				<stop  offset="1" style="stop-color:#EFD984"/>
			</linearGradient>
			<path class="st20" d="M20,52.2c3.7,0,6,2.4,6,6.4c0,4.6-4,4.6-4,7.3h-4c0-2.6-4-2.5-4-7.3C14.1,54.5,16.4,52.2,20,52.2 M20,51.8
				c-3.9,0-6.2,2.5-6.2,6.6c0,2.9,1.4,4,2.5,5c0.8,0.7,1.5,1.3,1.5,2.3v0.2H18h4h0.2v-0.2c0-1,0.7-1.6,1.5-2.4
				c1.1-1,2.5-2.2,2.5-4.9C26.3,54.5,23.9,51.8,20,51.8L20,51.8z"/>
		</g>
	</g>
	<g>
		<g>
			
				<linearGradient id="SVGID_21_" gradientUnits="userSpaceOnUse" x1="20.05" y1="19.7182" x2="20.05" y2="27.7167" gradientTransform="matrix(1 0 0 -1 0 82)">
				<stop  offset="0" style="stop-color:#E0BD23"/>
				<stop  offset="0.1747" style="stop-color:#E8C32A"/>
				<stop  offset="0.8417" style="stop-color:#EBC223"/>
				<stop  offset="1" style="stop-color:#EFD984"/>
			</linearGradient>
			<path class="st21" d="M20.5,54.6v0.6v0.2h0.2c0.3,0.1,0.6,0.2,0.9,0.3l0.2,0.1l0.1-0.1l0.3-0.3l0.7,0.7l-0.3,0.3l-0.2,0.1
				l0.1,0.2c0.1,0.2,0.3,0.6,0.3,0.9v0.2h0.2h0.6v0.9h-0.6h-0.2v0.2c-0.1,0.3-0.2,0.6-0.3,0.9l-0.1,0.2l0.1,0.1l0.3,0.3l-0.6,0.6
				l-0.3-0.3l-0.1-0.1l-0.2,0.1c-0.2,0.2-0.6,0.3-0.9,0.3h-0.2v0.2V62h-0.9v-0.6v-0.2h-0.2c-0.3-0.1-0.6-0.2-0.9-0.3l-0.2-0.1
				L18,60.9l-0.3,0.3L17,60.6l0.3-0.3l0.1-0.1l-0.1-0.2c-0.2-0.2-0.3-0.6-0.3-0.9v-0.2h-0.2h-0.6v-0.9h0.6H17v-0.2
				c0.1-0.3,0.2-0.6,0.3-0.9l0.1-0.2l-0.1-0.1L17,56l0.7-0.7l0.3,0.3l0.1,0.1l0.2-0.1c0.2-0.1,0.6-0.3,0.9-0.3h0.2v-0.2v-0.6h0.9
				 M20.8,54.2h-0.2h-1.1h-0.2v0.8c-0.3,0.1-0.7,0.2-0.9,0.5l-0.6-0.6l-1,1l0.6,0.6c-0.2,0.3-0.3,0.6-0.5,0.9H16v1.5h0.8
				c0.1,0.3,0.2,0.7,0.5,0.9l-0.6,0.6l1,1l0.6-0.6c0.3,0.2,0.6,0.3,0.9,0.5v0.9h1.3h0.2v-0.8c0.3-0.1,0.7-0.2,0.9-0.5l0.6,0.6l1-1
				L22.9,60c0.2-0.3,0.3-0.6,0.5-0.9h0.8v-1.5h-0.8c-0.1-0.3-0.2-0.7-0.5-0.9l0.6-0.6l-1.1-1.1l-0.6,0.6c-0.3-0.2-0.6-0.3-0.9-0.5
				V54.2L20.8,54.2z"/>
		</g>
	</g>
	<g>
		<g>
			
				<linearGradient id="SVGID_22_" gradientUnits="userSpaceOnUse" x1="20.1073" y1="30.2505" x2="20.1073" y2="32.2802" gradientTransform="matrix(1 0 0 -1 0 82)">
				<stop  offset="0" style="stop-color:#E0BD23"/>
				<stop  offset="0.1747" style="stop-color:#E8C32A"/>
				<stop  offset="0.8417" style="stop-color:#EBC223"/>
				<stop  offset="1" style="stop-color:#EFD984"/>
			</linearGradient>
			<path class="st22" d="M20.6,50v1.5h-1.1V50H20.6 M20.9,49.7h-0.2h-1.1h-0.2v0.2v1.5v0.2h0.2h1.1h0.2v-0.2v-1.5V49.7L20.9,49.7z"
				/>
		</g>
		<g>
			
				<linearGradient id="SVGID_23_" gradientUnits="userSpaceOnUse" x1="25.4938" y1="27.6918" x2="25.4938" y2="30.3305" gradientTransform="matrix(1 0 0 -1 0 82)">
				<stop  offset="0" style="stop-color:#E0BD23"/>
				<stop  offset="0.1747" style="stop-color:#E8C32A"/>
				<stop  offset="0.8417" style="stop-color:#EBC223"/>
				<stop  offset="1" style="stop-color:#EFD984"/>
			</linearGradient>
			<path class="st23" d="M25.5,52.1l0.8,0.8l-1,1l-0.8-0.8L25.5,52.1 M25.5,51.7L25.3,52l-1,1l-0.1,0.1l0.2,0.2l0.8,0.8l0.2,0.2
				l0.2-0.2l1-1l0.2-0.2l-0.2-0.2l-0.9-0.8L25.5,51.7L25.5,51.7z"/>
		</g>
		<g>
			
				<linearGradient id="SVGID_24_" gradientUnits="userSpaceOnUse" x1="14.7208" y1="27.7722" x2="14.7208" y2="30.4102" gradientTransform="matrix(1 0 0 -1 0 82)">
				<stop  offset="0" style="stop-color:#E0BD23"/>
				<stop  offset="0.1747" style="stop-color:#E8C32A"/>
				<stop  offset="0.8417" style="stop-color:#EBC223"/>
				<stop  offset="1" style="stop-color:#EFD984"/>
			</linearGradient>
			<path class="st24" d="M14.6,52l1,1l-0.8,0.8l-1-1L14.6,52 M14.6,51.6l-0.2,0.2l-0.8,0.8l-0.2,0.2l0.2,0.2l1,1l0.2,0.2l0.2-0.2
				l0.8-0.8l0.2-0.2l-0.2-0.2l-1-1L14.6,51.6L14.6,51.6z"/>
		</g>
		<g>
			
				<linearGradient id="SVGID_25_" gradientUnits="userSpaceOnUse" x1="12.486" y1="22.9415" x2="12.486" y2="24.6433" gradientTransform="matrix(1 0 0 -1 0 82)">
				<stop  offset="0" style="stop-color:#E0BD23"/>
				<stop  offset="0.1747" style="stop-color:#E8C32A"/>
				<stop  offset="0.8417" style="stop-color:#EBC223"/>
				<stop  offset="1" style="stop-color:#EFD984"/>
			</linearGradient>
			<path class="st25" d="M13.2,57.7v1.1h-1.5v-1.1H13.2 M13.5,57.3h-0.2h-1.5h-0.2v0.3v1.1v0.2h0.2h1.5h0.2v-0.2v-1.1V57.3
				L13.5,57.3z"/>
		</g>
		<g>
			
				<linearGradient id="SVGID_26_" gradientUnits="userSpaceOnUse" x1="27.614" y1="22.769" x2="27.614" y2="24.4708" gradientTransform="matrix(1 0 0 -1 0 82)">
				<stop  offset="0" style="stop-color:#E0BD23"/>
				<stop  offset="0.1747" style="stop-color:#E8C32A"/>
				<stop  offset="0.8417" style="stop-color:#EBC223"/>
				<stop  offset="1" style="stop-color:#EFD984"/>
			</linearGradient>
			<path class="st26" d="M28.4,57.8v1.1h-1.5v-1.1H28.4 M28.6,57.6h-0.2h-1.5h-0.2v0.2v1.1v0.2h0.2h1.5h0.2v-0.2v-1.1V57.6
				L28.6,57.6z"/>
		</g>
		<g>
			
				<linearGradient id="SVGID_27_" gradientUnits="userSpaceOnUse" x1="20.05" y1="16.9302" x2="20.05" y2="19.7911" gradientTransform="matrix(1 0 0 -1 0 82)">
				<stop  offset="0" style="stop-color:#E0BD23"/>
				<stop  offset="0.1747" style="stop-color:#E8C32A"/>
				<stop  offset="0.8417" style="stop-color:#EBC223"/>
				<stop  offset="1" style="stop-color:#EFD984"/>
			</linearGradient>
			<path class="st27" d="M14.7,62.6l0.8,0.8l-1,1l-0.8-0.8L14.7,62.6 M25.3,62.8l1,1l-0.8,0.8l-1-1L25.3,62.8 M14.7,62.2l-0.2,0.2
				l-0.9,1l-0.2,0.2l0.2,0.2l0.8,0.8l0.2,0.2l0.2-0.2l1-1l0.2-0.2l-0.2-0.2l-0.8-0.8L14.7,62.2L14.7,62.2z M25.3,62.4L25,62.6
				l-0.8,0.8L24,63.6l0.2,0.2l1,1l0.2,0.2l0.2-0.2l0.8-0.8l0.2-0.2l-0.2-0.2l-1-1L25.3,62.4L25.3,62.4z"/>
		</g>
	</g>
	<g>
		
			<linearGradient id="SVGID_28_" gradientUnits="userSpaceOnUse" x1="20.1073" y1="14.4905" x2="20.1073" y2="15.6278" gradientTransform="matrix(1 0 0 -1 0 82)">
			<stop  offset="0" style="stop-color:#E0BD23"/>
			<stop  offset="0.1747" style="stop-color:#E8C32A"/>
			<stop  offset="0.8417" style="stop-color:#EBC223"/>
			<stop  offset="1" style="stop-color:#EFD984"/>
		</linearGradient>
		<path class="st28" d="M22.5,66.6v0.6h-4.8v-0.6H22.5 M22.7,66.4h-0.2h-4.8h-0.2v0.2v0.6v0.2h0.2h4.8h0.2v-0.2v-0.6L22.7,66.4
			L22.7,66.4z"/>
	</g>
	<g>
		
			<linearGradient id="SVGID_29_" gradientUnits="userSpaceOnUse" x1="20.1073" y1="13.1076" x2="20.1073" y2="14.245" gradientTransform="matrix(1 0 0 -1 0 82)">
			<stop  offset="0" style="stop-color:#E0BD23"/>
			<stop  offset="0.1747" style="stop-color:#E8C32A"/>
			<stop  offset="0.8417" style="stop-color:#EBC223"/>
			<stop  offset="1" style="stop-color:#EFD984"/>
		</linearGradient>
		<path class="st29" d="M22.5,68v0.6h-4.8V68H22.5 M22.7,67.8h-0.2h-4.8h-0.2V68v0.6v0.2h0.2h4.8h0.2v-0.2V68L22.7,67.8L22.7,67.8z"
			/>
	</g>
	<g>
		
			<linearGradient id="SVGID_30_" gradientUnits="userSpaceOnUse" x1="20.05" y1="21.2602" x2="20.05" y2="26.1672" gradientTransform="matrix(1 0 0 -1 0 82)">
			<stop  offset="0" style="stop-color:#E0BD23"/>
			<stop  offset="0.1747" style="stop-color:#E8C32A"/>
			<stop  offset="0.8417" style="stop-color:#EBC223"/>
			<stop  offset="1" style="stop-color:#EFD984"/>
		</linearGradient>
		<path class="st30" d="M20,56.1h0.1c0.1,0,0.3,0,0.5,0.1h0.1c0.1,0.1,0.3,0.1,0.5,0.2c0.6,0.3,0.9,1,0.9,1.8c0,0.7-0.3,1.4-0.9,1.8
			c-0.1,0.1-0.3,0.2-0.5,0.2c0,0-0.1,0-0.2,0s-0.3,0.1-0.5,0.1h-0.1h-0.1c-0.1,0-0.3,0-0.5-0.1c-0.1,0-0.1,0-0.1,0
			c-0.1-0.1-0.3-0.1-0.5-0.2c-0.6-0.3-0.9-1-0.9-1.8c0-0.7,0.3-1.4,0.9-1.8c0.1-0.1,0.3-0.2,0.5-0.2c0,0,0.1,0,0.2,0
			c0.1,0,0.2-0.1,0.5-0.1C20,56.1,20,56.1,20,56.1 M20,55.9L20,55.9h-0.1c-0.2,0-0.3,0-0.5,0.1c-0.1,0-0.1,0-0.2,0.1
			c-0.2,0.1-0.3,0.1-0.6,0.2c-0.7,0.5-1,1.3-1,2.1s0.3,1.6,1,2.1c0.1,0.1,0.3,0.2,0.6,0.2c0.1,0,0.1,0,0.1,0
			c0.2,0.1,0.3,0.1,0.6,0.1c0.1,0,0.1,0,0.1,0h0.1c0.2,0,0.3,0,0.6-0.1c0.1,0,0.1,0,0.2-0.1c0.2-0.1,0.3-0.2,0.6-0.2
			c0.7-0.5,1-1.3,1-2.1s-0.3-1.6-1-2.1c-0.1-0.1-0.3-0.2-0.6-0.2h-0.1c-0.2-0.1-0.3-0.1-0.6-0.1H20L20,55.9L20,55.9z"/>
	</g>
</g>
<g class="st31">
	<path class="st32" d="M22.9,56.5l0.6-0.6l-1.1-1l-0.6,0.6c-0.3-0.2-0.6-0.3-0.9-0.5v-0.8h-0.2h-1.1h-0.2v0.8
		c-0.3,0.1-0.7,0.2-0.9,0.5l-0.6-0.6l-1,1l0.6,0.6c-0.2,0.3-0.3,0.6-0.5,0.9H16v1.5h0.8c0.1,0.3,0.2,0.7,0.5,0.9l-0.6,0.6l1,1
		l0.6-0.6c0.3,0.2,0.6,0.3,0.9,0.5v0.9h1.3h0.2v-0.8c0.3-0.1,0.7-0.2,0.9-0.5l0.6,0.6l1-1L22.9,60c0.2-0.3,0.3-0.6,0.5-0.9h0.8v-1.5
		h-0.8C23.1,57.2,23,56.9,22.9,56.5z M21.3,60.1c-0.1,0.1-0.3,0.2-0.5,0.2c0,0-0.1,0-0.2,0c-0.1,0-0.3,0.1-0.5,0.1H20h-0.1
		c-0.1,0-0.3,0-0.5-0.1c-0.1,0-0.1,0-0.1,0c-0.1-0.1-0.3-0.1-0.5-0.2c-0.6-0.3-0.9-1-0.9-1.8c0-0.7,0.3-1.4,0.9-1.8
		c0.1-0.1,0.3-0.2,0.5-0.2c0,0,0.1,0,0.2,0c0.1,0,0.2-0.1,0.5-0.1h0.1h0.1c0.1,0,0.3,0,0.5,0.1h0.1c0.1,0.1,0.3,0.1,0.5,0.2
		c0.6,0.3,0.9,1,0.9,1.8C22.2,59.1,21.8,59.6,21.3,60.1z"/>
	<path class="st32" d="M24.9,47.9h-9.7c-4,0-7.3,3.3-7.3,7.3V65c0,4,3.3,7.3,7.3,7.3h9.7c4,0,7.3-3.3,7.3-7.3v-9.7
		C32.3,51.3,29,47.9,24.9,47.9z M19.4,50h1.1v1.5h-1.1V50z M14.6,52l1,1l-0.8,0.8l-1-1L14.6,52z M13.2,58.7h-1.5v-1.1h1.5V58.7z
		 M14.5,64.4l-0.8-0.8l1-1l0.8,0.8L14.5,64.4z M22.5,70.1h-1.1c-0.1,0.2-0.5,0.6-1.1,0.6c-0.7,0-1-0.3-1.3-0.6h-1.1v-0.6h1.6v0.2
		c0,0,0.1,0.3,0.8,0.3c0.6,0,0.7-0.3,0.7-0.3v-0.2h0.2h1.4C22.5,69.5,22.5,70.1,22.5,70.1z M22.5,68.6h-4.8V68h4.8V68.6z M22.5,67.2
		h-4.8v-0.6h4.8V67.2z M22.1,65.8h-4c0-2.6-4-2.5-4-7.3c0-4,2.3-6.4,6-6.4s6,2.4,6,6.4C26,63.2,22.1,63.2,22.1,65.8z M25.5,64.7
		l-1-1l0.8-0.8l1,1L25.5,64.7z M25.3,53.9l-0.8-0.8l1-1l0.8,0.8L25.3,53.9z M28.4,58.9h-1.5v-1.1h1.5V58.9z"/>
</g>
</svg>
