<?xml version="1.0" encoding="iso-8859-1"?>
<!-- Generator: Adobe Illustrator 20.1.0, SVG Export Plug-In . SVG Version: 6.00 Build 0)  -->
<svg version="1.1" id="CLOSEBUTTON_x5F_On" xmlns="http://www.w3.org/2000/svg" xmlns:xlink="http://www.w3.org/1999/xlink" x="0px"
	 y="0px" viewBox="0 0 88 88" style="enable-background:new 0 0 88 88;" xml:space="preserve">
<path style="opacity:0.5;fill:none;stroke:#CECECE;stroke-width:4;stroke-miterlimit:10;enable-background:new    ;" d="
	M43.835,83.386c-35.054,0-37.383,1.748-37.383-43.944c0-26.809,0-33.337,37.383-33.337c38.664,0,38.548,6.527,38.548,33.57
	C82.383,85.367,79.472,83.386,43.835,83.386z"/>
<g>
	<path style="fill:#2A9FBA;" d="M53.116,18.165H36.594c-6.824,0-12.436,5.612-12.436,12.436v16.566
		c0,6.824,5.612,12.436,12.436,12.436H53.16c6.824,0,12.436-5.612,12.436-12.436V30.555C65.551,23.731,59.984,18.165,53.116,18.165z
		 M57.515,42.542c0,4.938-4.04,8.934-8.934,8.934h-7.452c-4.938,0-8.934-4.04-8.934-8.934v-7.408c0-4.938,4.04-8.934,8.934-8.934
		h7.408c4.938,0,8.934,4.04,8.934,8.934v7.408H57.515z"/>
	<path style="fill:#2A9FBA;" d="M48.177,47.346h-6.644c-2.828,0-5.163-2.335-5.163-5.163v-6.644c0-2.828,2.335-5.163,5.163-5.163
		h6.599c2.828,0,5.163,2.335,5.163,5.163v6.599C53.34,45.011,51.005,47.346,48.177,47.346z"/>
	<path style="fill:#2A9FBA;" d="M54.058,61.847H49.12l4.579,12.436l5.298-5.746l7.722,0.943l-3.951-10.73
		C60.388,60.635,57.336,61.847,54.058,61.847z"/>
	<polygon style="fill:#2A9FBA;" points="37.941,61.847 35.382,71.095 43.014,69.524 48.761,74.776 49.838,71.005 46.426,61.847 	"/>
</g>
</svg>
