<?xml version="1.0" encoding="utf-8"?>
<!-- Generator: Adobe Illustrator 20.1.0, SVG Export Plug-In . SVG Version: 6.00 Build 0)  -->
<svg version="1.1" id="Layer_1" xmlns="http://www.w3.org/2000/svg" xmlns:xlink="http://www.w3.org/1999/xlink" x="0px" y="0px"
	 width="40.3px" height="80.5px" viewBox="0 0 40.3 80.5" style="enable-background:new 0 0 40.3 80.5;" xml:space="preserve">
<style type="text/css">
	.st0{fill:#EFEFEF;}
	.st1{opacity:0.25;}
	.st2{fill:#FFFFFF;}
	.st3{fill:#CCDADD;}
	.st4{fill:#BCCACC;}
</style>
<g id="Layer_1_1_">
</g>
<g id="Layer_1_2_">
</g>
<g id="Layer_1_3_">
</g>
<path class="st0" d="M22.7,35.3c-0.4,0-0.9,0-1.3,0c-0.5,0-1,0-1.5,0c-0.5,0-0.9,0-1.3,0c-5.7,0-8.8,0-10.7-1.9
	c-2.1-2.1-2.3-6.2-2.3-15v0c0-5,0-8.2,1.9-10.3c1.8-2,5.1-2.7,12.5-2.7c6.6,0,10.8,0.4,12.9,2.7c2,2.1,2,5.4,2,10.4
	c0,8.5-0.2,12.7-2.4,14.8C30.5,35.2,27.6,35.3,22.7,35.3z M19.8,33.8c0.5,0,1,0,1.5,0c5.4,0,8.3,0,9.9-1.5c1.7-1.7,2-5.6,2-13.7
	c0-4.8,0-7.7-1.6-9.3C30.1,7.7,26.8,7,19.8,7C13.1,7,9.9,7.7,8.4,9.2c-1.5,1.6-1.5,4.5-1.5,9.2v0c0,8.2,0.2,12.2,1.9,13.9
	c1.5,1.5,4.4,1.5,9.7,1.5C18.9,33.8,19.3,33.8,19.8,33.8z"/>
<g class="st1">
	<g>
		<path class="st2" d="M24.6,25.4L21.2,22c-0.6-0.6-0.6-1.6,0-2.1l3.4-3.4c0.6-0.6,0.6-1.7,0-2.4l-0.9-0.9c-0.6-0.6-1.7-0.6-2.4,0
			l-7.7,7.7l7.8,7.8c0.6,0.6,1.7,0.6,2.4,0l0.9-0.9C25.3,27.1,25.3,26,24.6,25.4z"/>
		<path class="st0" d="M22.5,29.5c-0.5,0-1-0.2-1.4-0.6l-8-8l8-8c0.4-0.4,0.9-0.6,1.4-0.6c0.5,0,1.1,0.2,1.4,0.6l0.9,0.9
			c0.8,0.8,0.8,2.1,0,2.9l-3.4,3.4c-0.4,0.4-0.4,1.2,0,1.6l3.4,3.4c0.4,0.4,0.6,0.9,0.6,1.4s-0.2,1.1-0.6,1.4L24,28.9
			C23.6,29.3,23,29.5,22.5,29.5z M14.1,20.9l7.5,7.5c0.5,0.5,1.3,0.5,1.8,0l0.9-0.9c0.2-0.2,0.4-0.6,0.4-0.9s-0.1-0.7-0.4-0.9
			l-3.4-3.4c-0.7-0.7-0.7-1.9,0-2.7l3.4-3.4c0.5-0.5,0.5-1.3,0-1.8l-0.9-0.9c-0.2-0.2-0.6-0.4-0.9-0.4c-0.3,0-0.7,0.1-0.9,0.4
			L14.1,20.9z"/>
	</g>
</g>
<g>
	<path class="st0" d="M22.5,29.5c-0.5,0-1-0.2-1.4-0.6l-8-8l8-8c0.4-0.4,0.9-0.6,1.4-0.6c0.5,0,1.1,0.2,1.4,0.6l0.9,0.9
		c0.8,0.8,0.8,2.1,0,2.9l-3.4,3.4c-0.4,0.4-0.4,1.2,0,1.6l3.4,3.4c0.4,0.4,0.6,0.9,0.6,1.4s-0.2,1.1-0.6,1.4L24,28.9
		C23.6,29.3,23,29.5,22.5,29.5z M14.1,20.9l7.5,7.5c0.5,0.5,1.3,0.5,1.8,0l0.9-0.9c0.2-0.2,0.4-0.6,0.4-0.9s-0.1-0.7-0.4-0.9
		l-3.4-3.4c-0.7-0.7-0.7-1.9,0-2.7l3.4-3.4c0.5-0.5,0.5-1.3,0-1.8l-0.9-0.9c-0.2-0.2-0.6-0.4-0.9-0.4c-0.3,0-0.7,0.1-0.9,0.4
		L14.1,20.9z"/>
</g>
<path class="st3" d="M22.5,74.6c-0.4,0-0.8,0-1.3,0c-0.5,0-1,0-1.5,0c-0.4,0-0.9,0-1.3,0c-5.4,0-8.4,0-10.2-1.8
	c-2-2-2.2-5.9-2.2-14.2v0c0-4.7,0-7.8,1.8-9.7c1.7-1.9,4.9-2.5,11.9-2.5c6.2,0,10.2,0.4,12.3,2.5c1.9,1.9,1.9,5.1,1.9,9.8
	c0,8-0.2,12-2.3,14.1C29.9,74.4,27.2,74.6,22.5,74.6z M19.8,73.1c0.5,0,1,0,1.5,0c5.1,0,7.9,0,9.4-1.4c1.6-1.6,1.9-5.3,1.9-13
	c0-4.6,0-7.3-1.5-8.9c-1.4-1.5-4.6-2.1-11.2-2.1c-6.4,0-9.4,0.6-10.8,2.1c-1.4,1.5-1.4,4.2-1.4,8.8v0c0,7.7,0.2,11.6,1.8,13.2
	c1.4,1.4,4.2,1.4,9.2,1.4C18.9,73.1,19.3,73.1,19.8,73.1z"/>
<g>
	<path class="st4" d="M22.4,69.1c-0.5,0-1-0.2-1.4-0.6l-7.6-7.6l7.6-7.6c0.4-0.4,0.9-0.6,1.4-0.6c0.5,0,1,0.2,1.4,0.6l0.9,0.9
		c0.8,0.8,0.8,2,0,2.7l-3.2,3.2c-0.4,0.4-0.4,1.1,0,1.5l3.2,3.2c0.4,0.4,0.6,0.9,0.6,1.4s-0.2,1-0.6,1.4l-0.9,0.9
		C23.4,68.9,22.9,69.1,22.4,69.1z M14.4,60.9l7.1,7.1c0.5,0.5,1.3,0.5,1.7,0l0.9-0.9c0.2-0.2,0.4-0.5,0.4-0.9c0-0.3-0.1-0.6-0.4-0.9
		l-3.2-3.2c-0.7-0.7-0.7-1.8,0-2.6l3.2-3.2c0.5-0.5,0.5-1.3,0-1.7l-0.9-0.9c-0.2-0.2-0.5-0.4-0.9-0.4c-0.3,0-0.6,0.1-0.9,0.4
		L14.4,60.9z"/>
</g>
</svg>
