<?xml version="1.0" encoding="utf-8"?>
<!-- Generator: Adobe Illustrator 20.1.0, SVG Export Plug-In . SVG Version: 6.00 Build 0)  -->
<svg version="1.1" id="Logo" xmlns="http://www.w3.org/2000/svg" xmlns:xlink="http://www.w3.org/1999/xlink" x="0px" y="0px"
	 width="429.3px" height="68.2px" viewBox="0 0 429.3 68.2" style="enable-background:new 0 0 429.3 68.2;" xml:space="preserve">
<style type="text/css">
	.st0{fill:#8F8E8E;}
</style>
<g>
	<path class="st0" d="M85.9,46.3c-7,0-12.7-5.7-12.7-12.7S78.9,21,85.9,21s12.7,5.7,12.7,12.7S92.9,46.3,85.9,46.3 M85.9,15.5
		c-10,0-18.2,8.1-18.2,18.2c0,10,8.1,18.2,18.2,18.2c10,0,18.2-8.1,18.2-18.2C104.1,23.6,96,15.5,85.9,15.5"/>
	<path class="st0" d="M194.2,46.3c-7,0-12.7-5.7-12.7-12.7S187.2,21,194.2,21s12.7,5.7,12.7,12.7S201.2,46.3,194.2,46.3 M194.2,15.5
		c-10,0-18.2,8.1-18.2,18.2c0,10,8.1,18.2,18.2,18.2c10,0,18.2-8.1,18.2-18.2S204.2,15.5,194.2,15.5"/>
	<path class="st0" d="M132.2,47v3c0,0.7-0.5,1.2-1.2,1.2h-18c-2.3,0-4.2-0.9-5.4-2.9c-1.9-3.1-0.5-6.4,0.8-7.7l18.1-17.9
		c0,0,0.4-0.4,0.3-0.8c-0.1-0.3-0.5-0.4-1.1-0.4H108c-0.7,0-1.2-0.6-1.2-1.2v-3c0-0.7,0.6-1.2,1.2-1.2h17.6c2.8,0,5,0.9,6.1,3.1
		c1.3,2.6,0.5,5.5-1.4,7.4l-17.9,17.7c0,0-0.4,0.3-0.4,0.7c0,0.5,0.3,0.7,0.9,0.7h17.9C131.6,45.7,132.2,46.3,132.2,47"/>
	<path class="st0" d="M172.3,24.5V50c0,0.7-0.6,1.2-1.2,1.2h-3c-0.7,0-1.2-0.6-1.2-1.2V23.4c0-0.5-0.1-1-0.5-1.2
		c-0.8-0.4-1.3,0.5-2.1,3.7c0,0-2,7.9-3.3,12.2c-1.2,3.9-4.5,4.8-6.2,5c-0.1,0-0.2,0-0.3,0s-0.2,0-0.3,0c-1.7-0.2-5-1.1-6.2-5
		c-1.3-4.4-3.3-12.2-3.3-12.2c-0.8-3.2-1.3-4.1-2.1-3.7c-0.4,0.2-0.5,0.7-0.5,1.2V50c0,0.7-0.6,1.2-1.2,1.2h-3
		c-0.7,0-1.2-0.6-1.2-1.2V24.5c0-6.9,2.2-9.2,5.3-9.5c3.6-0.3,5.7,1.7,7.2,6.8c0.3,1.1,4.1,14,4.1,14c0.2,0.9,0.9,1.4,1.3,1.4
		c0.3,0,1.1-0.5,1.3-1.4c0,0,3.7-13,4.1-14c1.5-5.1,3.6-7.1,7.2-6.8C170,15.3,172.3,17.7,172.3,24.5z"/>
	<g id="circle3">
		<path class="st0" d="M212.7,19.2c-0.9,0-1.7-0.8-1.7-1.7c0-0.9,0.8-1.7,1.7-1.7s1.7,0.8,1.7,1.7S213.7,19.2,212.7,19.2z
			 M212.7,16.1c-0.7,0-1.4,0.6-1.4,1.4s0.6,1.4,1.4,1.4s1.4-0.6,1.4-1.4S213.5,16.1,212.7,16.1z"/>
	</g>
	<path id="text3175" class="st0" d="M212.6,17.3c0.1,0,0.2,0,0.2-0.1c0,0,0.1-0.1,0.1-0.2s0-0.1-0.1-0.2c0,0-0.1-0.1-0.2-0.1h-0.2
		v0.5h0.2 M212.5,17.7v0.7H212v-1.8h0.7c0.2,0,0.4,0,0.5,0.1s0.2,0.2,0.2,0.4c0,0.1,0,0.2-0.1,0.3c-0.1,0.1-0.1,0.1-0.3,0.2
		c0.1,0,0.1,0,0.2,0.1c0.1,0.1,0.1,0.1,0.2,0.2l0.2,0.5h-0.5l-0.2-0.4c0-0.1-0.1-0.1-0.1-0.2c0,0-0.1,0-0.2,0h-0.1"/>
	<path class="st0" d="M39.5,33.6c0,7,5.7,12.7,12.7,12.7c3.3,0,6.4-1.3,8.6-3.4c0,0,0,0,0.1-0.1c0.4-0.4,1.1-0.4,1.6-0.1l0.1,0.1
		l2.1,2.2c0.1,0.1,0.1,0.2,0.2,0.3c0.3,0.5,0.2,1.1-0.2,1.5l0,0c-3.3,3.1-7.6,5-12.5,5c-10,0-18.2-8.1-18.2-18.2
		c0-10,8.1-18.2,18.2-18.2c4.9,0,9.3,1.9,12.6,5.1c0.1,0.1,0.1,0.1,0.2,0.2c0.4,0.5,0.2,1.2-0.1,1.5l-0.1,0.1l-2.2,2.1
		c0,0-0.2,0.1-0.2,0.2c-0.5,0.3-1,0.2-1.4-0.1l-0.1-0.1c-2.3-2.1-5.3-3.4-8.7-3.4C45.2,21,39.5,26.6,39.5,33.6"/>
	<g>
		<path class="st0" d="M239.5,48.1c-3.1,0-4.3,0-5.8,0.2v-6.2c1.6,0.2,2.5,0.3,5.9,0.3h13.6V29.1H240c-3.1,0-4.4,0-5.8,0.2v-6.2
			c1.6,0.2,2.7,0.3,5.9,0.3h15.6c1.8,0,2.8,0,3.8-0.1c-0.1,1.2-0.1,1.8-0.1,3.5v17.7c0,2.9,0,3.6,0.2,5.6h-6.4v-2H239.5z"/>
		<path class="st0" d="M264.9,32.7c1.6,0.2,3.4,0.3,7,0.3h16.2c3.4,0,4.7-0.1,7-0.3v6.6c-1.6-0.2-3.1-0.2-7-0.2h-16.2
			c-3.8,0-4.9,0-7,0.2V32.7z"/>
		<path class="st0" d="M302.1,50.9c0.1-1.4,0.2-2.4,0.2-5.2V25.9c0-2.9,0-3.1-0.2-4.9h6.6c-0.1,0.9-0.1,1.4-0.2,5v4.7
			c5.4,1.7,10.7,4.1,15.5,7.1l-3.2,5.8c-2.8-2-6.8-4.2-10.7-5.9c-1-0.4-1.1-0.4-1.2-0.5c-0.1,0-0.2-0.1-0.3-0.2v8.8
			c0,2.5,0.1,4.3,0.2,5.2L302.1,50.9L302.1,50.9z M317.5,22.9c1.3,1.5,2.4,3.1,3.4,4.9l-3.2,1.6c-1.1-2.1-2-3.4-3.4-5L317.5,22.9z
			 M322,20.9c1.3,1.4,2.2,2.7,3.4,4.7l-3.1,1.5c-1.2-2.1-2.1-3.5-3.3-4.9L322,20.9z"/>
		<path class="st0" d="M329.1,30c1.5,0.2,2.6,0.3,5.5,0.3h17.1c1.6,0,1.9,0,2.7-0.4l2.7,2.9c-0.4,0.6-0.5,0.7-1,2.1
			c-1.8,5.1-4.2,8.9-7.5,11.7c-2.6,2.2-5,3.5-9.7,5.3c-0.9-2-1.8-3.4-3.8-5.6c4.1-1.1,6.5-2.1,9-4c2.5-1.8,4-3.8,5.2-6.8h-14.7
			c-2.7,0-3.3,0-5.4,0.2V30H329.1z M331.9,21.5c1.3,0.2,2.6,0.3,5,0.3h10.8c2.7,0,4.1-0.1,5.3-0.3v5.7c-1.3-0.1-2.9-0.2-5.2-0.2h-11
			c-2.7,0-3.4,0-4.9,0.2L331.9,21.5L331.9,21.5z"/>
		<path class="st0" d="M370,34.6c-0.1,0.5-0.3,1.6-0.7,3.3c-1.2,4.8-2.7,8.2-4.8,11.4c-2.2-1.4-3.7-2.1-5.6-2.8
			c2.7-3.4,4.8-8.8,5.3-13.2L370,34.6z M372.1,24.9c0-1.7,0-2.4-0.2-3.8h6.4c-0.1,0.8-0.1,1.9-0.2,3.8v1.3h6.5c2.9,0,4-0.1,5.3-0.3
			v5.8c-1.2-0.1-2.2-0.2-5.2-0.2h-6.6v15c0,2.9,0,3.9,0.2,5h-6.5c0.2-1.5,0.2-2.3,0.2-5.1V31.5h-6.3c-3.3,0-3.8,0-5.1,0.2v-5.8
			c1.4,0.2,2.4,0.3,5.2,0.3h6.3L372.1,24.9L372.1,24.9z M385.8,33.2c1.1,4.8,3,9.5,5.5,13c-2.9,1.5-3.2,1.6-5.6,3.2
			c-2.3-4.1-3.6-7.5-5-13.1c-0.3-1.1-0.3-1.2-0.5-1.7L385.8,33.2z M384.7,20.2c1.1,1.5,2,3.1,2.6,4.8l-3.4,1
			c-0.6-1.7-1.5-3.5-2.5-4.9L384.7,20.2z M389.5,19.1c1.2,1.6,1.9,3,2.6,4.7l-3.2,1c-0.7-1.8-1.5-3.2-2.6-4.8L389.5,19.1z"/>
	</g>
</g>
</svg>
