<?xml version="1.0" encoding="utf-8"?>
<!-- Generator: Adobe Illustrator 20.1.0, SVG Export Plug-In . SVG Version: 6.00 Build 0)  -->
<svg version="1.1" id="Logo" xmlns="http://www.w3.org/2000/svg" xmlns:xlink="http://www.w3.org/1999/xlink" x="0px" y="0px"
	 width="429.3px" height="68.2px" viewBox="0 0 429.3 68.2" style="enable-background:new 0 0 429.3 68.2;" xml:space="preserve">
<style type="text/css">
	.st0{fill:#8F8E8E;}
</style>
<path class="st0" d="M73.9,46.3c-7,0-12.7-5.7-12.7-12.7S66.9,21,73.9,21s12.7,5.7,12.7,12.7S80.9,46.3,73.9,46.3 M73.9,15.5
	c-10,0-18.2,8.1-18.2,18.2c0,10,8.1,18.2,18.2,18.2c10,0,18.2-8.1,18.2-18.2C92.1,23.6,84,15.5,73.9,15.5"/>
<path class="st0" d="M182.2,46.3c-7,0-12.7-5.7-12.7-12.7S175.2,21,182.2,21s12.7,5.7,12.7,12.7S189.2,46.3,182.2,46.3 M182.2,15.5
	c-10,0-18.2,8.1-18.2,18.2c0,10,8.1,18.2,18.2,18.2c10,0,18.2-8.1,18.2-18.2S192.2,15.5,182.2,15.5"/>
<path class="st0" d="M120.2,47v3c0,0.7-0.5,1.2-1.2,1.2h-18c-2.3,0-4.2-0.9-5.4-2.9c-1.9-3.1-0.5-6.4,0.8-7.7l18.1-17.9
	c0,0,0.4-0.4,0.3-0.8c-0.1-0.3-0.5-0.4-1.1-0.4H96c-0.7,0-1.2-0.6-1.2-1.2v-3c0-0.7,0.6-1.2,1.2-1.2h17.6c2.8,0,5,0.9,6.1,3.1
	c1.3,2.6,0.5,5.5-1.4,7.4l-17.9,17.7c0,0-0.4,0.3-0.4,0.7c0,0.5,0.3,0.7,0.9,0.7h17.9C119.6,45.7,120.2,46.3,120.2,47"/>
<path class="st0" d="M160.3,24.5V50c0,0.7-0.6,1.2-1.2,1.2h-3c-0.7,0-1.2-0.6-1.2-1.2V23.4c0-0.5-0.1-1-0.5-1.2
	c-0.8-0.4-1.3,0.5-2.1,3.7c0,0-2,7.9-3.3,12.2c-1.2,3.9-4.5,4.8-6.2,5c-0.1,0-0.2,0-0.3,0s-0.2,0-0.3,0c-1.7-0.2-5-1.1-6.2-5
	c-1.3-4.4-3.3-12.2-3.3-12.2c-0.8-3.2-1.3-4.1-2.1-3.7c-0.4,0.2-0.5,0.7-0.5,1.2V50c0,0.7-0.6,1.2-1.2,1.2h-3
	c-0.7,0-1.2-0.6-1.2-1.2V24.5c0-6.9,2.2-9.2,5.3-9.5c3.6-0.3,5.7,1.7,7.2,6.8c0.3,1.1,4.1,14,4.1,14c0.2,0.9,0.9,1.4,1.3,1.4
	c0.3,0,1.1-0.5,1.3-1.4c0,0,3.7-13,4.1-14c1.5-5.1,3.6-7.1,7.2-6.8C158,15.3,160.3,17.7,160.3,24.5z"/>
<g id="circle3">
	<path class="st0" d="M200.7,19.2c-0.9,0-1.7-0.8-1.7-1.7c0-0.9,0.8-1.7,1.7-1.7s1.7,0.8,1.7,1.7S201.7,19.2,200.7,19.2z
		 M200.7,16.1c-0.7,0-1.4,0.6-1.4,1.4s0.6,1.4,1.4,1.4s1.4-0.6,1.4-1.4S201.5,16.1,200.7,16.1z"/>
</g>
<path id="text3175" class="st0" d="M200.6,17.3c0.1,0,0.2,0,0.2-0.1c0,0,0.1-0.1,0.1-0.2s0-0.1-0.1-0.2c0,0-0.1-0.1-0.2-0.1h-0.2
	v0.5h0.2 M200.5,17.7v0.7H200v-1.8h0.7c0.2,0,0.4,0,0.5,0.1s0.2,0.2,0.2,0.4c0,0.1,0,0.2-0.1,0.3c-0.1,0.1-0.1,0.1-0.3,0.2
	c0.1,0,0.1,0,0.2,0.1c0.1,0.1,0.1,0.1,0.2,0.2l0.2,0.5h-0.5l-0.2-0.4c0-0.1-0.1-0.1-0.1-0.2c0,0-0.1,0-0.2,0h-0.1"/>
<path class="st0" d="M27.5,33.6c0,7,5.7,12.7,12.7,12.7c3.3,0,6.4-1.3,8.6-3.4c0,0,0,0,0.1-0.1c0.4-0.4,1.1-0.4,1.6-0.1l0.1,0.1
	l2.1,2.2c0.1,0.1,0.1,0.2,0.2,0.3c0.3,0.5,0.2,1.1-0.2,1.5l0,0c-3.3,3.1-7.6,5-12.5,5c-10,0-18.2-8.1-18.2-18.2
	c0-10,8.1-18.2,18.2-18.2c4.9,0,9.3,1.9,12.6,5.1c0.1,0.1,0.1,0.1,0.2,0.2c0.4,0.5,0.2,1.2-0.1,1.5l-0.1,0.1l-2.2,2.1
	c0,0-0.2,0.1-0.2,0.2c-0.5,0.3-1,0.2-1.4-0.1l-0.1-0.1c-2.3-2.1-5.3-3.4-8.7-3.4C33.2,21,27.5,26.6,27.5,33.6"/>
<g>
	<path class="st0" d="M235,29.1c-0.6-0.7-1.3-1.3-2.1-1.6s-1.8-0.6-2.9-0.6c-1.1,0-2.1,0.2-3.1,0.6c-0.9,0.4-1.8,1-2.5,1.8
		s-1.2,1.7-1.6,2.8c-0.4,1.1-0.6,2.2-0.6,3.5s0.2,2.4,0.6,3.5c0.4,1.1,0.9,2,1.6,2.7c0.7,0.8,1.5,1.4,2.4,1.8c0.9,0.4,1.9,0.6,3,0.6
		c1.2,0,2.3-0.3,3.2-0.8s1.7-1.2,2.3-2.1l4.9,3.7c-1.1,1.6-2.6,2.8-4.3,3.5c-1.7,0.8-3.5,1.1-5.4,1.1c-2.1,0-4-0.3-5.8-1
		s-3.3-1.6-4.6-2.8s-2.3-2.7-3-4.5s-1.1-3.7-1.1-5.9s0.4-4.1,1.1-5.9c0.7-1.7,1.7-3.2,3-4.5c1.3-1.2,2.8-2.2,4.6-2.8
		c1.8-0.7,3.7-1,5.8-1c0.8,0,1.6,0.1,2.4,0.2c0.8,0.1,1.6,0.4,2.4,0.7c0.8,0.3,1.6,0.7,2.3,1.2s1.4,1.1,2,1.9L235,29.1z"/>
	<path class="st0" d="M242,35.6c0-2.2,0.4-4.1,1.1-5.9c0.7-1.7,1.7-3.2,3-4.5c1.3-1.2,2.8-2.2,4.6-2.8c1.8-0.7,3.7-1,5.8-1
		c2.1,0,4,0.3,5.8,1s3.3,1.6,4.6,2.8c1.3,1.2,2.3,2.7,3,4.5c0.7,1.7,1.1,3.7,1.1,5.9s-0.4,4.1-1.1,5.9c-0.7,1.7-1.7,3.2-3,4.5
		c-1.3,1.2-2.8,2.2-4.6,2.8c-1.8,0.7-3.7,1-5.8,1s-4-0.3-5.8-1s-3.3-1.6-4.6-2.8s-2.3-2.7-3-4.5S242,37.8,242,35.6z M248.2,35.6
		c0,1.3,0.2,2.4,0.6,3.5c0.4,1.1,1,2,1.7,2.7c0.7,0.8,1.6,1.4,2.6,1.8c1,0.4,2.2,0.6,3.4,0.6c1.2,0,2.4-0.2,3.4-0.6
		c1-0.4,1.9-1,2.6-1.8s1.3-1.7,1.7-2.7c0.4-1.1,0.6-2.2,0.6-3.5c0-1.2-0.2-2.4-0.6-3.5c-0.4-1.1-1-2-1.7-2.8s-1.6-1.4-2.6-1.8
		s-2.2-0.6-3.4-0.6s-2.4,0.2-3.4,0.6s-1.9,1-2.6,1.8c-0.7,0.8-1.3,1.7-1.7,2.8C248.4,33.2,248.2,34.4,248.2,35.6z"/>
	<path class="st0" d="M275.1,22.2h8.9c2.2,0,4.2,0.2,6.1,0.7s3.6,1.3,5.1,2.3c1.4,1.1,2.6,2.5,3.4,4.2s1.3,3.8,1.3,6.3
		c0,2.2-0.4,4.1-1.2,5.8c-0.8,1.7-1.9,3.1-3.3,4.2c-1.4,1.1-3,2-4.8,2.6s-3.7,0.9-5.7,0.9h-9.7L275.1,22.2L275.1,22.2z M281,43.6
		h3.1c1.4,0,2.6-0.1,3.8-0.4c1.2-0.3,2.2-0.7,3.1-1.4c0.9-0.6,1.5-1.5,2-2.5c0.5-1.1,0.7-2.3,0.7-3.9c0-1.3-0.2-2.5-0.7-3.4
		c-0.5-1-1.2-1.8-2-2.4s-1.8-1.1-2.9-1.4s-2.3-0.5-3.6-0.5H281V43.6z"/>
	<path class="st0" d="M304.2,22.2h18.3v5.5h-12.4v5h11.7v5.5h-11.7v5.5h13v5.5h-19v-27H304.2z"/>
	<path class="st0" d="M339.4,22.2h5.9v21.4h11v5.5h-16.9V22.2z"/>
	<path class="st0" d="M368.4,22.2h4.9L385,49.1h-6.7l-2.3-5.7h-10.5l-2.2,5.7h-6.5L368.4,22.2z M370.7,30l-3.3,8.4h6.6L370.7,30z"/>
	<path class="st0" d="M387.7,22.2h10c1.2,0,2.3,0.1,3.5,0.2c1.2,0.2,2.2,0.5,3.2,1c0.9,0.5,1.7,1.2,2.3,2.1c0.6,0.9,0.9,2.1,0.9,3.5
		c0,1.5-0.4,2.8-1.3,3.8c-0.8,1-2,1.7-3.4,2.1V35c0.9,0.1,1.7,0.4,2.4,0.7c0.7,0.4,1.3,0.8,1.9,1.4c0.5,0.6,0.9,1.2,1.2,2
		c0.3,0.8,0.4,1.6,0.4,2.4c0,1.4-0.3,2.6-0.9,3.6s-1.4,1.7-2.4,2.3s-2,1-3.2,1.3s-2.4,0.4-3.6,0.4h-11V22.2z M393.6,32.9h4.3
		c0.5,0,0.9-0.1,1.3-0.2s0.8-0.3,1.2-0.5s0.6-0.5,0.9-0.9c0.2-0.4,0.3-0.8,0.3-1.4s-0.1-1-0.4-1.4c-0.2-0.4-0.6-0.7-0.9-0.9
		c-0.4-0.2-0.8-0.3-1.3-0.4s-0.9-0.1-1.4-0.1h-4V32.9z M393.6,44h5.3c0.5,0,0.9-0.1,1.4-0.2c0.5-0.1,0.9-0.3,1.3-0.5
		c0.4-0.3,0.7-0.6,0.9-1c0.2-0.4,0.4-0.9,0.4-1.5s-0.2-1.1-0.5-1.5s-0.7-0.7-1.2-0.9s-1-0.3-1.6-0.4c-0.6-0.1-1.1-0.1-1.6-0.1h-4.5
		V44H393.6z"/>
</g>
</svg>
