<?xml version="1.0" encoding="utf-8"?>
<!-- Generator: Adobe Illustrator 20.1.0, SVG Export Plug-In . SVG Version: 6.00 Build 0)  -->
<svg version="1.1" id="Logo" xmlns="http://www.w3.org/2000/svg" xmlns:xlink="http://www.w3.org/1999/xlink" x="0px" y="0px"
	 viewBox="0 0 429.3 68.2" style="enable-background:new 0 0 429.3 68.2;" xml:space="preserve">
<style type="text/css">
	.st0{opacity:0.7;}
	.st1{fill:url(#SVGID_1_);}
	.st2{fill:url(#SVGID_2_);}
	.st3{fill:url(#SVGID_3_);}
	.st4{fill:url(#SVGID_4_);}
	.st5{fill:url(#SVGID_5_);}
	.st6{fill:url(#SVGID_6_);}
	.st7{fill:#787878;}
	.st8{fill:url(#SVGID_7_);}
	.st9{fill:url(#SVGID_8_);}
	.st10{fill:url(#SVGID_9_);}
	.st11{fill:url(#SVGID_10_);}
	.st12{fill:url(#SVGID_11_);}
</style>
<g class="st0">
	<linearGradient id="SVGID_1_" gradientUnits="userSpaceOnUse" x1="73.9141" y1="13.9695" x2="73.9141" y2="53.3255">
		<stop  offset="0" style="stop-color:#E3E3E3"/>
		<stop  offset="0.1233" style="stop-color:#C1C1C1"/>
		<stop  offset="0.5342" style="stop-color:#B6B6B6"/>
		<stop  offset="1" style="stop-color:#545454"/>
	</linearGradient>
	<path class="st1" d="M73.9,14c-10.9,0-19.7,8.8-19.7,19.7c0,10.9,8.8,19.7,19.7,19.7c10.8,0,19.7-8.8,19.7-19.7
		C93.6,22.8,84.8,14,73.9,14z M85.1,33.6c0,6.2-5,11.2-11.2,11.2s-11.2-5-11.2-11.2c0-6.2,5-11.2,11.2-11.2S85.1,27.5,85.1,33.6z"/>
	<linearGradient id="SVGID_2_" gradientUnits="userSpaceOnUse" x1="182.188" y1="13.9695" x2="182.188" y2="53.3255">
		<stop  offset="0" style="stop-color:#E3E3E3"/>
		<stop  offset="0.1233" style="stop-color:#C1C1C1"/>
		<stop  offset="0.5342" style="stop-color:#B6B6B6"/>
		<stop  offset="1" style="stop-color:#545454"/>
	</linearGradient>
	<path class="st2" d="M182.2,14c-10.9,0-19.7,8.8-19.7,19.7c0,10.9,8.8,19.7,19.7,19.7c10.8,0,19.7-8.8,19.7-19.7
		C201.9,22.8,193,14,182.2,14z M193.4,33.6c0,6.2-5,11.2-11.2,11.2c-6.2,0-11.2-5-11.2-11.2c0-6.2,5-11.2,11.2-11.2
		C188.3,22.5,193.4,27.5,193.4,33.6z"/>
	<linearGradient id="SVGID_3_" gradientUnits="userSpaceOnUse" x1="107.4772" y1="14.5545" x2="107.4772" y2="52.741">
		<stop  offset="0" style="stop-color:#E3E3E3"/>
		<stop  offset="0.1233" style="stop-color:#C1C1C1"/>
		<stop  offset="0.5342" style="stop-color:#B6B6B6"/>
		<stop  offset="1" style="stop-color:#545454"/>
	</linearGradient>
	<path class="st3" d="M121.1,18.5c-0.9-1.8-2.9-3.9-7.4-3.9c0,0,0,0,0,0H96c-1.5,0-2.8,1.2-2.8,2.7v3c0,1.5,1.2,2.7,2.8,2.7h15.9
		L95.2,39.6c-1.6,1.7-3.3,5.7-1,9.5c1.5,2.4,3.8,3.6,6.7,3.6l18.1,0c1.5-0.1,2.7-1.3,2.7-2.7v-3c0-1.5-1.2-2.7-2.7-2.7l-16.3,0
		l16.8-16.6C121.9,25.1,122.6,21.5,121.1,18.5z"/>
	<linearGradient id="SVGID_4_" gradientUnits="userSpaceOnUse" x1="142.4234" y1="13.5379" x2="142.4234" y2="52.741">
		<stop  offset="0" style="stop-color:#E3E3E3"/>
		<stop  offset="0.1233" style="stop-color:#C1C1C1"/>
		<stop  offset="0.5342" style="stop-color:#B6B6B6"/>
		<stop  offset="1" style="stop-color:#545454"/>
	</linearGradient>
	<path class="st4" d="M155.1,13.6c-5.6-0.4-7.6,4-8.8,7.9c-0.3,1-3.1,10.9-3.9,13.5c-0.7-2.6-3.6-12.5-3.9-13.5
		c-1.2-3.9-3.2-8.3-8.8-7.9c-4.4,0.3-6.6,4-6.6,10.9V50c0,1.5,1.2,2.7,2.7,2.7h3c1.5,0,2.7-1.2,2.7-2.7V27.8
		c0.6,2.5,1.9,7.5,2.9,10.7c1.6,5.1,6.1,5.9,7.5,6.1c0.3,0,0.5,0,0.8,0c1.4-0.1,5.9-0.9,7.5-6.1c1-3.2,2.3-8.2,2.9-10.7V50
		c0,1.5,1.2,2.7,2.7,2.7h3c1.5,0,2.7-1.2,2.7-2.7V24.5C161.8,17.6,159.5,13.9,155.1,13.6z"/>
	<linearGradient id="SVGID_5_" gradientUnits="userSpaceOnUse" x1="200.7373" y1="14.2761" x2="200.7373" y2="20.676">
		<stop  offset="0" style="stop-color:#E3E3E3"/>
		<stop  offset="0.1233" style="stop-color:#C1C1C1"/>
		<stop  offset="0.5342" style="stop-color:#B6B6B6"/>
		<stop  offset="1" style="stop-color:#545454"/>
	</linearGradient>
	<circle class="st5" cx="200.7" cy="17.5" r="3.2"/>
	<linearGradient id="SVGID_6_" gradientUnits="userSpaceOnUse" x1="37.5702" y1="13.9695" x2="37.5702" y2="53.3255">
		<stop  offset="0" style="stop-color:#E3E3E3"/>
		<stop  offset="0.1233" style="stop-color:#C1C1C1"/>
		<stop  offset="0.5342" style="stop-color:#B6B6B6"/>
		<stop  offset="1" style="stop-color:#545454"/>
	</linearGradient>
	<path class="st6" d="M53.8,44l-2.1-2.2c-0.1-0.1-0.2-0.2-0.3-0.3c-1.1-0.8-2.5-0.8-3.5,0.1c0,0,0,0-0.1,0.1c-2.1,1.9-4.8,3-7.6,3
		c-6.2,0-11.2-5-11.2-11.2c0-6.2,5-11.2,11.2-11.2c2.9,0,5.6,1.1,7.7,3.1c0,0,0.1,0.1,0.1,0.1c0.9,0.8,2.2,0.9,3.1,0.3
		c0.2-0.1,0.5-0.3,0.6-0.4l2.2-2.1c0.1-0.1,0.1-0.1,0.2-0.2c0.7-0.8,0.9-2.3,0.1-3.4c-0.1-0.1-0.2-0.2-0.4-0.4
		c-3.7-3.6-8.5-5.5-13.7-5.5c-10.9,0-19.7,8.8-19.7,19.7c0,10.9,8.8,19.7,19.7,19.7c5,0,9.8-1.9,13.6-5.4c0.9-0.9,1.1-2.2,0.5-3.3
		C54.1,44.4,53.9,44.2,53.8,44z"/>
</g>
<path class="st7" d="M73.9,46.3c-7,0-12.7-5.7-12.7-12.7S66.9,21,73.9,21c7,0,12.7,5.7,12.7,12.7S80.9,46.3,73.9,46.3 M73.9,15.5
	c-10,0-18.2,8.1-18.2,18.2c0,10,8.1,18.2,18.2,18.2c10,0,18.2-8.1,18.2-18.2C92.1,23.6,84,15.5,73.9,15.5"/>
<path class="st7" d="M182.2,46.3c-7,0-12.7-5.7-12.7-12.7S175.2,21,182.2,21c7,0,12.7,5.7,12.7,12.7S189.2,46.3,182.2,46.3
	 M182.2,15.5c-10,0-18.2,8.1-18.2,18.2c0,10,8.1,18.2,18.2,18.2c10,0,18.2-8.1,18.2-18.2C200.4,23.6,192.2,15.5,182.2,15.5"/>
<path class="st7" d="M120.2,47v3c0,0.7-0.5,1.2-1.2,1.2h-18c-2.3,0-4.2-0.9-5.4-2.9c-1.9-3.1-0.5-6.4,0.8-7.7l18.1-17.9
	c0,0,0.4-0.4,0.3-0.8c-0.1-0.3-0.5-0.4-1.1-0.4H96c-0.7,0-1.2-0.6-1.2-1.2v-3c0-0.7,0.6-1.2,1.2-1.2h17.6c2.8,0,5,0.9,6.1,3.1
	c1.3,2.6,0.5,5.5-1.4,7.4l-17.9,17.7c0,0-0.4,0.3-0.4,0.7c0,0.5,0.3,0.7,0.9,0.7h17.9C119.6,45.7,120.2,46.3,120.2,47"/>
<path class="st7" d="M160.3,24.5V50c0,0.7-0.6,1.2-1.2,1.2h-3c-0.7,0-1.2-0.6-1.2-1.2V23.4c0-0.5-0.1-1-0.5-1.2
	c-0.8-0.4-1.3,0.5-2.1,3.7c0,0-2,7.9-3.3,12.2c-1.2,3.9-4.5,4.8-6.2,5c-0.1,0-0.2,0-0.3,0c-0.1,0-0.2,0-0.3,0c-1.7-0.2-5-1.1-6.2-5
	c-1.3-4.4-3.3-12.2-3.3-12.2c-0.8-3.2-1.3-4.1-2.1-3.7c-0.4,0.2-0.5,0.7-0.5,1.2V50c0,0.7-0.6,1.2-1.2,1.2h-3
	c-0.7,0-1.2-0.6-1.2-1.2V24.5c0-6.9,2.2-9.2,5.3-9.5c3.6-0.3,5.7,1.7,7.2,6.8c0.3,1.1,4.1,14,4.1,14c0.2,0.9,0.9,1.4,1.3,1.4
	c0.3,0,1.1-0.5,1.3-1.4c0,0,3.7-13,4.1-14c1.5-5.1,3.6-7.1,7.2-6.8C158,15.3,160.3,17.7,160.3,24.5z"/>
<g id="circle3">
	<path class="st7" d="M200.7,19.2c-0.9,0-1.7-0.8-1.7-1.7c0-0.9,0.8-1.7,1.7-1.7c0.9,0,1.7,0.8,1.7,1.7
		C202.4,18.4,201.7,19.2,200.7,19.2z M200.7,16.1c-0.7,0-1.4,0.6-1.4,1.4s0.6,1.4,1.4,1.4s1.4-0.6,1.4-1.4S201.5,16.1,200.7,16.1z"
		/>
</g>
<path id="text3175" class="st7" d="M200.6,17.3c0.1,0,0.2,0,0.2-0.1c0,0,0.1-0.1,0.1-0.2c0-0.1,0-0.1-0.1-0.2c0,0-0.1-0.1-0.2-0.1
	h-0.2v0.5H200.6 M200.5,17.7v0.7H200v-1.8h0.7c0.2,0,0.4,0,0.5,0.1c0.1,0.1,0.2,0.2,0.2,0.4c0,0.1,0,0.2-0.1,0.3
	c-0.1,0.1-0.1,0.1-0.3,0.2c0.1,0,0.1,0,0.2,0.1c0.1,0.1,0.1,0.1,0.2,0.2l0.2,0.5h-0.5l-0.2-0.4c0-0.1-0.1-0.1-0.1-0.2
	c0,0-0.1,0-0.2,0H200.5"/>
<path class="st7" d="M27.5,33.6c0,7,5.7,12.7,12.7,12.7c3.3,0,6.4-1.3,8.6-3.4c0,0,0,0,0.1-0.1c0.4-0.4,1.1-0.4,1.6-0.1
	c0,0,0.1,0.1,0.1,0.1l2.1,2.2c0.1,0.1,0.1,0.2,0.2,0.3c0.3,0.5,0.2,1.1-0.2,1.5c0,0,0,0,0,0c-3.3,3.1-7.6,5-12.5,5
	c-10,0-18.2-8.1-18.2-18.2c0-10,8.1-18.2,18.2-18.2c4.9,0,9.3,1.9,12.6,5.1c0.1,0.1,0.1,0.1,0.2,0.2c0.4,0.5,0.2,1.2-0.1,1.5
	c0,0-0.1,0.1-0.1,0.1l-2.2,2.1c0,0-0.2,0.1-0.2,0.2c-0.5,0.3-1,0.2-1.4-0.1c0,0-0.1-0.1-0.1-0.1c-2.3-2.1-5.3-3.4-8.7-3.4
	C33.2,21,27.5,26.6,27.5,33.6"/>
<g>
	<g>
		<linearGradient id="SVGID_7_" gradientUnits="userSpaceOnUse" x1="228.4153" y1="18.8769" x2="228.4153" y2="60.7878">
			<stop  offset="0" style="stop-color:#E3E3E3"/>
			<stop  offset="0.1233" style="stop-color:#C1C1C1"/>
			<stop  offset="0.5342" style="stop-color:#B6B6B6"/>
			<stop  offset="1" style="stop-color:#545454"/>
		</linearGradient>
		<path class="st8" d="M236.2,40.2l-1.3-0.9l-0.9,1.3c-0.5,0.7-1.1,1.2-1.8,1.6c-0.7,0.4-1.5,0.6-2.5,0.6c-0.9,0-1.6-0.2-2.3-0.5
			c-0.7-0.3-1.4-0.8-1.9-1.4c-0.6-0.6-1-1.4-1.3-2.3c-0.3-0.9-0.5-1.9-0.5-3c0-1.1,0.2-2,0.5-2.9c0.3-0.9,0.8-1.6,1.3-2.3
			c0.6-0.6,1.2-1.1,2-1.4c0.8-0.3,1.6-0.5,2.5-0.5c0.9,0,1.7,0.1,2.3,0.4c0.6,0.3,1.2,0.7,1.6,1.2l0.9,1.2l1.2-0.9l4.6-3.7l1.1-0.9
			l-0.9-1.2c-0.7-0.8-1.4-1.6-2.3-2.2c-0.8-0.6-1.7-1-2.6-1.4c-0.9-0.3-1.8-0.6-2.7-0.7c-0.9-0.2-1.8-0.2-2.6-0.2
			c-2.3,0-4.4,0.4-6.3,1.1c-2,0.7-3.7,1.8-5.1,3.2c-1.4,1.4-2.6,3-3.4,5c-0.8,1.9-1.2,4.1-1.2,6.4s0.4,4.5,1.2,6.4
			c0.8,1.9,1.9,3.6,3.4,5c1.4,1.4,3.2,2.4,5.1,3.1c1.9,0.7,4.1,1.1,6.3,1.1c2,0,4.1-0.4,6-1.3c2-0.9,3.7-2.2,5-4l0.9-1.2l-1.2-0.9
			L236.2,40.2z"/>
		<linearGradient id="SVGID_8_" gradientUnits="userSpaceOnUse" x1="256.5525" y1="18.8769" x2="256.5525" y2="60.7878">
			<stop  offset="0" style="stop-color:#E3E3E3"/>
			<stop  offset="0.1233" style="stop-color:#C1C1C1"/>
			<stop  offset="0.5342" style="stop-color:#B6B6B6"/>
			<stop  offset="1" style="stop-color:#545454"/>
		</linearGradient>
		<path class="st9" d="M268,24.2c-1.4-1.4-3.2-2.4-5.1-3.2c-1.9-0.7-4.1-1.1-6.3-1.1c-2.3,0-4.4,0.4-6.3,1.1c-2,0.7-3.7,1.8-5.1,3.2
			c-1.4,1.4-2.6,3-3.4,5c-0.8,1.9-1.2,4.1-1.2,6.4s0.4,4.5,1.2,6.4c0.8,1.9,1.9,3.6,3.4,5c1.4,1.4,3.2,2.4,5.1,3.1
			c1.9,0.7,4.1,1.1,6.3,1.1c2.3,0,4.4-0.4,6.3-1.1c2-0.7,3.7-1.8,5.1-3.1c1.4-1.4,2.6-3,3.4-5c0.8-1.9,1.2-4.1,1.2-6.4
			s-0.4-4.5-1.2-6.4C270.6,27.2,269.4,25.6,268,24.2z M256.6,42.8c-1.1,0-2-0.2-2.9-0.5c-0.8-0.4-1.5-0.8-2.1-1.5
			c-0.6-0.6-1.1-1.4-1.4-2.2c-0.3-0.9-0.5-1.9-0.5-3c0-1.1,0.2-2,0.5-2.9c0.3-0.9,0.8-1.6,1.4-2.2c0.6-0.6,1.3-1.1,2.1-1.5
			c0.8-0.4,1.8-0.5,2.9-0.5c1.1,0,2,0.2,2.9,0.5c0.8,0.4,1.5,0.8,2.1,1.5c0.6,0.6,1,1.4,1.4,2.2c0.3,0.9,0.5,1.9,0.5,2.9
			c0,1.1-0.2,2.1-0.5,3c-0.3,0.9-0.8,1.6-1.4,2.2c-0.6,0.6-1.3,1.1-2.1,1.5C258.6,42.6,257.6,42.8,256.6,42.8z"/>
		<linearGradient id="SVGID_9_" gradientUnits="userSpaceOnUse" x1="287.5027" y1="18.8769" x2="287.5027" y2="60.7878">
			<stop  offset="0" style="stop-color:#E3E3E3"/>
			<stop  offset="0.1233" style="stop-color:#C1C1C1"/>
			<stop  offset="0.5342" style="stop-color:#B6B6B6"/>
			<stop  offset="1" style="stop-color:#545454"/>
		</linearGradient>
		<path class="st10" d="M296.1,24c-1.6-1.2-3.5-2.1-5.6-2.6c-2-0.5-4.2-0.8-6.5-0.8h-8.9h-1.5v1.5v26.9v1.5h1.5h9.7
			c2.1,0,4.2-0.3,6.2-0.9c2-0.6,3.8-1.6,5.3-2.8c1.6-1.3,2.8-2.8,3.7-4.7c0.9-1.9,1.4-4,1.4-6.4c0-2.7-0.5-5-1.4-6.9
			C299,26.8,297.7,25.2,296.1,24z M291.7,32.6c0.4,0.8,0.6,1.7,0.6,2.8c0,1.3-0.2,2.4-0.6,3.2c-0.4,0.8-0.9,1.5-1.6,2
			c-0.7,0.5-1.5,0.9-2.5,1.1c-1.1,0.3-2.2,0.4-3.5,0.4h-1.6v-13h2c1.1,0,2.2,0.1,3.1,0.4c0.9,0.3,1.8,0.7,2.4,1.2
			C290.8,31.2,291.3,31.8,291.7,32.6z"/>
		<linearGradient id="SVGID_10_" gradientUnits="userSpaceOnUse" x1="313.6462" y1="18.8769" x2="313.6462" y2="60.7878">
			<stop  offset="0" style="stop-color:#E3E3E3"/>
			<stop  offset="0.1233" style="stop-color:#C1C1C1"/>
			<stop  offset="0.5342" style="stop-color:#B6B6B6"/>
			<stop  offset="1" style="stop-color:#545454"/>
		</linearGradient>
		<polygon class="st11" points="311.6,42.1 311.6,39.6 321.8,39.6 323.3,39.6 323.3,38.1 323.3,32.6 323.3,31.1 321.8,31.1 
			311.6,31.1 311.6,29.1 322.4,29.1 323.9,29.1 323.9,27.6 323.9,22.2 323.9,20.7 322.4,20.7 304.2,20.7 302.7,20.7 302.7,22.2 
			302.7,49.1 302.7,50.6 304.2,50.6 323.1,50.6 324.6,50.6 324.6,49.1 324.6,43.6 324.6,42.1 323.1,42.1 		"/>
		<linearGradient id="SVGID_11_" gradientUnits="userSpaceOnUse" x1="374.0837" y1="18.8769" x2="374.0837" y2="60.7878">
			<stop  offset="0" style="stop-color:#E3E3E3"/>
			<stop  offset="0.1233" style="stop-color:#C1C1C1"/>
			<stop  offset="0.5342" style="stop-color:#B6B6B6"/>
			<stop  offset="1" style="stop-color:#545454"/>
		</linearGradient>
		<path class="st12" d="M409.8,38.6c-0.3-0.9-0.8-1.8-1.5-2.5c-0.5-0.6-1.1-1.1-1.8-1.5c0.3-0.3,0.6-0.6,0.9-0.9
			c1.1-1.3,1.6-2.9,1.6-4.8c0-1.8-0.4-3.2-1.1-4.4c-0.7-1.1-1.7-2-2.8-2.6c-1.1-0.6-2.3-1-3.7-1.1c-1.2-0.2-2.5-0.3-3.7-0.3h-10
			h-1.5v1.5v25.9l-11.5-26.5l-0.4-0.9h-1h-4.9h-1l-0.4,0.9L357.8,43v-0.9h-1.5h-9.5V22.2v-1.5h-1.5h-5.9h-1.5v1.5v26.9v1.5h1.5h15.1
			h1.8h0.5h1h5.5h1l0.4-1l1.9-4.7h8.4l1.9,4.8l0.4,0.9h1h6.7h1.2h1.1h0.4h11c1.3,0,2.6-0.1,3.9-0.4c1.4-0.3,2.6-0.8,3.7-1.4
			c1.2-0.7,2.1-1.6,2.8-2.8c0.8-1.2,1.1-2.7,1.1-4.4C410.3,40.5,410.1,39.5,409.8,38.6z M369.6,36.8l1.1-2.8l1.1,2.8H369.6z
			 M400,29.4c0.1,0.1,0.1,0.3,0.1,0.6c0,0.3,0,0.5-0.1,0.6c-0.1,0.2-0.2,0.3-0.4,0.4c-0.2,0.1-0.4,0.2-0.7,0.3
			c-0.3,0.1-0.7,0.1-1,0.1h-2.8v-2.7h2.5c0.4,0,0.7,0,1.1,0.1c0.3,0.1,0.6,0.2,0.9,0.3C399.8,29.1,399.9,29.3,400,29.4z M395.1,39.4
			h3c0.4,0,0.9,0,1.4,0.1c0.4,0.1,0.8,0.2,1.2,0.3c0.3,0.1,0.5,0.3,0.6,0.5c0.1,0.1,0.1,0.4,0.1,0.6c0,0.3-0.1,0.5-0.2,0.7
			c-0.1,0.2-0.3,0.4-0.5,0.5c-0.2,0.2-0.5,0.3-0.8,0.3c-0.4,0.1-0.7,0.1-1.1,0.1h-3.8V39.4z"/>
	</g>
	<g>
		<path class="st7" d="M235,29.1c-0.6-0.7-1.3-1.3-2.1-1.6s-1.8-0.6-2.9-0.6c-1.1,0-2.1,0.2-3.1,0.6c-0.9,0.4-1.8,1-2.5,1.8
			c-0.7,0.8-1.2,1.7-1.6,2.8c-0.4,1.1-0.6,2.2-0.6,3.5c0,1.3,0.2,2.4,0.6,3.5c0.4,1.1,0.9,2,1.6,2.7c0.7,0.8,1.5,1.4,2.4,1.8
			c0.9,0.4,1.9,0.6,3,0.6c1.2,0,2.3-0.3,3.2-0.8c0.9-0.5,1.7-1.2,2.3-2.1l4.9,3.7c-1.1,1.6-2.6,2.8-4.3,3.5
			c-1.7,0.8-3.5,1.1-5.4,1.1c-2.1,0-4-0.3-5.8-1c-1.8-0.7-3.3-1.6-4.6-2.8c-1.3-1.2-2.3-2.7-3-4.5s-1.1-3.7-1.1-5.9
			c0-2.2,0.4-4.1,1.1-5.9c0.7-1.7,1.7-3.2,3-4.5c1.3-1.2,2.8-2.2,4.6-2.8c1.8-0.7,3.7-1,5.8-1c0.8,0,1.6,0.1,2.4,0.2
			c0.8,0.1,1.6,0.4,2.4,0.7c0.8,0.3,1.6,0.7,2.3,1.2c0.7,0.5,1.4,1.1,2,1.9L235,29.1z"/>
		<path class="st7" d="M242,35.6c0-2.2,0.4-4.1,1.1-5.9c0.7-1.7,1.7-3.2,3-4.5c1.3-1.2,2.8-2.2,4.6-2.8c1.8-0.7,3.7-1,5.8-1
			s4,0.3,5.8,1c1.8,0.7,3.3,1.6,4.6,2.8c1.3,1.2,2.3,2.7,3,4.5c0.7,1.7,1.1,3.7,1.1,5.9c0,2.2-0.4,4.1-1.1,5.9
			c-0.7,1.7-1.7,3.2-3,4.5c-1.3,1.2-2.8,2.2-4.6,2.8c-1.8,0.7-3.7,1-5.8,1s-4-0.3-5.8-1c-1.8-0.7-3.3-1.6-4.6-2.8
			c-1.3-1.2-2.3-2.7-3-4.5S242,37.8,242,35.6z M248.2,35.6c0,1.3,0.2,2.4,0.6,3.5c0.4,1.1,1,2,1.7,2.7c0.7,0.8,1.6,1.4,2.6,1.8
			c1,0.4,2.2,0.6,3.4,0.6s2.4-0.2,3.4-0.6c1-0.4,1.9-1,2.6-1.8c0.7-0.8,1.3-1.7,1.7-2.7c0.4-1.1,0.6-2.2,0.6-3.5
			c0-1.2-0.2-2.4-0.6-3.5c-0.4-1.1-1-2-1.7-2.8c-0.7-0.8-1.6-1.4-2.6-1.8c-1-0.4-2.2-0.6-3.4-0.6s-2.4,0.2-3.4,0.6
			c-1,0.4-1.9,1-2.6,1.8c-0.7,0.8-1.3,1.7-1.7,2.8C248.4,33.2,248.2,34.4,248.2,35.6z"/>
		<path class="st7" d="M275.1,22.2h8.9c2.2,0,4.2,0.2,6.1,0.7c1.9,0.5,3.6,1.3,5.1,2.3c1.4,1.1,2.6,2.5,3.4,4.2
			c0.8,1.7,1.3,3.8,1.3,6.3c0,2.2-0.4,4.1-1.2,5.8c-0.8,1.7-1.9,3.1-3.3,4.2c-1.4,1.1-3,2-4.8,2.6c-1.8,0.6-3.7,0.9-5.7,0.9h-9.7
			V22.2z M281,43.6h3.1c1.4,0,2.6-0.1,3.8-0.4c1.2-0.3,2.2-0.7,3.1-1.4c0.9-0.6,1.5-1.5,2-2.5c0.5-1.1,0.7-2.3,0.7-3.9
			c0-1.3-0.2-2.5-0.7-3.4c-0.5-1-1.2-1.8-2-2.4c-0.8-0.6-1.8-1.1-2.9-1.4c-1.1-0.3-2.3-0.5-3.6-0.5H281V43.6z"/>
		<path class="st7" d="M304.2,22.2h18.3v5.5h-12.4v5h11.7v5.5h-11.7v5.5h13v5.5h-19V22.2z"/>
		<path class="st7" d="M339.4,22.2h5.9v21.4h11v5.5h-16.9V22.2z"/>
		<path class="st7" d="M368.4,22.2h4.9L385,49.1h-6.7l-2.3-5.7h-10.5l-2.2,5.7h-6.5L368.4,22.2z M370.7,30l-3.3,8.4h6.6L370.7,30z"
			/>
		<path class="st7" d="M387.7,22.2h10c1.2,0,2.3,0.1,3.5,0.2c1.2,0.2,2.2,0.5,3.2,1c0.9,0.5,1.7,1.2,2.3,2.1
			c0.6,0.9,0.9,2.1,0.9,3.5c0,1.5-0.4,2.8-1.3,3.8c-0.8,1-2,1.7-3.4,2.1V35c0.9,0.1,1.7,0.4,2.4,0.7c0.7,0.4,1.3,0.8,1.9,1.4
			c0.5,0.6,0.9,1.2,1.2,2c0.3,0.8,0.4,1.6,0.4,2.4c0,1.4-0.3,2.6-0.9,3.6c-0.6,1-1.4,1.7-2.4,2.3c-1,0.6-2,1-3.2,1.3
			c-1.2,0.3-2.4,0.4-3.6,0.4h-11V22.2z M393.6,32.9h4.3c0.5,0,0.9-0.1,1.3-0.2s0.8-0.3,1.2-0.5s0.6-0.5,0.9-0.9
			c0.2-0.4,0.3-0.8,0.3-1.4c0-0.6-0.1-1-0.4-1.4c-0.2-0.4-0.6-0.7-0.9-0.9c-0.4-0.2-0.8-0.3-1.3-0.4c-0.5-0.1-0.9-0.1-1.4-0.1h-4
			V32.9z M393.6,44h5.3c0.5,0,0.9-0.1,1.4-0.2c0.5-0.1,0.9-0.3,1.3-0.5c0.4-0.3,0.7-0.6,0.9-1c0.2-0.4,0.4-0.9,0.4-1.5
			c0-0.6-0.2-1.1-0.5-1.5c-0.3-0.4-0.7-0.7-1.2-0.9c-0.5-0.2-1-0.3-1.6-0.4c-0.6-0.1-1.1-0.1-1.6-0.1h-4.5V44z"/>
	</g>
</g>
</svg>
