<?xml version="1.0" encoding="utf-8"?>
<!-- Generator: Adobe Illustrator 20.1.0, SVG Export Plug-In . SVG Version: 6.00 Build 0)  -->
<svg version="1.1" id="Logo" xmlns="http://www.w3.org/2000/svg" xmlns:xlink="http://www.w3.org/1999/xlink" x="0px" y="0px"
	 viewBox="0 0 429.3 68.2" style="enable-background:new 0 0 429.3 68.2;" xml:space="preserve">
<style type="text/css">
	.st0{fill:url(#SVGID_1_);}
	.st1{fill:url(#SVGID_2_);}
	.st2{fill:url(#SVGID_3_);}
	.st3{fill:url(#SVGID_4_);}
	.st4{fill:url(#SVGID_5_);}
	.st5{fill:url(#SVGID_6_);}
	.st6{fill:#787878;}
	.st7{fill:url(#SVGID_7_);}
	.st8{fill:url(#SVGID_8_);}
	.st9{fill:url(#SVGID_9_);}
	.st10{fill:url(#SVGID_10_);}
</style>
<g>
	
		<linearGradient id="SVGID_1_" gradientUnits="userSpaceOnUse" x1="85.9" y1="67.5472" x2="85.9" y2="-0.4678" gradientTransform="matrix(1 0 0 -1 0 70)">
		<stop  offset="0" style="stop-color:#E3E3E3"/>
		<stop  offset="0.1233" style="stop-color:#C1C1C1"/>
		<stop  offset="0.5342" style="stop-color:#B6B6B6"/>
		<stop  offset="1" style="stop-color:#545454"/>
	</linearGradient>
	<path class="st0" d="M85.9,14C75,14,66.2,22.8,66.2,33.7S75,53.4,85.9,53.4c10.8,0,19.7-8.8,19.7-19.7C105.6,22.8,96.8,14,85.9,14z
		 M97.1,33.6c0,6.2-5,11.2-11.2,11.2s-11.2-5-11.2-11.2s5-11.2,11.2-11.2S97.1,27.5,97.1,33.6z"/>
	
		<linearGradient id="SVGID_2_" gradientUnits="userSpaceOnUse" x1="194.2" y1="67.5472" x2="194.2" y2="-0.4678" gradientTransform="matrix(1 0 0 -1 0 70)">
		<stop  offset="0" style="stop-color:#E3E3E3"/>
		<stop  offset="0.1233" style="stop-color:#C1C1C1"/>
		<stop  offset="0.5342" style="stop-color:#B6B6B6"/>
		<stop  offset="1" style="stop-color:#545454"/>
	</linearGradient>
	<path class="st1" d="M194.2,14c-10.9,0-19.7,8.8-19.7,19.7s8.8,19.7,19.7,19.7c10.8,0,19.7-8.8,19.7-19.7S205,14,194.2,14z
		 M205.4,33.6c0,6.2-5,11.2-11.2,11.2s-11.2-5-11.2-11.2s5-11.2,11.2-11.2C200.3,22.5,205.4,27.5,205.4,33.6z"/>
	
		<linearGradient id="SVGID_3_" gradientUnits="userSpaceOnUse" x1="119.4837" y1="67.5472" x2="119.4837" y2="-0.4678" gradientTransform="matrix(1 0 0 -1 0 70)">
		<stop  offset="0" style="stop-color:#E3E3E3"/>
		<stop  offset="0.1233" style="stop-color:#C1C1C1"/>
		<stop  offset="0.5342" style="stop-color:#B6B6B6"/>
		<stop  offset="1" style="stop-color:#545454"/>
	</linearGradient>
	<path class="st2" d="M133.1,18.5c-0.9-1.8-2.9-3.9-7.4-3.9l0,0H108c-1.5,0-2.8,1.2-2.8,2.7v3c0,1.5,1.2,2.7,2.8,2.7h15.9
		l-16.7,16.6c-1.6,1.7-3.3,5.7-1,9.5c1.5,2.4,3.8,3.6,6.7,3.6H131c1.5-0.1,2.7-1.3,2.7-2.7v-3c0-1.5-1.2-2.7-2.7-2.7h-16.3
		l16.8-16.6C133.9,25.1,134.6,21.5,133.1,18.5z"/>
	
		<linearGradient id="SVGID_4_" gradientUnits="userSpaceOnUse" x1="154.313" y1="67.5472" x2="154.313" y2="-0.4678" gradientTransform="matrix(1 0 0 -1 0 70)">
		<stop  offset="0" style="stop-color:#E3E3E3"/>
		<stop  offset="0.1233" style="stop-color:#C1C1C1"/>
		<stop  offset="0.5342" style="stop-color:#B6B6B6"/>
		<stop  offset="1" style="stop-color:#545454"/>
	</linearGradient>
	<path class="st3" d="M167.1,13.6c-5.6-0.4-7.6,4-8.8,7.9c-0.3,1-3.1,10.9-3.9,13.5c-0.7-2.6-3.6-12.5-3.9-13.5
		c-1.2-3.9-3.2-8.3-8.8-7.9c-4.4,0.3-6.6,4-6.6,10.9V50c0,1.5,1.2,2.7,2.7,2.7h3c1.5,0,2.7-1.2,2.7-2.7V27.8
		c0.6,2.5,1.9,7.5,2.9,10.7c1.6,5.1,6.1,5.9,7.5,6.1c0.3,0,0.5,0,0.8,0c1.4-0.1,5.9-0.9,7.5-6.1c1-3.2,2.3-8.2,2.9-10.7V50
		c0,1.5,1.2,2.7,2.7,2.7h3c1.5,0,2.7-1.2,2.7-2.7V24.5C173.8,17.6,171.5,13.9,167.1,13.6z"/>
	
		<linearGradient id="SVGID_5_" gradientUnits="userSpaceOnUse" x1="212.7" y1="67.5472" x2="212.7" y2="-0.4678" gradientTransform="matrix(1 0 0 -1 0 70)">
		<stop  offset="0" style="stop-color:#E3E3E3"/>
		<stop  offset="0.1233" style="stop-color:#C1C1C1"/>
		<stop  offset="0.5342" style="stop-color:#B6B6B6"/>
		<stop  offset="1" style="stop-color:#545454"/>
	</linearGradient>
	<circle class="st4" cx="212.7" cy="17.5" r="3.2"/>
	
		<linearGradient id="SVGID_6_" gradientUnits="userSpaceOnUse" x1="49.559" y1="67.5472" x2="49.559" y2="-0.4678" gradientTransform="matrix(1 0 0 -1 0 70)">
		<stop  offset="0" style="stop-color:#E3E3E3"/>
		<stop  offset="0.1233" style="stop-color:#C1C1C1"/>
		<stop  offset="0.5342" style="stop-color:#B6B6B6"/>
		<stop  offset="1" style="stop-color:#545454"/>
	</linearGradient>
	<path class="st5" d="M65.8,44l-2.1-2.2c-0.1-0.1-0.2-0.2-0.3-0.3c-1.1-0.8-2.5-0.8-3.5,0.1c0,0,0,0-0.1,0.1c-2.1,1.9-4.8,3-7.6,3
		c-6.2,0-11.2-5-11.2-11.2s5-11.2,11.2-11.2c2.9,0,5.6,1.1,7.7,3.1l0.1,0.1c0.9,0.8,2.2,0.9,3.1,0.3c0.2-0.1,0.5-0.3,0.6-0.4
		l2.2-2.1c0.1-0.1,0.1-0.1,0.2-0.2c0.7-0.8,0.9-2.3,0.1-3.4c-0.1-0.1-0.2-0.2-0.4-0.4c-3.7-3.6-8.5-5.5-13.7-5.5
		c-10.9,0-19.7,8.8-19.7,19.7s8.8,19.7,19.7,19.7c5,0,9.8-1.9,13.6-5.4c0.9-0.9,1.1-2.2,0.5-3.3C66.1,44.4,65.9,44.2,65.8,44z"/>
</g>
<path class="st6" d="M85.9,46.3c-7,0-12.7-5.7-12.7-12.7S78.9,21,85.9,21s12.7,5.7,12.7,12.7S92.9,46.3,85.9,46.3 M85.9,15.5
	c-10,0-18.2,8.1-18.2,18.2c0,10,8.1,18.2,18.2,18.2c10,0,18.2-8.1,18.2-18.2C104.1,23.6,96,15.5,85.9,15.5"/>
<path class="st6" d="M194.2,46.3c-7,0-12.7-5.7-12.7-12.7S187.2,21,194.2,21s12.7,5.7,12.7,12.7S201.2,46.3,194.2,46.3 M194.2,15.5
	c-10,0-18.2,8.1-18.2,18.2c0,10,8.1,18.2,18.2,18.2c10,0,18.2-8.1,18.2-18.2S204.2,15.5,194.2,15.5"/>
<path class="st6" d="M132.2,47v3c0,0.7-0.5,1.2-1.2,1.2h-18c-2.3,0-4.2-0.9-5.4-2.9c-1.9-3.1-0.5-6.4,0.8-7.7l18.1-17.9
	c0,0,0.4-0.4,0.3-0.8c-0.1-0.3-0.5-0.4-1.1-0.4H108c-0.7,0-1.2-0.6-1.2-1.2v-3c0-0.7,0.6-1.2,1.2-1.2h17.6c2.8,0,5,0.9,6.1,3.1
	c1.3,2.6,0.5,5.5-1.4,7.4l-17.9,17.7c0,0-0.4,0.3-0.4,0.7c0,0.5,0.3,0.7,0.9,0.7h17.9C131.6,45.7,132.2,46.3,132.2,47"/>
<path class="st6" d="M172.3,24.5V50c0,0.7-0.6,1.2-1.2,1.2h-3c-0.7,0-1.2-0.6-1.2-1.2V23.4c0-0.5-0.1-1-0.5-1.2
	c-0.8-0.4-1.3,0.5-2.1,3.7c0,0-2,7.9-3.3,12.2c-1.2,3.9-4.5,4.8-6.2,5c-0.1,0-0.2,0-0.3,0s-0.2,0-0.3,0c-1.7-0.2-5-1.1-6.2-5
	c-1.3-4.4-3.3-12.2-3.3-12.2c-0.8-3.2-1.3-4.1-2.1-3.7c-0.4,0.2-0.5,0.7-0.5,1.2V50c0,0.7-0.6,1.2-1.2,1.2h-3
	c-0.7,0-1.2-0.6-1.2-1.2V24.5c0-6.9,2.2-9.2,5.3-9.5c3.6-0.3,5.7,1.7,7.2,6.8c0.3,1.1,4.1,14,4.1,14c0.2,0.9,0.9,1.4,1.3,1.4
	c0.3,0,1.1-0.5,1.3-1.4c0,0,3.7-13,4.1-14c1.5-5.1,3.6-7.1,7.2-6.8C170,15.3,172.3,17.7,172.3,24.5z"/>
<g id="circle3">
	<path class="st6" d="M212.7,19.2c-0.9,0-1.7-0.8-1.7-1.7c0-0.9,0.8-1.7,1.7-1.7s1.7,0.8,1.7,1.7S213.7,19.2,212.7,19.2z
		 M212.7,16.1c-0.7,0-1.4,0.6-1.4,1.4s0.6,1.4,1.4,1.4s1.4-0.6,1.4-1.4S213.5,16.1,212.7,16.1z"/>
</g>
<path id="text3175" class="st6" d="M212.6,17.3c0.1,0,0.2,0,0.2-0.1c0,0,0.1-0.1,0.1-0.2s0-0.1-0.1-0.2c0,0-0.1-0.1-0.2-0.1h-0.2
	v0.5h0.2 M212.5,17.7v0.7H212v-1.8h0.7c0.2,0,0.4,0,0.5,0.1s0.2,0.2,0.2,0.4c0,0.1,0,0.2-0.1,0.3c-0.1,0.1-0.1,0.1-0.3,0.2
	c0.1,0,0.1,0,0.2,0.1c0.1,0.1,0.1,0.1,0.2,0.2l0.2,0.5h-0.5l-0.2-0.4c0-0.1-0.1-0.1-0.1-0.2c0,0-0.1,0-0.2,0h-0.1"/>
<path class="st6" d="M39.5,33.6c0,7,5.7,12.7,12.7,12.7c3.3,0,6.4-1.3,8.6-3.4c0,0,0,0,0.1-0.1c0.4-0.4,1.1-0.4,1.6-0.1l0.1,0.1
	l2.1,2.2c0.1,0.1,0.1,0.2,0.2,0.3c0.3,0.5,0.2,1.1-0.2,1.5l0,0c-3.3,3.1-7.6,5-12.5,5c-10,0-18.2-8.1-18.2-18.2
	c0-10,8.1-18.2,18.2-18.2c4.9,0,9.3,1.9,12.6,5.1c0.1,0.1,0.1,0.1,0.2,0.2c0.4,0.5,0.2,1.2-0.1,1.5l-0.1,0.1l-2.2,2.1
	c0,0-0.2,0.1-0.2,0.2c-0.5,0.3-1,0.2-1.4-0.1l-0.1-0.1c-2.3-2.1-5.3-3.4-8.7-3.4C45.2,21,39.5,26.6,39.5,33.6"/>
<linearGradient id="SVGID_7_" gradientUnits="userSpaceOnUse" x1="246.7158" y1="65.8243" x2="246.7158" y2="1.1561" gradientTransform="matrix(1 0 0 -1 0 70)">
	<stop  offset="0" style="stop-color:#E3E3E3"/>
	<stop  offset="0.1233" style="stop-color:#C1C1C1"/>
	<stop  offset="0.5342" style="stop-color:#B6B6B6"/>
	<stop  offset="1" style="stop-color:#545454"/>
</linearGradient>
<path class="st7" d="M251.9,51.4v-2h-12.4c-3.2,0-4.3,0-5.7,0.2l-1.4,0.1v-9.1l1.5,0.2c1.5,0.3,2.2,0.3,5.7,0.3h12.3V30.4H240
	c-3.1,0-4.3,0.1-5.6,0.2l-1.5,0.1v-9.1l1.5,0.2c1.6,0.2,2.6,0.3,5.8,0.3h15.6c1.8,0,2.7,0,3.7-0.1l1.5-0.1l-0.1,1.5
	c-0.1,1.1-0.1,1.7-0.1,3.3v17.7c0,2.9,0,3.6,0.2,5.5l0.1,1.4H251.9z"/>
<linearGradient id="SVGID_8_" gradientUnits="userSpaceOnUse" x1="280" y1="62.6777" x2="280" y2="4.5175" gradientTransform="matrix(1 0 0 -1 0 70)">
	<stop  offset="0" style="stop-color:#E3E3E3"/>
	<stop  offset="0.1233" style="stop-color:#C1C1C1"/>
	<stop  offset="0.5342" style="stop-color:#B6B6B6"/>
	<stop  offset="1" style="stop-color:#545454"/>
</linearGradient>
<path class="st8" d="M263.6,31.2l1.5,0.2c1.5,0.2,3,0.3,6.8,0.3h16.2c3.5,0,4.8-0.1,6.9-0.3l1.4-0.1v9.4l-1.4-0.1
	c-1.5-0.2-2.9-0.2-6.9-0.2h-16.2c-3.7,0-4.8,0-6.9,0.2l-1.4,0.1V31.2z"/>
<linearGradient id="SVGID_9_" gradientUnits="userSpaceOnUse" x1="313.8867" y1="65.9354" x2="313.8867" y2="1.0633" gradientTransform="matrix(1 0 0 -1 0 70)">
	<stop  offset="0" style="stop-color:#E3E3E3"/>
	<stop  offset="0.1233" style="stop-color:#C1C1C1"/>
	<stop  offset="0.5342" style="stop-color:#B6B6B6"/>
	<stop  offset="1" style="stop-color:#545454"/>
</linearGradient>
<path class="st9" d="M300.7,52.2l0.2-1.8c0.1-1.1,0.2-2.1,0.2-4.6V25.8c0-2.8,0-2.9-0.2-4.7l-0.1-1.4h9.4l-0.3,1.4
	c-0.1,0.8-0.1,1.2-0.1,4.5v4l0.5,0.2c1.7,0.6,3.5,1.2,5.3,2l0,0l1.4,0.6c2.8,1.3,5.4,2.7,7.7,4.2l1,0.6l-0.6,1.1l-3.2,5.8l-0.7,1.2
	l-1.2-0.8c-2.9-2-6.6-3.9-9.2-5.2l-1-0.5v6.8c0,2.8,0.1,4.5,0.2,5.1l0.2,1.4H300.7z M316.4,29.9c-1-2-1.9-3.2-3.2-4.7l-1.2-1.3
	l1.5-0.7l3.2-1.5l1.2-0.5h0.1l3.2-1.5l0.8-0.4l0.6,0.7c1.4,1.5,2.5,3,3.6,5l0.7,1.2l-1.2,0.6l-3.1,1.5l-1.7,0.8l-2.9,1.4l-1.1,0.6
	L316.4,29.9z"/>
<linearGradient id="SVGID_10_" gradientUnits="userSpaceOnUse" x1="360.7456" y1="66.0369" x2="360.7456" y2="1.2038" gradientTransform="matrix(1 0 0 -1 0 70)">
	<stop  offset="0" style="stop-color:#E3E3E3"/>
	<stop  offset="0.1233" style="stop-color:#C1C1C1"/>
	<stop  offset="0.5342" style="stop-color:#B6B6B6"/>
	<stop  offset="1" style="stop-color:#545454"/>
</linearGradient>
<path class="st10" d="M337.6,52.3c-0.9-1.9-1.9-3.2-3.6-5.2l-1.4-1.6l2.1-0.5c3.9-0.9,6.3-2,8.6-3.7c1.4-1.1,2.5-2.2,3.3-3.4
	l0.7-1.1h-12.7c-2.6,0-3.1,0-5.3,0.2l-1.4,0.1v-8.7l1.4,0.2c0.3,0.1,0.6,0.1,0.8,0.1h0.7v-8.7l1.5,0.3c1.3,0.1,2.5,0.2,4.8,0.2h10.8
	c2.6,0,4.1,0,5.1-0.2l1.4-0.2v8l0.9,1l2.6,2.8l0.1,0.1l1.4-0.3v-7.1l1.5,0.2l0.3,0c1.1,0.1,2.1,0.2,4.7,0.2h5v-0.7
	c0-1-0.1-1.6-0.1-2.3l-0.1-0.7l-0.2-1.4h9.5v0.5L381,20l3.3-0.9l0.9-0.3l0.3,0.3l0.6-0.3l3.1-0.9l0.8-0.3l0.5,0.7
	c1.3,1.6,2.1,3,2.8,5l0.5,1.3l-1.3,0.4l-1.3,0.5v7.6l-1.4-0.1c-0.3,0-0.6,0-0.8,0c-0.3,0-0.6-0.1-1-0.1H387l0.2,0.9
	c1.1,4.5,2.9,8.5,5.1,11.7l0.8,1.2l-1.2,0.6l-0.3,0.1l-0.9,0.5c-2,1-2.5,1.2-4.5,2.6l-1.1,0.8l-0.6-1.2c-1.7-3.1-2.8-5.7-3.7-8.6
	l-1.4,0.2v4.9c0,2.7,0.1,3.8,0.2,4.8l0.3,1.5h-9.4l0.2-1.5c0.2-1.4,0.2-2.1,0.2-4.9v-4l-1.4-0.2c-0.9,2.8-2.1,5.3-3.8,7.8l-0.7,1
	l-1-0.6c-2.3-1.3-3.6-2-5.3-2.7l-1.7-0.6l1.1-1.4c2.3-3,4.4-8,4.9-12l0.1-0.8h-0.8c-0.3,0-0.5,0-0.7,0.1c-0.2,0-0.3,0-0.6,0
	l-2.6,0.2l-0.2,0.3c-0.3,0.4-0.4,0.6-0.6,1.3l-0.2,0.5c-1.7,5.2-4.3,9.2-7.9,12.2c-2.7,2.2-5.2,3.6-10.1,5.5l-1.2,0.5L337.6,52.3z
	 M379.5,22.8c-0.1,0.4-0.1,0.9-0.1,1.4v0.7h2.7l-0.5-1c-0.2-0.4-0.4-0.9-0.8-1.3l-0.8-1.1L379.5,22.8z"/>
<g>
	<path class="st6" d="M239.5,48.1c-3.1,0-4.3,0-5.8,0.2v-6.2c1.6,0.2,2.5,0.3,5.9,0.3h13.6V29.1H240c-3.1,0-4.4,0-5.8,0.2v-6.2
		c1.6,0.2,2.7,0.3,5.9,0.3h15.6c1.8,0,2.8,0,3.8-0.1c-0.1,1.2-0.1,1.8-0.1,3.5v17.7c0,2.9,0,3.6,0.2,5.6h-6.4v-2H239.5z"/>
	<path class="st6" d="M264.9,32.7c1.6,0.2,3.4,0.3,7,0.3h16.2c3.4,0,4.7-0.1,7-0.3v6.6c-1.6-0.2-3.1-0.2-7-0.2h-16.2
		c-3.8,0-4.9,0-7,0.2V32.7z"/>
	<path class="st6" d="M302.1,50.9c0.1-1.4,0.2-2.4,0.2-5.2V25.9c0-2.9,0-3.1-0.2-4.9h6.6c-0.1,0.9-0.1,1.4-0.2,5v4.7
		c5.4,1.7,10.7,4.1,15.5,7.1l-3.2,5.8c-2.8-2-6.8-4.2-10.7-5.9c-1-0.4-1.1-0.4-1.2-0.5c-0.1,0-0.2-0.1-0.3-0.2v8.8
		c0,2.5,0.1,4.3,0.2,5.2L302.1,50.9L302.1,50.9z M317.5,22.9c1.3,1.5,2.4,3.1,3.4,4.9l-3.2,1.6c-1.1-2.1-2-3.4-3.4-5L317.5,22.9z
		 M322,20.9c1.3,1.4,2.2,2.7,3.4,4.7l-3.1,1.5c-1.2-2.1-2.1-3.5-3.3-4.9L322,20.9z"/>
	<path class="st6" d="M329.1,30c1.5,0.2,2.6,0.3,5.5,0.3h17.1c1.6,0,1.9,0,2.7-0.4l2.7,2.9c-0.4,0.6-0.5,0.7-1,2.1
		c-1.8,5.1-4.2,8.9-7.5,11.7c-2.6,2.2-5,3.5-9.7,5.3c-0.9-2-1.8-3.4-3.8-5.6c4.1-1.1,6.5-2.1,9-4c2.5-1.8,4-3.8,5.2-6.8h-14.7
		c-2.7,0-3.3,0-5.4,0.2V30H329.1z M331.9,21.5c1.3,0.2,2.6,0.3,5,0.3h10.8c2.7,0,4.1-0.1,5.3-0.3v5.7c-1.3-0.1-2.9-0.2-5.2-0.2h-11
		c-2.7,0-3.4,0-4.9,0.2L331.9,21.5L331.9,21.5z"/>
	<path class="st6" d="M370,34.6c-0.1,0.5-0.3,1.6-0.7,3.3c-1.2,4.8-2.7,8.2-4.8,11.4c-2.2-1.4-3.7-2.1-5.6-2.8
		c2.7-3.4,4.8-8.8,5.3-13.2L370,34.6z M372.1,24.9c0-1.7,0-2.4-0.2-3.8h6.4c-0.1,0.8-0.1,1.9-0.2,3.8v1.3h6.5c2.9,0,4-0.1,5.3-0.3
		v5.8c-1.2-0.1-2.2-0.2-5.2-0.2h-6.6v15c0,2.9,0,3.9,0.2,5h-6.5c0.2-1.5,0.2-2.3,0.2-5.1V31.5h-6.3c-3.3,0-3.8,0-5.1,0.2v-5.8
		c1.4,0.2,2.4,0.3,5.2,0.3h6.3L372.1,24.9L372.1,24.9z M385.8,33.2c1.1,4.8,3,9.5,5.5,13c-2.9,1.5-3.2,1.6-5.6,3.2
		c-2.3-4.1-3.6-7.5-5-13.1c-0.3-1.1-0.3-1.2-0.5-1.7L385.8,33.2z M384.7,20.2c1.1,1.5,2,3.1,2.6,4.8l-3.4,1
		c-0.6-1.7-1.5-3.5-2.5-4.9L384.7,20.2z M389.5,19.1c1.2,1.6,1.9,3,2.6,4.7l-3.2,1c-0.7-1.8-1.5-3.2-2.6-4.8L389.5,19.1z"/>
</g>
</svg>
