<svg data-name="Layer 1" xmlns="http://www.w3.org/2000/svg" viewBox="0 0 40 40"><title>greenflag</title><path d="M32.65 11.46v11.46a2.73 2.73 0 0 1-1 2.11 10.58 10.58 0 0 1-13.41 0 5 5 0 0 0-5.24-.64v6.48a2.8 2.8 0 0 1-2 2.66 2.74 2.74 0 0 1-.81.12H9.9a2.72 2.72 0 0 1-2.53-2.49 1.62 1.62 0 0 1 0-.22V9.07a2.72 2.72 0 0 1 2.72-2.72h.11a2.71 2.71 0 0 1 2.09 1 10.25 10.25 0 0 1 2.81-.39 10.52 10.52 0 0 1 6.71 2.4 5.12 5.12 0 0 0 6.27 0 2.8 2.8 0 0 1 4.57 2.1z" fill="#fff"/><path d="M30.65 11.46v11.46a.75.75 0 0 1-.28.58 8.59 8.59 0 0 1-10.87 0 7 7 0 0 0-4.4-1.57 6.85 6.85 0 0 0-4.1 1.34v7.6a.83.83 0 0 1-1.66 0V11.46a.77.77 0 0 1 .51-.72 8.57 8.57 0 0 1 10.67.15 7 7 0 0 0 8.8 0 .81.81 0 0 1 .85-.12.75.75 0 0 1 .48.69z" fill="#4cbf56" stroke="#45993d" stroke-linecap="round" stroke-linejoin="round"/><rect x="9.35" y="8.35" width="1.57" height="23.31" rx=".72" ry=".72" fill="#45993d" stroke="#45993d" stroke-linecap="round" stroke-linejoin="round"/></svg>