<svg data-name="Layer 1" xmlns="http://www.w3.org/2000/svg" width="117.79" height="46.95" viewBox="0 0 117.79 46.95"><title>scratch-logo</title><path d="M21.65 28.28a5.25 5.25 0 0 1-1.76 3.87 5.33 5.33 0 0 1-4.53 1.36 8.09 8.09 0 0 1-3.06-1.28v2.14a1.09 1.09 0 1 1-2.16.15c0-.09-.1-1.93 0-4.13.08-1.36.11-3.61.11-3.64a1.12 1.12 0 0 1 1.1-1.14 1.15 1.15 0 0 1 1.07 1.17v.48a4.75 4.75 0 0 0 .6 2.17A6.33 6.33 0 0 0 14.86 31a4.31 4.31 0 0 0 .86.23 3.3 3.3 0 0 0 2.77-.84 2.88 2.88 0 0 0 1-2.09c0-1.91-2-2.63-4.88-3.12-2.68-.44-3.82-2.75-3.37-6.4v-.32c.22-1.85.57-5.05 3.83-4.86a5 5 0 0 1 3.17 1.95v-2a1.08 1.08 0 1 1 2.15 0c0 .12-.26 7.33-.28 7.41a1.09 1.09 0 0 1-1.25.93A1.12 1.12 0 0 1 18 21v-.71a5.94 5.94 0 0 0-.45-1.82 6.37 6.37 0 0 0-1.49-2 1.94 1.94 0 0 0-1-.55c-1.08-.06-1.3.46-1.58 2.85v.32c-.32 2.74.34 3.63 1.57 3.84 2.05.34 6.56 1.07 6.6 5.35zM34.25 28.58v2.02a8.86 8.86 0 0 1-.66 2.4 7.39 7.39 0 0 1-.88 1.28 4.79 4.79 0 0 1-1.53 1.09 4.27 4.27 0 0 1-2.07.36h-.61a5.18 5.18 0 0 1-5.43-5.05v-5.34c.2-2.87.93-4.71 2.26-5.57 1.7-1.12 3.77-.2 4.45.11a6 6 0 0 1 1.43.9v-2a1.08 1.08 0 1 1 2.16 0v5a1.13 1.13 0 0 1-.8 1.09 1 1 0 0 1-1.21-.5A6.33 6.33 0 0 0 28.95 22c-1.16-.52-2-.61-2.49-.27s-1.09 1.76-1.22 3.75v5.08a3 3 0 0 0 3.21 2.89h.65a2.66 2.66 0 0 0 1.17-.15 2.76 2.76 0 0 0 .83-.54 5.33 5.33 0 0 0 .64-.88 6.89 6.89 0 0 0 .36-1.51V28.65a1.08 1.08 0 1 1 2.15-.07zM51.1 29.86a1.08 1.08 0 0 0-1.36.76C49.35 32 49 32 48.81 32.16a1.28 1.28 0 0 1-1-.12 1.92 1.92 0 0 1-.36-.57 12.58 12.58 0 0 1-.39-2.91c-.08-3.39-.63-5.25-1.52-6.28a6 6 0 0 0 1.09-1c1.33-1.82 1.64-3.4.93-4.7-1.77-3.21-9.52-2.26-11.86-1.89a1.14 1.14 0 0 0-.9 1.32 1.08 1.08 0 0 0 1.22 1c.55-.09 1.12-.17 1.69-.22v5.37h-.53a1.12 1.12 0 0 0-1.09 1.15 1.13 1.13 0 0 0 1.09 1.16h.54v6.71l-1.48.23a1.15 1.15 0 0 0-.92 1.3 1.11 1.11 0 0 0 1.23 1l5.21-.82a1.13 1.13 0 0 0 .91-1.3 1.1 1.1 0 0 0-1.22-1l-1.56.25v-6.62a21.47 21.47 0 0 0 2.84-.69 1.36 1.36 0 0 1 .38 0 1.11 1.11 0 0 1 .92.54c.35.52.79 1.76.85 4.63a13.73 13.73 0 0 0 .59 3.84 3.49 3.49 0 0 0 1.55 1.75 3.15 3.15 0 0 0 2.71 0 4.12 4.12 0 0 0 2-2.93 1.16 1.16 0 0 0-.63-1.5zm-6.15-10.3a2.78 2.78 0 0 1-.65.61 4.58 4.58 0 0 1-1 .41l-.55.18a16.71 16.71 0 0 1-2.86.81v-5.25c2.85-.09 5.35.25 5.83 1.13a.63.63 0 0 1 .06.3 3.63 3.63 0 0 1-.83 1.81z" fill="#283856"/><path d="M67.06 25.68a1 1 0 0 0-1.38-.7c-.32.11-.94.44-1.89.9l-1.39-3.66-4.07-10.48a2.94 2.94 0 0 0-.33-.56 1 1 0 0 0-.92-.36l-4.64.69a1.14 1.14 0 0 0-.92 1.3 1.1 1.1 0 0 0 1.21 1l3.12-.46c-.39 2.1-2 10.7-2.49 13.31l-3.13-.17a1.16 1.16 0 0 0-.1 2.31l5.36.2a1.12 1.12 0 0 0 1.14-1.09 1.06 1.06 0 0 0-1.1-1.2l.26-1.71 5-.88 1.07 2.82a5 5 0 0 0-1.7 1.36 1.2 1.2 0 0 0 .22 1.61 1 1 0 0 0 1.51-.23c.49-.7 2.53-1.72 4.54-2.5a1.17 1.17 0 0 0 .63-1.5zm-10.82-2.56l1.33-6.92 2.38 6.27z" fill="#283856"/><path d="M79.5 13.7a1.2 1.2 0 0 1 .31.91c-.12 1.65-.13 4.23-.13 4.26a1.23 1.23 0 0 1-.59 1.13 1 1 0 0 1-1.38-.41A3.24 3.24 0 0 1 77.5 18c0-.53 0-1.25.08-2.21-1.09.02-2.68.11-4.58.21v15.08h2.15a1.16 1.16 0 0 1 0 2.31l-6.57.1a1.15 1.15 0 0 1 0-2.3h2.26V16.12l-4.58.08c.23 1.58.65 4.49.65 4.54a1.12 1.12 0 0 1-.91 1.03 1.1 1.1 0 0 1-1.23-1L64 15.11a1.19 1.19 0 0 1 .25-.91 1 1 0 0 1 .75-.4l6.89-.12c3.54-.08 6.7-.31 6.74-.32a1 1 0 0 1 .87.34zM91 27.36v1.8a8.25 8.25 0 0 1-.64 2.39 7.56 7.56 0 0 1-.89 1.28A4.6 4.6 0 0 1 88 33.9a4.3 4.3 0 0 1-2.08.38h-.63a5.16 5.16 0 0 1-5.42-5.05v-5.35c.19-2.86.92-4.7 2.26-5.57 1.69-1.12 3.77-.19 4.44.11a6.87 6.87 0 0 1 1.43.91v-2.05a1.08 1.08 0 1 1 2.16 0v5a1.15 1.15 0 0 1-.79 1.11 1.05 1.05 0 0 1-1.21-.51 6.4 6.4 0 0 0-2.42-2.32c-1.16-.52-2-.61-2.48-.28S82.15 22.05 82 24v5.1a3 3 0 0 0 3.23 2.9h.66a2.59 2.59 0 0 0 1.17-.14 3.11 3.11 0 0 0 .83-.53 5.71 5.71 0 0 0 .62-.9 5.75 5.75 0 0 0 .37-1.51v-1.5a1.12 1.12 0 0 1 1.07-1.15A1.1 1.1 0 0 1 91 27.36zM107.66 33.78a1.13 1.13 0 0 1-1 1.23 20.52 20.52 0 0 0-5.25.84c-.6.24-1.09.51-1.53.07a1.19 1.19 0 0 1-.08-1.59c.6-.72 1.57-.84 3.05-1.15v-8.79l-6.37 1.14v5.87h1.86a1.16 1.16 0 0 1 0 2.31l-5.83-.11a1.16 1.16 0 0 1 0-2.31h1.82V15.93h-1.82a1.16 1.16 0 0 1 0-2.31h5.67a1.16 1.16 0 0 1 0 2.31h-1.74v7.16l6.35-1.09v-8H101a1.1 1.1 0 0 1-1.1-1.13 1.12 1.12 0 0 1 1.06-1.17l5.62-.11a1.13 1.13 0 0 1 1.1 1.14 1.11 1.11 0 0 1-1.12 1.27h-1.66c.1 12.9.1 16.86.1 18.84.58-.07 1.11-.11 1.51-.14a1.12 1.12 0 0 1 1.15 1.08z" fill="#283856"/><path d="M117.76 33.08a12.48 12.48 0 0 0-2.67-7v-5.51a12.67 12.67 0 0 0 2.7-8C117.64 6.12 112.61.86 106.54.86h-.09l-5.77.1a10.77 10.77 0 0 0-5.84 1.92h-2.33a10.69 10.69 0 0 0-6.7 2.35 10.76 10.76 0 0 0-7.07-2.7h-.42a5.86 5.86 0 0 0-.62 0c-.55 0-3.11.22-6 .27l-6.76.2h-.31a10.85 10.85 0 0 0-7.42-3 10.16 10.16 0 0 0-1.57.11l-4.58.67a10.87 10.87 0 0 0-5.9 2.92 35.17 35.17 0 0 0-10.9.22 10.75 10.75 0 0 0-5.7 2.79 11.11 11.11 0 0 0-8.7-5.12h-.5a10.56 10.56 0 0 0-4.9 1.21 13 13 0 0 0-11.38 7.46 19.42 19.42 0 0 0-1.83 6.68l-.05.49A21.33 21.33 0 0 0 1.1 22a12.84 12.84 0 0 0-.94 4.55v.11c0 .24 0 2.08-.09 3.14C0 32.08 0 34.08.06 35.07a1.76 1.76 0 0 0 0 .23v.06c.43 6.21 5.33 11.05 11.16 11.05h.68a10.74 10.74 0 0 0 5.62-2 13.59 13.59 0 0 0 2.29-.4 14.73 14.73 0 0 0 8.45 2.6h.94a13.53 13.53 0 0 0 6.28-1.4c.4-.21.85-.44 1.29-.72.34 0 .69 0 1.07-.08h.22l4.06-.64a10.77 10.77 0 0 0 1.24.6A12.49 12.49 0 0 0 54.17 44a13.38 13.38 0 0 0 4.2-3.36 10.32 10.32 0 0 0 2.55.32 10.72 10.72 0 0 0 7.81 3.32l6.63-.11a10.85 10.85 0 0 0 3.12-.51 14.64 14.64 0 0 0 7.13 1.48H86a13.87 13.87 0 0 0 4.8-.77 11.87 11.87 0 0 0 1.42.13h1.44a10.36 10.36 0 0 0 6.72 2.49 11.29 11.29 0 0 0 4.2-.85 24.74 24.74 0 0 1 2.69-.3c6.19-.46 10.89-6.15 10.49-12.76zm-10.86 6a24.64 24.64 0 0 0-4.06.54l-.24.1a5.69 5.69 0 0 1-2.2.5 4.42 4.42 0 0 1-3.13-1.32 4.37 4.37 0 0 1-.87-1.12l-4.07-.07a4.87 4.87 0 0 1-2-.5c-.26.14-.51.27-.74.38a7.68 7.68 0 0 1-3.65.76h-.9a8.52 8.52 0 0 1-6.29-2.58 4.79 4.79 0 0 1-3.48 1.58l-6.63.11a5.05 5.05 0 0 1-4.82-4.26 4.7 4.7 0 0 1-2.81 1 4.62 4.62 0 0 1-3-1.05 5.44 5.44 0 0 1-.53-.46 4.51 4.51 0 0 1-2 .44h-.2a7.71 7.71 0 0 1-3.84 4.78 6.25 6.25 0 0 1-2.9.71 7.29 7.29 0 0 1-2.88-.62 6 6 0 0 1-2.13-1.5 4.07 4.07 0 0 1-1.15.33l-5.21.83h-.71a4.42 4.42 0 0 1-1.37-.21 8.37 8.37 0 0 1-2.29 1.57 7.78 7.78 0 0 1-3.65.76h-.87a8.54 8.54 0 0 1-7.16-3.6 9.05 9.05 0 0 1-4.86 1.46 7.19 7.19 0 0 1-1.09-.08l-.24.31a4.78 4.78 0 0 1-3.39 1.76h-.3a5.07 5.07 0 0 1-4.9-4.9v-.03c0-.88-.09-2.6 0-4.53.07-1.26.1-3.37.1-3.46a5.53 5.53 0 0 1 1.24-3.42 13.33 13.33 0 0 1-.27-5v-.32a13.51 13.51 0 0 1 1.19-4.55 6.78 6.78 0 0 1 6.22-3.94h.49a5.88 5.88 0 0 1 .8.11 4.69 4.69 0 0 1 3.25-1.33h.05a5.1 5.1 0 0 1 4.88 5.27v.07s0 .93-.07 2.13a6.94 6.94 0 0 1 3-.64 8.14 8.14 0 0 1 1.4.12 4.83 4.83 0 0 1 2.83-1.69 5 5 0 0 1 .52-.93 4.85 4.85 0 0 1 3.25-2.08 40.36 40.36 0 0 1 5.62-.45 15.3 15.3 0 0 1 7 1.35 5.07 5.07 0 0 1 4.12-4l4.63-.67a4.44 4.44 0 0 1 .66 0 4.77 4.77 0 0 1 3.55 1.63 7 7 0 0 1 1.09 1.8l.23.56a4.67 4.67 0 0 1 2.88-1l6.87-.13c3.34-.06 6.32-.28 6.48-.3h.39a4.81 4.81 0 0 1 3.51 1.59 5.27 5.27 0 0 1 1.35 2.87 2.48 2.48 0 0 1 .4 0 9 9 0 0 1 1.39.11 4.75 4.75 0 0 1 2.93-1.69 4.84 4.84 0 0 1 4.19-2.58h4.62a4.91 4.91 0 0 1 3.72-1.93l5.7-.09a5.13 5.13 0 0 1 4.94 5.16 5.34 5.34 0 0 1-2.71 4.79c0 5.7.05 9.29.05 11.66a5.29 5.29 0 0 1 2.68 4.33 5.16 5.16 0 0 1-4.6 5.58z" fill="#283856"/></svg>