<?xml version="1.0" encoding="utf-8"?>
<!-- Generator: Adobe Illustrator 20.1.0, SVG Export Plug-In . SVG Version: 6.00 Build 0)  -->
<svg version="1.1" id="Layer_1" xmlns="http://www.w3.org/2000/svg" xmlns:xlink="http://www.w3.org/1999/xlink" x="0px" y="0px"
	 width="40.3px" height="80.5px" viewBox="0 0 40.3 80.5" style="enable-background:new 0 0 40.3 80.5;" xml:space="preserve">
<style type="text/css">
	.st0{fill:#FFFFFF;}
	.st1{fill:#EA2606;}
	.st2{opacity:0.5;}
	.st3{fill:#C62818;}
</style>
<g id="Layer_1_1_">
</g>
<g id="STOP-Btn">
	<g>
		
			<image style="overflow:visible;opacity:0.4;enable-background:new    ;" width="38" height="37" xlink:href="ICONS/UPDATES4/66569EDFD99654C.png"  transform="matrix(0.9737 0 0 0.973 1.7497 1.8712)">
		</image>
		<g>
			<path class="st0" d="M29,36.3H12.1c-4.4,0-7.9-3.6-7.9-7.9v-17c0-4.4,3.6-7.9,7.9-7.9H29c4.4,0,7.9,3.6,7.9,7.9v16.9
				C36.9,32.7,33.4,36.3,29,36.3z"/>
		</g>
	</g>
	<g>
		
			<image style="overflow:visible;opacity:0.4;enable-background:new    ;" width="28" height="29" xlink:href="ICONS/UPDATES4/66569EDFD99654D.png"  transform="matrix(0.9643 0 0 0.9655 7.0966 6.2182)">
		</image>
		<g>
			<polygon class="st1" points="25.4,8.1 32.3,15 32.3,24.8 25.4,31.7 15.6,31.7 8.7,24.8 8.7,15 15.6,8.1 			"/>
		</g>
	</g>
</g>
<g id="Layer_1_2_">
</g>
<g id="STOP-Btn_copy">
	<g class="st2">
		<path class="st0" d="M28.1,76.5H11.9c-4.2,0-7.6-3.4-7.6-7.6V52.7c0-4.2,3.4-7.6,7.6-7.6h16.2c4.2,0,7.6,3.4,7.6,7.6v16.2
			C35.7,73.1,32.2,76.5,28.1,76.5z"/>
	</g>
	<g>
		
			<image style="overflow:visible;opacity:0.4;enable-background:new    ;" width="28" height="27" xlink:href="ICONS/UPDATES4/216540A9FEF8CC49.png"  transform="matrix(0.9643 0 0 0.963 6.5499 48.1346)">
		</image>
		<g>
			<polygon class="st3" points="24.6,49.5 31.2,56.1 31.2,65.5 24.6,72.1 15.2,72.1 8.6,65.5 8.6,56.1 15.2,49.5 			"/>
		</g>
	</g>
</g>
<g id="Layer_1_3_">
</g>
</svg>
