<svg data-name="Layer 1" xmlns="http://www.w3.org/2000/svg" viewBox="0 0 40 40"><title>stop</title><path d="M33.59 15.2v9.6a2 2 0 0 1-.59 1.41L26.21 33a2 2 0 0 1-1.42.58h-9.58a2 2 0 0 1-1.43-.58L7 26.21a2 2 0 0 1-.59-1.41v-9.6A2 2 0 0 1 7 13.79L13.78 7a2 2 0 0 1 1.42-.59h9.59a2 2 0 0 1 1.42.59L33 13.79a2 2 0 0 1 .59 1.41z" fill="#fff"/><path fill="#ec5858" stroke="#b64646" stroke-linecap="round" stroke-linejoin="round" d="M24.8 8.42l6.78 6.78v9.6l-6.78 6.78h-9.6L8.42 24.8v-9.6l6.78-6.78h9.6z"/></svg>