<?xml version="1.0" encoding="iso-8859-1"?>
<!-- Generator: Adobe Illustrator 20.1.0, SVG Export Plug-In . SVG Version: 6.00 Build 0)  -->
<svg version="1.1" id="CLOSEBUTTON_x5F_On" xmlns="http://www.w3.org/2000/svg" xmlns:xlink="http://www.w3.org/1999/xlink" x="0px"
	 y="0px" viewBox="0 0 88 88" style="enable-background:new 0 0 88 88;" xml:space="preserve">
<path style="opacity:0.5;fill:none;stroke:#EFEFEF;stroke-width:4;stroke-miterlimit:10;enable-background:new    ;" d="
	M43.819,84.452c-36.022,0-38.415,1.797-38.415-45.157c0-27.549,0-34.257,38.415-34.257c39.732,0,39.612,6.708,39.612,34.497
	C83.431,86.489,80.439,84.452,43.819,84.452z"/>
<path style="fill:#FFFFFF;fill-opacity:0.3;stroke:#EFEFEF;stroke-width:2;stroke-miterlimit:10;" d="M57.544,59.43L47.5,49.378
	c-1.758-1.759-1.758-4.649,0-6.283l9.918-9.927c1.883-1.885,1.883-5.026,0-6.911l-2.762-2.764c-1.883-1.885-5.022-1.885-6.905,0
	L25.028,46.237l22.975,22.995c1.883,1.885,5.022,1.885,6.905,0l2.762-2.764C59.427,64.457,59.427,61.315,57.544,59.43z"/>
</svg>
