<?xml version="1.0" encoding="utf-8"?>
<!-- Generator: Adobe Illustrator 20.1.0, SVG Export Plug-In . SVG Version: 6.00 Build 0)  -->
<svg version="1.1" id="CLOSEBUTTON_x5F_On" xmlns="http://www.w3.org/2000/svg" xmlns:xlink="http://www.w3.org/1999/xlink" x="0px"
	 y="0px" viewBox="0 0 77.6 77.6" style="enable-background:new 0 0 77.6 77.6;" xml:space="preserve">
<style type="text/css">
	.st0{opacity:0.25;enable-background:new    ;}
	.st1{fill:#FFFFFF;stroke:#EFEFEF;stroke-width:0.5;stroke-miterlimit:10;}
	.st2{opacity:0.5;fill:none;stroke:#EFEFEF;stroke-width:4;stroke-miterlimit:10;enable-background:new    ;}
	.st3{fill:none;stroke:#EFEFEF;stroke-width:2;stroke-miterlimit:10;}
</style>
<g class="st0">
	<path class="st1" d="M50.4,50l-8-8c-1.4-1.4-1.4-3.7,0-5l7.9-7.9c1.5-1.5,1.5-4,0-5.5l-2.2-2.2c-1.5-1.5-4-1.5-5.5,0L24.5,39.5
		l18.3,18.3c1.5,1.5,4,1.5,5.5,0l2.2-2.2C51.9,54,51.9,51.5,50.4,50z"/>
</g>
<path class="st2" d="M39,71.4c-30.1,0-32.1,1.5-32.1-37.7c0-23,0-28.6,32.1-28.6c33.2,0,33.1,5.6,33.1,28.8
	C72.1,73.1,69.6,71.4,39,71.4z"/>
<g>
	<path class="st3" d="M50.4,50l-8-8c-1.4-1.4-1.4-3.7,0-5l7.9-7.9c1.5-1.5,1.5-4,0-5.5l-2.2-2.2c-1.5-1.5-4-1.5-5.5,0L24.5,39.5
		l18.3,18.3c1.5,1.5,4,1.5,5.5,0l2.2-2.2C51.9,54,51.9,51.5,50.4,50z"/>
</g>
</svg>
