<?xml version="1.0" encoding="utf-8"?>
<!-- Generator: Adobe Illustrator 20.1.0, SVG Export Plug-In . SVG Version: 6.00 Build 0)  -->
<svg version="1.1" id="CLOSEBUTTON_x5F_On" xmlns="http://www.w3.org/2000/svg" xmlns:xlink="http://www.w3.org/1999/xlink" x="0px"
	 y="0px" viewBox="0 0 88 88" style="enable-background:new 0 0 88 88;" xml:space="preserve">
<style type="text/css">
	.st0{fill:#535252;stroke:#CECECE;stroke-width:4;stroke-miterlimit:10;enable-background:new    ;}
	.st1{fill:#E5E5E5;fill-opacity:0.2;stroke:#D3D3D3;stroke-width:2;stroke-miterlimit:10;}
</style>
<path class="st0" d="M43.8,83.4c-35.1,0-37.4,1.7-37.4-43.9c0-26.8,0-33.3,37.4-33.3c38.7,0,38.5,6.5,38.5,33.6
	C82.4,85.4,79.5,83.4,43.8,83.4z"/>
<path class="st1" d="M57.2,59l-9.8-9.8c-1.7-1.7-1.7-4.5,0-6.1l9.7-9.7c1.8-1.8,1.8-4.9,0-6.7l-2.7-2.7c-1.8-1.8-4.9-1.8-6.7,0
	L25.5,46.2l22.4,22.4c1.8,1.8,4.9,1.8,6.7,0l2.7-2.7C59,63.9,59,60.9,57.2,59z"/>
</svg>
