<?xml version="1.0" encoding="utf-8"?>
<!-- Generator: Adobe Illustrator 20.1.0, SVG Export Plug-In . SVG Version: 6.00 Build 0)  -->
<svg version="1.1" id="CLOSEBUTTON_x5F_On" xmlns="http://www.w3.org/2000/svg" xmlns:xlink="http://www.w3.org/1999/xlink" x="0px"
	 y="0px" viewBox="0 0 88 88" style="enable-background:new 0 0 88 88;" xml:space="preserve">
<style type="text/css">
	.st0{fill:#535252;stroke:#EFEFEF;stroke-width:4;stroke-miterlimit:10;enable-background:new    ;}
	.st1{fill:#FFFFFF;fill-opacity:0.3;stroke:#EFEFEF;stroke-width:2;stroke-miterlimit:10;}
</style>
<path class="st0" d="M43.8,84.5c-36,0-38.4,1.8-38.4-45.2C5.4,11.7,5.4,5,43.8,5c39.7,0,39.6,6.7,39.6,34.5
	C83.4,86.5,80.4,84.5,43.8,84.5z"/>
<path class="st1" d="M57.5,59.4l-10-10.1c-1.8-1.8-1.8-4.6,0-6.3l9.9-9.9c1.9-1.9,1.9-5,0-6.9l-2.8-2.8c-1.9-1.9-5-1.9-6.9,0
	L25,46.2l23,23c1.9,1.9,5,1.9,6.9,0l2.8-2.8C59.4,64.5,59.4,61.3,57.5,59.4z"/>
</svg>
