<?xml version="1.0" encoding="iso-8859-1"?>
<!-- Generator: Adobe Illustrator 20.1.0, SVG Export Plug-In . SVG Version: 6.00 Build 0)  -->
<svg version="1.1" xmlns="http://www.w3.org/2000/svg" xmlns:xlink="http://www.w3.org/1999/xlink" x="0px" y="0px"
	 viewBox="0 0 175 175" style="enable-background:new 0 0 175 175;" xml:space="preserve">
<g id="CLOSEBUTTON_x5F_Down">
	<path style="fill:none;stroke:#CCDADD;stroke-width:8.6568;stroke-miterlimit:10;" d="M87.369,164.843
		c-69.907,0-74.468,3.433-74.468-87.64c0-53.405-0.113-66.434,74.468-66.434c76.993,0,76.954,13.029,76.954,66.95
		C164.323,168.732,158.353,164.843,87.369,164.843z"/>
	<path style="fill:none;stroke:#BCCACC;stroke-width:3.8861;stroke-miterlimit:10;" d="M108.996,53.303L88.612,73.687l-20.55-20.55
		c-3.355-3.355-8.846-3.355-12.201,0l-4.811,4.811c-3.355,3.355-3.355,8.846,0,12.201l20.55,20.55l-20.496,20.496
		c-3.355,3.355-3.355,8.846,0,12.201l4.811,4.811c3.355,3.355,8.846,3.355,12.201,0l20.496-20.496l20.442,20.442
		c3.355,3.355,8.846,3.355,12.201,0l4.811-4.811c3.355-3.355,3.355-8.846,0-12.201l-20.442-20.442l20.384-20.384
		c3.355-3.355,3.355-8.846,0-12.201l-4.811-4.811C117.842,49.947,112.351,49.947,108.996,53.303z"/>
</g>
<g id="Layer_1">
</g>
</svg>
