<?xml version="1.0" encoding="utf-8"?>
<!-- Generator: Adobe Illustrator 20.1.0, SVG Export Plug-In . SVG Version: 6.00 Build 0)  -->
<svg version="1.1" id="CLOSEBUTTON_x5F_On" xmlns="http://www.w3.org/2000/svg" xmlns:xlink="http://www.w3.org/1999/xlink" x="0px"
	 y="0px" viewBox="0 0 77.6 77.6" style="enable-background:new 0 0 77.6 77.6;" xml:space="preserve">
<style type="text/css">
	.st0{opacity:0.25;enable-background:new    ;}
	.st1{fill:#C4C6C6;stroke:#D1D1D1;stroke-width:0.5;stroke-miterlimit:10;}
	.st2{opacity:0.5;fill:none;stroke:#CECECE;stroke-width:4;stroke-miterlimit:10;enable-background:new    ;}
	.st3{fill:none;stroke:#D3D3D3;stroke-width:2;stroke-miterlimit:10;}
</style>
<g class="st0">
	<path class="st1" d="M50.2,49.8l-7.9-7.9c-1.4-1.4-1.4-3.6,0-5l7.7-7.7c1.5-1.5,1.5-3.9,0-5.4l-2.1-2.1c-1.5-1.5-3.9-1.5-5.4,0
		L24.8,39.4l17.9,17.9c1.5,1.5,3.9,1.5,5.4,0l2.1-2.1C51.7,53.7,51.7,51.3,50.2,49.8z"/>
</g>
<path class="st2" d="M39,70.8c-29.5,0-31.4,1.4-31.4-37c0-22.6,0-28.1,31.4-28.1c32.5,0,32.5,5.5,32.5,28.3
	C71.5,72.4,69,70.8,39,70.8z"/>
<g>
	<path class="st3" d="M50.2,49.8l-7.9-7.9c-1.4-1.4-1.4-3.6,0-5l7.7-7.7c1.5-1.5,1.5-3.9,0-5.4l-2.1-2.1c-1.5-1.5-3.9-1.5-5.4,0
		L24.8,39.4l17.9,17.9c1.5,1.5,3.9,1.5,5.4,0l2.1-2.1C51.7,53.7,51.7,51.3,50.2,49.8z"/>
</g>
</svg>
