<?xml version="1.0" encoding="iso-8859-1"?>
<!-- Generator: Adobe Illustrator 20.1.0, SVG Export Plug-In . SVG Version: 6.00 Build 0)  -->
<svg version="1.1" xmlns="http://www.w3.org/2000/svg" xmlns:xlink="http://www.w3.org/1999/xlink" x="0px" y="0px"
	 viewBox="0 0 175 175" style="enable-background:new 0 0 175 175;" xml:space="preserve">
<g id="CLOSEBUTTON_x5F_On">
	<path style="fill:none;stroke:#EFEFEF;stroke-width:8.6442;stroke-miterlimit:10;" d="M87.304,168.836
		c-73.531,0-78.328,3.611-78.328-92.183c0-56.174-0.119-69.878,78.328-69.878c80.984,0,80.943,13.704,80.943,70.421
		C168.248,172.926,161.968,168.836,87.304,168.836z"/>
	<path style="fill:none;stroke:#EFEFEF;stroke-width:4.3221;stroke-miterlimit:10;" d="M109.073,51.41L88.612,71.872L68.151,51.41
		c-3.713-3.713-9.789-3.713-13.503,0l-5.325,5.325c-3.713,3.713-3.713,9.789,0,13.503l20.461,20.461L49.323,111.16
		c-3.713,3.713-3.713,9.789,0,13.503l5.325,5.325c3.713,3.713,9.789,3.713,13.503,0l20.461-20.461l20.461,20.461
		c3.713,3.713,9.789,3.713,13.503,0l5.325-5.325c3.713-3.713,3.713-9.789,0-13.503l-20.461-20.461l20.461-20.461
		c3.713-3.713,3.713-9.789,0-13.503l-5.325-5.325C118.863,47.697,112.786,47.697,109.073,51.41z"/>
</g>
<g id="Layer_1">
</g>
</svg>
