<svg id="svg" version="1.1" width="500" height="500" xmlns="http://www.w3.org/2000/svg" xmlns:xlink="http://www.w3.org/1999/xlink" style="display: block;"><g id="svgg"><path id="path0" d="M163.600 34.801 C 163.160 34.932,155.960 35.449,147.600 35.949 C 89.685 39.410,61.333 51.839,48.023 79.600 C 46.546 82.680,45.041 85.818,44.679 86.573 C 38.850 98.721,36.838 124.493,36.856 186.800 C 36.887 299.111,43.127 333.397,67.007 352.452 C 69.533 354.469,72.140 356.335,72.800 356.601 C 73.460 356.866,75.285 357.883,76.857 358.861 C 92.322 368.487,115.181 370.431,208.800 370.082 C 276.007 369.832,280.703 369.654,298.400 366.688 C 337.331 360.162,354.397 339.667,361.257 291.200 C 366.589 253.528,366.981 131.460,361.858 104.000 C 360.504 96.741,356.399 83.299,355.152 82.040 C 354.739 81.622,354.400 80.838,354.400 80.299 C 354.400 72.267,333.176 53.736,316.800 47.470 C 307.259 43.819,305.647 43.355,294.800 41.141 C 280.832 38.289,272.978 37.441,240.000 35.223 C 229.219 34.499,165.785 34.148,163.600 34.801 M240.800 52.400 C 270.569 53.872,297.806 57.485,303.959 60.778 C 304.804 61.230,306.087 61.600,306.811 61.600 C 308.553 61.600,321.943 68.279,325.554 70.950 C 336.735 79.217,341.719 88.859,345.945 110.400 C 351.741 139.944,348.617 282.451,341.657 305.981 C 328.572 350.223,318.555 353.600,200.400 353.600 C 107.427 353.600,87.887 350.861,74.024 335.887 C 67.249 328.569,61.058 313.793,59.157 300.400 C 57.889 291.466,56.829 283.200,56.029 276.000 C 53.841 256.308,52.782 162.486,54.400 131.600 C 56.784 86.060,67.035 69.328,98.000 60.432 C 100.640 59.673,103.889 58.732,105.219 58.340 C 124.731 52.592,188.338 49.805,240.800 52.400 M255.600 120.836 C 249.053 121.548,246.861 123.285,226.768 143.680 C 216.190 154.416,207.033 163.200,206.418 163.200 C 205.803 163.200,196.637 154.439,186.050 143.730 C 163.827 121.254,163.173 120.800,152.964 120.800 C 138.409 120.800,119.200 139.813,119.200 154.219 C 119.200 157.533,119.709 159.247,122.462 165.200 C 123.408 167.247,130.873 175.318,143.171 187.594 C 153.747 198.150,162.400 207.135,162.400 207.560 C 162.400 207.985,153.264 217.528,142.097 228.767 C 116.444 254.584,115.375 256.960,122.454 272.414 C 124.597 277.091,138.754 290.722,143.653 292.825 C 157.263 298.667,160.947 296.729,187.707 269.658 L 206.347 250.800 225.978 270.635 C 255.886 300.855,261.688 302.232,280.497 283.575 C 291.446 272.714,292.897 270.068,292.899 260.952 C 292.901 251.328,291.806 249.764,269.308 227.254 C 258.807 216.748,250.347 207.766,250.508 207.294 C 250.669 206.822,259.483 197.698,270.094 187.018 C 292.259 164.711,292.800 163.925,292.800 154.000 C 292.800 145.093,291.534 142.601,282.093 132.928 C 271.297 121.867,266.448 119.654,255.600 120.836 M268.773 132.778 C 276.150 138.621,283.065 146.956,283.623 150.677 C 284.936 159.432,285.312 158.895,260.311 184.000 C 247.823 196.540,237.605 207.146,237.603 207.570 C 237.601 207.993,247.820 218.613,260.312 231.170 C 289.180 260.189,289.558 261.237,276.203 275.271 C 260.480 291.793,259.404 291.451,228.340 260.063 C 216.984 248.588,207.116 239.200,206.413 239.200 C 205.709 239.200,195.788 248.608,184.367 260.107 C 153.493 291.190,152.351 291.584,137.517 276.277 C 122.954 261.251,123.256 260.359,153.000 230.534 C 165.210 218.291,175.200 207.939,175.200 207.531 C 175.200 207.123,165.455 197.071,153.545 185.194 C 123.432 155.165,122.925 153.709,137.445 139.008 C 152.567 123.697,154.451 124.322,183.832 154.398 C 195.439 166.279,205.478 176.000,206.141 176.000 C 206.805 176.000,217.484 165.807,229.874 153.348 C 256.553 126.521,259.143 125.151,268.773 132.778 " stroke="none" fill="#737373" fill-rule="evenodd"></path><path id="path1" d="M149.600 34.446 C 146.300 34.766,138.740 35.411,132.800 35.880 C 126.860 36.350,120.742 37.109,119.205 37.567 C 117.668 38.025,115.103 38.400,113.506 38.400 C 111.908 38.400,109.071 38.940,107.200 39.600 C 105.329 40.260,102.674 40.813,101.299 40.828 C 99.925 40.844,97.900 41.371,96.800 42.000 C 94.250 43.458,95.482 43.483,101.335 42.091 C 143.228 32.128,248.071 31.614,294.800 41.142 C 305.632 43.351,307.256 43.818,316.800 47.470 C 333.176 53.736,354.400 72.267,354.400 80.299 C 354.400 80.838,354.739 81.622,355.152 82.040 C 356.399 83.299,360.504 96.741,361.858 104.000 C 366.981 131.460,366.589 253.528,361.257 291.200 C 355.986 328.440,345.353 347.639,323.807 358.817 C 321.281 360.128,319.602 361.330,320.075 361.489 C 320.868 361.756,326.277 359.378,327.200 358.358 C 327.420 358.115,329.040 357.051,330.800 355.995 C 336.897 352.336,347.987 339.904,350.063 334.400 C 350.312 333.740,350.852 332.660,351.263 332.000 C 351.674 331.340,352.226 330.260,352.491 329.600 C 352.755 328.940,353.473 327.266,354.086 325.879 C 354.699 324.493,355.200 322.804,355.200 322.126 C 355.200 321.449,355.518 320.698,355.908 320.457 C 356.297 320.216,356.858 318.404,357.154 316.428 C 357.450 314.453,358.032 312.628,358.446 312.371 C 358.861 312.115,359.200 310.712,359.200 309.253 C 359.200 307.795,359.740 305.071,360.400 303.200 C 361.060 301.329,361.609 298.314,361.619 296.499 C 361.630 294.685,362.006 291.760,362.456 290.000 C 362.905 288.240,363.603 281.940,364.007 276.000 C 364.410 270.060,365.102 260.700,365.546 255.200 C 366.613 241.948,366.625 129.252,365.559 122.400 C 365.115 119.540,364.431 114.063,364.040 110.229 C 363.650 106.395,363.099 102.884,362.816 102.427 C 362.534 101.970,362.002 99.887,361.634 97.798 C 361.034 94.393,360.267 91.822,358.350 86.800 C 351.654 69.251,339.725 56.508,322.800 48.825 C 320.600 47.826,318.175 46.692,317.411 46.305 C 316.647 45.917,315.621 45.600,315.132 45.600 C 314.642 45.600,313.107 45.113,311.721 44.518 C 308.479 43.128,303.063 41.669,298.000 40.823 C 295.800 40.455,292.987 39.760,291.748 39.277 C 290.509 38.795,287.923 38.400,286.000 38.400 C 284.077 38.400,281.491 38.011,280.252 37.536 C 279.013 37.061,273.140 36.337,267.200 35.928 C 261.260 35.519,253.160 34.853,249.200 34.449 C 240.807 33.592,158.444 33.590,149.600 34.446 M90.000 44.000 C 89.728 44.440,88.951 44.800,88.274 44.800 C 87.596 44.800,85.907 45.314,84.521 45.942 C 83.134 46.570,80.380 47.801,78.400 48.676 C 76.420 49.552,73.434 51.198,71.764 52.334 C 70.095 53.470,68.460 54.400,68.131 54.400 C 67.802 54.400,65.388 56.369,62.766 58.776 C 60.145 61.182,57.730 63.162,57.400 63.176 C 57.070 63.189,56.800 63.740,56.800 64.400 C 56.800 65.060,56.468 65.600,56.061 65.600 C 55.053 65.600,48.657 75.403,46.146 80.800 C 42.547 88.532,39.241 100.705,38.324 109.600 C 37.984 112.900,37.333 118.120,36.879 121.200 C 35.831 128.302,35.795 246.683,36.837 258.400 C 37.248 263.020,37.913 272.087,38.314 278.550 C 38.715 285.012,39.289 290.697,39.590 291.183 C 39.890 291.669,40.424 294.662,40.776 297.834 C 41.539 304.710,43.108 312.669,44.074 314.565 C 44.457 315.316,45.004 317.394,45.290 319.183 C 45.576 320.972,46.123 322.629,46.505 322.865 C 46.887 323.101,47.200 323.890,47.200 324.617 C 47.200 333.595,64.889 354.616,77.200 360.269 C 78.960 361.078,81.419 362.248,82.665 362.869 C 83.910 363.491,85.579 364.000,86.373 364.000 C 87.167 364.000,88.848 364.538,90.109 365.195 C 91.369 365.852,93.594 366.392,95.053 366.395 C 96.512 366.398,98.454 366.801,99.370 367.291 C 101.044 368.187,108.111 369.058,124.400 370.376 C 135.915 371.308,265.118 371.311,276.000 370.380 C 291.973 369.013,300.031 368.075,301.010 367.470 C 301.551 367.136,303.614 366.620,305.596 366.324 C 310.031 365.660,318.917 362.651,318.291 362.025 C 318.118 361.851,315.281 362.543,311.988 363.562 C 305.670 365.517,295.808 367.345,283.200 368.898 C 273.512 370.091,147.025 370.648,130.000 369.573 C 103.309 367.887,85.635 364.325,76.857 358.861 C 75.285 357.883,73.460 356.866,72.800 356.601 C 70.114 355.521,62.190 348.502,58.847 344.244 C 41.687 322.379,36.884 287.993,36.856 186.800 C 36.839 126.071,37.721 112.695,43.148 91.373 C 43.628 89.488,44.317 87.328,44.679 86.573 C 45.041 85.818,46.546 82.680,48.023 79.600 C 56.152 62.645,66.817 54.058,91.600 44.515 C 94.444 43.419,94.561 43.278,92.647 43.241 C 91.463 43.219,90.272 43.560,90.000 44.000 M164.000 52.000 C 158.940 52.264,174.600 52.490,198.800 52.502 C 225.617 52.514,238.426 52.302,231.600 51.959 C 218.341 51.292,177.073 51.317,164.000 52.000 M138.000 53.254 C 137.560 53.434,134.680 53.927,131.600 54.349 C 125.039 55.249,136.192 54.794,148.400 53.663 L 154.800 53.071 146.800 52.999 C 142.400 52.959,138.440 53.074,138.000 53.254 M249.600 53.618 C 260.844 54.699,275.001 55.230,269.200 54.354 C 266.560 53.955,259.540 53.479,253.600 53.297 C 244.385 53.014,243.798 53.061,249.600 53.618 M119.018 55.648 C 118.772 55.895,116.102 56.445,113.085 56.871 C 110.068 57.297,106.520 57.962,105.200 58.349 C 103.880 58.736,100.640 59.673,98.000 60.432 C 74.957 67.052,62.632 79.646,58.102 101.200 C 55.503 113.566,55.204 115.467,55.292 119.061 L 55.384 122.800 56.062 119.600 C 56.434 117.840,57.098 113.520,57.536 110.000 C 58.664 100.939,60.384 94.779,63.901 87.200 C 69.329 75.502,82.046 65.991,98.400 61.398 C 107.187 58.930,110.094 58.264,115.200 57.544 C 118.060 57.142,121.660 56.486,123.200 56.088 L 126.000 55.364 122.733 55.282 C 120.937 55.237,119.265 55.402,119.018 55.648 M276.400 56.104 C 277.720 56.526,281.320 57.188,284.400 57.575 C 292.491 58.592,303.655 61.320,309.200 63.636 C 321.057 68.587,328.616 73.696,333.186 79.845 C 334.721 81.910,336.252 83.970,336.588 84.422 C 337.786 86.031,339.953 90.835,340.461 93.008 C 340.745 94.222,341.297 95.413,341.689 95.655 C 342.080 95.897,342.416 97.243,342.436 98.647 C 342.470 101.079,344.599 107.021,344.735 105.065 C 344.815 103.911,342.733 95.791,341.384 92.000 C 338.789 84.703,332.068 75.766,325.554 70.950 C 322.245 68.502,308.614 61.600,307.090 61.600 C 306.520 61.600,304.601 61.092,302.827 60.471 C 301.052 59.850,296.900 58.801,293.600 58.140 C 290.300 57.479,285.683 56.546,283.339 56.069 C 280.995 55.591,277.935 55.231,276.539 55.269 L 274.000 55.338 276.400 56.104 M344.930 109.600 C 344.928 111.580,345.403 115.720,345.986 118.800 L 347.047 124.400 347.072 120.000 C 347.086 117.580,346.611 113.440,346.016 110.800 L 344.934 106.000 344.930 109.600 M148.800 119.632 C 146.148 120.623,146.381 120.678,153.200 120.670 C 157.654 120.665,159.637 120.434,158.400 120.063 C 154.013 118.747,151.474 118.633,148.800 119.632 M255.600 119.634 C 252.514 120.600,252.657 120.636,259.600 120.646 C 263.737 120.652,266.119 120.398,265.200 120.049 C 261.911 118.800,258.705 118.662,255.600 119.634 M140.800 122.218 C 138.979 123.433,124.259 138.060,121.743 141.155 C 121.161 141.870,120.833 142.893,121.014 143.428 C 121.194 143.962,121.915 143.320,122.614 142.000 C 124.439 138.559,139.012 124.451,142.788 122.472 C 144.861 121.385,145.421 120.815,144.388 120.842 C 143.515 120.865,141.900 121.484,140.800 122.218 M162.047 121.975 C 162.901 122.621,164.111 123.161,164.737 123.175 C 165.362 123.189,174.750 132.200,185.600 143.200 C 196.450 154.200,205.824 163.200,206.431 163.200 C 207.039 163.200,216.190 154.415,226.768 143.678 C 237.925 132.353,247.344 123.467,249.200 122.514 C 251.756 121.202,252.038 120.864,250.600 120.835 C 249.610 120.816,248.800 121.136,248.800 121.546 C 248.800 121.956,248.048 122.531,247.128 122.823 C 246.209 123.114,236.899 131.959,226.439 142.477 C 215.979 152.994,206.899 161.600,206.262 161.600 C 205.449 161.600,190.400 147.587,190.400 146.830 C 190.400 146.049,167.997 124.313,165.694 122.859 C 162.231 120.673,159.427 119.993,162.047 121.975 M270.800 123.127 C 275.784 126.008,288.802 139.249,291.093 143.768 C 293.526 148.569,293.527 159.428,291.094 164.232 C 290.070 166.255,281.682 175.357,270.094 187.018 C 259.483 197.698,250.669 206.822,250.508 207.294 C 250.347 207.766,258.807 216.748,269.308 227.254 C 291.806 249.764,292.901 251.328,292.899 260.952 C 292.897 270.068,291.446 272.714,280.497 283.575 C 271.121 292.876,269.604 293.745,260.000 295.327 C 257.147 295.797,257.465 295.845,261.535 295.558 C 266.541 295.205,272.800 293.143,272.800 291.846 C 272.800 291.491,273.149 291.200,273.576 291.200 C 274.622 291.200,288.800 277.066,288.800 276.024 C 288.800 275.571,289.124 275.200,289.519 275.200 C 291.692 275.200,293.803 268.301,293.803 261.200 C 293.803 250.732,293.292 249.981,271.016 227.700 C 260.514 217.195,252.029 208.105,252.161 207.500 C 252.292 206.895,260.909 197.850,271.308 187.400 C 293.251 165.351,293.859 164.439,293.817 153.600 C 293.796 148.102,293.437 146.110,291.942 143.200 C 289.813 139.052,273.591 122.400,271.680 122.400 C 270.976 122.400,270.400 122.040,270.400 121.600 C 270.400 121.160,269.590 120.803,268.600 120.808 C 267.235 120.813,267.767 121.374,270.800 123.127 M54.125 136.927 C 53.472 152.016,53.624 218.226,54.360 239.200 C 54.704 248.994,54.962 230.607,55.054 189.800 C 55.134 154.050,55.076 124.800,54.925 124.800 C 54.774 124.800,54.414 130.257,54.125 136.927 M347.480 188.800 C 347.485 226.223,347.716 246.308,348.042 237.600 C 348.763 218.322,348.758 145.333,348.035 134.000 C 347.725 129.160,347.476 153.820,347.480 188.800 M256.000 129.912 C 252.690 130.633,250.585 132.522,229.874 153.348 C 217.484 165.807,206.805 176.000,206.141 176.000 C 205.478 176.000,195.439 166.279,183.832 154.398 C 159.195 129.178,156.132 127.156,147.517 130.432 C 142.417 132.370,128.800 147.586,128.800 151.345 C 128.800 152.924,130.300 151.074,130.776 148.910 C 131.628 145.030,146.061 131.546,150.015 130.936 C 158.007 129.704,157.552 129.375,182.154 154.117 C 196.629 168.675,205.279 176.800,206.301 176.800 C 207.563 176.800,222.400 163.225,222.400 162.071 C 222.400 161.501,239.590 144.800,240.176 144.800 C 240.519 144.800,240.829 144.350,240.864 143.800 C 240.981 141.961,253.252 131.658,256.093 131.013 C 262.972 129.451,265.653 130.726,275.146 140.081 C 288.553 153.293,287.925 154.984,258.754 184.194 C 246.490 196.474,236.800 206.805,236.800 207.599 C 236.800 208.394,246.032 218.229,257.730 229.897 C 269.241 241.378,279.681 252.182,280.930 253.906 C 282.519 256.100,283.200 256.601,283.200 255.578 C 283.200 254.731,273.601 244.480,260.400 231.228 C 247.860 218.639,237.601 207.993,237.603 207.570 C 237.605 207.146,247.823 196.540,260.311 184.000 C 281.440 162.783,283.057 160.959,283.590 157.736 C 284.757 150.673,283.637 147.665,277.389 141.088 C 267.170 130.330,263.317 128.316,256.000 129.912 M119.400 146.362 C 118.847 147.256,118.400 150.505,118.400 153.634 C 118.400 163.391,120.119 165.859,142.452 188.168 L 161.732 207.426 142.266 227.171 C 120.685 249.062,121.074 248.629,120.344 251.539 C 120.057 252.681,119.503 253.813,119.111 254.055 C 118.720 254.297,118.400 257.193,118.400 260.492 C 118.400 275.808,137.828 295.600,152.863 295.600 C 162.871 295.600,165.131 294.045,186.327 272.573 C 196.267 262.504,204.997 253.941,205.726 253.544 C 206.785 252.968,209.086 254.882,217.113 263.011 C 222.645 268.615,230.727 276.800,235.071 281.200 C 244.622 290.873,247.851 293.600,249.754 293.600 C 250.549 293.600,251.200 293.919,251.200 294.309 C 251.200 294.699,252.261 295.174,253.558 295.364 C 254.855 295.555,255.733 295.416,255.511 295.055 C 255.288 294.695,254.729 294.400,254.269 294.400 C 250.535 294.400,244.384 289.233,225.978 270.635 L 206.347 250.800 187.707 269.658 C 160.947 296.729,157.263 298.667,143.653 292.825 C 138.754 290.722,124.597 277.091,122.454 272.414 C 115.375 256.960,116.444 254.584,142.097 228.767 C 153.264 217.528,162.400 207.985,162.400 207.560 C 162.400 207.135,153.747 198.150,143.171 187.594 C 124.855 169.312,123.006 167.082,120.091 159.762 C 118.962 156.926,118.939 150.782,120.051 148.705 C 121.296 146.378,120.706 144.252,119.400 146.362 M128.800 156.785 C 128.800 159.700,134.224 165.927,153.545 185.194 C 165.455 197.071,175.200 207.123,175.200 207.531 C 175.200 207.939,165.245 218.260,153.078 230.465 C 133.588 250.016,128.800 255.553,128.800 258.539 C 128.800 260.160,130.305 258.253,130.798 256.007 C 131.173 254.300,137.719 247.209,154.106 230.756 C 166.639 218.173,176.782 207.553,176.646 207.154 C 176.511 206.756,166.254 196.253,153.854 183.815 C 139.152 169.068,131.119 160.432,130.765 158.992 C 130.216 156.758,128.800 155.167,128.800 156.785 M183.401 259.857 C 171.191 272.099,159.975 282.719,158.477 283.457 C 155.618 284.867,148.800 285.310,148.800 284.087 C 148.800 283.694,147.964 283.164,146.942 282.907 C 145.920 282.651,142.410 279.705,139.142 276.363 C 131.029 268.064,131.343 268.448,130.751 266.089 C 130.208 263.924,128.800 262.412,128.800 263.993 C 128.800 267.413,141.028 281.234,146.568 284.077 C 155.440 288.629,157.051 287.608,184.367 260.107 C 195.788 248.608,205.709 239.200,206.413 239.200 C 207.116 239.200,216.984 248.588,228.340 260.063 C 252.395 284.369,253.890 285.600,259.352 285.600 C 269.917 285.600,285.574 268.632,283.781 259.125 C 283.554 257.923,283.377 258.457,283.309 260.548 C 283.138 265.807,281.994 267.791,274.972 275.003 C 260.113 290.262,259.512 290.062,229.491 259.850 C 217.332 247.612,206.982 237.600,206.493 237.600 C 206.003 237.600,195.612 247.616,183.401 259.857 M346.203 260.000 C 345.875 263.300,345.439 270.140,345.234 275.200 L 344.863 284.400 346.046 275.200 C 346.696 270.140,347.132 263.300,347.014 260.000 L 346.800 254.000 346.203 260.000 M55.309 264.358 C 55.205 269.651,55.633 274.199,57.684 289.600 C 59.363 302.212,59.722 304.389,60.715 308.000 C 70.265 342.718,83.523 350.586,136.169 352.777 C 181.228 354.653,279.298 353.376,290.800 350.764 L 295.600 349.674 290.800 350.034 C 242.102 353.685,107.978 352.270,100.037 348.020 C 99.195 347.569,97.672 347.198,96.653 347.195 C 95.634 347.192,93.769 346.652,92.509 345.995 C 91.248 345.338,89.744 344.800,89.166 344.800 C 84.341 344.800,68.800 330.729,68.800 326.360 C 68.800 325.942,68.440 325.600,68.000 325.600 C 67.560 325.600,67.198 325.150,67.195 324.600 C 67.192 324.050,66.666 322.595,66.025 321.366 C 65.384 320.138,64.626 317.884,64.339 316.357 C 64.053 314.831,63.499 313.385,63.109 313.144 C 62.719 312.903,62.400 311.692,62.400 310.453 C 62.400 309.215,61.860 306.671,61.200 304.800 C 60.540 302.929,60.000 300.092,60.000 298.494 C 60.000 296.897,59.618 294.332,59.152 292.795 C 58.686 291.258,57.957 285.320,57.532 279.600 C 57.107 273.880,56.458 266.860,56.089 264.000 L 55.419 258.800 55.309 264.358 M343.400 289.133 C 342.850 291.737,342.400 295.022,342.400 296.433 C 342.400 297.844,341.860 300.529,341.200 302.400 C 340.540 304.271,340.000 306.815,340.000 308.053 C 340.000 309.292,339.681 310.503,339.291 310.744 C 338.901 310.985,338.351 312.410,338.070 313.911 C 337.595 316.442,336.215 319.941,334.305 323.459 C 333.870 324.261,332.737 326.406,331.789 328.225 C 327.502 336.449,311.316 347.200,303.220 347.200 C 301.941 347.200,300.672 347.560,300.400 348.000 C 300.128 348.440,298.937 348.842,297.753 348.893 C 296.225 348.959,296.035 349.097,297.099 349.370 C 298.977 349.853,306.780 347.792,313.600 345.012 C 326.407 339.792,334.303 330.006,339.590 312.800 C 342.008 304.929,342.330 303.650,342.814 300.000 C 343.076 298.020,343.658 294.938,344.107 293.150 C 344.556 291.363,344.806 288.663,344.662 287.150 C 344.426 284.676,344.300 284.875,343.400 289.133 " stroke="none" fill="#b3b3b3" fill-rule="evenodd"></path><path id="path2" d="M146.982 34.177 C 148.402 34.354,150.922 34.357,152.582 34.184 C 154.242 34.011,153.080 33.866,150.000 33.863 C 146.920 33.859,145.562 34.001,146.982 34.177 M249.600 34.394 C 252.900 34.698,257.400 35.168,259.600 35.438 C 262.931 35.846,262.730 35.740,258.400 34.802 C 255.540 34.182,251.040 33.712,248.400 33.758 L 243.600 33.841 249.600 34.394 M138.400 35.200 C 135.711 36.061,138.616 36.061,142.000 35.200 C 144.156 34.651,144.196 34.588,142.400 34.574 C 141.300 34.566,139.500 34.848,138.400 35.200 M274.467 36.287 C 274.650 36.444,276.240 36.794,278.000 37.064 C 280.179 37.398,280.817 37.311,280.000 36.790 C 278.907 36.093,273.690 35.619,274.467 36.287 M176.657 53.400 C 189.118 53.524,209.278 53.524,221.457 53.399 C 233.636 53.275,223.440 53.174,198.800 53.174 C 174.160 53.174,164.196 53.276,176.657 53.400 M140.400 54.400 L 138.000 55.011 140.400 55.049 C 141.720 55.070,143.520 54.778,144.400 54.400 L 146.000 53.712 144.400 53.751 C 143.520 53.772,141.720 54.064,140.400 54.400 M254.000 54.400 C 254.880 54.778,256.680 55.070,258.000 55.049 L 260.400 55.011 258.000 54.400 C 256.680 54.064,254.880 53.772,254.000 53.751 L 252.400 53.712 254.000 54.400 M127.411 55.774 C 128.627 55.958,130.427 55.953,131.411 55.763 C 132.395 55.573,131.400 55.423,129.200 55.429 C 127.000 55.435,126.195 55.590,127.411 55.774 M268.200 55.773 C 269.410 55.956,271.390 55.956,272.600 55.773 C 273.810 55.590,272.820 55.440,270.400 55.440 C 267.980 55.440,266.990 55.590,268.200 55.773 M120.000 56.800 L 118.000 57.441 120.000 57.508 C 121.100 57.545,122.540 57.227,123.200 56.800 C 124.728 55.813,123.083 55.813,120.000 56.800 M276.800 56.763 C 277.460 57.210,278.690 57.581,279.533 57.588 C 281.580 57.604,280.942 57.146,278.000 56.488 C 276.247 56.096,275.924 56.170,276.800 56.763 M108.400 58.829 C 105.169 60.308,107.101 60.310,110.508 58.831 C 111.989 58.189,112.660 57.678,112.000 57.696 C 111.340 57.715,109.720 58.224,108.400 58.829 M289.492 58.831 C 290.972 59.474,292.772 59.984,293.492 59.965 C 294.211 59.946,293.360 59.411,291.600 58.777 C 287.454 57.283,286.012 57.321,289.492 58.831 M98.800 61.229 C 97.480 61.833,96.961 62.344,97.647 62.364 C 98.333 62.384,99.593 61.871,100.447 61.225 C 102.343 59.791,101.938 59.792,98.800 61.229 M300.000 61.200 C 301.100 61.829,302.540 62.342,303.200 62.340 C 303.860 62.339,303.189 61.811,301.708 61.169 C 298.301 59.690,297.387 59.706,300.000 61.200 M71.157 76.600 L 68.400 79.600 71.400 76.843 C 73.050 75.327,74.400 73.977,74.400 73.843 C 74.400 73.232,73.723 73.808,71.157 76.600 M329.600 76.400 C 331.093 77.940,332.494 79.200,332.714 79.200 C 332.934 79.200,331.893 77.940,330.400 76.400 C 328.907 74.860,327.506 73.600,327.286 73.600 C 327.066 73.600,328.107 74.860,329.600 76.400 M356.267 81.942 C 356.771 83.010,357.310 83.757,357.465 83.602 C 357.961 83.105,356.717 80.000,356.021 80.000 C 355.652 80.000,355.763 80.874,356.267 81.942 M60.930 94.034 C 59.590 96.976,59.845 97.604,61.295 94.929 C 61.971 93.680,62.376 92.509,62.193 92.326 C 62.010 92.143,61.441 92.912,60.930 94.034 M340.030 93.600 C 340.042 94.260,340.579 95.499,341.225 96.353 C 342.736 98.350,342.727 97.609,341.205 94.691 C 340.548 93.431,340.019 92.940,340.030 93.600 M342.443 102.000 C 342.433 102.440,342.943 104.240,343.577 106.000 C 344.211 107.760,344.746 108.611,344.765 107.892 C 344.784 107.172,344.274 105.372,343.631 103.892 C 342.989 102.411,342.454 101.560,342.443 102.000 M36.794 116.138 C 36.272 118.482,36.006 121.480,36.203 122.800 C 36.510 124.863,36.578 124.750,36.685 122.000 C 36.753 120.240,37.193 117.416,37.663 115.725 C 38.132 114.034,38.342 112.476,38.130 112.263 C 37.917 112.050,37.316 113.794,36.794 116.138 M56.898 114.800 C 56.832 115.680,56.593 117.300,56.367 118.400 L 55.955 120.400 56.812 118.437 C 57.283 117.358,57.522 115.738,57.343 114.837 C 57.026 113.242,57.015 113.241,56.898 114.800 M344.812 116.467 C 344.819 117.750,345.192 119.340,345.642 120.000 C 346.228 120.860,346.307 120.293,345.924 118.000 C 345.259 114.031,344.796 113.393,344.812 116.467 M365.376 120.400 C 365.621 123.040,365.952 125.350,366.111 125.533 C 366.670 126.179,366.233 119.576,365.585 117.600 C 365.178 116.358,365.099 117.418,365.376 120.400 M152.867 118.685 C 153.753 119.443,158.434 119.902,157.993 119.188 C 157.725 118.755,156.387 118.400,155.019 118.400 C 153.652 118.400,152.683 118.528,152.867 118.685 M254.800 119.200 C 254.215 120.146,254.998 120.146,257.200 119.200 C 258.743 118.537,258.737 118.510,257.047 118.456 C 256.083 118.425,255.072 118.760,254.800 119.200 M260.000 118.709 C 260.000 118.879,261.061 119.174,262.358 119.364 C 263.655 119.555,264.533 119.416,264.311 119.055 C 263.914 118.414,260.000 118.100,260.000 118.709 M55.492 130.000 C 55.494 134.400,55.629 136.098,55.791 133.773 C 55.953 131.448,55.951 127.848,55.787 125.773 C 55.623 123.698,55.490 125.600,55.492 130.000 M241.346 126.631 C 238.846 128.958,236.800 131.161,236.800 131.527 C 236.800 131.893,238.155 130.800,239.811 129.096 C 241.467 127.393,243.856 125.190,245.119 124.200 C 246.382 123.210,247.073 122.400,246.654 122.400 C 246.235 122.400,243.846 124.304,241.346 126.631 M346.711 134.000 C 346.712 139.720,346.840 141.955,346.994 138.967 C 347.148 135.978,347.147 131.298,346.991 128.567 C 346.836 125.835,346.709 128.280,346.711 134.000 M134.539 126.652 C 133.583 127.670,132.800 128.768,132.800 129.093 C 132.800 129.417,133.700 128.711,134.800 127.524 C 135.900 126.337,136.800 125.239,136.800 125.083 C 136.800 124.466,136.204 124.880,134.539 126.652 M258.600 130.951 C 259.370 131.153,260.630 131.153,261.400 130.951 C 262.170 130.750,261.540 130.586,260.000 130.586 C 258.460 130.586,257.830 130.750,258.600 130.951 M126.400 134.800 C 125.367 135.900,124.711 136.800,124.944 136.800 C 125.176 136.800,126.337 135.900,127.524 134.800 C 128.711 133.700,129.367 132.800,128.981 132.800 C 128.595 132.800,127.433 133.700,126.400 134.800 M165.600 138.000 C 167.093 139.540,168.494 140.800,168.714 140.800 C 168.934 140.800,167.893 139.540,166.400 138.000 C 164.907 136.460,163.506 135.200,163.286 135.200 C 163.066 135.200,164.107 136.460,165.600 138.000 M223.750 144.092 C 222.512 145.361,221.792 146.394,222.150 146.386 C 222.961 146.369,226.730 142.454,226.308 142.066 C 226.139 141.911,224.987 142.822,223.750 144.092 M173.669 146.095 C 174.731 147.467,175.761 148.446,175.958 148.270 C 176.154 148.095,175.285 146.972,174.026 145.776 L 171.738 143.600 173.669 146.095 M282.629 154.000 C 282.635 156.200,282.790 157.005,282.974 155.789 C 283.158 154.573,283.153 152.773,282.963 151.789 C 282.773 150.805,282.623 151.800,282.629 154.000 M294.000 154.000 C 294.000 155.896,294.270 157.280,294.600 157.076 C 294.930 156.872,295.200 155.488,295.200 154.000 C 295.200 152.512,294.930 151.128,294.600 150.924 C 294.270 150.720,294.000 152.104,294.000 154.000 M129.333 151.733 C 128.586 152.480,128.666 155.823,129.443 156.303 C 129.796 156.521,130.121 155.463,130.164 153.950 C 130.246 151.048,130.184 150.883,129.333 151.733 M209.557 159.000 L 206.800 162.000 209.800 159.243 C 211.450 157.727,212.800 156.377,212.800 156.243 C 212.800 155.632,212.123 156.208,209.557 159.000 M276.800 165.200 C 274.857 167.180,273.447 168.800,273.667 168.800 C 273.887 168.800,275.657 167.180,277.600 165.200 C 279.543 163.220,280.953 161.600,280.733 161.600 C 280.513 161.600,278.743 163.220,276.800 165.200 M260.800 181.200 C 258.857 183.180,257.447 184.800,257.667 184.800 C 257.887 184.800,259.657 183.180,261.600 181.200 C 263.543 179.220,264.953 177.600,264.733 177.600 C 264.513 177.600,262.743 179.220,260.800 181.200 M242.400 199.600 C 239.122 202.900,236.648 205.600,236.903 205.600 C 237.432 205.600,239.503 203.629,245.170 197.731 C 247.353 195.459,248.964 193.600,248.750 193.600 C 248.535 193.600,245.678 196.300,242.400 199.600 M142.008 226.400 L 122.816 246.000 142.374 226.632 C 153.130 215.980,161.767 207.160,161.566 207.032 C 161.365 206.905,152.564 215.620,142.008 226.400 M174.608 210.106 C 171.689 213.383,171.594 214.185,174.452 211.426 C 175.918 210.010,176.952 208.686,176.750 208.483 C 176.547 208.281,175.583 209.011,174.608 210.106 M346.731 240.400 C 346.731 248.320,346.851 251.452,346.997 247.360 C 347.142 243.267,347.141 236.787,346.995 232.960 C 346.849 229.132,346.730 232.480,346.731 240.400 M55.520 247.600 C 55.521 254.200,55.645 256.794,55.795 253.363 C 55.946 249.933,55.945 244.533,55.793 241.363 C 55.642 238.194,55.519 241.000,55.520 247.600 M204.698 238.200 C 203.705 239.467,203.732 239.496,204.990 238.510 C 205.754 237.911,206.943 237.637,207.631 237.901 C 208.351 238.178,208.675 238.046,208.394 237.591 C 207.639 236.368,205.911 236.653,204.698 238.200 M142.307 242.259 C 139.971 244.987,139.808 245.976,142.049 243.824 C 143.295 242.628,144.135 241.468,143.915 241.248 C 143.695 241.028,142.971 241.483,142.307 242.259 M137.333 247.400 C 136.527 248.243,136.019 249.086,136.205 249.272 C 136.391 249.458,137.199 248.885,138.000 248.000 C 139.878 245.924,139.269 245.376,137.333 247.400 M365.761 253.688 C 365.672 256.597,365.426 260.737,365.212 262.888 L 364.824 266.800 365.642 263.600 C 366.091 261.840,366.338 257.700,366.191 254.400 L 365.922 248.400 365.761 253.688 M36.269 258.400 C 36.269 261.700,36.410 263.050,36.583 261.400 C 36.755 259.750,36.755 257.050,36.583 255.400 C 36.410 253.750,36.269 255.100,36.269 258.400 M224.550 255.108 C 225.787 256.378,226.939 257.289,227.108 257.134 C 227.530 256.746,223.761 252.831,222.950 252.814 C 222.592 252.806,223.312 253.839,224.550 255.108 M282.640 260.800 C 282.640 263.220,282.790 264.210,282.973 263.000 C 283.156 261.790,283.156 259.810,282.973 258.600 C 282.790 257.390,282.640 258.380,282.640 260.800 M294.000 261.200 C 294.000 263.096,294.270 264.480,294.600 264.276 C 294.930 264.072,295.200 262.688,295.200 261.200 C 295.200 259.712,294.930 258.328,294.600 258.124 C 294.270 257.920,294.000 259.304,294.000 261.200 M129.333 258.933 C 128.588 259.679,128.666 263.023,129.440 263.501 C 129.792 263.719,130.080 262.660,130.080 261.148 C 130.080 258.131,130.094 258.173,129.333 258.933 M345.169 263.569 C 344.860 266.046,344.787 268.253,345.007 268.473 C 345.227 268.693,345.660 266.846,345.969 264.369 C 346.279 261.892,346.352 259.685,346.132 259.465 C 345.912 259.245,345.479 261.092,345.169 263.569 M56.154 264.000 C 56.135 265.100,56.407 267.620,56.759 269.600 L 57.400 273.200 57.405 270.000 C 57.408 268.240,57.136 265.720,56.800 264.400 C 56.247 262.225,56.186 262.188,56.154 264.000 M36.987 266.800 C 36.988 268.120,37.264 270.280,37.600 271.600 C 38.447 274.927,38.484 271.652,37.646 267.600 C 37.089 264.909,36.984 264.782,36.987 266.800 M273.582 275.800 L 266.800 282.800 273.800 276.018 C 280.301 269.718,281.164 268.800,280.582 268.800 C 280.463 268.800,277.313 271.950,273.582 275.800 M185.150 273.800 L 182.800 276.400 185.400 274.050 C 186.830 272.758,188.000 271.588,188.000 271.450 C 188.000 270.832,187.340 271.376,185.150 273.800 M57.818 284.000 C 57.818 285.980,57.974 286.790,58.165 285.800 C 58.355 284.810,58.355 283.190,58.165 282.200 C 57.974 281.210,57.818 282.020,57.818 284.000 M363.298 285.200 C 363.232 286.080,362.993 287.700,362.767 288.800 L 362.355 290.800 363.212 288.837 C 363.683 287.758,363.922 286.138,363.743 285.237 C 363.426 283.642,363.415 283.641,363.298 285.200 M342.913 287.368 C 342.643 288.376,342.453 289.920,342.491 290.800 C 342.529 291.680,342.890 290.996,343.293 289.279 C 344.073 285.955,343.740 284.281,342.913 287.368 M38.456 288.467 C 38.487 289.750,38.831 291.520,39.221 292.400 C 39.694 293.468,39.771 292.804,39.453 290.400 C 38.893 286.160,38.377 285.159,38.456 288.467 M58.536 289.200 C 58.549 290.080,58.848 291.700,59.200 292.800 L 59.841 294.800 59.864 292.800 C 59.877 291.700,59.578 290.080,59.200 289.200 L 58.512 287.600 58.536 289.200 M361.802 294.800 C 361.811 296.560,361.974 297.186,362.166 296.191 C 362.357 295.196,362.350 293.756,362.150 292.991 C 361.949 292.226,361.793 293.040,361.802 294.800 M340.892 300.879 C 340.402 302.287,340.025 303.835,340.056 304.319 C 340.087 304.804,340.629 303.791,341.260 302.070 C 341.890 300.348,342.267 298.800,342.096 298.629 C 341.925 298.458,341.383 299.470,340.892 300.879 M335.581 318.460 C 334.824 320.844,335.453 321.030,336.533 318.742 C 337.037 317.674,337.148 316.800,336.779 316.800 C 336.410 316.800,335.871 317.547,335.581 318.460 M343.350 344.400 C 342.393 345.500,341.927 346.400,342.313 346.400 C 342.700 346.400,343.606 345.500,344.326 344.400 C 345.047 343.300,345.514 342.400,345.363 342.400 C 345.212 342.400,344.306 343.300,343.350 344.400 M338.955 349.225 C 337.721 350.311,337.028 351.200,337.416 351.200 C 337.804 351.200,338.967 350.300,340.000 349.200 C 342.391 346.655,341.862 346.668,338.955 349.225 M106.209 349.366 C 107.204 349.557,108.644 349.550,109.409 349.350 C 110.174 349.149,109.360 348.993,107.600 349.002 C 105.840 349.011,105.214 349.174,106.209 349.366 M291.000 349.365 C 291.990 349.555,293.610 349.555,294.600 349.365 C 295.590 349.174,294.780 349.018,292.800 349.018 C 290.820 349.018,290.010 349.174,291.000 349.365 M114.400 350.400 C 115.060 350.827,116.320 351.175,117.200 351.175 C 118.525 351.175,118.594 351.042,117.600 350.400 C 116.940 349.973,115.680 349.625,114.800 349.625 C 113.475 349.625,113.406 349.758,114.400 350.400 M282.800 350.400 L 281.200 351.088 282.800 351.088 C 283.680 351.088,285.120 350.778,286.000 350.400 L 287.600 349.712 286.000 349.712 C 285.120 349.712,283.680 350.022,282.800 350.400 M167.340 351.800 C 185.237 351.920,214.757 351.920,232.940 351.800 C 251.123 351.680,236.480 351.582,200.400 351.582 C 164.320 351.582,149.443 351.680,167.340 351.800 M81.247 362.775 C 82.101 363.421,83.160 363.949,83.600 363.949 C 84.040 363.949,83.701 363.421,82.847 362.775 C 81.993 362.129,80.934 361.600,80.494 361.600 C 80.054 361.600,80.393 362.129,81.247 362.775 M317.247 362.825 C 315.250 364.336,315.991 364.327,318.909 362.805 C 320.169 362.148,320.660 361.619,320.000 361.630 C 319.340 361.642,318.101 362.179,317.247 362.825 M88.291 365.205 C 89.552 365.862,90.992 366.398,91.491 366.395 C 91.991 366.392,91.369 365.852,90.109 365.195 C 88.848 364.538,87.408 364.002,86.909 364.005 C 86.409 364.008,87.031 364.548,88.291 365.205 M310.400 365.200 C 309.300 365.829,308.760 366.343,309.200 366.343 C 309.640 366.343,310.900 365.829,312.000 365.200 C 313.100 364.571,313.640 364.057,313.200 364.057 C 312.760 364.057,311.500 364.571,310.400 365.200 M97.953 367.625 C 98.807 368.271,100.427 368.784,101.553 368.765 C 103.249 368.736,103.051 368.532,100.400 367.577 C 96.407 366.138,95.997 366.146,97.953 367.625 M302.174 366.893 C 301.903 367.164,300.493 367.667,299.041 368.011 C 296.855 368.529,296.744 368.645,298.400 368.690 C 299.500 368.719,301.300 368.229,302.400 367.600 C 303.500 366.971,304.010 366.444,303.533 366.428 C 303.057 366.413,302.445 366.622,302.174 366.893 M112.380 369.568 C 112.663 370.026,113.833 370.400,114.981 370.400 C 117.488 370.400,117.198 370.017,114.133 369.280 C 112.646 368.923,112.043 369.022,112.380 369.568 M284.800 369.600 L 282.800 370.241 284.800 370.308 C 285.900 370.345,287.340 370.027,288.000 369.600 C 289.528 368.613,287.883 368.613,284.800 369.600 M121.421 370.987 C 123.303 371.156,126.183 371.153,127.821 370.982 C 129.460 370.810,127.920 370.671,124.400 370.674 C 120.880 370.677,119.540 370.818,121.421 370.987 M273.421 370.987 C 275.303 371.156,278.183 371.153,279.821 370.982 C 281.460 370.810,279.920 370.671,276.400 370.674 C 272.880 370.677,271.540 370.818,273.421 370.987 " stroke="none" fill="#cfcfcf" fill-rule="evenodd"></path><path id="path3" d="M137.271 34.196 C 136.944 34.523,134.634 35.010,132.138 35.278 L 127.600 35.765 131.600 35.831 C 133.800 35.867,137.760 35.411,140.400 34.816 L 145.200 33.734 141.533 33.667 C 139.517 33.630,137.599 33.868,137.271 34.196 M254.467 33.897 C 255.394 34.725,262.530 35.257,262.038 34.462 C 261.745 33.988,259.847 33.600,257.819 33.600 C 255.792 33.600,254.283 33.734,254.467 33.897 M265.400 35.779 C 266.830 35.956,269.170 35.956,270.600 35.779 C 272.030 35.601,270.860 35.456,268.000 35.456 C 265.140 35.456,263.970 35.601,265.400 35.779 M117.180 36.832 C 116.843 37.378,117.446 37.477,118.933 37.120 C 121.998 36.383,122.288 36.000,119.781 36.000 C 118.633 36.000,117.463 36.374,117.180 36.832 M280.000 36.800 C 280.660 37.227,281.740 37.575,282.400 37.575 C 283.467 37.575,283.467 37.489,282.400 36.800 C 281.740 36.373,280.660 36.025,280.000 36.025 C 278.933 36.025,278.933 36.111,280.000 36.800 M106.200 38.151 C 105.430 38.353,104.800 38.872,104.800 39.306 C 104.800 39.744,105.244 39.811,105.800 39.456 C 106.350 39.104,108.780 38.596,111.200 38.326 L 115.600 37.835 111.600 37.810 C 109.400 37.797,106.970 37.950,106.200 38.151 M288.800 38.328 C 291.220 38.660,293.920 39.225,294.800 39.584 C 296.108 40.117,296.220 40.041,295.412 39.170 C 294.836 38.549,292.332 38.025,289.412 37.914 L 284.400 37.725 288.800 38.328 M98.600 40.551 C 99.370 40.753,100.630 40.753,101.400 40.551 C 102.170 40.350,101.540 40.186,100.000 40.186 C 98.460 40.186,97.830 40.350,98.600 40.551 M300.400 40.591 C 301.720 40.784,303.250 41.314,303.800 41.769 C 304.467 42.321,304.800 42.325,304.800 41.784 C 304.800 40.700,302.759 39.972,300.135 40.120 C 298.097 40.234,298.109 40.256,300.400 40.591 M88.367 43.253 C 87.557 44.563,88.204 44.635,90.400 43.478 C 92.318 42.467,92.328 42.423,90.647 42.412 C 89.683 42.405,88.657 42.784,88.367 43.253 M310.691 43.605 C 313.592 45.118,314.467 45.103,312.447 43.575 C 311.593 42.929,310.333 42.402,309.647 42.405 C 308.961 42.408,309.431 42.948,310.691 43.605 M67.200 53.666 L 65.200 55.296 67.800 54.028 C 69.230 53.330,70.400 52.588,70.400 52.379 C 70.400 51.584,69.126 52.096,67.200 53.666 M331.790 52.940 C 332.939 54.313,337.999 57.292,337.321 56.196 C 337.037 55.737,335.477 54.578,333.854 53.620 C 332.232 52.663,331.303 52.356,331.790 52.940 M144.590 54.153 C 143.815 54.356,143.356 54.806,143.571 55.153 C 144.053 55.933,147.861 55.271,148.459 54.304 C 148.908 53.578,147.070 53.507,144.590 54.153 M249.003 54.070 C 249.262 54.328,250.762 54.831,252.337 55.186 C 255.421 55.881,256.383 54.904,253.400 54.104 C 251.083 53.483,248.396 53.462,249.003 54.070 M135.000 55.779 C 136.430 55.956,138.770 55.956,140.200 55.779 C 141.630 55.601,140.460 55.456,137.600 55.456 C 134.740 55.456,133.570 55.601,135.000 55.779 M258.182 55.777 C 259.602 55.954,262.122 55.957,263.782 55.784 C 265.442 55.611,264.280 55.466,261.200 55.463 C 258.120 55.459,256.762 55.601,258.182 55.777 M274.000 56.800 C 274.272 57.240,275.283 57.594,276.247 57.588 C 277.672 57.578,277.776 57.430,276.800 56.800 C 275.224 55.781,273.371 55.781,274.000 56.800 M58.667 60.728 C 56.876 62.449,54.605 65.059,53.619 66.528 C 52.011 68.927,52.123 68.873,54.721 66.000 C 56.312 64.240,58.891 61.630,60.452 60.200 C 62.012 58.770,62.982 57.600,62.606 57.600 C 62.230 57.600,60.457 59.008,58.667 60.728 M114.600 58.173 C 115.810 58.356,117.790 58.356,119.000 58.173 C 120.210 57.990,119.220 57.840,116.800 57.840 C 114.380 57.840,113.390 57.990,114.600 58.173 M280.614 58.180 C 282.052 58.358,284.212 58.354,285.414 58.172 C 286.616 57.989,285.440 57.843,282.800 57.848 C 280.160 57.852,279.176 58.002,280.614 58.180 M100.447 61.225 C 99.593 61.871,99.251 62.400,99.687 62.400 C 100.123 62.400,100.822 62.066,101.240 61.657 C 101.658 61.248,103.260 60.766,104.800 60.585 L 107.600 60.256 104.800 60.153 C 103.260 60.097,101.301 60.579,100.447 61.225 M294.209 60.566 C 295.204 60.757,296.644 60.750,297.409 60.550 C 298.174 60.349,297.360 60.193,295.600 60.202 C 293.840 60.211,293.214 60.374,294.209 60.566 M347.906 66.955 C 348.402 67.921,349.167 68.932,349.604 69.203 C 350.975 70.050,350.474 68.810,348.701 66.967 L 347.003 65.200 347.906 66.955 M79.800 69.723 C 77.710 71.050,76.000 72.491,76.000 72.925 C 76.000 73.359,76.532 73.182,77.182 72.532 C 77.832 71.882,79.447 70.871,80.769 70.285 C 82.092 69.700,83.349 68.766,83.562 68.210 C 84.041 66.963,84.334 66.845,79.800 69.723 M316.800 68.018 C 316.800 68.476,317.356 69.063,318.035 69.324 C 319.911 70.044,320.131 69.267,318.364 68.163 C 317.374 67.545,316.800 67.492,316.800 68.018 M323.538 72.136 C 324.825 73.161,327.306 75.359,329.052 77.020 C 330.799 78.680,332.370 79.896,332.545 79.722 C 332.980 79.287,324.925 72.106,322.864 71.091 C 321.933 70.633,322.230 71.093,323.538 72.136 M72.350 76.200 L 70.000 78.800 72.600 76.450 C 74.030 75.158,75.200 73.988,75.200 73.850 C 75.200 73.232,74.540 73.776,72.350 76.200 M358.240 84.960 C 358.768 85.488,359.200 86.628,359.200 87.493 C 359.200 88.359,359.423 88.843,359.696 88.571 C 360.485 87.782,359.268 84.000,358.225 84.000 C 357.507 84.000,357.511 84.231,358.240 84.960 M337.651 89.200 C 337.651 89.640,338.179 90.699,338.825 91.553 C 339.471 92.407,340.000 92.746,340.000 92.306 C 340.000 91.866,339.471 90.807,338.825 89.953 C 338.179 89.099,337.651 88.760,337.651 89.200 M360.640 92.160 C 361.168 92.688,361.628 94.038,361.663 95.160 C 361.698 96.282,361.913 96.735,362.141 96.166 C 362.758 94.628,361.711 91.200,360.625 91.200 C 359.907 91.200,359.911 91.431,360.640 92.160 M40.186 94.400 C 40.186 95.940,40.350 96.570,40.551 95.800 C 40.753 95.030,40.753 93.770,40.551 93.000 C 40.350 92.230,40.186 92.860,40.186 94.400 M60.889 95.786 C 60.328 97.140,60.029 99.092,60.225 100.124 C 60.519 101.667,60.601 101.566,60.691 99.560 C 60.751 98.218,61.201 96.720,61.690 96.230 C 62.179 95.740,62.429 94.887,62.244 94.332 C 62.059 93.778,61.449 94.432,60.889 95.786 M340.025 95.640 C 340.011 96.102,340.332 96.822,340.738 97.240 C 341.145 97.658,341.631 99.080,341.819 100.400 L 342.160 102.800 342.280 100.353 C 342.346 99.007,341.871 97.207,341.225 96.353 C 340.579 95.499,340.039 95.178,340.025 95.640 M37.744 107.353 C 37.665 109.857,37.240 112.128,36.800 112.400 C 36.360 112.672,36.025 114.043,36.056 115.447 C 36.107 117.781,36.213 117.669,37.297 114.141 C 37.949 112.018,38.349 108.598,38.186 106.541 C 37.894 102.874,37.886 102.890,37.744 107.353 M364.256 108.800 C 364.256 111.660,364.401 112.830,364.579 111.400 C 364.756 109.970,364.756 107.630,364.579 106.200 C 364.401 104.770,364.256 105.940,364.256 108.800 M57.452 113.600 C 57.181 116.460,56.686 119.666,56.353 120.725 C 55.941 122.035,56.026 122.478,56.618 122.112 C 57.633 121.485,58.674 114.225,58.243 110.776 C 58.058 109.293,57.761 110.355,57.452 113.600 M344.248 113.200 C 344.252 115.840,344.402 116.824,344.580 115.386 C 344.758 113.948,344.754 111.788,344.572 110.586 C 344.389 109.384,344.243 110.560,344.248 113.200 M365.297 116.600 C 366.051 119.741,366.400 119.846,366.400 116.933 C 366.400 115.540,366.033 114.400,365.585 114.400 C 365.101 114.400,364.984 115.294,365.297 116.600 M147.800 118.151 C 147.030 118.353,146.400 118.851,146.400 119.259 C 146.400 120.215,147.468 120.210,148.440 119.248 C 148.858 118.834,151.000 118.359,153.200 118.192 L 157.200 117.888 153.200 117.837 C 151.000 117.809,148.570 117.950,147.800 118.151 M253.953 118.775 C 253.099 119.421,252.829 119.961,253.353 119.975 C 253.877 119.989,254.528 119.640,254.800 119.200 C 255.072 118.760,257.232 118.400,259.600 118.400 C 261.968 118.400,264.128 118.760,264.400 119.200 C 264.672 119.640,265.323 119.989,265.847 119.975 C 269.017 119.890,262.992 117.600,259.600 117.600 C 257.239 117.600,254.849 118.097,253.953 118.775 M344.812 120.553 C 344.806 121.517,345.160 122.528,345.600 122.800 C 346.619 123.429,346.619 121.576,345.600 120.000 C 344.970 119.024,344.822 119.128,344.812 120.553 M247.553 121.175 C 246.699 121.821,246.360 122.349,246.800 122.349 C 247.240 122.349,248.299 121.821,249.153 121.175 C 250.007 120.529,250.346 120.000,249.906 120.000 C 249.466 120.000,248.407 120.529,247.553 121.175 M170.403 125.334 C 170.406 126.110,205.617 161.854,205.994 161.463 C 206.133 161.318,198.181 152.980,188.323 142.934 C 178.465 132.887,170.401 124.967,170.403 125.334 M35.580 186.000 C 35.580 219.440,35.679 233.003,35.800 216.141 C 35.920 199.278,35.920 171.918,35.800 155.341 C 35.679 138.763,35.580 152.560,35.580 186.000 M283.786 132.800 C 284.539 133.680,285.432 134.400,285.770 134.400 C 286.108 134.400,285.768 133.680,285.014 132.800 C 284.261 131.920,283.368 131.200,283.030 131.200 C 282.692 131.200,283.032 131.920,283.786 132.800 M126.064 134.225 L 124.528 136.400 126.864 134.400 C 128.149 133.300,129.350 132.310,129.533 132.200 C 129.717 132.090,129.357 132.011,128.733 132.025 C 128.110 132.039,126.909 133.029,126.064 134.225 M229.823 155.026 C 218.285 166.733,208.977 176.443,209.137 176.604 C 209.390 176.856,251.951 134.340,251.987 133.800 C 252.060 132.700,247.880 136.702,229.823 155.026 M139.262 139.262 C 137.908 140.615,136.800 141.946,136.800 142.218 C 136.800 142.491,138.060 141.493,139.600 140.000 C 141.140 138.507,142.400 137.177,142.400 137.043 C 142.400 136.385,141.506 137.017,139.262 139.262 M55.576 186.800 C 55.576 214.080,55.677 225.356,55.799 211.858 C 55.922 198.359,55.922 176.039,55.800 162.258 C 55.677 148.476,55.576 159.520,55.576 186.800 M275.750 142.308 C 276.987 143.578,278.139 144.489,278.308 144.334 C 278.730 143.946,274.961 140.031,274.150 140.014 C 273.792 140.006,274.512 141.039,275.750 142.308 M366.770 180.800 C 366.770 201.700,366.873 210.250,366.999 199.800 C 367.126 189.350,367.126 172.250,366.999 161.800 C 366.873 151.350,366.770 159.900,366.770 180.800 M346.772 185.200 C 346.772 208.080,346.875 217.325,347.000 205.744 C 347.125 194.163,347.124 175.443,346.999 164.144 C 346.874 152.845,346.772 162.320,346.772 185.200 M117.884 154.000 C 117.882 157.960,118.017 159.681,118.185 157.824 C 118.352 155.967,118.354 152.727,118.189 150.624 C 118.024 148.521,117.886 150.040,117.884 154.000 M216.550 150.492 C 215.312 151.761,214.592 152.794,214.950 152.786 C 215.761 152.769,219.530 148.854,219.108 148.466 C 218.939 148.311,217.787 149.222,216.550 150.492 M293.600 149.553 C 293.600 149.967,293.960 150.528,294.400 150.800 C 294.840 151.072,295.200 152.512,295.200 154.000 C 295.200 155.488,294.840 156.928,294.400 157.200 C 293.960 157.472,293.611 158.123,293.625 158.647 C 293.639 159.171,294.179 158.901,294.825 158.047 C 296.057 156.418,296.308 153.632,295.496 150.600 C 295.025 148.843,293.600 148.056,293.600 149.553 M130.175 152.552 C 129.949 153.735,130.064 155.445,130.431 156.352 C 130.931 157.586,131.111 157.046,131.149 154.200 C 131.206 149.970,130.800 149.283,130.175 152.552 M277.400 163.321 C 272.747 168.274,272.390 169.497,276.863 165.162 C 279.616 162.495,282.228 159.105,281.428 159.238 C 281.303 159.259,279.490 161.096,277.400 163.321 M268.396 172.805 C 266.342 175.074,267.212 175.258,269.527 173.043 C 270.586 172.029,271.092 171.200,270.651 171.200 C 270.209 171.200,269.194 171.922,268.396 172.805 M205.600 177.600 C 205.600 178.040,206.140 178.400,206.800 178.400 C 207.460 178.400,208.000 178.040,208.000 177.600 C 208.000 177.160,207.460 176.800,206.800 176.800 C 206.140 176.800,205.600 177.160,205.600 177.600 M277.350 181.692 C 276.112 182.961,275.392 183.994,275.750 183.986 C 276.561 183.969,280.330 180.054,279.908 179.666 C 279.739 179.511,278.587 180.422,277.350 181.692 M151.200 180.481 C 151.200 180.787,152.460 182.262,154.000 183.758 C 155.540 185.253,156.800 186.226,156.800 185.919 C 156.800 185.613,155.540 184.138,154.000 182.642 C 152.460 181.147,151.200 180.174,151.200 180.481 M251.212 189.988 C 249.725 191.521,248.665 192.928,248.855 193.114 C 249.045 193.300,250.587 192.045,252.281 190.326 C 253.976 188.607,255.037 187.200,254.638 187.200 C 254.240 187.200,252.698 188.455,251.212 189.988 M244.362 197.000 L 241.200 200.400 244.600 197.238 C 247.762 194.297,248.368 193.600,247.762 193.600 C 247.632 193.600,246.102 195.130,244.362 197.000 M261.000 197.992 C 259.570 199.411,258.400 200.821,258.400 201.125 C 258.400 201.428,259.718 200.397,261.328 198.833 C 262.939 197.269,264.109 195.860,263.928 195.701 C 263.748 195.542,262.430 196.573,261.000 197.992 M167.200 196.481 C 167.200 196.787,168.460 198.262,170.000 199.758 C 171.540 201.253,172.800 202.226,172.800 201.919 C 172.800 201.613,171.540 200.138,170.000 198.642 C 168.460 197.147,167.200 196.174,167.200 196.481 M238.133 202.533 C 237.327 203.413,236.815 204.282,236.997 204.464 C 237.178 204.645,238.171 203.895,239.203 202.797 C 240.235 201.699,240.746 200.830,240.339 200.867 C 239.933 200.903,238.940 201.653,238.133 202.533 M235.200 206.800 C 235.200 207.460,235.560 208.000,236.000 208.000 C 236.440 208.000,236.800 207.460,236.800 206.800 C 236.800 206.140,236.440 205.600,236.000 205.600 C 235.560 205.600,235.200 206.140,235.200 206.800 M158.800 226.400 C 153.534 231.680,149.511 236.000,149.861 236.000 C 150.210 236.000,154.802 231.680,160.065 226.400 C 165.328 221.120,169.351 216.800,169.004 216.800 C 168.658 216.800,164.066 221.120,158.800 226.400 M136.757 231.000 L 134.000 234.000 137.000 231.243 C 139.792 228.677,140.368 228.000,139.757 228.000 C 139.623 228.000,138.273 229.350,136.757 231.000 M145.973 239.573 C 144.448 241.099,143.200 242.607,143.200 242.924 C 143.200 243.242,143.927 242.721,144.816 241.767 C 145.705 240.813,147.213 239.305,148.167 238.416 C 149.121 237.527,149.642 236.800,149.324 236.800 C 149.007 236.800,147.499 238.048,145.973 239.573 M195.763 245.800 C 193.653 247.996,192.123 249.990,192.363 250.230 C 192.604 250.470,192.890 250.510,193.000 250.318 C 193.110 250.127,194.798 248.274,196.750 246.202 C 198.703 244.129,200.143 242.292,199.950 242.120 C 199.758 241.948,197.874 243.604,195.763 245.800 M215.214 244.550 C 215.231 245.361,219.146 249.130,219.534 248.708 C 219.689 248.539,218.778 247.387,217.508 246.150 C 216.239 244.912,215.206 244.192,215.214 244.550 M277.386 251.200 C 278.139 252.080,279.032 252.800,279.370 252.800 C 279.708 252.800,279.368 252.080,278.614 251.200 C 277.861 250.320,276.968 249.600,276.630 249.600 C 276.292 249.600,276.632 250.320,277.386 251.200 M118.499 253.015 C 117.886 254.161,117.629 257.320,117.802 261.613 L 118.074 268.400 118.237 261.160 C 118.334 256.864,118.785 253.535,119.347 252.973 C 119.867 252.453,120.108 251.841,119.881 251.615 C 119.655 251.388,119.033 252.018,118.499 253.015 M206.400 253.484 C 206.400 253.851,207.120 254.804,208.000 255.600 C 208.880 256.396,209.600 256.712,209.600 256.302 C 209.600 255.891,208.880 254.939,208.000 254.186 C 207.120 253.432,206.400 253.116,206.400 253.484 M293.632 256.153 C 293.614 256.897,293.960 257.728,294.400 258.000 C 294.840 258.272,295.254 259.643,295.320 261.047 C 295.430 263.402,295.465 263.433,295.769 261.444 C 295.950 260.259,295.550 258.279,294.881 257.044 C 294.067 255.543,293.653 255.248,293.632 256.153 M345.400 255.662 C 345.070 255.994,344.836 257.917,344.880 259.933 L 344.961 263.600 345.705 260.422 C 346.510 256.985,346.363 254.691,345.400 255.662 M180.592 261.042 C 178.057 263.686,176.108 265.975,176.261 266.128 C 176.533 266.399,186.400 256.808,186.400 256.272 C 186.400 255.369,184.655 256.802,180.592 261.042 M130.088 259.534 C 129.821 260.598,129.939 262.308,130.351 263.334 C 130.977 264.896,131.107 264.581,131.149 261.400 C 131.205 257.218,130.833 256.564,130.088 259.534 M56.477 261.600 C 56.795 263.580,57.324 268.800,57.651 273.200 L 58.247 281.200 58.053 271.159 C 57.932 264.948,57.484 260.524,56.878 259.559 C 56.058 258.254,55.993 258.586,56.477 261.600 M212.914 259.907 C 213.493 261.579,244.000 292.115,244.000 291.023 C 244.000 290.862,236.941 283.610,228.314 274.906 C 219.686 266.203,212.756 259.453,212.914 259.907 M365.321 265.873 C 364.969 268.004,364.869 269.936,365.101 270.168 C 365.770 270.837,366.552 266.818,366.244 264.297 C 366.015 262.429,365.843 262.724,365.321 265.873 M36.000 267.819 C 36.000 270.067,36.377 272.138,36.837 272.423 C 37.404 272.773,37.498 271.565,37.128 268.670 C 36.414 263.071,36.000 262.760,36.000 267.819 M344.299 272.400 C 344.301 277.240,344.433 279.117,344.592 276.571 C 344.751 274.025,344.750 270.065,344.589 267.771 C 344.428 265.477,344.297 267.560,344.299 272.400 M279.000 268.891 C 275.735 272.469,274.991 273.960,277.686 271.524 C 279.337 270.032,282.757 265.598,282.254 265.602 C 282.115 265.603,280.650 267.083,279.000 268.891 M164.136 277.419 C 161.352 280.255,159.431 282.446,159.869 282.288 C 160.773 281.961,170.400 272.870,170.400 272.343 C 170.400 271.386,168.739 272.732,164.136 277.419 M364.292 279.600 C 364.294 284.000,364.429 285.698,364.591 283.373 C 364.753 281.048,364.751 277.448,364.587 275.373 C 364.423 273.298,364.290 275.200,364.292 279.600 M37.888 280.800 C 37.888 284.980,38.023 286.690,38.188 284.600 C 38.353 282.510,38.353 279.090,38.188 277.000 C 38.023 274.910,37.888 276.620,37.888 280.800 M139.786 276.800 C 140.539 277.680,141.432 278.400,141.770 278.400 C 142.108 278.400,141.768 277.680,141.014 276.800 C 140.261 275.920,139.368 275.200,139.030 275.200 C 138.692 275.200,139.032 275.920,139.786 276.800 M288.155 277.953 C 286.750 279.443,285.600 280.904,285.600 281.200 C 285.600 281.495,286.886 280.413,288.459 278.794 C 290.031 277.175,291.181 275.714,291.014 275.547 C 290.847 275.380,289.561 276.463,288.155 277.953 M268.945 278.956 C 267.484 280.496,266.427 281.894,266.597 282.063 C 266.766 282.232,268.304 280.937,270.014 279.185 C 271.725 277.433,272.782 276.035,272.362 276.078 C 271.943 276.121,270.405 277.417,268.945 278.956 M148.000 282.983 C 148.660 283.234,149.450 283.826,149.757 284.297 C 150.063 284.768,150.592 284.875,150.933 284.533 C 151.675 283.792,149.695 282.403,148.000 282.475 C 146.933 282.521,146.933 282.577,148.000 282.983 M342.983 283.683 C 342.663 284.004,342.423 285.197,342.451 286.333 L 342.501 288.400 343.274 286.469 C 344.106 284.387,343.933 282.733,342.983 283.683 M58.456 286.953 C 58.637 289.029,59.888 290.791,59.944 289.047 C 59.975 288.083,59.640 287.072,59.200 286.800 C 58.760 286.528,58.425 286.597,58.456 286.953 M362.924 289.894 C 362.593 291.156,362.511 292.378,362.742 292.609 C 363.386 293.253,364.174 290.677,363.831 289.047 C 363.607 287.980,363.368 288.203,362.924 289.894 M276.400 289.698 C 275.960 290.090,274.700 291.148,273.600 292.050 C 272.205 293.194,272.084 293.452,273.200 292.904 C 275.658 291.695,278.043 289.773,277.599 289.359 C 277.379 289.154,276.840 289.307,276.400 289.698 M38.456 292.553 C 38.425 293.517,38.760 294.528,39.200 294.800 C 40.146 295.385,40.146 294.602,39.200 292.400 C 38.537 290.857,38.510 290.863,38.456 292.553 M341.818 295.200 C 341.818 297.180,341.974 297.990,342.165 297.000 C 342.355 296.010,342.355 294.390,342.165 293.400 C 341.974 292.410,341.818 293.220,341.818 295.200 M60.240 296.800 C 60.240 299.220,60.390 300.210,60.573 299.000 C 60.756 297.790,60.756 295.810,60.573 294.600 C 60.390 293.390,60.240 294.380,60.240 296.800 M40.362 302.583 C 40.497 307.062,41.081 308.786,42.114 307.753 C 42.397 307.470,42.240 306.771,41.765 306.199 C 41.291 305.627,40.750 303.549,40.563 301.580 C 40.316 298.975,40.262 299.248,40.362 302.583 M361.728 300.040 C 361.658 301.602,361.174 303.306,360.653 303.827 C 360.133 304.347,359.923 304.990,360.189 305.255 C 361.102 306.169,362.495 302.320,362.176 299.763 L 361.856 297.200 361.728 300.040 M60.812 302.200 C 60.848 303.954,62.376 305.117,62.388 303.400 C 62.394 302.410,62.040 301.600,61.600 301.600 C 61.160 301.600,60.806 301.870,60.812 302.200 M339.309 306.553 C 339.249 307.737,338.840 308.928,338.400 309.200 C 337.960 309.472,337.614 310.303,337.632 311.047 C 337.653 311.952,338.068 311.656,338.882 310.154 C 339.551 308.919,339.946 307.119,339.759 306.154 C 339.471 304.674,339.401 304.736,339.309 306.553 M62.425 310.447 C 62.439 311.081,62.979 312.299,63.625 313.153 C 64.453 314.248,64.792 314.366,64.775 313.553 C 64.761 312.919,64.221 311.701,63.575 310.847 C 62.747 309.752,62.408 309.634,62.425 310.447 M359.263 311.400 C 359.228 312.610,358.840 313.600,358.400 313.600 C 357.960 313.600,357.600 313.960,357.600 314.400 C 357.600 314.840,357.953 315.200,358.385 315.200 C 359.345 315.200,360.313 311.659,359.741 310.234 C 359.513 309.665,359.298 310.190,359.263 311.400 M42.493 313.735 C 42.361 315.623,43.226 317.600,44.184 317.600 C 44.733 317.600,44.733 317.276,44.184 316.600 C 43.738 316.050,43.195 314.880,42.979 314.000 C 42.689 312.819,42.561 312.750,42.493 313.735 M335.686 316.465 C 334.934 318.423,335.098 318.617,336.400 317.314 C 337.760 315.954,337.933 315.200,336.886 315.200 C 336.493 315.200,335.953 315.769,335.686 316.465 M44.800 322.600 C 44.800 323.318,45.184 324.143,45.653 324.433 C 47.025 325.281,47.160 324.521,45.935 322.846 C 44.986 321.548,44.800 321.508,44.800 322.600 M333.076 322.835 C 332.356 324.711,333.133 324.931,334.237 323.164 C 334.855 322.174,334.908 321.600,334.382 321.600 C 333.924 321.600,333.337 322.156,333.076 322.835 M328.150 331.600 C 327.193 332.700,326.727 333.600,327.113 333.600 C 327.500 333.600,328.406 332.700,329.126 331.600 C 329.847 330.500,330.314 329.600,330.163 329.600 C 330.012 329.600,329.106 330.500,328.150 331.600 M73.363 333.122 C 74.153 334.179,74.915 334.934,75.055 334.800 C 75.476 334.398,73.268 331.200,72.570 331.200 C 72.216 331.200,72.572 332.065,73.363 333.122 M76.000 335.826 C 76.000 336.196,77.080 337.298,78.400 338.274 C 79.720 339.249,80.800 339.745,80.800 339.374 C 80.800 339.004,79.720 337.902,78.400 336.926 C 77.080 335.951,76.000 335.455,76.000 335.826 M53.663 340.078 C 53.628 340.780,54.362 342.220,55.292 343.278 C 56.223 344.335,57.524 346.010,58.184 347.000 C 58.844 347.990,59.793 348.794,60.292 348.788 C 60.891 348.780,60.920 348.575,60.379 348.188 C 59.201 347.344,54.716 341.420,54.179 340.000 C 53.794 338.981,53.717 338.992,53.663 340.078 M316.200 341.071 C 314.330 342.021,312.800 343.041,312.800 343.338 C 312.800 343.832,314.590 343.064,320.000 340.250 C 321.100 339.678,321.460 339.240,320.800 339.277 C 320.140 339.314,318.070 340.121,316.200 341.071 M82.463 340.625 C 82.428 341.189,83.030 341.845,83.800 342.084 C 84.570 342.322,85.920 342.908,86.800 343.387 C 88.233 344.166,88.285 344.118,87.302 342.929 C 86.698 342.198,85.558 341.600,84.769 341.600 C 83.979 341.600,83.152 341.150,82.930 340.600 C 82.614 339.817,82.513 339.822,82.463 340.625 M345.600 342.400 C 344.660 343.720,344.071 344.800,344.291 344.800 C 344.511 344.800,345.460 343.720,346.400 342.400 C 347.340 341.080,347.929 340.000,347.709 340.000 C 347.489 340.000,346.540 341.080,345.600 342.400 M90.000 344.570 C 90.880 344.782,91.942 345.280,92.360 345.678 C 92.778 346.075,93.498 346.389,93.960 346.375 C 94.422 346.361,94.101 345.821,93.247 345.175 C 92.393 344.529,90.953 344.042,90.047 344.093 C 88.440 344.183,88.439 344.195,90.000 344.570 M306.753 345.175 C 305.899 345.821,305.578 346.361,306.040 346.375 C 306.502 346.389,307.222 346.070,307.640 345.668 C 308.058 345.265,309.300 344.774,310.400 344.577 L 312.400 344.218 310.353 344.109 C 309.227 344.049,307.607 344.529,306.753 345.175 M340.091 348.897 C 338.241 350.711,336.894 352.361,337.097 352.564 C 337.300 352.767,338.127 352.244,338.933 351.401 C 344.941 345.125,345.771 343.329,340.091 348.897 M98.400 346.986 C 99.500 347.188,100.859 347.730,101.419 348.191 C 101.980 348.651,102.690 348.777,102.996 348.471 C 103.894 347.573,101.404 346.416,98.800 346.521 C 96.628 346.609,96.590 346.653,98.400 346.986 M297.953 347.575 C 297.099 348.221,296.778 348.761,297.240 348.775 C 297.702 348.789,298.422 348.470,298.840 348.068 C 299.258 347.665,300.500 347.174,301.600 346.977 L 303.600 346.618 301.553 346.509 C 300.427 346.449,298.807 346.929,297.953 347.575 M113.600 349.623 C 115.580 349.958,118.010 350.491,119.000 350.809 C 120.052 351.147,120.800 351.054,120.800 350.587 C 120.800 349.481,117.880 348.804,113.600 348.918 L 110.000 349.014 113.600 349.623 M280.800 350.074 L 278.800 351.291 281.200 350.725 C 282.520 350.414,285.040 349.899,286.800 349.580 L 290.000 349.000 286.400 348.928 C 284.420 348.889,281.900 349.404,280.800 350.074 M326.847 358.825 C 325.993 359.471,325.654 360.000,326.094 360.000 C 326.534 360.000,327.593 359.471,328.447 358.825 C 329.301 358.179,329.640 357.651,329.200 357.651 C 328.760 357.651,327.701 358.179,326.847 358.825 M76.447 361.175 C 77.301 361.821,78.540 362.358,79.200 362.370 C 79.860 362.381,79.369 361.852,78.109 361.195 C 75.191 359.673,74.450 359.664,76.447 361.175 M318.000 363.200 C 317.728 363.640,316.717 364.013,315.753 364.028 C 313.573 364.064,309.319 366.329,311.353 366.372 C 312.097 366.387,312.928 366.040,313.200 365.600 C 313.472 365.160,314.504 364.800,315.494 364.800 C 317.322 364.800,321.197 362.472,319.447 362.425 C 318.923 362.411,318.272 362.760,318.000 363.200 M96.000 367.600 C 96.548 368.260,97.561 368.800,98.251 368.800 C 99.255 368.800,99.196 368.566,97.953 367.625 C 95.921 366.089,94.733 366.073,96.000 367.600 M302.400 367.600 C 301.131 368.326,300.853 368.754,301.640 368.772 C 302.322 368.787,303.222 368.475,303.640 368.078 C 304.058 367.680,305.120 367.182,306.000 366.970 L 307.600 366.586 306.000 366.521 C 305.120 366.486,303.500 366.971,302.400 367.600 M110.400 369.585 C 110.400 370.648,113.691 371.402,116.503 370.982 C 118.501 370.684,118.415 370.624,115.847 370.520 C 114.223 370.454,112.672 370.040,112.400 369.600 C 111.765 368.572,110.400 368.562,110.400 369.585 M288.542 369.324 C 288.254 369.613,286.664 370.112,285.009 370.432 L 282.000 371.016 285.302 371.108 C 287.356 371.165,288.980 370.747,289.600 370.000 C 290.557 368.847,289.619 368.248,288.542 369.324 " stroke="none" fill="#e2e2e2" fill-rule="evenodd"></path><path id="path4" d="M77.311 1.200 C 76.988 2.042,75.674 2.400,72.911 2.400 C 70.147 2.400,68.834 2.758,68.511 3.600 C 68.226 4.342,67.009 4.800,65.323 4.800 C 63.823 4.800,62.148 5.340,61.600 6.000 C 61.052 6.660,59.409 7.200,57.949 7.200 C 56.489 7.200,55.072 7.560,54.800 8.000 C 54.528 8.440,53.651 8.800,52.851 8.800 C 52.051 8.800,50.948 9.340,50.400 10.000 C 49.852 10.660,48.717 11.200,47.877 11.200 C 47.037 11.200,46.143 11.740,45.889 12.400 C 45.636 13.060,44.556 13.600,43.489 13.600 C 42.423 13.600,41.343 14.140,41.089 14.800 C 40.836 15.460,39.857 16.015,38.914 16.034 C 37.971 16.053,36.317 17.133,35.238 18.434 C 34.158 19.735,32.711 20.800,32.022 20.800 C 30.298 20.800,16.000 35.293,16.000 37.040 C 16.000 37.816,15.460 38.657,14.800 38.911 C 14.140 39.164,13.585 40.143,13.566 41.086 C 13.547 42.029,12.467 43.683,11.166 44.762 C 9.801 45.895,8.800 47.502,8.800 48.562 C 8.800 49.573,8.440 50.400,8.000 50.400 C 7.560 50.400,7.200 51.616,7.200 53.102 C 7.200 54.588,6.660 56.252,6.000 56.800 C 5.340 57.348,4.800 58.968,4.800 60.400 C 4.800 61.832,4.260 63.452,3.600 64.000 C 2.940 64.548,2.400 66.223,2.400 67.723 C 2.400 69.409,1.942 70.626,1.200 70.911 C -0.625 71.611,-0.625 324.389,1.200 325.089 C 2.079 325.427,2.400 326.813,2.400 330.277 C 2.400 333.503,2.781 335.320,3.600 336.000 C 4.359 336.630,4.800 338.395,4.800 340.800 C 4.800 343.205,5.241 344.970,6.000 345.600 C 6.660 346.148,7.200 347.812,7.200 349.298 C 7.200 350.784,7.560 352.000,8.000 352.000 C 8.440 352.000,8.800 352.694,8.800 353.543 C 8.800 354.391,9.340 355.626,10.000 356.286 C 10.660 356.946,11.200 358.547,11.200 359.845 C 11.200 361.142,11.740 362.652,12.400 363.200 C 13.060 363.748,13.600 364.804,13.600 365.548 C 13.600 366.292,14.680 367.935,16.000 369.200 C 17.320 370.465,18.400 372.079,18.400 372.787 C 18.400 373.496,19.840 375.481,21.600 377.200 C 23.360 378.919,24.800 380.834,24.800 381.456 C 24.800 382.940,30.678 388.800,32.166 388.800 C 32.801 388.800,34.167 389.700,35.200 390.800 C 36.233 391.900,37.669 392.800,38.390 392.800 C 39.111 392.800,40.735 393.880,42.000 395.200 C 43.265 396.520,44.963 397.600,45.775 397.600 C 46.586 397.600,47.457 398.140,47.711 398.800 C 48.118 399.861,65.779 400.000,200.000 400.000 C 334.221 400.000,351.882 399.861,352.289 398.800 C 352.543 398.140,353.437 397.600,354.277 397.600 C 355.117 397.600,356.252 397.060,356.800 396.400 C 357.348 395.740,358.409 395.200,359.159 395.200 C 359.908 395.200,361.367 394.300,362.400 393.200 C 363.433 392.100,364.794 391.200,365.423 391.200 C 366.893 391.200,381.600 376.480,381.600 375.009 C 381.600 374.399,382.680 372.865,384.000 371.600 C 385.320 370.335,386.400 368.692,386.400 367.948 C 386.400 367.204,386.940 366.148,387.600 365.600 C 388.260 365.052,388.800 363.972,388.800 363.200 C 388.800 362.428,389.340 361.348,390.000 360.800 C 390.660 360.252,391.200 358.588,391.200 357.102 C 391.200 355.616,391.560 354.400,392.000 354.400 C 392.440 354.400,392.800 353.489,392.800 352.375 C 392.800 351.261,393.340 350.143,394.000 349.889 C 394.728 349.610,395.200 348.400,395.200 346.812 C 395.200 345.373,395.740 343.748,396.400 343.200 C 397.168 342.562,397.600 340.792,397.600 338.277 C 397.600 335.524,397.959 334.212,398.800 333.889 C 400.626 333.189,400.626 64.411,398.800 63.711 C 398.058 63.426,397.600 62.209,397.600 60.523 C 397.600 59.023,397.060 57.348,396.400 56.800 C 395.740 56.252,395.200 55.282,395.200 54.645 C 395.200 54.007,394.660 52.946,394.000 52.286 C 393.340 51.626,392.800 50.391,392.800 49.543 C 392.800 48.694,392.440 48.000,392.000 48.000 C 391.560 48.000,391.200 47.306,391.200 46.457 C 391.200 45.609,390.660 44.374,390.000 43.714 C 389.340 43.054,388.800 42.024,388.800 41.424 C 388.800 40.824,387.180 38.743,385.200 36.800 C 383.220 34.857,381.600 32.695,381.600 31.996 C 381.600 30.397,375.945 24.800,374.329 24.800 C 373.666 24.800,371.719 23.360,370.000 21.600 C 368.281 19.840,366.301 18.400,365.600 18.400 C 364.899 18.400,363.442 17.335,362.362 16.034 C 361.283 14.733,359.629 13.653,358.686 13.634 C 357.743 13.615,356.764 13.060,356.511 12.400 C 356.257 11.740,355.177 11.200,354.111 11.200 C 353.044 11.200,351.964 10.660,351.711 10.000 C 351.424 9.252,350.204 8.800,348.472 8.800 C 346.944 8.800,345.472 8.440,345.200 8.000 C 344.928 7.560,344.051 7.200,343.251 7.200 C 342.451 7.200,341.348 6.660,340.800 6.000 C 340.162 5.232,338.392 4.800,335.877 4.800 C 333.124 4.800,331.812 4.441,331.489 3.600 C 331.166 2.758,329.853 2.400,327.089 2.400 C 324.326 2.400,323.012 2.042,322.689 1.200 C 321.989 -0.625,78.011 -0.625,77.311 1.200 M262.040 34.305 C 262.458 34.693,266.912 35.254,271.937 35.551 C 276.962 35.847,281.709 36.430,282.484 36.845 C 283.260 37.260,285.808 37.602,288.147 37.605 C 290.486 37.608,293.431 38.148,294.691 38.805 C 295.952 39.462,298.356 40.000,300.034 40.000 C 301.713 40.000,303.626 40.540,304.286 41.200 C 304.946 41.860,306.703 42.400,308.190 42.400 C 309.677 42.400,311.593 42.929,312.447 43.575 C 313.301 44.221,314.951 44.761,316.114 44.775 C 317.277 44.789,318.436 45.340,318.689 46.000 C 318.943 46.660,320.035 47.200,321.118 47.200 C 322.200 47.200,323.626 47.740,324.286 48.400 C 324.946 49.060,325.846 49.600,326.286 49.600 C 328.005 49.600,337.122 55.655,340.933 59.328 C 343.142 61.457,345.276 63.200,345.675 63.200 C 346.074 63.200,346.400 63.577,346.400 64.038 C 346.400 64.499,347.210 65.672,348.200 66.644 C 350.197 68.604,351.609 70.687,352.782 73.400 C 353.210 74.390,353.929 75.200,354.380 75.200 C 354.831 75.200,355.200 76.061,355.200 77.114 C 355.200 78.167,355.740 79.236,356.400 79.489 C 357.060 79.743,357.600 80.707,357.600 81.632 C 357.600 82.557,358.140 83.854,358.800 84.514 C 359.460 85.174,360.000 86.794,360.000 88.114 C 360.000 89.434,360.540 91.054,361.200 91.714 C 361.888 92.403,362.400 94.357,362.400 96.297 C 362.400 98.158,362.813 100.093,363.317 100.597 C 363.822 101.102,364.411 104.324,364.626 107.757 C 364.842 111.191,365.404 114.248,365.876 114.550 C 368.768 116.405,366.259 289.261,363.298 292.222 C 362.804 292.716,362.400 295.319,362.400 298.007 C 362.400 301.066,361.961 303.475,361.225 304.447 C 360.579 305.301,360.039 307.684,360.025 309.743 C 360.010 311.973,359.515 313.971,358.800 314.686 C 358.140 315.346,357.600 316.966,357.600 318.286 C 357.600 319.606,357.060 321.226,356.400 321.886 C 355.740 322.546,355.200 323.967,355.200 325.045 C 355.200 326.122,354.660 327.452,354.000 328.000 C 353.340 328.548,352.800 329.808,352.800 330.800 C 352.800 331.792,352.260 333.052,351.600 333.600 C 350.940 334.148,350.400 334.953,350.400 335.390 C 350.400 337.599,338.716 352.800,337.019 352.800 C 336.655 352.800,335.268 353.790,333.937 355.000 C 332.607 356.210,330.096 357.920,328.359 358.800 C 326.622 359.680,325.080 360.670,324.933 361.000 C 324.787 361.330,324.241 361.600,323.721 361.600 C 323.202 361.600,321.433 362.320,319.791 363.200 C 318.149 364.080,316.260 364.800,315.592 364.800 C 314.924 364.800,313.753 365.142,312.989 365.559 C 312.225 365.976,309.898 366.537,307.819 366.805 C 305.739 367.073,303.828 367.632,303.571 368.046 C 303.315 368.461,300.291 368.800,296.851 368.800 C 292.267 368.800,290.330 369.121,289.600 370.000 C 288.089 371.820,112.735 371.820,110.914 370.000 C 110.049 369.135,107.941 368.800,103.355 368.800 C 99.108 368.800,96.709 368.454,96.131 367.758 C 95.656 367.185,93.722 366.626,91.833 366.516 C 89.945 366.405,88.058 365.974,87.640 365.557 C 87.222 365.141,86.078 364.800,85.097 364.800 C 84.117 364.800,82.774 364.260,82.114 363.600 C 81.454 362.940,80.462 362.400,79.910 362.400 C 78.427 362.400,72.000 359.162,72.000 358.415 C 72.000 358.062,71.100 357.548,70.000 357.271 C 68.900 356.995,68.000 356.416,68.000 355.985 C 68.000 355.553,67.460 355.200,66.800 355.200 C 66.140 355.200,65.600 354.660,65.600 354.000 C 65.600 353.340,65.060 352.800,64.400 352.800 C 63.740 352.800,63.200 352.260,63.200 351.600 C 63.200 350.940,62.748 350.400,62.196 350.400 C 61.643 350.400,60.113 349.099,58.796 347.509 C 57.478 345.919,55.770 343.884,55.000 342.987 C 54.230 342.089,53.600 340.900,53.600 340.344 C 53.600 339.788,53.330 339.213,53.000 339.067 C 52.088 338.661,49.600 333.911,49.600 332.575 C 49.600 331.926,49.060 330.948,48.400 330.400 C 47.740 329.852,47.200 328.407,47.200 327.188 C 47.200 325.955,46.667 324.767,46.000 324.511 C 45.241 324.219,44.800 322.992,44.800 321.168 C 44.800 319.583,44.260 317.746,43.600 317.086 C 42.864 316.349,42.400 314.388,42.400 312.010 C 42.400 309.693,42.011 308.004,41.434 307.811 C 40.837 307.612,40.345 305.221,40.145 301.545 C 39.967 298.275,39.481 295.178,39.065 294.662 C 38.648 294.147,38.100 289.107,37.846 283.462 C 37.593 277.818,36.983 272.695,36.492 272.077 C 35.224 270.481,35.223 114.323,36.491 112.724 C 36.982 112.106,37.595 108.934,37.855 105.676 C 38.115 102.418,38.704 99.376,39.164 98.916 C 39.624 98.456,40.000 96.781,40.000 95.193 C 40.000 93.605,40.529 91.607,41.175 90.753 C 41.821 89.899,42.361 88.254,42.375 87.098 C 42.389 85.942,42.940 84.548,43.600 84.000 C 44.260 83.452,44.800 82.192,44.800 81.200 C 44.800 80.208,45.340 78.948,46.000 78.400 C 46.660 77.852,47.200 76.767,47.200 75.988 C 47.200 75.209,47.740 74.364,48.400 74.111 C 49.060 73.857,49.600 72.919,49.600 72.025 C 49.600 71.131,49.879 70.400,50.219 70.400 C 50.560 70.400,52.412 68.240,54.334 65.600 C 56.257 62.960,58.048 60.798,58.315 60.796 C 58.582 60.794,59.950 59.714,61.357 58.396 C 62.763 57.078,64.094 56.000,64.315 56.000 C 64.537 56.000,65.689 55.100,66.876 54.000 C 68.063 52.900,69.477 52.000,70.019 52.000 C 70.561 52.000,71.452 51.460,72.000 50.800 C 72.548 50.140,73.813 49.600,74.812 49.600 C 75.811 49.600,76.836 49.060,77.089 48.400 C 77.343 47.740,78.423 47.200,79.489 47.200 C 80.556 47.200,81.636 46.660,81.889 46.000 C 82.175 45.257,83.392 44.800,85.089 44.800 C 86.786 44.800,88.004 44.343,88.289 43.600 C 88.591 42.814,89.839 42.400,91.908 42.400 C 93.645 42.400,95.202 41.994,95.367 41.499 C 95.532 41.003,97.632 40.413,100.034 40.187 C 102.435 39.962,104.645 39.396,104.945 38.930 C 105.245 38.464,107.945 37.933,110.945 37.750 C 113.945 37.566,116.760 37.132,117.200 36.784 C 117.640 36.437,121.960 35.900,126.800 35.591 C 131.640 35.281,136.140 34.718,136.800 34.339 C 138.391 33.424,261.055 33.391,262.040 34.305 M148.183 54.537 C 147.600 55.120,143.222 55.609,136.623 55.829 C 130.780 56.024,125.572 56.529,125.048 56.950 C 124.525 57.371,121.285 57.918,117.848 58.165 C 114.412 58.412,111.188 58.939,110.685 59.335 C 110.181 59.731,107.921 60.274,105.661 60.542 C 103.402 60.809,101.363 61.337,101.129 61.714 C 100.896 62.091,99.511 62.400,98.051 62.400 C 96.591 62.400,94.948 62.940,94.400 63.600 C 93.852 64.260,92.412 64.800,91.200 64.800 C 89.988 64.800,88.548 65.340,88.000 66.000 C 87.452 66.660,86.346 67.200,85.542 67.200 C 84.738 67.200,83.792 67.650,83.440 68.200 C 83.088 68.750,81.540 69.900,80.000 70.755 C 78.460 71.610,76.812 72.690,76.338 73.155 C 75.865 73.620,74.245 75.109,72.738 76.465 C 69.835 79.078,68.482 80.875,67.218 83.800 C 66.790 84.790,66.071 85.600,65.620 85.600 C 65.169 85.600,64.800 86.346,64.800 87.257 C 64.800 88.169,64.260 89.454,63.600 90.114 C 62.940 90.774,62.400 92.347,62.400 93.610 C 62.400 94.873,62.090 96.097,61.712 96.331 C 61.333 96.565,60.793 98.440,60.511 100.497 C 60.229 102.555,59.684 104.635,59.301 105.119 C 58.918 105.604,58.422 109.358,58.199 113.463 C 57.976 117.568,57.390 121.330,56.897 121.823 C 55.571 123.149,55.627 257.022,56.954 259.453 C 57.529 260.504,58.043 266.142,58.244 273.600 C 58.429 280.420,58.892 286.389,59.275 286.864 C 59.657 287.339,60.210 290.849,60.503 294.664 C 60.796 298.479,61.343 301.600,61.718 301.600 C 62.093 301.600,62.400 303.331,62.400 305.447 C 62.400 307.591,62.920 309.982,63.575 310.847 C 64.221 311.701,64.761 313.761,64.775 315.425 C 64.791 317.358,65.233 318.616,66.000 318.911 C 66.669 319.168,67.200 320.357,67.200 321.600 C 67.200 322.843,67.731 324.032,68.400 324.289 C 69.060 324.543,69.600 325.443,69.600 326.289 C 69.600 327.136,70.140 328.036,70.800 328.289 C 71.460 328.543,72.000 329.117,72.000 329.566 C 72.000 330.566,74.141 333.254,76.737 335.514 C 77.803 336.441,79.333 337.830,80.137 338.600 C 80.942 339.370,81.960 340.000,82.400 340.000 C 82.840 340.000,83.200 340.360,83.200 340.800 C 83.200 341.240,83.876 341.600,84.702 341.600 C 85.528 341.600,86.652 342.140,87.200 342.800 C 87.748 343.460,88.983 344.000,89.945 344.000 C 90.907 344.000,92.393 344.529,93.247 345.175 C 94.101 345.821,96.304 346.361,98.143 346.375 C 99.981 346.389,101.990 346.904,102.606 347.521 C 103.381 348.295,106.285 348.728,111.998 348.921 C 117.695 349.113,120.372 349.511,120.601 350.200 C 121.129 351.789,278.014 351.593,280.800 350.000 C 282.076 349.271,285.262 348.837,289.600 348.803 C 294.270 348.766,296.886 348.381,297.953 347.575 C 298.807 346.929,300.787 346.389,302.353 346.375 C 303.919 346.361,305.899 345.821,306.753 345.175 C 307.607 344.529,309.317 344.000,310.553 344.000 C 311.789 344.000,312.800 343.709,312.800 343.353 C 312.800 342.997,314.776 341.827,317.192 340.753 C 319.607 339.679,321.587 338.530,321.592 338.200 C 321.596 337.870,322.140 337.600,322.800 337.600 C 323.460 337.600,324.000 337.060,324.000 336.400 C 324.000 335.740,324.540 335.200,325.200 335.200 C 325.860 335.200,326.400 334.824,326.400 334.365 C 326.400 333.906,327.300 332.560,328.400 331.373 C 329.500 330.187,330.400 328.751,330.400 328.183 C 330.400 327.615,330.940 326.943,331.600 326.689 C 332.260 326.436,332.800 325.356,332.800 324.289 C 332.800 323.223,333.340 322.143,334.000 321.889 C 334.674 321.631,335.200 320.440,335.200 319.172 C 335.200 317.930,335.740 316.374,336.400 315.714 C 337.060 315.054,337.600 313.430,337.600 312.104 C 337.600 310.779,337.943 309.482,338.363 309.223 C 338.783 308.963,339.369 306.602,339.666 303.976 C 339.964 301.349,340.482 299.200,340.818 299.200 C 341.155 299.200,341.688 295.870,342.004 291.800 C 342.319 287.730,342.849 284.040,343.181 283.600 C 343.513 283.160,343.994 276.897,344.249 269.683 C 344.514 262.207,345.076 256.204,345.557 255.723 C 346.725 254.555,346.738 123.858,345.570 122.690 C 345.114 122.234,344.525 118.652,344.262 114.730 C 343.998 110.809,343.495 107.231,343.143 106.780 C 342.791 106.329,342.252 104.071,341.946 101.762 C 341.640 99.453,341.077 97.371,340.695 97.135 C 340.313 96.899,340.000 95.972,340.000 95.076 C 340.000 93.640,338.933 91.109,336.681 87.200 C 336.301 86.540,335.749 85.460,335.455 84.800 C 335.161 84.140,334.444 83.312,333.860 82.960 C 333.277 82.608,332.794 81.888,332.787 81.360 C 332.775 80.493,330.735 78.454,323.220 71.800 C 321.853 70.590,320.018 69.600,319.142 69.600 C 318.266 69.600,317.343 69.060,317.089 68.400 C 316.836 67.740,315.806 67.200,314.800 67.200 C 313.794 67.200,312.764 66.660,312.511 66.000 C 312.247 65.314,311.054 64.800,309.723 64.800 C 308.443 64.800,306.948 64.260,306.400 63.600 C 305.828 62.911,304.083 62.400,302.302 62.400 C 300.596 62.400,299.200 62.040,299.200 61.600 C 299.200 61.160,297.953 60.800,296.428 60.800 C 294.903 60.800,292.113 60.299,290.228 59.687 C 288.343 59.075,284.159 58.373,280.931 58.128 C 277.703 57.882,274.643 57.345,274.131 56.934 C 273.619 56.523,268.340 56.028,262.400 55.835 C 256.345 55.638,250.832 55.069,249.853 54.542 C 247.353 53.194,149.529 53.191,148.183 54.537 M158.047 118.775 C 158.901 119.421,160.564 119.961,161.743 119.975 C 162.921 119.989,164.426 120.540,165.086 121.200 C 165.746 121.860,166.683 122.400,167.169 122.400 C 167.655 122.400,176.771 131.252,187.427 142.071 C 200.030 154.867,206.890 161.297,207.059 160.471 C 207.201 159.772,207.831 159.200,208.459 159.200 C 209.086 159.200,209.600 158.660,209.600 158.000 C 209.600 157.340,210.140 156.800,210.800 156.800 C 211.460 156.800,212.000 156.522,212.000 156.183 C 212.000 155.151,218.880 148.000,219.873 148.000 C 220.383 148.000,220.800 147.460,220.800 146.800 C 220.800 146.140,221.340 145.600,222.000 145.600 C 222.660 145.600,223.200 145.060,223.200 144.400 C 223.200 143.740,223.740 143.200,224.400 143.200 C 225.060 143.200,225.600 142.660,225.600 142.000 C 225.600 141.340,226.140 140.800,226.800 140.800 C 227.460 140.800,228.000 140.449,228.000 140.021 C 228.000 139.006,235.006 132.000,236.021 132.000 C 236.449 132.000,236.800 131.460,236.800 130.800 C 236.800 130.140,237.340 129.600,238.000 129.600 C 238.660 129.600,239.200 129.060,239.200 128.400 C 239.200 127.740,239.740 127.200,240.400 127.200 C 241.060 127.200,241.600 126.660,241.600 126.000 C 241.600 125.340,242.140 124.800,242.800 124.800 C 243.460 124.800,244.009 124.350,244.020 123.800 C 244.042 122.678,248.927 120.014,251.033 119.975 C 251.785 119.961,253.099 119.421,253.953 118.775 C 254.849 118.097,257.239 117.600,259.600 117.600 C 261.961 117.600,264.351 118.097,265.247 118.775 C 266.101 119.421,267.415 119.961,268.167 119.975 C 270.273 120.014,275.158 122.678,275.180 123.800 C 275.191 124.350,275.740 124.800,276.400 124.800 C 277.060 124.800,277.600 125.340,277.600 126.000 C 277.600 126.660,277.960 127.200,278.400 127.200 C 278.840 127.200,281.360 129.360,284.000 132.000 C 286.640 134.640,288.800 137.160,288.800 137.600 C 288.800 138.040,289.340 138.400,290.000 138.400 C 290.660 138.400,291.200 138.966,291.200 139.657 C 291.200 140.349,291.740 141.454,292.400 142.114 C 293.060 142.774,293.600 144.519,293.600 145.990 C 293.600 147.462,293.983 148.794,294.452 148.951 C 296.012 149.471,296.328 155.780,294.903 157.955 C 294.186 159.049,293.600 161.216,293.600 162.772 C 293.600 164.752,293.240 165.600,292.400 165.600 C 291.725 165.600,291.200 166.315,291.200 167.236 C 291.200 168.306,284.558 175.500,272.000 188.033 C 261.440 198.572,252.800 207.410,252.800 207.673 C 252.800 207.936,260.900 216.234,270.800 226.114 C 280.700 235.994,288.800 244.420,288.800 244.839 C 288.800 245.257,289.340 245.600,290.000 245.600 C 290.660 245.600,291.200 246.281,291.200 247.114 C 291.200 247.947,291.740 248.836,292.400 249.089 C 293.120 249.366,293.611 250.600,293.628 252.175 C 293.644 253.619,294.171 255.700,294.800 256.800 C 296.285 259.398,296.283 262.238,294.795 265.091 C 294.138 266.352,293.600 268.433,293.600 269.717 C 293.600 271.053,293.087 272.247,292.400 272.511 C 291.740 272.764,291.200 273.654,291.200 274.488 C 291.200 276.280,275.216 292.433,272.631 293.254 C 271.665 293.560,270.382 294.304,269.780 294.906 C 268.141 296.545,250.974 296.455,249.600 294.800 C 249.052 294.140,248.250 293.600,247.817 293.600 C 246.499 293.600,240.796 288.749,234.026 281.871 C 230.492 278.280,222.964 270.630,217.297 264.871 C 211.630 259.112,206.708 254.400,206.358 254.400 C 205.451 254.400,172.800 287.135,172.800 288.045 C 172.800 288.460,172.350 288.815,171.800 288.834 C 171.250 288.853,169.917 289.933,168.838 291.234 C 167.756 292.538,166.088 293.600,165.123 293.600 C 164.160 293.600,163.164 294.140,162.911 294.800 C 162.232 296.569,144.168 296.569,143.489 294.800 C 143.236 294.140,142.156 293.600,141.089 293.600 C 140.023 293.600,138.943 293.060,138.689 292.400 C 138.436 291.740,137.727 291.200,137.114 291.200 C 136.501 291.200,136.000 290.660,136.000 290.000 C 136.000 289.340,135.652 288.800,135.228 288.800 C 134.182 288.800,129.600 284.262,129.600 283.227 C 129.600 282.772,129.060 282.400,128.400 282.400 C 127.740 282.400,127.200 281.860,127.200 281.200 C 127.200 280.540,126.660 280.000,126.000 280.000 C 125.340 280.000,124.800 279.460,124.800 278.800 C 124.800 278.140,124.260 277.600,123.600 277.600 C 122.940 277.600,122.400 277.099,122.400 276.486 C 122.400 275.873,121.860 275.164,121.200 274.911 C 120.540 274.657,120.000 273.569,120.000 272.492 C 120.000 271.415,119.550 270.383,119.000 270.200 C 115.819 269.141,118.485 247.200,121.795 247.200 C 122.128 247.200,122.400 246.649,122.400 245.975 C 122.400 245.301,122.940 244.543,123.600 244.289 C 124.260 244.036,124.800 243.327,124.800 242.714 C 124.800 242.101,125.340 241.600,126.000 241.600 C 126.660 241.600,127.200 241.060,127.200 240.400 C 127.200 239.740,127.740 239.200,128.400 239.200 C 129.060 239.200,129.600 238.660,129.600 238.000 C 129.600 237.340,129.934 236.800,130.342 236.800 C 131.257 236.800,140.800 227.187,140.800 226.266 C 140.800 225.900,141.340 225.600,142.000 225.600 C 142.660 225.600,143.200 225.060,143.200 224.400 C 143.200 223.740,143.740 223.200,144.400 223.200 C 145.060 223.200,145.600 222.660,145.600 222.000 C 145.600 221.340,145.927 220.800,146.326 220.800 C 147.363 220.800,159.096 208.968,159.371 207.644 C 159.497 207.037,156.810 203.835,153.400 200.528 C 149.990 197.221,147.200 194.129,147.200 193.658 C 147.200 193.186,146.930 192.794,146.600 192.786 C 145.921 192.771,138.400 185.858,138.400 185.249 C 138.400 184.802,132.901 179.200,132.463 179.200 C 131.938 179.200,124.800 171.932,124.766 171.363 C 124.747 171.053,123.667 169.917,122.366 168.838 C 121.048 167.745,120.000 166.091,120.000 165.104 C 120.000 164.130,119.550 163.183,119.000 163.000 C 117.349 162.450,117.118 148.454,118.720 146.010 C 119.424 144.936,120.000 143.492,120.000 142.803 C 120.000 142.114,120.540 141.343,121.200 141.089 C 121.860 140.836,122.410 140.037,122.422 139.314 C 122.434 138.591,123.514 136.950,124.822 135.667 C 126.130 134.383,127.200 133.033,127.200 132.667 C 127.200 132.300,127.740 132.000,128.400 132.000 C 129.060 132.000,129.600 131.460,129.600 130.800 C 129.600 130.140,130.140 129.600,130.800 129.600 C 131.460 129.600,132.000 129.060,132.000 128.400 C 132.000 127.740,132.348 127.200,132.772 127.200 C 133.197 127.200,134.650 126.120,136.000 124.800 C 137.350 123.480,138.944 122.400,139.542 122.400 C 140.140 122.400,140.836 121.860,141.089 121.200 C 141.358 120.499,142.557 120.000,143.975 120.000 C 145.309 120.000,146.400 119.666,146.400 119.259 C 146.400 117.457,155.789 117.067,158.047 118.775 M147.489 132.400 C 147.236 133.060,146.748 133.600,146.405 133.600 C 145.537 133.600,133.600 145.617,133.600 146.490 C 133.600 146.881,133.060 147.200,132.400 147.200 C 131.433 147.200,131.200 148.448,131.200 153.628 L 131.200 160.055 136.800 165.545 C 139.880 168.565,142.400 171.432,142.400 171.918 C 142.400 172.403,142.940 172.800,143.600 172.800 C 144.260 172.800,144.800 173.340,144.800 174.000 C 144.800 174.660,145.340 175.200,146.000 175.200 C 146.660 175.200,147.200 175.740,147.200 176.400 C 147.200 177.060,147.551 177.600,147.980 177.600 C 149.070 177.600,158.400 186.838,158.400 187.917 C 158.400 188.403,158.940 188.800,159.600 188.800 C 160.260 188.800,160.800 189.340,160.800 190.000 C 160.800 190.660,161.340 191.200,162.000 191.200 C 162.660 191.200,163.200 191.740,163.200 192.400 C 163.200 193.060,163.551 193.600,163.980 193.600 C 165.070 193.600,174.400 202.838,174.400 203.917 C 174.400 204.403,174.940 204.800,175.600 204.800 C 176.404 204.800,176.800 205.604,176.800 207.239 C 176.800 209.363,174.013 212.468,155.200 231.303 C 143.320 243.197,133.600 253.260,133.600 253.664 C 133.600 254.069,133.060 254.400,132.400 254.400 C 131.433 254.400,131.200 255.644,131.200 260.800 C 131.200 264.450,131.537 267.200,131.985 267.200 C 132.416 267.200,132.995 268.100,133.271 269.200 C 133.548 270.300,134.274 271.200,134.887 271.200 C 135.499 271.200,136.000 271.740,136.000 272.400 C 136.000 273.060,136.368 273.600,136.817 273.600 C 137.267 273.600,139.646 275.580,142.105 278.000 C 144.564 280.420,147.231 282.400,148.031 282.400 C 148.831 282.400,150.026 282.940,150.686 283.600 C 151.947 284.861,155.200 285.261,155.200 284.154 C 155.200 283.799,156.560 282.908,158.222 282.175 C 160.185 281.309,168.861 273.129,182.992 258.821 C 204.547 236.996,208.800 233.564,208.800 238.000 C 208.800 238.660,209.340 239.200,210.000 239.200 C 210.660 239.200,211.200 239.740,211.200 240.400 C 211.200 241.060,211.560 241.600,212.000 241.600 C 212.440 241.600,214.960 243.760,217.600 246.400 C 220.240 249.040,222.400 251.560,222.400 252.000 C 222.400 252.440,222.940 252.800,223.600 252.800 C 224.260 252.800,224.800 253.340,224.800 254.000 C 224.800 254.660,225.340 255.200,226.000 255.200 C 226.660 255.200,227.200 255.740,227.200 256.400 C 227.200 257.060,227.740 257.600,228.400 257.600 C 229.060 257.600,229.600 258.140,229.600 258.800 C 229.600 259.460,229.951 260.000,230.379 260.000 C 231.394 260.000,238.400 267.006,238.400 268.021 C 238.400 268.449,238.940 268.800,239.600 268.800 C 240.260 268.800,240.800 269.340,240.800 270.000 C 240.800 270.660,241.340 271.200,242.000 271.200 C 242.660 271.200,243.200 271.740,243.200 272.400 C 243.200 273.060,243.740 273.600,244.400 273.600 C 245.060 273.600,245.600 274.140,245.600 274.800 C 245.600 275.460,245.974 276.000,246.432 276.000 C 246.890 276.000,248.634 277.440,250.308 279.200 C 252.022 281.002,254.106 282.400,255.076 282.400 C 256.075 282.400,256.800 282.905,256.800 283.600 C 256.800 284.389,257.589 284.800,259.102 284.800 C 260.368 284.800,261.852 284.260,262.400 283.600 C 262.948 282.940,263.934 282.400,264.592 282.400 C 265.249 282.400,267.185 280.960,268.893 279.200 C 270.601 277.440,272.359 276.000,272.799 276.000 C 273.240 276.000,273.600 275.460,273.600 274.800 C 273.600 274.140,274.140 273.600,274.800 273.600 C 275.460 273.600,276.000 273.270,276.000 272.867 C 276.000 272.464,277.440 270.590,279.200 268.702 C 282.341 265.335,284.100 256.800,281.654 256.800 C 281.244 256.800,280.668 256.044,280.375 255.121 C 280.082 254.198,278.438 252.038,276.721 250.321 C 275.004 248.604,273.600 246.840,273.600 246.400 C 273.600 245.960,273.060 245.600,272.400 245.600 C 271.740 245.600,271.200 245.060,271.200 244.400 C 271.200 243.740,270.660 243.200,270.000 243.200 C 269.340 243.200,268.800 242.660,268.800 242.000 C 268.800 241.340,268.260 240.800,267.600 240.800 C 266.940 240.800,266.400 240.260,266.400 239.600 C 266.400 238.940,266.130 238.394,265.800 238.386 C 264.843 238.365,257.600 231.329,257.600 230.422 C 257.600 229.970,257.060 229.600,256.400 229.600 C 255.740 229.600,255.200 229.060,255.200 228.400 C 255.200 227.740,254.660 227.200,254.000 227.200 C 253.340 227.200,252.800 226.660,252.800 226.000 C 252.800 225.340,252.260 224.800,251.600 224.800 C 250.940 224.800,250.400 224.260,250.400 223.600 C 250.400 222.940,250.038 222.400,249.595 222.400 C 248.584 222.400,241.600 215.371,241.600 214.353 C 241.600 213.939,241.060 213.600,240.400 213.600 C 239.740 213.600,239.200 213.060,239.200 212.400 C 239.200 211.740,238.660 211.200,238.000 211.200 C 237.333 211.200,236.800 210.489,236.800 209.600 C 236.800 208.720,236.440 208.000,236.000 208.000 C 235.560 208.000,235.200 207.460,235.200 206.800 C 235.200 206.140,235.560 205.600,236.000 205.600 C 236.440 205.600,236.800 205.240,236.800 204.800 C 236.800 204.084,239.631 200.800,240.247 200.800 C 240.603 200.800,273.600 167.920,273.600 167.566 C 273.600 167.403,275.580 165.274,278.000 162.835 C 282.261 158.540,284.729 149.600,281.654 149.600 C 281.244 149.600,280.654 148.800,280.344 147.823 C 280.034 146.846,277.850 144.162,275.490 141.858 C 273.131 139.555,271.200 137.294,271.200 136.835 C 271.200 136.376,270.660 136.000,270.000 136.000 C 269.340 136.000,268.800 135.631,268.800 135.180 C 268.800 134.729,267.900 134.018,266.800 133.600 C 265.700 133.182,264.800 132.471,264.800 132.020 C 264.800 131.544,262.617 131.200,259.600 131.200 C 255.511 131.200,254.400 131.456,254.400 132.400 C 254.400 133.060,253.929 133.600,253.353 133.600 C 252.777 133.600,242.681 143.320,230.918 155.200 C 219.155 167.080,209.186 176.800,208.765 176.800 C 208.344 176.800,208.000 177.160,208.000 177.600 C 208.000 178.040,207.460 178.400,206.800 178.400 C 206.140 178.400,205.600 178.040,205.600 177.600 C 205.600 177.160,204.880 176.800,204.000 176.800 C 203.111 176.800,202.400 176.267,202.400 175.600 C 202.400 174.940,202.028 174.400,201.573 174.400 C 200.538 174.400,196.000 169.818,196.000 168.772 C 196.000 168.348,195.460 168.000,194.800 168.000 C 194.140 168.000,193.600 167.460,193.600 166.800 C 193.600 166.140,193.060 165.600,192.400 165.600 C 191.740 165.600,191.200 165.060,191.200 164.400 C 191.200 163.740,190.660 163.200,190.000 163.200 C 189.340 163.200,188.800 162.660,188.800 162.000 C 188.800 161.340,188.260 160.800,187.600 160.800 C 186.940 160.800,186.400 160.260,186.400 159.600 C 186.400 158.940,185.950 158.383,185.400 158.363 C 184.850 158.343,183.320 156.919,182.000 155.200 C 180.680 153.481,179.150 152.057,178.600 152.037 C 178.050 152.017,177.600 151.460,177.600 150.800 C 177.600 150.140,177.060 149.600,176.400 149.600 C 175.740 149.600,175.200 149.060,175.200 148.400 C 175.200 147.740,174.660 147.200,174.000 147.200 C 173.340 147.200,172.800 146.660,172.800 146.000 C 172.800 145.340,172.260 144.800,171.600 144.800 C 170.940 144.800,170.400 144.480,170.400 144.089 C 170.400 143.126,163.320 136.000,162.363 136.000 C 161.943 136.000,161.600 135.499,161.600 134.887 C 161.600 134.274,160.700 133.548,159.600 133.271 C 158.500 132.995,157.600 132.416,157.600 131.985 C 157.600 130.626,148.019 131.020,147.489 132.400 " stroke="none" fill="#ffffff" fill-rule="evenodd"></path></g></svg>