<?xml version="1.0" encoding="UTF-8" standalone="no"?>
<svg
   xmlns:dc="http://purl.org/dc/elements/1.1/"
   xmlns:cc="http://creativecommons.org/ns#"
   xmlns:rdf="http://www.w3.org/1999/02/22-rdf-syntax-ns#"
   xmlns:svg="http://www.w3.org/2000/svg"
   xmlns="http://www.w3.org/2000/svg"
   xmlns:sodipodi="http://sodipodi.sourceforge.net/DTD/sodipodi-0.dtd"
   xmlns:inkscape="http://www.inkscape.org/namespaces/inkscape"
   version="1.0"
   width="302.54016"
   height="219.38116"
   id="0"
   inkscape:version="0.47 r22583"
   sodipodi:docname="BULLE04_EMPTY.svg">
  <metadata
     id="metadata13">
    <rdf:RDF>
      <cc:Work
         rdf:about="">
        <dc:format>image/svg+xml</dc:format>
        <dc:type
           rdf:resource="http://purl.org/dc/dcmitype/StillImage" />
        <dc:title></dc:title>
      </cc:Work>
    </rdf:RDF>
  </metadata>
  <defs
     id="defs11">
    <inkscape:perspective
       sodipodi:type="inkscape:persp3d"
       inkscape:vp_x="0 : 112.90748 : 1"
       inkscape:vp_y="0 : 1000 : 0"
       inkscape:vp_z="308.97638 : 112.90748 : 1"
       inkscape:persp3d-origin="154.48819 : 75.271652 : 1"
       id="perspective15" />
  </defs>
  <sodipodi:namedview
     pagecolor="#ffffff"
     bordercolor="#666666"
     borderopacity="1"
     objecttolerance="10"
     gridtolerance="10"
     guidetolerance="10"
     inkscape:pageopacity="0"
     inkscape:pageshadow="2"
     inkscape:window-width="1819"
     inkscape:window-height="1109"
     id="namedview9"
     showgrid="false"
     inkscape:zoom="1.0451035"
     inkscape:cx="-13.30692"
     inkscape:cy="109.73271"
     inkscape:window-x="0"
     inkscape:window-y="0"
     inkscape:window-maximized="0"
     inkscape:current-layer="0" />
  <path
     d="m 221.35394,165.50128 -9.95474,2.82532 -10.29218,2.3193 -10.50309,1.8976 -10.75617,1.43375 -10.88272,1.01205 -11.05144,0.50603 -6.62243,0.0843 -7.50823,-0.12651 -7.42387,-0.29518 -7.29733,-0.5482 -7.17078,-0.71687 -7.08642,-0.92772 -6.9177,-1.09639 -6.83333,-1.30724 -6.664609,-1.47592 -6.453704,-1.60242 -6.369343,-1.81326 -6.158437,-2.02412 -5.989713,-2.15061 -5.778807,-2.27713 -10.96708,-5.06028 -5.146091,-2.69882 -4.977367,-2.90966 -4.682099,-2.99399 -4.513375,-3.16268 -4.218108,-3.20484 -3.92284,-3.37352 -3.711935,-3.45786 -3.416667,-3.62653 -3.121399,-3.6687 -2.868314,-3.75305 L 9.5627584,117.42859 7.3271614,113.4647 5.471194,109.50082 3.8683131,105.36826 2.6450619,101.19353 1.7170783,96.934462 1.1687243,92.675391 1,88.289815 1.1687243,83.90424 l 0.548354,-4.259068 0.9279836,-4.259068 1.2232512,-4.174731 1.6028809,-4.132561 1.8559674,-3.963885 2.235597,-3.963886 2.5308636,-3.879547 2.868314,-3.795209 3.121399,-3.626534 3.416667,-3.626533 3.711935,-3.457857 3.92284,-3.37352 4.218108,-3.204843 4.513375,-3.162675 4.682099,-2.993998 4.977367,-2.909661 5.146091,-2.740984 10.96708,-5.018111 5.778807,-2.277125 5.989713,-2.150619 6.158437,-2.024111 6.369343,-1.8132673 6.453704,-1.644591 6.664609,-1.4337456 6.83333,-1.3072388 6.9177,-1.0963938 7.08642,-0.9277178 7.17078,-0.7168729 7.29733,-0.5481969 L 143.78294,1.126507 151.29117,1 l 7.46605,0.126507 7.42387,0.2951829 7.29733,0.5481969 7.17078,0.7168729 7.08642,0.9277178 6.9177,1.0963938 6.83333,1.3072388 6.66461,1.4337456 6.4537,1.644591 6.36935,1.8132673 6.15843,2.024111 5.98972,2.150619 5.7788,2.277125 10.96708,5.018111 5.1461,2.740984 4.97736,2.909661 4.6821,2.993998 4.51338,3.162675 4.2181,3.204843 3.92284,3.37352 3.71194,3.457857 3.41667,3.626533 3.1214,3.626534 2.86831,3.795209 2.53086,3.879547 2.2356,3.963886 1.85597,3.963885 1.60288,4.132561 1.22325,4.174731 0.92798,4.259068 0.54836,4.259068 0.16872,4.385575 -0.16872,4.2169 -0.46399,4.132561 -0.80144,4.132564 -1.09671,4.00605 -1.39198,4.00605 -1.72942,3.83738 -3.16358,5.73499 -3.88066,5.5663 -4.55556,5.35546 -5.27263,5.22896 -5.90535,4.97594 -4.30247,3.28918 -9.61729,6.28318 -0.2109,-0.21084 27.96605,69.53667 -65.67594,-52.96426 0.0844,0.0843 z"
     style="fill:#ffffff;fill-opacity:1;fill-rule:evenodd;stroke:#000000;stroke-width:2;stroke-linecap:round;stroke-linejoin:round;stroke-miterlimit:4;stroke-opacity:1;stroke-dasharray:none"
     id="2" />
</svg>
