<?xml version="1.0" encoding="utf-8"?>
<!-- Generator: Adobe Illustrator 18.1.1, SVG Export Plug-In . SVG Version: 6.00 Build 0)  -->
<svg version="1.1" id="Layer_1" xmlns="http://www.w3.org/2000/svg" xmlns:xlink="http://www.w3.org/1999/xlink" x="0px" y="0px"
	 viewBox="0 0 100 100" style="enable-background:new 0 0 100 100;" xml:space="preserve">
<style type="text/css">
	.st0{fill:#545758;}
	.st1{fill:#FAC312;}
</style>
<g>
	<path class="st0" d="M90.7,17.6H68c-5.1,0-10.9,3.9-13,8.6c0,0,0,0,0,0l-10.2,24c0,0.1-0.1,0.1-0.1,0.2l-3.5,8.4h0v15.6h3.3
		c0-6.9,5.6-12.5,12.4-12.5c6.9,0,12.5,5.6,12.5,12.5h6.2c0.8-5.1,5.3-9,10.6-9c5.3,0,9.7,3.9,10.6,9h3.1V26.9
		C100,21.8,95.8,17.6,90.7,17.6z M94.6,53.4H64.1L61.8,51l4.2-4.2l3.7,3.7c0.5,0.5,1.2,0.8,1.9,0.8c0.7,0,1.4-0.3,1.9-0.8
		c1.1-1.1,1.1-2.8,0-3.9L63,36.2c-1.1-1.1-2.8-1.1-3.9,0c-1.1,1.1-1.1,2.8,0,3.9l3.7,3.7l-4.1,4.1L53.9,43L60,28.6l0.1-0.3
		c1.2-2.7,5-5.3,7.9-5.3h22.6c2.1,0,3.9,1.7,3.9,3.9V53.4z"/>
	<g>
		<circle class="st1" cx="57.1" cy="74.4" r="8"/>
		<path class="st1" d="M92.5,76.1c0,3.5-2.8,6.2-6.2,6.2c-3.5,0-6.2-2.8-6.2-6.2c0-0.6,0.1-1.2,0.2-1.7c0.8-2.6,3.2-4.5,6-4.5
			c2.8,0,5.3,1.9,6,4.5C92.4,75,92.5,75.5,92.5,76.1z"/>
	</g>
	<polygon class="st0" points="35.5,17.6 35.5,74.4 28,74.4 28,49.9 0,49.9 0,42.1 28,42.1 28,17.6 	"/>
	<polygon class="st1" points="22.3,17.9 22.3,36.1 0,36.1 0,17.9 9,17.9 9,25.9 13.3,25.9 13.3,17.9 	"/>
</g>
</svg>
