<!--?xml version="1.0" encoding="utf-8"?-->
<!-- Generator: Adobe Illustrator 19.1.1, SVG Export Plug-In . SVG Version: 6.00 Build 0)  -->
<svg version="1.1" id="_x31_0" xmlns="http://www.w3.org/2000/svg" xmlns:xlink="http://www.w3.org/1999/xlink" x="0px" y="0px" viewBox="0 0 512 512" style="width: 256px; height: 256px; opacity: 1;" xml:space="preserve">
<style type="text/css">
	.st0{fill:#374149;}
</style>
<g>
	<path class="st0" d="M256.027,288.031l52.89-90.301c8.543-14.664,24.391-23.718,41.367-23.718h124.398h0.219v75.038v0.23v0.161
		h30.871v-82.738c0-13.016-10.598-23.562-23.614-23.562H350.285c-27.988,0-53.867,14.816-68.019,39l-41.149,70.222l-20.902,35.504
		h0.094l-0.094,0.164H256.027z" style="fill: rgb(75, 75, 75);"></path>
	<path class="st0" d="M137.274,52.43H7v121.207v0.371v0.156h130.274V52.43z M112.734,149.562v0.058H31.539V77.023h29.844v36.004
		v0.114v0.156h20.398h0.125h0.16V77.023h30.668V149.562z" style="fill: rgb(75, 75, 75);"></path>
	<path class="st0" d="M500.039,362.496c1.886,1.086,3.801,2.129,5.574,3.434v-0.098c0.05,0.035,0.109,0.058,0.16,0.094v-47.027
		v-48.879h-30.871h-118.39v18.012v20.578h-29.809l-14.855-0.078l11.992-20.5l12.09-20.738l8.906-15.211l0.019-0.035l0.082-0.136
		l-4.222-2.469l-15.742-9.211l-27.938,47.801l-6.019,10.289l-5.199,8.898l1.312,0.774l0.84,0.618H211.16
		c-0.977,0-2.008,0-2.984,0.05c-9.606,0.492-18.52,3.438-26.332,8.082c-1.227,0.699-2.481,1.332-3.664,2.117v-12v-11.523V117.621
		h-24.668l-0.074-0.004v0.004h-0.16v75.223H1.094H0.16H0v37.898v0.117v0.16h109.285v185.582v0.566v0.16h5.402h18.008h0.618h9.671
		h10.294h24.902h8.129c0-34.629,28.195-62.824,62.824-62.824c34.68,0,62.82,28.195,62.82,62.824h94.93
		c0-34.629,28.195-62.824,62.824-62.824C480.75,354.504,491.016,357.477,500.039,362.496z M153.278,313.652v16.926v35.914v15.23
		v10.754h-10.294h-9.671v-35.555V231.019h19.965V313.652z" style="fill: rgb(75, 75, 75);"></path>
	<path class="st0" d="M505.774,395.254c-7.406-12.09-20.786-20.168-36.066-20.168c-23.309,0-42.242,18.883-42.242,42.242
		c0,3.551,0.465,6.996,1.286,10.289c0.874,3.657,2.266,7.102,4.066,10.294c7.202,12.914,21.042,21.66,36.89,21.66
		c15.898,0,29.738-8.746,36.942-21.66c1.801-3.192,3.191-6.637,4.066-10.294c0.824-3.293,1.285-6.738,1.285-10.289
		C512,409.25,509.738,401.687,505.774,395.254z" style="fill: rgb(75, 75, 75);"></path>
	<path class="st0" d="M249.133,375.086c-23.359,0-42.242,18.883-42.242,42.242c0,3.551,0.461,6.996,1.286,10.289
		c0.874,3.657,2.266,7.102,4.066,10.294c7.203,12.914,20.992,21.66,36.89,21.66s29.687-8.746,36.89-21.66
		c1.801-3.192,3.192-6.637,4.062-10.294c0.825-3.293,1.29-6.738,1.29-10.289C291.375,393.969,272.492,375.086,249.133,375.086z" style="fill: rgb(75, 75, 75);"></path>
</g>
</svg>
