<?xml version="1.0" encoding="UTF-8" standalone="no"?>
<!-- Created with Inkscape (http://www.inkscape.org/) -->
<svg
   xmlns:svg="http://www.w3.org/2000/svg"
   xmlns="http://www.w3.org/2000/svg"
   version="1.0"
   width="878"
   height="676"
   viewBox="0 0 878 676"
   id="svg2688"
   xml:space="preserve"><defs
   id="defs2715" />

<g
   id="Layer_1">
	<path
   d="M 818.401,482.096 C 817.587,481.296 816.933,481.083 816.505,480.92 C 815.267,480.557 815.026,480.67 814.63,480.634 C 813.347,480.651 811.951,480.829 809.6,481.111 C 793.698,483.1 741.914,490.919 694.171,490.917 C 682.119,490.917 670.345,490.42 659.529,489.217 C 553.835,477.414 491.298,436.085 443.028,390.203 C 440.39,387.696 438.662,385.574 437.69,383.947 C 436.706,382.308 436.501,381.264 436.503,380.669 C 436.518,380.104 436.617,379.735 437.07,379.048 C 437.833,377.865 440.071,376.118 443.324,374.42 C 448.184,371.818 455.016,369.185 461.71,365.732 C 468.388,362.255 475.12,357.928 479.596,351.202 C 493.214,330.58 493.531,310.504 465.96,293.105 C 458.694,288.499 450.363,285.194 442.681,281.501 C 434.783,277.722 410.278,265.152 386.237,251.097 C 374.214,244.072 362.282,236.657 352.612,229.817 C 342.962,223.046 335.498,216.555 332.882,212.55 C 326.849,203.761 324.95,191.079 320.861,177.561 C 322.165,177.165 323.277,176.826 324.172,176.545 C 325.433,176.145 326.145,175.922 326.827,175.658 C 330.836,174.044 334.135,171.253 336.725,167.981 C 339.311,164.694 341.211,160.89 342.222,156.915 C 342.651,155.21 342.811,153.484 342.811,151.743 C 342.785,146.069 341.161,140.048 339.194,134.293 C 337.213,128.562 334.821,123.177 333.039,119.326 C 330.053,112.888 326.724,108.214 322.511,105.087 C 318.305,101.944 313.374,100.761 308.554,100.794 C 307.808,100.794 307.054,100.826 306.296,100.873 C 288.574,83.209 255.098,52.156 237.551,34.679 C 237.217,34.189 236.806,33.74 236.294,33.377 C 234.1,31.823 231.122,32.258 229.425,34.28 C 216.217,38.631 175.516,52.301 136.382,65.911 C 115.31,73.24 94.713,80.542 79.112,86.363 C 71.31,89.275 64.762,91.811 59.982,93.819 C 57.585,94.825 55.639,95.694 54.13,96.45 C 53.372,96.831 52.727,97.181 52.129,97.558 C 51.516,97.998 50.996,98.2 50.09,99.404 C 49.318,100.59 49.217,101.4 49.071,102.178 C 48.956,102.95 48.924,103.694 48.922,104.514 C 48.934,108.137 49.637,113.504 50.821,120.626 C 54.972,145.4 65.259,190.281 74.752,229.117 C 79.497,248.528 84.039,266.4 87.514,279.45 C 89.251,285.975 90.721,291.29 91.825,295.025 C 92.333,296.746 92.759,298.107 93.122,299.169 C 93.014,299.19 92.903,299.202 92.795,299.223 C 89.865,299.817 87.086,300.665 84.712,302.359 L 84.712,302.36 C 75.625,308.952 71.346,319.096 71.362,328.898 C 71.364,339.195 76.002,349.437 84.957,355.346 C 90.802,359.195 96.616,361.003 102.065,360.997 C 102.073,360.997 102.08,360.997 102.088,360.997 C 110.977,360.997 118.369,356.198 123.269,349.685 C 128.206,343.138 130.971,334.783 130.987,326.555 C 130.985,320.376 129.386,314.19 125.646,309.111 C 121.922,304.023 116.017,300.252 108.305,298.925 C 106.998,298.696 105.52,298.551 103.941,298.478 C 104.16,298.102 104.389,297.705 104.637,297.272 C 108.579,290.324 115.68,276.587 123.417,262.347 C 130.471,249.35 138.078,235.937 143.976,227.343 C 144.001,227.339 144.024,227.334 144.051,227.33 C 146.258,226.895 150.383,225.854 156.3,224.293 C 160.178,223.268 164.787,222.025 169.958,220.612 C 169.754,221.923 169.577,223.599 169.38,225.813 C 168.657,234.118 167.92,249.093 167.918,265.605 C 167.92,271.025 168,276.607 168.189,282.167 C 171.579,382.468 214.391,483.592 300.194,553.09 C 376.124,614.614 453.981,640.284 527.639,640.286 C 527.666,640.286 527.687,640.286 527.713,640.286 C 612.701,640.279 691.886,606.278 756.643,554.974 C 768.178,545.821 783.56,530.376 796.252,516.581 C 802.589,509.687 808.226,503.227 812.336,498.169 C 814.394,495.634 816.065,493.463 817.3,491.677 C 817.919,490.779 818.427,489.987 818.859,489.192 C 819.074,488.79 819.272,488.388 819.459,487.893 C 819.634,487.381 819.857,486.823 819.879,485.72 C 819.887,484.943 819.709,483.431 818.401,482.096 z "
   id="path2694" />
</g>
<g
   id="Layer_3">
	<path
   d="M 111.276,266.621 C 106.832,274.921 102.806,282.572 99.788,288.138 C 99.58,288.523 99.376,288.898 99.177,289.263 C 94.464,272.645 84.862,234.862 76.099,197.591 C 71.201,176.762 66.55,156.052 63.134,139.207 C 61.425,130.786 60.026,123.331 59.061,117.339 C 58.092,111.375 57.576,106.765 57.586,104.511 C 57.586,104.477 57.586,104.444 57.586,104.411 C 58.079,104.152 58.739,103.824 59.506,103.476 C 65.492,100.708 78.562,95.713 94.803,89.82 C 135.477,75.051 196.589,54.353 223.25,45.453 C 214.703,62.161 198.241,95.846 181.812,129.583 C 162.459,169.329 143.201,209.062 137.521,220.172 C 137.182,220.837 137.01,221.54 136.975,222.24 C 129.295,233.395 119.598,251.095 111.276,266.621 z "
   style="fill:#4fb8ca"
   id="path2697" />
	<path
   d="M 119.447,313.681 C 122.013,317.153 123.284,321.68 123.282,326.551 C 123.299,333.014 120.992,339.956 117.128,345.029 C 113.231,350.133 108.097,353.282 102.068,353.288 C 98.325,353.284 94.042,352.081 89.192,348.904 C 82.724,344.674 79.072,336.933 79.074,328.895 C 79.09,321.249 82.319,313.625 89.243,308.591 L 86.98,305.473 L 89.245,308.591 C 90.058,307.968 91.983,307.215 94.279,306.783 C 96.577,306.331 99.243,306.119 101.672,306.121 C 103.745,306.119 105.666,306.278 106.976,306.511 C 113.021,307.597 116.862,310.217 119.447,313.681 z "
   style="fill:#c8e9f3"
   id="path2699" />
	<path
   d="M 151.524,215.076 C 158.887,200.166 171.495,174.211 184.867,146.727 L 306.866,110.972 C 307.449,110.934 308.013,110.915 308.557,110.915 C 311.964,110.948 314.203,111.571 316.496,113.229 C 318.784,114.906 321.287,118.028 323.853,123.578 C 325.568,127.277 327.828,132.39 329.626,137.598 C 331.437,142.778 332.716,148.127 332.689,151.741 C 332.689,152.841 332.579,153.761 332.407,154.437 C 331.788,156.912 330.483,159.559 328.779,161.707 C 327.082,163.867 325.013,165.491 323.071,166.254 C 323.071,166.254 323.026,166.272 322.898,166.315 C 321.773,166.707 317.926,167.884 312.377,169.531 C 292.85,175.329 251.119,187.343 213.701,197.905 C 194.993,203.187 177.358,208.108 164.118,211.707 C 159.272,213.024 155.021,214.162 151.524,215.076 z "
   style="fill:#1998bc"
   id="path2701" />
	<path
   d="M 234.583,45.847 C 251.559,62.49 278.273,87.41 295.066,103.88 L 190.858,134.421 C 192.205,131.654 193.553,128.887 194.898,126.128 C 205.197,104.986 215.284,84.36 223.122,68.562 C 227.04,60.664 230.397,53.971 232.931,49.041 C 233.53,47.87 234.08,46.808 234.583,45.847 z "
   style="fill:#198c9f"
   id="path2703" />
	<linearGradient
   x1="177.54491"
   y1="405.47849"
   x2="805.47748"
   y2="405.47849"
   id="SVGID_1_"
   gradientUnits="userSpaceOnUse">
		<stop
   style="stop-color:#ffffff;stop-opacity:1"
   offset="0"
   id="stop2706" />
		<stop
   style="stop-color:#ebe70f;stop-opacity:1"
   offset="1"
   id="stop2708" />
	</linearGradient>
	<path
   d="M 750.669,547.427 C 687.249,597.668 610.084,630.661 527.716,630.656 C 456.282,630.636 380.772,605.934 306.253,545.605 C 222.834,478.043 181.133,379.676 177.809,281.837 C 177.624,276.402 177.545,270.925 177.545,265.6 C 177.545,254.071 177.915,243.245 178.379,235.1 C 178.611,231.028 178.867,227.621 179.108,225.164 C 179.226,223.938 179.342,222.947 179.441,222.27 C 179.49,221.935 179.536,221.676 179.562,221.541 C 179.564,221.532 179.566,221.523 179.567,221.516 C 179.962,220.328 179.862,219.087 179.379,218.019 C 200.926,212.066 228.998,204.129 254.867,196.733 C 273.239,191.48 290.482,186.502 303.46,182.71 C 306.436,181.84 309.174,181.036 311.664,180.301 C 315.533,192.88 317.287,206.421 324.898,217.921 C 329.112,224.069 337.005,230.512 347.058,237.675 C 377.124,258.915 426.156,284.243 438.526,290.181 C 446.587,294.029 454.639,297.288 460.797,301.224 C 482.323,315.054 481.682,330.557 471.566,345.9 C 467.185,352.76 457.072,357.58 447.441,361.815 C 442.643,363.982 438.025,366.031 434.197,368.71 C 432.286,370.062 430.536,371.595 429.16,373.57 C 427.786,375.524 426.864,378.029 426.881,380.669 C 426.883,383.493 427.842,386.25 429.445,388.911 C 431.06,391.585 433.341,394.26 436.393,397.173 C 458.832,418.572 484.624,439.136 516.294,456.3 C 498.301,478.913 466.517,494.845 437.113,494.76 C 422.097,494.749 407.794,490.736 395.828,481.708 C 393.595,480.022 390.418,480.466 388.732,482.699 C 387.046,484.93 387.491,488.107 389.723,489.793 C 403.659,500.319 420.27,504.889 437.055,504.889 C 437.075,504.889 437.093,504.889 437.113,504.889 C 470.728,504.802 505.402,487.085 525.406,461.064 C 561.315,479.126 604.56,492.823 658.466,498.784 C 669.753,500.037 681.856,500.542 694.172,500.542 C 722.016,500.54 750.953,497.949 773.624,495.37 C 784.956,494.078 794.72,492.788 801.962,491.823 C 803.211,491.656 804.385,491.5 805.478,491.355 C 794.054,505.573 767.085,534.468 750.669,547.427 z "
   style="fill:url(#SVGID_1_)"
   id="path2710" />
	<path
   d="M 287.733,276.622 L 287.731,276.622 C 281.495,279.843 274.812,284.258 268.064,287.79 C 261.334,291.349 254.624,293.879 248.943,293.844 C 244.866,293.811 241.295,292.748 237.56,289.697 C 235.491,287.986 232.428,288.275 230.717,290.343 C 229.006,292.41 229.295,295.473 231.364,297.184 C 236.692,301.635 242.85,303.562 248.783,303.562 C 248.836,303.562 248.889,303.562 248.943,303.562 C 257.355,303.527 265.268,300.204 272.58,296.395 C 279.874,292.56 286.649,288.095 292.177,285.262 C 294.564,284.035 295.502,281.105 294.275,278.72 C 293.048,276.333 290.118,275.395 287.733,276.622 z "
   id="path2712" />
</g>
</svg>