<?xml version="1.0" encoding="utf-8"?>
<!-- Generator: Adobe Illustrator 13.0.2, SVG Export Plug-In . SVG Version: 6.00 Build 14948)  -->
<!DOCTYPE svg PUBLIC "-//W3C//DTD SVG 1.1//EN" "http://www.w3.org/Graphics/SVG/1.1/DTD/svg11.dtd">
<svg version="1.1" id="Layer_1" xmlns="http://www.w3.org/2000/svg" xmlns:xlink="http://www.w3.org/1999/xlink" x="0px" y="0px"
	 width="32px" height="32px" viewBox="0 0 32 32" enable-background="new 0 0 32 32" xml:space="preserve">
<linearGradient id="SVGID_1_" gradientUnits="userSpaceOnUse" x1="6.8657" y1="6.3115" x2="25.895" y2="26.4946">
	<stop  offset="0" style="stop-color:#FFF34C"/>
	<stop  offset="1" style="stop-color:#EFD361"/>
</linearGradient>
<circle fill="url(#SVGID_1_)" stroke="#3F3B15" cx="16" cy="16" r="15"/>
<g>
	<g>
		<path fill="none" d="M6.568,19.73c-0.192,1.298,3.171,2.884,4.084,3.364c2.451,1.345,4.421,2.114,7.256,1.874
			c2.018-0.192,3.94-0.288,5.67-1.586c1.298-0.961,2.787-2.066,3.46-3.604"/>
		<path fill="#3F3B15" d="M5.603,19.989c0.656,3.175,7.813,5.608,10.57,5.531c4.811-0.136,9.142-1.35,11.76-5.742
			c0.443-0.742-1.487-0.504-1.787,0c-2.859,4.796-8.737,5.637-13.527,3.491c-1.635-0.731-4.687-1.872-5.084-3.798
			C7.407,18.856,5.468,19.337,5.603,19.989L5.603,19.989z"/>
	</g>
</g>
<g>
	<g>
		<path fill="none" d="M6.856,13.868c0.048-1.49,1.682-2.643,2.979-2.979c1.634-0.384,3.796,0.336,5.142,1.297"/>
		<path fill="#3F3B15" d="M7.823,13.749c0.436-3.396,4.411-2.4,6.387-1.093c0.53,0.351,2.317-0.423,1.536-0.939
			c-1.653-1.094-4.047-1.933-6.041-1.316c-1.723,0.533-3.565,1.643-3.815,3.587C5.791,14.764,7.738,14.41,7.823,13.749L7.823,13.749
			z"/>
	</g>
</g>
<g>
	<g>
		<path fill="none" d="M26.223,14.012c-0.625-2.066-1.73-2.739-3.797-2.787c-1.009,0-3.508-0.048-3.844,1.25"/>
		<path fill="#3F3B15" d="M27.188,13.753c-0.745-2.238-2.322-3.095-4.63-3.097c-1.703-0.001-4.2,0.083-4.944,1.933
			c-0.265,0.657,1.671,0.427,1.936-0.229c0.354-0.883,2.689-0.598,3.417-0.483c1.3,0.205,1.907,1.246,2.29,2.395
			C25.492,14.979,27.414,14.431,27.188,13.753L27.188,13.753z"/>
	</g>
</g>
</svg>
