<?xml version="1.0" encoding="UTF-8" standalone="no"?>
<!-- Created with Inkscape (http://www.inkscape.org/) -->
<svg
   xmlns:dc="http://purl.org/dc/elements/1.1/"
   xmlns:cc="http://web.resource.org/cc/"
   xmlns:rdf="http://www.w3.org/1999/02/22-rdf-syntax-ns#"
   xmlns:svg="http://www.w3.org/2000/svg"
   xmlns="http://www.w3.org/2000/svg"
   xmlns:sodipodi="http://sodipodi.sourceforge.net/DTD/sodipodi-0.dtd"
   xmlns:inkscape="http://www.inkscape.org/namespaces/inkscape"
   width="250"
   height="300"
   id="svg2"
   sodipodi:version="0.32"
   inkscape:version="0.44"
   version="1.0"
   sodipodi:docbase="C:\Documents and Settings\bDaneE\Dokumentumok\Képek"
   sodipodi:docname="talk_face_re2KESZ.svg">
  <defs
     id="defs4">
 <style
   id="style1894"
   type="text/css">
   
    .fil3 {fill:white}
    .fil0 {fill:#171615}
    .fil1 {fill:#E2A38A}
    .fil2 {fill:#FDE0AF}
   
  </style>

  </defs>
  <sodipodi:namedview
     id="base"
     pagecolor="#ffffff"
     bordercolor="#666666"
     borderopacity="1.0"
     inkscape:pageopacity="0.0"
     inkscape:pageshadow="2"
     inkscape:zoom="0.98994949"
     inkscape:cx="375"
     inkscape:cy="177.14286"
     inkscape:document-units="px"
     inkscape:current-layer="layer1"
     width="250px"
     height="300px"
     inkscape:window-width="975"
     inkscape:window-height="608"
     inkscape:window-x="0"
     inkscape:window-y="0" />
  <metadata
     id="metadata7">
    <rdf:RDF>
      <cc:Work
         rdf:about="">
        <dc:format>image/svg+xml</dc:format>
        <dc:type
           rdf:resource="http://purl.org/dc/dcmitype/StillImage" />
      </cc:Work>
    </rdf:RDF>
  </metadata>
  <g
     inkscape:label="1. réteg"
     inkscape:groupmode="layer"
     id="layer1">
    <g
       id="Layer_x0020_1"
       transform="matrix(2.664218,0,0,2.664218,-275.4548,-413.336)">
  <metadata
   id="CorelCorpID_0Corel-Layer" />

  <g
   id="g1911">
   <g
   id="Layer_x0020_1_0">
    <path
   d="M 147.37,265.671 C 145.70757,265.31 142.97514,264.41271 141.298,263.67729 C 127.2277,257.50758 118.1667,248.79719 111.9251,235.44039 C 108.05024,227.14825 107.05539,223.61339 105.6791,213.24529 C 104.69653,205.84186 104.79296,203.52529 106.4191,195.49119 C 107.50067,190.14676 108.3081,187.51876 109.77696,184.56159 C 113.73553,176.59288 121.74996,167.40619 127.94586,163.73549 C 135.315,159.36935 144.89996,156.86935 152.82146,157.24735 C 158.10603,157.49949 166.49706,159.73064 172.34356,162.43878 C 175.96956,164.11792 182.92316,170.54807 185.66026,174.75308 C 187.93726,178.25094 191.6274,185.73138 192.93626,189.50248 C 194.94826,195.29919 195.93369,202.51838 194.92883,204.10048 C 194.71297,204.44034 192.65812,204.89919 190.19997,205.15634 C 187.80926,205.40648 185.49211,205.7522 185.05097,205.92448 C 184.00626,206.33277 183.72083,207.53077 184.02497,210.22948 L 184.27211,212.42105 L 178.99068,212.6742 C 176.08582,212.81334 166.82358,213.13348 158.40768,213.38563 C 144.28208,213.80863 134.16508,214.52892 133.09938,215.18763 C 132.15824,215.7692 132.72167,217.39363 134.17009,218.27463 C 136.26252,219.54706 147.07299,222.18149 151.65119,222.53449 C 155.7449,222.85034 155.72262,222.83249 156.2199,226.1482 L 156.53905,228.27649 L 152.98005,230.39535 C 148.09648,233.30306 140.92015,238.68049 140.92015,239.43249 C 140.92015,240.4882 145.23415,244.08806 147.92586,245.27835 C 151.48386,246.85192 153.55943,247.34378 158.91986,247.88321 C 162.82043,248.27578 164.27915,248.20635 168.06186,247.44735 C 174.13443,246.22921 177.06715,245.22606 180.40516,243.22506 C 181.95059,242.29849 183.49259,241.64692 183.83173,241.77706 C 184.17073,241.9072 185.15473,243.33949 186.0183,244.95963 L 187.58859,247.90592 L 186.47788,249.63306 C 185.36831,251.35849 177.06517,257.98877 171.99878,261.19506 C 167.54149,264.01606 158.52748,266.44492 152.82138,266.36292 C 151.48567,266.34363 149.03238,266.03249 147.36995,265.67106 L 147.37,265.671 z M 160.83,260.989 C 165.11529,260.21629 172.7144,256.32357 176.8667,252.77386 C 178.87041,251.061 180.66813,249.438 180.8617,249.16715 C 181.55513,248.19715 179.17256,248.37415 175.47227,249.56786 C 167.70456,252.07315 157.64797,252.46443 148.93527,250.6 C 138.13357,248.28857 130.54997,236.7016 128.28237,219.0436 C 127.97351,216.63903 127.79437,213.57874 127.88437,212.24289 L 128.04751,209.81418 L 152.82141,209.27233 C 166.44711,208.97461 177.64981,208.70118 177.71671,208.66518 C 177.78357,208.62918 177.838,206.87918 177.838,204.77632 L 177.838,200.95275 L 182.291,200.60447 C 184.74,200.41304 187.26014,200.05975 187.89129,199.81975 C 188.98843,199.40275 189.02515,199.23904 188.72315,196.09804 C 188.30915,191.78918 187.10301,188.15333 183.92701,181.64004 C 181.4483,176.55675 177.87387,171.97004 177.0403,172.80347 C 176.85915,172.9849 176.97458,174.31261 177.29715,175.75404 C 178.50672,181.1589 175.50572,186.45364 169.29886,189.86534 C 166.66172,191.31477 165.66486,191.59805 163.20057,191.59805 C 159.48157,191.59805 157.52157,190.67591 154.795,187.64334 C 151.38014,183.84505 150.49971,181.57505 150.719,177.13134 C 150.98815,171.66877 152.62629,168.34305 155.99529,166.41904 C 157.387,165.62419 159.48272,164.83033 160.65258,164.65504 C 161.82244,164.47947 162.77972,164.13947 162.77972,163.89961 C 162.77972,163.40619 157.76201,161.77347 154.65486,161.25575 L 152.60229,160.91375 L 151.45358,163.50489 C 149.55487,167.78675 146.01229,170.4726 139.70588,172.41175 L 136.30574,173.45718 L 135.93574,178.03432 C 135.63031,181.81632 135.38889,182.75932 134.54617,183.46161 C 132.83774,184.88575 131.86731,184.49918 129.96874,181.63904 C 127.83688,178.42704 125.97688,177.01333 123.43374,176.67247 C 121.80945,176.45447 121.33488,176.6199 120.1316,177.82318 C 118.58317,179.37161 117.30917,183.55732 117.79617,185.49718 C 117.95746,186.13976 118.65532,187.33832 119.34717,188.16032 C 120.85017,189.94661 121.96446,190.02675 126.32017,188.66147 C 131.09974,187.16333 131.88017,187.88175 128.97146,191.10133 C 127.08532,193.18919 124.9846,194.0199 121.57946,194.02433 C 118.92646,194.02761 117.95303,193.51904 114.8586,190.51347 C 111.83246,187.57376 111.9336,187.46604 110.1246,195.54261 C 108.59789,202.35832 108.52803,206.56761 109.79903,215.15751 C 111.71432,228.10291 117.75703,240.73081 126.04533,249.10851 C 130.97376,254.09022 140.94033,260.14241 146.26373,261.38621 C 149.10702,262.05049 155.9843,261.86307 160.83003,260.98906 L 160.83003,260.98906 L 160.83,260.989 z M 143.1717,231.3457 C 145.94113,229.69613 148.20684,228.08113 148.20684,227.75699 C 148.20684,227.24656 136.58444,224.12799 134.72694,224.13999 C 133.82723,224.14585 133.98065,225.50799 135.32637,229.46456 C 136.44551,232.75556 137.2798,234.34485 137.8878,234.34485 C 138.0248,234.34485 140.40251,232.99528 143.17166,231.34571 L 143.1717,231.3457 z M 167.9337,185.4746 C 171.2387,183.26017 171.97184,182.02074 171.99156,178.61389 C 172.02027,173.6326 170.5477,171.21946 167.08699,169.7496 C 163.71328,168.1956 160.2187,168.46989 157.25456,170.77831 C 155.50942,172.53488 155.09885,173.31074 154.84742,175.32517 C 154.68071,176.66103 154.73599,178.57903 154.97028,179.58774 C 155.23356,180.7206 156.12514,182.35431 157.00885,183.53374 C 158.46871,185.56188 160.78542,186.31517 163.07628,186.91103 C 164.79399,187.2346 166.36942,186.5226 167.93371,185.4746 L 167.93371,185.4746 L 167.9337,185.4746 z M 160.31341,180.46289 C 156.55198,176.7016 161.04241,171.38318 166.22784,173.45803 C 168.42298,174.33632 168.99484,175.70417 168.16384,178.08803 C 167.0677,181.23274 166.34484,181.88274 163.94541,181.88274 C 162.14812,181.88274 161.46698,181.6166 160.31341,180.46288 L 160.31341,180.46288 L 160.31341,180.46289 z "
   class="fil0"
   id="path1921"
   style="fill:#171615" />

    <path
   d="M 148.207,227.757 C 148.207,227.24657 136.5846,224.128 134.7271,224.14 C 133.82753,224.14586 133.98081,225.508 135.32653,229.46457 C 136.44582,232.75557 137.2801,234.34486 137.8881,234.34486 C 138.0251,234.34486 140.40281,232.99529 143.17196,231.34572 C 145.94125,229.69615 148.20696,228.08115 148.20696,227.75701 L 148.207,227.757 z "
   class="fil1"
   id="path2892"
   style="fill:#e2a38a" />

    <path
   d="M 148.936,250.599 C 138.1341,248.28743 130.5506,236.7004 128.283,219.0426 C 127.97429,216.63803 127.795,213.57774 127.885,212.24189 L 128.04814,209.81303 L 152.82214,209.27132 C 166.44774,208.97346 177.65044,208.70017 177.71724,208.66417 C 177.7841,208.62817 177.83867,206.87817 177.83867,204.77531 L 177.83867,200.95174 L 182.29153,200.60346 C 184.74053,200.41189 187.26067,200.05874 187.89182,199.81874 C 188.98911,199.4016 189.02582,199.23803 188.72382,196.09688 C 188.30968,191.78817 187.10353,188.15231 183.92753,181.63898 C 181.44882,176.55569 177.87439,171.96884 177.04096,172.80241 C 176.85968,172.98384 176.9751,174.31155 177.29782,175.75298 C 178.50725,181.15784 175.50625,186.45258 169.29939,189.86428 C 166.66225,191.31371 165.66539,191.59699 163.20125,191.59699 C 159.48211,191.59699 157.52211,190.67485 154.79554,187.64213 C 151.38068,183.84399 150.50025,181.57399 150.71954,177.13023 C 150.98868,171.66752 152.62683,168.34194 155.99583,166.41793 C 157.38754,165.62308 159.48326,164.82922 160.65312,164.65393 C 161.82298,164.47836 162.78026,164.13836 162.78026,163.89836 C 162.78026,163.40508 157.76255,161.77236 154.6554,161.25465 L 152.60283,160.91265 L 151.45412,163.50365 C 149.55541,167.78565 146.01283,170.47151 139.70642,172.41065 L 136.30628,173.45594 L 135.93628,178.03323 C 135.63085,181.81523 135.38942,182.75823 134.54671,183.46037 C 132.83842,184.88451 131.86785,184.49808 129.96928,181.6378 C 127.83742,178.42594 125.97742,177.01223 123.43428,176.67123 C 121.80999,176.45337 121.33542,176.6188 120.13214,177.82209 C 118.58371,179.37052 117.30971,183.55623 117.79671,185.49609 C 117.95799,186.13866 118.65585,187.33723 119.34771,188.15909 C 120.85071,189.94552 121.965,190.02552 126.32071,188.66038 C 131.10028,187.16224 131.88071,187.88066 128.972,191.10009 C 127.08586,193.18795 124.98514,194.0188 121.58,194.02309 C 118.927,194.02652 117.95357,193.51794 114.85914,190.51223 C 111.833,187.57252 111.93414,187.46494 110.12514,195.54152 C 108.59843,202.35723 108.52857,206.56652 109.79971,215.15642 C 111.71485,228.10182 117.75757,240.72952 126.04601,249.10742 C 130.9743,254.08899 140.94101,260.14132 146.26431,261.38512 C 149.1076,262.04926 155.98488,261.86183 160.83071,260.98797 C 165.116,260.21526 172.71511,256.3224 176.86731,252.77283 C 178.87102,251.05997 180.66874,249.43697 180.86231,249.16612 C 181.55574,248.19598 179.17317,248.37298 175.47288,249.5667 C 167.70517,252.07213 157.64858,252.46327 148.93598,250.59899 L 148.93598,250.59899 L 148.936,250.599 z "
   class="fil2"
   id="path2894"
   style="fill:#fde0af" />

   </g>

  </g>

  <path
   id="path1903"
   d="M 157.009,183.533 C 158.46886,185.56114 160.78557,186.31443 163.07643,186.91029 C 164.79414,187.23386 166.36957,186.52186 167.93386,185.47386 C 171.23886,183.25943 171.972,182.02 171.99172,178.61315 C 172.02043,173.63186 170.54786,171.21872 167.08715,169.74886 C 163.71344,168.19486 160.21886,168.46915 157.25472,170.77757 C 155.50958,172.53414 155.09901,173.31 154.84758,175.32443 C 154.68087,176.66029 154.73615,178.57829 154.97044,179.587 C 155.23372,180.71986 156.1253,182.35357 157.00901,183.533 L 157.009,183.533 z M 163.94557,181.882 C 162.14828,181.882 161.46714,181.61586 160.31357,180.46214 C 156.55214,176.70085 161.04257,171.38243 166.228,173.45728 C 168.42314,174.33557 168.995,175.70342 168.164,178.08728 C 167.06786,181.23199 166.345,181.88199 163.94557,181.88199 L 163.94557,181.882 z "
   class="fil3"
   style="fill:white" />

 </g>
  </g>
</svg>
