<?xml version="1.0" encoding="utf-8"?>
<!-- Generator: Adobe Illustrator 18.1.1, SVG Export Plug-In . SVG Version: 6.00 Build 0)  -->
<svg version="1.1" id="Layer_1" xmlns="http://www.w3.org/2000/svg" xmlns:xlink="http://www.w3.org/1999/xlink" x="0px" y="0px"
	 viewBox="0 0 100 100" style="enable-background:new 0 0 100 100;" xml:space="preserve">
<style type="text/css">
	.st0{fill:#545758;}
	.st1{fill:#FAC312;}
</style>
<g>
	<path class="st0" d="M19.2,35.6c0-1.8-1-3.4-2.5-4.1v-7.1c0-1.8-1.1-5.3-5-5.6l-0.2,3.4c1.7,0.1,1.9,1.6,2,2.2v6.9
		c-1.6,0.6-2.7,2.3-2.7,4.2v4.6h8.5V35.6z"/>
	<path class="st1" d="M61.8,59.4c-6.7,0-12.2,5.8-12.2,13c0,7.2,5.5,13,12.2,13S74,79.6,74,72.4C74,65.2,68.5,59.4,61.8,59.4z
		 M61.8,80.1c-4,0-7.2-3.4-7.2-7.7c0-4.2,3.2-7.7,7.2-7.7c4,0,7.2,3.4,7.2,7.7C69,76.6,65.7,80.1,61.8,80.1z"/>
	<path class="st0" d="M61.8,75.6c-1.6,0-3-1.4-3-3.2c0-1.7,1.3-3.2,3-3.2c1.6,0,3,1.4,3,3.2C64.7,74.1,63.4,75.6,61.8,75.6z"/>
	<path class="st1" d="M12.2,59.4C5.5,59.4,0,65.2,0,72.4c0,7.2,5.5,13,12.2,13s12.2-5.8,12.2-13C24.4,65.2,18.9,59.4,12.2,59.4z
		 M12.2,80.1c-4,0-7.2-3.4-7.2-7.7c0-4.2,3.2-7.7,7.2-7.7c4,0,7.2,3.4,7.2,7.7C19.4,76.6,16.2,80.1,12.2,80.1z"/>
	<path class="st0" d="M12.2,75.6c-1.6,0-3-1.4-3-3.2c0-1.7,1.3-3.2,3-3.2c1.6,0,3,1.4,3,3.2C15.2,74.1,13.8,75.6,12.2,75.6z"/>
	<path class="st1" d="M82,75.3V43.6h-2.3V14.6H73v43.9c3.7,3.4,6,8.3,6,13.9c0,2.9-0.6,5.6-1.7,8h13.4L100,77v-1.7H82z"/>
	<path class="st0" d="M50.2,14.6H24.1v30.8H5.9c-2.9,0-5.3,2.5-5.3,5.7l0,7.8c3.1-3,7.1-4.8,11.6-4.8c9.5,0,17.2,8.2,17.2,18.3
		c0,2.9-0.6,5.6-1.7,8h18.7c-1.1-2.4-1.7-5.1-1.7-8c0-9.4,6.7-17.2,15.4-18.2v-3.1L50.2,14.6z M47.5,51.1L44,45.4H29.1V20h17.3
		l8.3,31.1H47.5z"/>
</g>
</svg>
