<?xml version="1.0" encoding="utf-8"?>
<!-- Generator: Adobe Illustrator 15.1.0, SVG Export Plug-In  -->
<!DOCTYPE svg PUBLIC "-//W3C//DTD SVG 1.1//EN" "http://www.w3.org/Graphics/SVG/1.1/DTD/svg11.dtd" [
	<!ENTITY ns_flows "http://ns.adobe.com/Flows/1.0/">
]>
<svg version="1.1"
	 xmlns="http://www.w3.org/2000/svg" xmlns:xlink="http://www.w3.org/1999/xlink" xmlns:a="http://ns.adobe.com/AdobeSVGViewerExtensions/3.0/"
	 x="0px" y="0px" width="400px" height="428px" viewBox="-1 -1 400 428" overflow="visible" enable-background="new -1 -1 400 428"
	 xml:space="preserve">
<defs>
</defs>
<path fill="#FF405E" d="M391,278h-24l-27-27V147H236l-27-27v-8.88l17.65-12.61c2.47-1.77,3.73-4.78,3.25-7.78
	c-0.48-3-2.62-5.47-5.52-6.37l-29.93-9.31l10.31-7.62c2.04-1.51,3.24-3.9,3.24-6.43V48.32c9.36-3.61,16-12.69,16-23.32
	c0-13.81-11.19-25-25-25s-25,11.19-25,25c0,11.38,7.6,20.97,18,24v7.97l-19.76,14.6c-2.42,1.79-3.64,4.79-3.13,7.77
	c0.5,2.97,2.63,5.41,5.51,6.31l29.62,9.21l-7.89,5.64c-2.1,1.5-3.35,3.93-3.35,6.51v11l-29,29H60v104l-28,28H8c-4.42,0-8,3.58-8,8
	s3.58,8,8,8h24l28,28v104h280V323l29-29h22c4.42,0,8-3.58,8-8S395.42,278,391,278z M189,25c0-5.52,4.48-10,10-10s10,4.48,10,10
	s-4.48,10-10,10S189,30.52,189,25z M320,407H80V167h240V407z"/>
<rect x="119" y="318" fill="#FF3358" width="20" height="36"/>
<rect x="261" y="318" fill="#FF3358" width="20" height="36"/>
<rect x="119" y="334" fill="#FF405E" width="162" height="20"/>
<path fill="#FF405E" d="M154,282c19.33,0,35-15.67,35-35c0-19.33-15.67-35-35-35s-35,15.67-35,35C119,266.33,134.67,282,154,282z
	 M154,232c8.27,0,15,6.73,15,15s-6.73,15-15,15s-15-6.73-15-15S145.73,232,154,232z"/>
<path fill="#FF405E" d="M246,282c19.33,0,35-15.67,35-35c0-19.33-15.67-35-35-35s-35,15.67-35,35C211,266.33,226.67,282,246,282z
	 M246,232c8.27,0,15,6.73,15,15s-6.73,15-15,15s-15-6.73-15-15S237.73,232,246,232z"/>
</svg>
