<?xml version="1.0"?><svg width="640" height="480" xmlns="http://www.w3.org/2000/svg">
 <metadata id="metadata7">image/svg+xml</metadata>
 <g>
  <g fill="#804d00" id="g3795">
   <g fill="#fa8072" id="g12882">
    <path fill="#ffff00" fill-rule="nonzero" id="path12878" d="m243.0625,54.40625c-103.761475,0 -187.875,53.965645 -187.875,120.54628c0,66.580643 84.113525,120.54628 187.875,120.54628c8.193695,0 16.270538,-0.350464 24.1875,-1.003235l137.4375,68.973175l-56.875,-88.442413c50.133484,-21.648727 83.125,-58.382889 83.125,-100.073807c0,-66.580635 -84.113525,-120.54628 -187.875,-120.54628z"/>
    <g id="text12887">
     <path fill="#ffff00" id="path12897" d="m183.109161,118.2118c0.092819,2.095535 -0.812302,3.376091 -2.715302,3.841705c-0.092865,0.046616 -1.833435,0.186317 -5.221725,0.41909c-0.278503,0.000046 -0.464172,0.023331 -0.556992,0.069855c-2.831345,1.350471 -4.920044,2.281792 -6.266083,2.793976c-0.510574,4.144409 -0.556992,9.68576 -0.139236,16.624084c0.603394,-0.419067 1.531693,-1.047714 2.784943,-1.885925c1.113922,-1.303818 2.042252,-1.932465 2.784897,-1.885925c1.531693,0.093155 3.063416,0.861496 4.595123,2.305008c1.57811,1.397018 2.367172,2.863846 2.367203,4.400513c-0.000031,0.605362 -0.139282,1.164169 -0.417755,1.676361c-0.51059,1.024475 -1.787018,1.583282 -3.829269,1.676392c-2.320786,0.093155 -3.875702,0.465668 -4.664749,1.117599c-0.649811,0.232834 -1.276413,0.651917 -1.879822,1.257263c-0.556992,0.558807 -1.090775,1.117599 -1.601334,1.676392c-0.371338,3.119919 -0.371338,7.497116 0,13.131607c0.232086,0.605362 0.348114,1.187439 0.348129,1.746231c-0.000015,1.490112 -0.812302,2.654251 -2.436813,3.492447c-0.603424,0.325974 -1.322845,0.488953 -2.15831,0.488968c-1.485306,-0.000015 -2.854568,-0.442398 -4.107758,-1.327148c-1.392487,-0.93132 -2.227951,-2.118759 -2.506439,-3.562302c-0.09285,-0.651917 0,-1.140869 0.278488,-1.466827c0.324905,-0.325958 0.649811,-0.628632 0.974716,-0.908051c-0.278488,-20.302765 -0.278488,-35.297028 0,-44.982811c-0.046417,-0.465614 -0.069595,-0.884705 -0.069595,-1.257294c0,-2.421371 1.462097,-3.632088 4.386261,-3.632149c0.510559,0.000061 1.067535,0.046623 1.670959,0.139709c1.021118,0.139755 1.717361,0.326019 2.088699,0.558792c0.092819,0.046616 0.417725,0.372574 0.974716,0.97789c0.928299,-0.325912 2.413574,-0.838135 4.455887,-1.536682c0.464111,-0.279343 0.951508,-0.582024 1.462067,-0.908043c0.556976,-0.372475 1.415649,-0.558739 2.57605,-0.558792c1.346054,0.000053 2.808105,0.58213 4.386276,1.746231c1.578079,1.164207 2.39035,2.421486 2.436798,3.771851"/>
     <path fill="#ffff00" id="path12899" d="m206.357834,133.438919c3.109818,3.166519 4.664719,8.498352 4.664749,15.995438c-0.000031,5.820786 -1.090775,10.78006 -3.272278,14.877853c-2.460037,4.610046 -5.848343,6.915054 -10.164963,6.915054c-4.270233,0 -7.565735,-2.072174 -9.88649,-6.216568c-2.042282,-3.632141 -3.063431,-8.242157 -3.063431,-13.830109c0,-4.935974 0.789063,-9.359756 2.367203,-13.271347c1.670944,-4.190887 3.806061,-6.658905 6.405319,-7.403992c1.346054,-0.372467 2.73848,-0.558746 4.177399,-0.558792c3.573975,0.000046 6.498123,1.1642 8.772491,3.492462m-7.937012,3.352768c-1.531738,-0.139679 -2.854584,1.303864 -3.968552,4.330627c-0.974731,2.747421 -1.462082,5.634521 -1.462082,8.661285c0,4.377243 0.185669,7.473862 0.557007,9.289917c0.64978,3.259644 1.995834,5.052444 4.038147,5.378387c1.299606,0.186279 2.506393,-1.606522 3.620392,-5.378387c1.067535,-3.632126 1.601303,-7.520386 1.601334,-11.66478c-0.000031,-6.798615 -1.462112,-10.337631 -4.386246,-10.61705"/>
     <path fill="#ffff00" id="path12901" d="m227.044586,169.830292c-0.928314,1.769501 -2.645676,2.654266 -5.1521,2.654266c-2.320786,0 -3.945313,-0.791626 -4.873627,-2.374878c-0.278503,-0.465652 -0.41774,-0.977875 -0.41774,-1.536667c0,-0.465652 0.16246,-1.234009 0.487366,-2.305023c0.32489,-1.071014 0.48735,-1.955765 0.48735,-2.654266l-0.278473,-45.122513c0,-2.467957 0,-3.725235 0,-3.771858c0.139252,-0.605301 0.789063,-1.094254 1.949448,-1.466827c1.16037,-0.419037 2.390381,-0.628593 3.690002,-0.628639c1.90303,0.000046 3.109833,0.349297 3.620422,1.047737c0.510529,0.69854 0.765823,1.420311 0.765854,2.165306c-0.000031,0.512291 -0.185699,1.373764 -0.557007,2.584427c-0.371338,1.1642 -0.556976,2.118805 -0.556976,2.863808l0,41.909477c0,0.698486 0.185638,1.629807 0.556976,2.793961c0.417725,1.117584 0.626602,1.93248 0.626602,2.444717c0,0.512222 -0.116043,0.977875 -0.348099,1.396973"/>
     <path fill="#ffff00" id="path12903" d="m244.450348,169.830292c-0.928314,1.769501 -2.645676,2.654266 -5.1521,2.654266c-2.320786,0 -3.945313,-0.791626 -4.873627,-2.374878c-0.278488,-0.465652 -0.41774,-0.977875 -0.41774,-1.536667c0,-0.465652 0.16246,-1.234009 0.487366,-2.305023c0.324921,-1.071014 0.48735,-1.955765 0.487381,-2.654266l-0.278503,-45.122513c0,-2.467957 0,-3.725235 0,-3.771858c0.139252,-0.605301 0.789063,-1.094254 1.949448,-1.466827c1.16037,-0.419037 2.390381,-0.628593 3.690002,-0.628639c1.90303,0.000046 3.109833,0.349297 3.620422,1.047737c0.510559,0.69854 0.765839,1.420311 0.765854,2.165306c-0.000015,0.512291 -0.185669,1.373764 -0.556976,2.584427c-0.371338,1.1642 -0.557007,2.118805 -0.557007,2.863808l0,41.909477c0,0.698486 0.185669,1.629807 0.557007,2.793961c0.417709,1.117584 0.626587,1.93248 0.626602,2.444717c-0.000015,0.512222 -0.116058,0.977875 -0.348129,1.396973"/>
     <path fill="#ffff00" id="path12905" d="m271.765472,133.438919c3.109802,3.166519 4.664734,8.498352 4.664734,15.995438c0,5.820786 -1.09079,10.78006 -3.272278,14.877853c-2.460022,4.610046 -5.848358,6.915054 -10.164978,6.915054c-4.270233,0 -7.56572,-2.072174 -9.886475,-6.216568c-2.042252,-3.632141 -3.063416,-8.242157 -3.063416,-13.830109c0,-4.935974 0.789063,-9.359756 2.367172,-13.271347c1.670975,-4.190887 3.806076,-6.658905 6.40535,-7.403992c1.346039,-0.372467 2.738495,-0.558746 4.177368,-0.558792c3.573975,0.000046 6.498169,1.1642 8.772522,3.492462m-7.937042,3.352768c-1.531708,-0.139679 -2.854553,1.303864 -3.968506,4.330627c-0.974731,2.747421 -1.462097,5.634521 -1.462097,8.661285c0,4.377243 0.185669,7.473862 0.556976,9.289917c0.649811,3.259644 1.99588,5.052444 4.038147,5.378387c1.299622,0.186279 2.506439,-1.606522 3.620422,-5.378387c1.067505,-3.632126 1.601318,-7.520386 1.601318,-11.66478c0,-6.798615 -1.462097,-10.337631 -4.386261,-10.61705"/>
     <path fill="#ffff00" id="path12907" d="m331.968781,131.343445c0.139191,0.372559 0.208801,0.721817 0.208862,1.047729c-0.000061,0.745087 -0.417755,1.653122 -1.253235,2.724121c-1.021179,1.257324 -1.647766,2.235199 -1.879822,2.933655l-7.658508,23.189896c-0.232147,0.745071 -0.348175,1.629822 -0.348114,2.654266c-0.000061,0.325974 -0.000061,0.838196 0,1.536682c0.046295,0.651932 0.069611,1.140869 0.069611,1.466843c-0.000061,1.722931 -0.580261,3.003494 -1.74057,3.841705c-1.160431,0.838165 -2.483307,1.257263 -3.968567,1.257263c-2.227966,0 -4.084564,-0.838181 -5.569855,-2.514557c-0.742676,-0.838196 -1.113953,-1.792801 -1.113953,-2.863815c0,-1.583237 -0.046417,-2.584412 -0.139252,-3.00351l-4.177338,-15.5065l-4.038147,13.969818c-0.139252,0.512238 -0.255341,1.490112 -0.348114,2.933655c-0.092896,1.164154 -0.348145,2.09549 -0.765839,2.793976c-1.763824,2.887085 -3.92215,4.330643 -6.474976,4.330643c-0.881897,0 -1.694153,-0.256119 -2.436829,-0.768341c-0.928314,-0.605362 -1.48526,-1.536697 -1.670929,-2.793961c-0.185669,-1.257278 -0.371338,-2.491287 -0.557007,-3.701996l-6.126801,-23.888412c-0.139252,-0.605316 -0.557007,-1.722885 -1.253235,-3.352753c-0.557007,-1.257233 -0.835449,-2.328247 -0.835449,-3.213043c0,-0.605316 0.116028,-1.210678 0.348114,-1.816086c0.417755,-1.303818 2.088654,-1.955734 5.012848,-1.955765c1.624542,0.000031 2.715271,0.232864 3.272278,0.698486c0.696198,0.605392 1.067535,1.583282 1.113953,2.933655c0.046417,2.04895 0.092834,3.166534 0.139252,3.352753l4.177399,16.763794l5.848328,-17.182892c0.092834,-0.325912 0.139252,-0.651886 0.139252,-0.97789c0,-0.279343 -0.069672,-0.675156 -0.208862,-1.187408c-0.092834,-0.558777 -0.139252,-0.977859 -0.139252,-1.257294c0,-1.024414 0.556946,-1.816025 1.67099,-2.374878c0.928284,-0.512192 1.949402,-0.768295 3.063354,-0.768326c1.531738,0.000031 2.808136,0.372559 3.829315,1.117584c1.299561,0.931351 2.019012,2.142059 2.158325,3.632141c0.139191,1.443588 0.255249,2.887131 0.348083,4.330658l4.177399,16.763763l6.683838,-20.116516c0.092773,-0.279373 0.139191,-0.582062 0.139252,-0.908051c-0.000061,-0.372498 -0.069733,-0.861435 -0.208923,-1.466827c-0.139252,-0.651886 -0.208893,-1.140839 -0.208832,-1.466827c-0.000061,-0.419052 0.092773,-0.81488 0.278503,-1.187439c0.696136,-1.257233 2.529541,-1.885895 5.500214,-1.885925c2.784851,0.000031 4.432587,0.628693 4.943237,1.885925"/>
     <path fill="#ffff00" id="path12909" d="m191.866989,235.697983c-1.067627,1.536682 -2.622528,2.305023 -4.664749,2.305023c-1.856659,0 -3.782898,-0.605347 -5.778717,-1.816071c-1.810242,-1.071014 -2.831375,-2.118744 -3.0634,-3.143219c-0.092896,-0.372513 -0.139313,-0.721771 -0.139252,-1.047729c-0.000061,-0.745056 0.301651,-1.583252 0.905075,-2.514572c0.649765,-0.931305 0.951477,-1.746201 0.905121,-2.444702l-2.088699,-23.469315l-11.975174,27.101456c-0.139282,0.372543 -0.208908,0.814911 -0.208862,1.327133c-0.000046,0.372543 0.046417,0.95462 0.139252,1.746216c0.139206,0.791626 0.208832,1.397003 0.208847,1.816101c-0.000015,1.071014 -0.417755,1.88591 -1.253189,2.444702c-1.206848,0.838196 -2.622513,1.257294 -4.247009,1.257294c-1.624588,0 -3.109879,-0.442383 -4.455887,-1.327148c-1.299667,-0.838181 -2.111923,-1.95578 -2.436798,-3.352737c-0.092865,-0.419098 -0.139282,-0.791641 -0.139267,-1.117599c-0.000015,-0.325958 0.046432,-0.721771 0.139267,-1.187424c0.092804,-0.465668 0.139206,-0.814896 0.139236,-1.047745c-0.000031,-0.279388 -0.046432,-0.558792 -0.139236,-0.838181l-10.025742,-26.822067l0.974716,25.285385c0.046432,0.651917 0.208878,1.583237 0.487381,2.793945c0.278473,1.164169 0.417709,2.02565 0.41774,2.584427c-0.000031,1.722946 -1.276443,3.073364 -3.829285,4.051239c-0.324921,0.09314 -0.719437,0.139725 -1.183594,0.139725c-1.438873,0 -2.924179,-0.488968 -4.455887,-1.466843c-1.763794,-1.071014 -2.900955,-2.468002 -3.411514,-4.190948c-0.092834,-0.279388 -0.139252,-0.535492 -0.139236,-0.768341c-0.000015,-0.465668 0.278473,-0.977875 0.835464,-1.536682c0.556992,-0.605347 0.835464,-1.140869 0.835464,-1.606522l-0.835464,-39.813995c0,-0.651886 -0.232086,-1.466782 -0.696228,-2.444702c-0.464157,-1.024399 -0.696243,-1.792755 -0.696243,-2.305023c0,-0.79158 0.417755,-1.629761 1.25322,-2.514572c0.835464,-0.931274 2.297562,-1.396927 4.386261,-1.396973c3.063416,0.000046 5.500214,0.745102 7.310425,2.235153c1.021118,0.838242 1.531677,1.723007 1.531708,2.654266c-0.000031,0.139755 -0.023254,0.349304 -0.069611,0.628647c-0.000015,0.279434 -0.000015,0.488983 0,0.628647c-0.000015,0.419144 0.069611,0.791672 0.208878,1.117569l13.78537,33.527573l15.456329,-35.623032c0.185608,-0.419037 0.278442,-0.908005 0.278503,-1.466827c-0.000061,-0.186218 -0.02327,-0.465622 -0.069626,-0.838196c-0.000031,-0.372467 -0.000031,-0.651871 0,-0.838196c-0.000031,-1.070953 0.48732,-1.978989 1.462082,-2.724106c0.789017,-0.605316 1.833359,-0.90799 3.133041,-0.908035c1.995804,0.000046 3.922043,0.605408 5.778732,1.816071c1.902985,1.210785 2.831268,2.584473 2.784912,4.121109c-0.046509,0.745102 -0.394577,1.373734 -1.044342,1.885925c-0.649872,0.465714 -0.951584,0.908066 -0.905106,1.327118l2.924179,41.210968c0.046341,0.465668 0.417679,1.280563 1.113968,2.444702c0.696167,1.117615 1.044281,2.02565 1.044327,2.724136c-0.000046,0.465668 -0.162491,0.93132 -0.48735,1.396973"/>
     <path fill="#ffff00" id="path12911" d="m225.960541,201.052841c0.139236,0.931351 -0.09285,1.932541 -0.696228,3.003525c-1.067566,1.769531 -1.624557,2.724136 -1.670944,2.863815c-1.949493,4.656616 -4.966492,12.153732 -9.051025,22.491394c-1.856613,4.93602 -3.016983,9.383072 -3.48114,13.341171c-0.09285,0.372528 -0.116058,1.187439 -0.069595,2.444748c0.046417,1.024429 -0.116074,1.79277 -0.487381,2.305008c-0.742645,0.977875 -1.856613,1.466797 -3.341888,1.466812c-2.645706,-0.000015 -4.363052,-1.00116 -5.15213,-3.00351c-0.185669,-0.512222 -0.278503,-0.95459 -0.278473,-1.327118c-0.000031,-0.465683 0.185638,-1.001175 0.556976,-1.606537c0.371323,-0.558807 0.603409,-1.02446 0.696243,-1.396988l1.670929,-8.731125l-10.025696,-28.917526c-0.139252,-0.372498 -0.51059,-1.140839 -1.113998,-2.305023c-0.417725,-0.83815 -0.626602,-1.559937 -0.626602,-2.165314c0,-0.325928 0.046448,-0.651886 0.139252,-0.97789c0.464142,-1.676346 2.042282,-2.514542 4.734375,-2.514572c1.670944,0.000031 2.99379,0.279449 3.968521,0.838181c1.160385,0.698532 1.833405,1.932541 2.019073,3.702011c0.232056,2.887131 0.394516,4.493652 0.48735,4.81958l4.595123,14.528625l7.101563,-18.021057c0.046417,-0.139679 0.255264,-1.164124 0.626602,-3.07338c0.232056,-1.164124 0.719406,-1.955734 1.462097,-2.374878c0.464111,-0.279343 0.99791,-0.419052 1.601303,-0.419083c1.346024,0.000031 2.692078,0.512268 4.038147,1.536682c1.346024,0.977936 2.111877,2.142059 2.297577,3.492447"/>
     <path fill="#ffff00" id="path12913" d="m276.346985,212.228699c0,2.93367 -1.508545,6.263138 -4.525513,9.988419c-0.603424,0.698486 -3.620422,3.88826 -9.050964,9.569321c-0.881958,1.676376 -1.763824,3.329468 -2.645691,4.959274c-1.1604,1.583252 -2.552887,2.281738 -4.177399,2.09549c-3.15625,-0.372528 -5.801926,-2.025635 -7.937042,-4.959305c-0.742645,-0.977875 -1.113968,-1.88591 -1.113968,-2.724121c0,-0.931305 0.510574,-1.816071 1.531723,-2.654251c-0.464172,-2.561111 -0.905106,-9.499466 -1.322861,-20.815033c-0.324905,-9.313171 -0.487366,-15.669434 -0.487366,-19.068802c-0.974701,-1.536621 -1.462082,-3.119873 -1.462082,-4.749741c0,-1.210648 0.348129,-2.188553 1.044357,-2.933655c0.510559,-0.512177 1.25322,-0.768295 2.227951,-0.768356c2.506424,0.000061 4.548676,0.954681 6.126816,2.863831c4.502304,-1.676331 8.169113,-2.514526 11.000443,-2.514587c3.202637,0.000061 5.337738,1.024536 6.405334,3.073364c0.696228,1.303925 1.044312,2.747467 1.044342,4.330643c-0.000031,4.889481 -2.622498,10.011749 -7.867401,15.366806c2.135071,0.651962 4.270172,1.303894 6.405304,1.95578c1.99585,0.745071 3.295471,1.769547 3.898895,3.073364c0.603363,1.257309 0.905121,2.561157 0.905121,3.91156m-14.829712,-23.050217c-1.1604,0.000061 -3.295532,1.024506 -6.40535,3.073364c0,0.419128 0.046448,1.792831 0.139252,4.121078c0.092834,2.281784 0.139236,3.795181 0.139252,4.540207c1.856613,-1.583221 3.550766,-3.469131 5.082474,-5.657776c1.578125,-2.235138 2.367188,-3.888214 2.367218,-4.95929c-0.000031,-0.74501 -0.440948,-1.117523 -1.322845,-1.117584m2.367188,22.212021c-2.692139,0.000015 -5.244934,1.02446 -7.658539,3.073364l0.278473,10.61705c6.63739,-5.261948 9.956085,-9.196777 9.956116,-11.804489c-0.000031,-1.257278 -0.858704,-1.88591 -2.57605,-1.885925"/>
     <path fill="#ffff00" id="path12915" d="m291.568329,236.186935c-0.928314,1.769501 -2.645691,2.654266 -5.15213,2.654282c-2.32074,-0.000015 -3.945282,-0.791641 -4.873596,-2.374878c-0.278503,-0.465683 -0.417755,-0.97789 -0.417755,-1.536697c0,-0.465637 0.162506,-1.233994 0.487366,-2.304993c0.324921,-1.071045 0.487366,-1.955795 0.487366,-2.654282l-0.278473,-45.122513c0,-2.467972 0,-3.725235 0,-3.771866c0.139252,-0.605301 0.789063,-1.094254 1.949432,-1.466827c1.16037,-0.419052 2.390411,-0.628601 3.690033,-0.628662c1.903015,0.000061 3.109802,0.349319 3.620392,1.04776c0.510529,0.698547 0.765869,1.420319 0.765869,2.165329c0,0.512268 -0.185669,1.373734 -0.557007,2.584412c-0.371307,1.164185 -0.556976,2.118805 -0.556976,2.8638l0,41.90947c0,0.698502 0.185669,1.629807 0.556976,2.793961c0.417755,1.117584 0.626587,1.932495 0.626587,2.444733c0,0.512207 -0.115997,0.977875 -0.348083,1.396973"/>
     <path fill="#ffff00" id="path12917" d="m318.883423,199.795563c3.109833,3.166519 4.664734,8.498322 4.664734,15.995438c0,5.82077 -1.090759,10.780045 -3.272278,14.877853c-2.460022,4.610031 -5.848358,6.915054 -10.164948,6.915054c-4.270233,0 -7.565704,-2.072189 -9.886475,-6.216568c-2.042297,-3.632126 -3.063416,-8.242188 -3.063416,-13.830109c0,-4.935989 0.789032,-9.359756 2.367157,-13.271332c1.670959,-4.190918 3.806061,-6.65892 6.405334,-7.404007c1.346039,-0.372482 2.738495,-0.558746 4.177399,-0.558792c3.573944,0.000046 6.498138,1.164185 8.772491,3.492462m-7.937042,3.352737c-1.531708,-0.139648 -2.854523,1.303909 -3.968506,4.330643c-0.974701,2.747437 -1.462097,5.634537 -1.462067,8.661301c-0.000031,4.377228 0.185638,7.473877 0.556976,9.289932c0.64978,3.259628 1.995819,5.052414 4.038147,5.378372c1.299622,0.186264 2.506409,-1.606522 3.620361,-5.378372c1.067566,-3.632141 1.601318,-7.520416 1.601379,-11.66481c-0.000061,-6.798599 -1.462128,-10.337631 -4.386292,-10.617065"/>
     <path fill="#ffff00" id="path12919" d="m354.31723,198.747818c0.092773,4.004715 0.301666,10.593796 0.626587,19.767303c0.185638,6.472672 0.278473,11.106003 0.278503,13.899963c-0.000031,6.146713 -0.487396,10.337662 -1.462097,12.572845c-0.974731,2.235153 -2.947388,3.469147 -5.917908,3.701996c-3.713287,0.325943 -6.985565,-0.651947 -9.816864,-2.93367c-1.392517,-0.419098 -2.274414,-0.745056 -2.645691,-0.97789c-0.789093,-0.465668 -1.299683,-1.257278 -1.531708,-2.374878c-0.417755,-2.188599 1.299622,-3.282898 5.1521,-3.282898c0.974701,0 1.903015,0.116425 2.784943,0.349243c0.64978,0.139709 1.369232,0.675201 2.158264,1.606552c0.789093,0.977859 1.531708,1.490097 2.227966,1.536667c1.346008,0.093124 2.019012,-1.816086 2.019073,-5.727615c-0.000061,-1.676392 -0.116058,-4.400497 -0.348083,-8.172363c-1.67099,2.84053 -2.877838,4.679886 -3.620453,5.518082c-1.531708,1.583252 -3.318695,2.374878 -5.360962,2.374878c-2.877777,0 -5.198517,-2.00235 -6.962311,-6.007034c-1.624512,-3.678696 -2.436798,-8.149048 -2.436798,-13.411011c0,-5.401642 0.858643,-9.965118 2.57605,-13.690445c1.949402,-4.190887 4.64151,-6.332932 8.076263,-6.426102c1.856598,-0.04657 3.225891,0.326004 4.107758,1.117599c0.881866,0.791641 1.74057,1.606552 2.57608,2.444702c-0.603424,-1.676331 -0.464172,-2.933624 0.417694,-3.771851c0.51059,-0.512177 1.276459,-0.768295 2.297577,-0.768341c0.974701,0.000046 1.949432,0.256165 2.924194,0.768341c0.974701,0.512268 1.601318,1.140915 1.879822,1.885925m-8.354736,17.811508c0.185608,-2.700806 -0.139313,-5.261932 -0.974762,-7.68338c-0.928314,-2.700821 -2.135101,-4.051224 -3.620392,-4.051254c-1.206818,0.000031 -2.274353,1.350433 -3.202698,4.051254c-0.835449,2.421448 -1.299622,4.982574 -1.392395,7.68338c-0.092896,2.840561 0.115997,5.401688 0.626526,7.683411c0.649841,2.700836 1.554962,4.051254 2.715332,4.051239c1.021149,0.000015 2.204742,-1.303833 3.550812,-3.911545c1.345978,-2.654236 2.111847,-5.261932 2.297577,-7.823105"/>
    </g>
    <path fill="#ffff00" stroke="#ffffff" stroke-width="3.661165" stroke-miterlimit="4" stroke-dasharray="7.32233077, 7.32233077" stroke-dashoffset="0" id="path12894" d="m241.103622,61.697495c-92.261612,0 -177.710403,55.216667 -177.710403,113.080643c0,57.863983 83.080429,107.140564 175.342056,107.140564c7.285583,0 26.309067,2.071442 33.348587,1.50412l117.468628,64.695374l-57.676605,-78.051636c50.498047,-12.87442 91.674866,-55.491577 91.674866,-91.724365c0,-57.86396 -90.185516,-116.644699 -182.447128,-116.644699z"/>
   </g>
  </g>
  <title>Layer 1</title>
 </g>
</svg>