<!--?xml version="1.0" standalone="no"?-->

<svg version="1.0" xmlns="http://www.w3.org/2000/svg" width="300.000000pt" height="300.000000pt" viewBox="0 0 300.000000 300.000000" preserveAspectRatio="xMidYMid meet">
<g transform="translate(0.000000,300.000000) scale(0.100000,-0.100000)" fill="#343434" stroke="none">
<path d="M3 2163 c3 -831 3 -839 25 -923 13 -47 27 -94 32 -105 6 -11 17 -40
25 -65 40 -114 150 -274 261 -381 162 -154 330 -242 564 -295 65 -15 151 -18
642 -21 l568 -4 2 -185 3 -184 55 38 c30 21 161 114 290 207 129 93 258 184
286 204 197 140 234 167 234 176 0 6 -39 37 -86 70 -188 133 -240 170 -311
222 -29 21 -115 83 -193 138 -77 55 -166 119 -198 142 -31 24 -63 43 -69 43
-10 0 -13 -43 -13 -180 l0 -180 -543 0 c-457 0 -552 2 -602 15 -125 33 -233
99 -319 197 -50 56 -116 182 -137 258 -9 33 -14 254 -16 848 l-4 802 -250 0
-250 0 4 -837z" id="node1" class="node"></path>
</g>
<g transform="translate(0.000000,300.000000) scale(0.100000,-0.100000)" fill="#FFFFFF" stroke="none">


</g>
</svg>