<?xml version="1.0" encoding="utf-8"?>
<!-- Generator: Adobe Illustrator 15.1.0, SVG Export Plug-In . SVG Version: 6.00 Build 0)  -->
<!DOCTYPE svg PUBLIC "-//W3C//DTD SVG 1.1//EN" "http://www.w3.org/Graphics/SVG/1.1/DTD/svg11.dtd">
<svg version="1.1" id="Layer_1" xmlns="http://www.w3.org/2000/svg" xmlns:xlink="http://www.w3.org/1999/xlink" x="0px" y="0px"
	 width="128px" height="128px" viewBox="0 0 128 128" enable-background="new 0 0 128 128" xml:space="preserve">
<g>
	<circle fill="#F2CF61" cx="64" cy="64" r="64"/>
	<path fill="#E6C45C" d="M119.339,96.136c-0.056-0.14-0.12-0.269-0.176-0.407c-0.017-0.045-0.028-0.095-0.044-0.141
		c-0.061-0.167-0.141-0.313-0.204-0.474c-0.017-0.046-0.028-0.095-0.044-0.142c-0.061-0.168-0.141-0.313-0.205-0.478
		c-0.016-0.044-0.027-0.095-0.043-0.138c-0.061-0.168-0.141-0.313-0.205-0.476c-0.016-0.046-0.027-0.095-0.043-0.14
		c-0.061-0.167-0.141-0.313-0.204-0.475c-0.017-0.045-0.028-0.096-0.044-0.142c-0.061-0.167-0.141-0.313-0.204-0.474
		c-0.016-0.047-0.028-0.096-0.044-0.143c-0.061-0.168-0.141-0.313-0.205-0.477c-0.016-0.045-0.027-0.092-0.043-0.137
		c-0.061-0.168-0.14-0.313-0.205-0.477c-0.016-0.046-0.027-0.095-0.043-0.14c-0.061-0.167-0.14-0.313-0.205-0.476
		c-0.016-0.047-0.027-0.096-0.043-0.141c-0.06-0.167-0.14-0.313-0.203-0.475c-0.017-0.045-0.029-0.094-0.045-0.142
		c-0.06-0.166-0.14-0.313-0.203-0.474c-0.017-0.047-0.029-0.096-0.045-0.143c-0.06-0.168-0.14-0.313-0.205-0.477
		c-0.016-0.045-0.025-0.092-0.043-0.137c-0.06-0.168-0.14-0.313-0.205-0.476c-0.016-0.047-0.025-0.096-0.043-0.141
		c-0.06-0.167-0.14-0.313-0.203-0.476c-0.017-0.045-0.027-0.094-0.045-0.141c-0.06-0.166-0.14-0.313-0.203-0.474
		c-0.017-0.046-0.027-0.095-0.045-0.142c-0.06-0.168-0.14-0.313-0.205-0.478c-0.016-0.044-0.025-0.093-0.043-0.138
		c-0.06-0.166-0.14-0.313-0.205-0.475c-0.016-0.047-0.025-0.096-0.043-0.141c-0.06-0.167-0.14-0.313-0.203-0.475
		c-0.016-0.045-0.027-0.095-0.045-0.142c-0.061-0.17-0.142-0.317-0.207-0.481c-0.016-0.043-0.024-0.088-0.041-0.131
		c-0.061-0.169-0.141-0.314-0.204-0.479c-0.017-0.045-0.027-0.092-0.044-0.137c-0.061-0.168-0.141-0.313-0.204-0.477
		c-0.017-0.045-0.027-0.095-0.043-0.14c-0.062-0.167-0.142-0.313-0.205-0.476c-0.017-0.046-0.027-0.095-0.043-0.14
		c-0.062-0.168-0.142-0.313-0.204-0.476c-0.018-0.045-0.025-0.096-0.044-0.141c-0.062-0.168-0.142-0.313-0.204-0.475
		c-0.018-0.046-0.025-0.096-0.044-0.141c-0.062-0.168-0.142-0.314-0.205-0.478c-0.017-0.045-0.026-0.093-0.043-0.138
		c-0.062-0.168-0.142-0.313-0.205-0.477c-0.017-0.045-0.026-0.094-0.043-0.139c-0.062-0.168-0.142-0.313-0.204-0.475
		c-0.016-0.047-0.025-0.097-0.044-0.142c-0.062-0.168-0.142-0.313-0.204-0.475c-0.016-0.046-0.025-0.095-0.044-0.142
		c-0.062-0.168-0.14-0.313-0.205-0.477c-0.016-0.045-0.026-0.094-0.043-0.139c-0.06-0.166-0.14-0.313-0.205-0.476
		c-0.016-0.045-0.026-0.094-0.043-0.139c-0.06-0.168-0.14-0.313-0.202-0.476c-0.018-0.045-0.027-0.096-0.045-0.141
		c-0.061-0.168-0.141-0.313-0.203-0.475c-0.018-0.047-0.027-0.096-0.045-0.141c-0.061-0.169-0.141-0.314-0.205-0.478
		c-0.017-0.046-0.026-0.093-0.043-0.138c-0.061-0.168-0.141-0.313-0.205-0.477c-0.017-0.045-0.026-0.094-0.043-0.139
		c-0.061-0.168-0.141-0.313-0.205-0.477c-0.017-0.046-0.026-0.095-0.043-0.14c-0.061-0.168-0.141-0.313-0.203-0.476
		c-0.018-0.045-0.027-0.094-0.045-0.141c-0.061-0.168-0.141-0.314-0.205-0.477c-0.017-0.045-0.026-0.094-0.043-0.139
		c-0.061-0.166-0.141-0.313-0.205-0.476c-0.017-0.045-0.026-0.094-0.043-0.14c-0.061-0.168-0.14-0.313-0.205-0.476
		c-0.016-0.046-0.026-0.095-0.043-0.14c-0.06-0.168-0.139-0.313-0.203-0.475c-0.016-0.047-0.027-0.096-0.045-0.142
		c-0.059-0.167-0.139-0.313-0.203-0.475c-0.016-0.046-0.027-0.095-0.044-0.142c-0.06-0.168-0.14-0.313-0.205-0.477
		c-0.017-0.045-0.027-0.094-0.043-0.137c-0.06-0.168-0.14-0.313-0.205-0.477c-0.017-0.046-0.026-0.095-0.043-0.14
		c-0.062-0.17-0.142-0.318-0.208-0.482c-0.016-0.043-0.025-0.089-0.041-0.132c-0.061-0.167-0.141-0.313-0.204-0.474
		c-0.017-0.048-0.028-0.097-0.044-0.142c-0.061-0.169-0.141-0.313-0.205-0.479c-0.016-0.045-0.027-0.092-0.043-0.137
		c-0.061-0.166-0.141-0.313-0.205-0.476c-0.016-0.046-0.027-0.096-0.043-0.141c-0.061-0.166-0.141-0.313-0.205-0.476
		c-0.016-0.046-0.027-0.095-0.043-0.14c-0.061-0.167-0.141-0.313-0.204-0.474c-0.016-0.047-0.028-0.096-0.044-0.143
		c-0.061-0.168-0.141-0.313-0.205-0.478c-0.016-0.043-0.027-0.093-0.043-0.138c-0.061-0.166-0.14-0.313-0.205-0.475
		c-0.016-0.046-0.027-0.096-0.043-0.141c-0.06-0.166-0.14-0.313-0.205-0.475c-0.016-0.046-0.025-0.095-0.043-0.14
		c-0.06-0.167-0.14-0.313-0.203-0.474c-0.017-0.047-0.027-0.096-0.045-0.142c-0.06-0.168-0.14-0.313-0.205-0.478
		c-0.016-0.045-0.025-0.092-0.043-0.137c-0.06-0.167-0.14-0.313-0.205-0.475c-0.016-0.046-0.025-0.096-0.043-0.141
		c-0.06-0.166-0.14-0.313-0.205-0.475c-0.016-0.046-0.025-0.095-0.043-0.14c-0.06-0.167-0.14-0.313-0.203-0.474
		c-0.016-0.047-0.027-0.096-0.045-0.142c-0.06-0.167-0.14-0.313-0.203-0.474c-0.016-0.047-0.027-0.096-0.045-0.142
		c-0.06-0.168-0.139-0.313-0.203-0.477c-0.018-0.045-0.027-0.093-0.045-0.138c-0.059-0.166-0.139-0.313-0.203-0.475
		c-0.018-0.046-0.027-0.095-0.043-0.14c-0.061-0.167-0.141-0.313-0.205-0.476c-0.018-0.046-0.027-0.095-0.043-0.14
		c-0.061-0.167-0.141-0.313-0.204-0.474c-0.017-0.047-0.028-0.096-0.044-0.142c-0.061-0.168-0.141-0.313-0.205-0.477
		c-0.018-0.044-0.026-0.093-0.043-0.138c-0.061-0.166-0.141-0.313-0.205-0.475c-0.018-0.046-0.026-0.095-0.043-0.14
		c-0.061-0.167-0.141-0.313-0.205-0.476c-0.018-0.046-0.025-0.095-0.043-0.14c-0.061-0.167-0.141-0.313-0.204-0.474
		c-0.017-0.047-0.026-0.096-0.044-0.142c-0.061-0.168-0.141-0.313-0.205-0.477c-0.016-0.045-0.025-0.093-0.043-0.138
		c-0.061-0.166-0.141-0.313-0.205-0.475c-0.016-0.046-0.025-0.095-0.043-0.14c-0.061-0.171-0.143-0.319-0.208-0.483
		c-0.015-0.043-0.024-0.088-0.041-0.131c-0.06-0.167-0.14-0.313-0.203-0.475c-0.017-0.045-0.026-0.094-0.045-0.141
		c-0.06-0.168-0.14-0.313-0.205-0.477c-0.016-0.044-0.026-0.094-0.043-0.137c-0.06-0.168-0.14-0.313-0.205-0.476
		c-0.016-0.046-0.026-0.095-0.043-0.14c-0.06-0.167-0.14-0.313-0.204-0.475c-0.017-0.047-0.027-0.096-0.044-0.141
		c-0.06-0.167-0.14-0.313-0.202-0.475c-0.019-0.047-0.029-0.096-0.045-0.141c-0.061-0.167-0.141-0.313-0.203-0.475
		c-0.019-0.045-0.029-0.094-0.045-0.141c-0.061-0.166-0.141-0.313-0.205-0.475c-0.017-0.045-0.026-0.094-0.043-0.139
		c-0.061-0.167-0.141-0.314-0.205-0.476c-0.017-0.045-0.026-0.093-0.043-0.138c-0.061-0.167-0.14-0.313-0.203-0.475
		c-0.019-0.045-0.028-0.094-0.045-0.14c-0.061-0.167-0.14-0.313-0.205-0.476c-0.017-0.045-0.026-0.093-0.043-0.138
		c-0.06-0.167-0.14-0.313-0.203-0.475c-0.019-0.045-0.028-0.094-0.045-0.14c-0.183-0.513-0.394-0.997-0.627-1.457
		c-0.066-0.128-0.148-0.24-0.22-0.364c-0.181-0.321-0.358-0.643-0.563-0.938c-0.092-0.131-0.196-0.245-0.293-0.371
		c-0.201-0.268-0.4-0.538-0.621-0.783c-0.107-0.12-0.227-0.223-0.338-0.337c-0.225-0.231-0.447-0.465-0.687-0.675
		c-0.12-0.106-0.252-0.197-0.375-0.299c-0.241-0.199-0.483-0.4-0.737-0.58c-0.131-0.093-0.269-0.172-0.4-0.26
		c-0.256-0.168-0.51-0.339-0.771-0.49c-0.146-0.084-0.299-0.155-0.445-0.234c-0.256-0.135-0.51-0.273-0.77-0.394
		c-0.166-0.077-0.332-0.141-0.498-0.212c-0.244-0.104-0.486-0.211-0.73-0.302c-0.188-0.07-0.373-0.126-0.563-0.189
		c-0.222-0.075-0.443-0.154-0.664-0.218c-0.215-0.063-0.424-0.112-0.635-0.167c-0.188-0.048-0.377-0.101-0.563-0.142
		c-0.24-0.054-0.476-0.095-0.709-0.137c-0.146-0.026-0.295-0.058-0.438-0.08c-0.269-0.042-0.521-0.071-0.774-0.099
		c-0.102-0.011-0.203-0.026-0.3-0.035c-0.284-0.026-0.554-0.041-0.815-0.05c-0.057-0.002-0.116-0.007-0.172-0.008
		c-0.172-0.004-0.332-0.002-0.491,0c-0.128,0.001-0.257,0.003-0.376,0.009c-0.002,0-0.004,0-0.008,0s-0.008,0-0.013,0.001
		c-0.12,0.006-0.233,0.015-0.349,0.025c-0.141,0.013-0.271,0.028-0.396,0.046c-0.004,0-0.008,0.001-0.01,0.001
		c-0.078,0.011-0.158,0.021-0.229,0.035c-0.195,0.037-0.375,0.078-0.523,0.129c0,0,0.01,0.03,0.021,0.074
		c-4.258-4.789-10.457-7.979-17.455-8.496c-0.104-0.008-0.205-0.015-0.309-0.022c-0.562-0.035-1.127-0.059-1.697-0.059
		c-0.569,0-1.135,0.024-1.694,0.059c-0.104,0.007-0.208,0.015-0.312,0.022c-6.965,0.515-13.138,3.678-17.393,8.428
		c0-0.001,0.002-0.007,0.002-0.007c-0.148-0.051-0.326-0.093-0.521-0.129c-0.082-0.016-0.174-0.027-0.264-0.04
		c-0.115-0.016-0.234-0.031-0.361-0.042c-0.129-0.011-0.26-0.021-0.397-0.027c-0.101-0.005-0.206-0.006-0.312-0.008
		c-0.166-0.003-0.328-0.007-0.506-0.003c-0.002,0-0.002,0-0.002,0c-4.143,0.093-11.396,2.19-13.74,8.822
		c-2.916,8.25-1.166,20.25-3,25.25c-0.67,1.828-0.533,3.174-0.022,4.146c0.068,0.22,0.149,0.427,0.248,0.614
		c0.067,0.22,0.149,0.427,0.249,0.615c0.066,0.219,0.148,0.424,0.247,0.61c0.067,0.22,0.149,0.427,0.248,0.614
		c0.067,0.22,0.149,0.427,0.248,0.613c0.067,0.22,0.149,0.427,0.248,0.613c0.067,0.221,0.149,0.428,0.249,0.617
		c0.066,0.217,0.148,0.422,0.246,0.609c0.068,0.221,0.149,0.427,0.248,0.615c0.068,0.219,0.149,0.426,0.248,0.612
		c0.068,0.224,0.15,0.433,0.252,0.621c0.066,0.217,0.147,0.42,0.246,0.606c0.067,0.219,0.148,0.426,0.248,0.613
		c0.067,0.219,0.148,0.426,0.248,0.613c0.067,0.221,0.148,0.428,0.248,0.616c0.067,0.218,0.148,0.423,0.248,0.61
		c0.067,0.22,0.148,0.427,0.247,0.614c0.068,0.22,0.149,0.427,0.248,0.613c0.068,0.221,0.149,0.428,0.249,0.616
		c0.066,0.218,0.148,0.423,0.247,0.611c0.067,0.219,0.149,0.426,0.248,0.613c0.067,0.219,0.149,0.426,0.248,0.613
		c0.067,0.219,0.149,0.426,0.248,0.613c0.067,0.221,0.149,0.428,0.249,0.617c0.066,0.217,0.148,0.422,0.247,0.61
		c0.067,0.219,0.149,0.426,0.247,0.613c0.068,0.219,0.15,0.426,0.248,0.614c0.068,0.22,0.149,0.426,0.25,0.615
		c0.066,0.219,0.147,0.424,0.246,0.611c0.068,0.219,0.149,0.426,0.248,0.613c0.068,0.219,0.149,0.426,0.248,0.613
		c0.068,0.221,0.149,0.428,0.25,0.616c0.066,0.218,0.147,0.423,0.246,0.61c0.068,0.22,0.149,0.427,0.248,0.613
		c0.068,0.22,0.149,0.426,0.248,0.613c0.068,0.223,0.15,0.432,0.251,0.621c0.067,0.217,0.148,0.422,0.247,0.609
		c0.067,0.219,0.148,0.424,0.247,0.611c0.068,0.219,0.149,0.426,0.248,0.612c0.067,0.22,0.149,0.427,0.248,0.615
		c0.067,0.219,0.149,0.426,0.249,0.614c0.066,0.22,0.148,0.425,0.247,0.611c0.067,0.219,0.149,0.426,0.248,0.613
		c0.067,0.221,0.149,0.427,0.248,0.615c0.067,0.219,0.149,0.426,0.249,0.615c0.066,0.219,0.148,0.422,0.246,0.61
		c0.068,0.22,0.149,0.427,0.248,0.613c0.068,0.22,0.149,0.426,0.248,0.614c0.068,0.22,0.149,0.427,0.248,0.613
		c0.068,0.221,0.149,0.428,0.25,0.615c0.066,0.219,0.147,0.424,0.246,0.611c0.068,0.219,0.149,0.426,0.248,0.613
		c0.068,0.221,0.149,0.428,0.248,0.614c0.068,0.22,0.149,0.427,0.249,0.615c0.067,0.219,0.148,0.424,0.247,0.61
		c0.068,0.22,0.149,0.427,0.248,0.615c0.068,0.219,0.148,0.426,0.248,0.613c0.068,0.221,0.148,0.428,0.249,0.615
		c0.067,0.219,0.147,0.424,0.247,0.611c0.068,0.219,0.148,0.426,0.248,0.613c0.068,0.221,0.15,0.43,0.251,0.62
		c0.067,0.218,0.147,0.421,0.246,0.607c0.067,0.221,0.149,0.428,0.249,0.616c0.066,0.218,0.148,0.422,0.247,0.61
		c0.067,0.22,0.149,0.427,0.247,0.614c0.068,0.219,0.149,0.426,0.248,0.613c0.068,0.221,0.149,0.428,0.25,0.615
		c0.066,0.219,0.147,0.424,0.246,0.611c0.068,0.219,0.149,0.426,0.248,0.614c0.068,0.219,0.149,0.426,0.248,0.612
		c0.068,0.222,0.149,0.429,0.25,0.617c0.066,0.217,0.147,0.422,0.246,0.609c0.068,0.22,0.149,0.427,0.248,0.615
		c0.068,0.219,0.149,0.426,0.248,0.613c0.068,0.219,0.149,0.426,0.248,0.613c0.068,0.221,0.148,0.428,0.249,0.616
		c0.067,0.218,0.147,0.423,0.247,0.61c0.068,0.22,0.148,0.427,0.248,0.613c0.068,0.219,0.148,0.426,0.248,0.614
		c0.021,0.065,0.051,0.12,0.074,0.183C51.096,127.007,57.432,128,64,128C87.629,128,108.252,115.186,119.339,96.136z"/>
	<g>
		<path fill="#A67C52" d="M63.979,30.004C49.95,30.004,38.577,40.747,38.577,54c0,3.58,0,12.496,0,16.496
			c0,0.229,0.016,0.443,0.04,0.654c0.295,9.617,6.362,26.846,25.362,26.846c20,0,25.068-17.229,25.363-26.846
			c0.024-0.211,0.04-0.426,0.04-0.654c0-4,0-12.916,0-16.496C89.383,40.747,78.01,30.004,63.979,30.004z"/>
		<path fill="#A67C52" d="M83.417,38.507c2.667-0.917,13.187,0.323,16.104,8.573c2.916,8.25,1.166,20.25,3,25.25
			c1.832,5-2.334,6.418-3.834,6.334s-10.5,0.666-11.166-14.251C86.854,49.496,83.417,38.507,83.417,38.507z"/>
		<path fill="#99724C" d="M102.521,72.33c-1.834-5-0.084-17.001-3-25.25c-2.875-8.128-13.114-9.447-15.967-8.607
			c4.144,0.676,9.562,3.044,11.526,8.607c2.917,8.25,1.167,20.25,3,25.25c1.354,3.695-0.565,5.431-2.269,6.053
			c1.338,0.301,2.433,0.258,2.873,0.281C100.188,78.748,104.354,77.33,102.521,72.33z"/>
		<path fill="#99724C" d="M63.979,30.004c-0.436,0-0.867,0.011-1.299,0.031C76.107,30.674,86.784,41.159,86.784,54
			c0,3.58,0,12.496,0,16.496c0,0.229-0.017,0.443-0.04,0.654c-0.288,9.397-5.146,26.058-24.033,26.81
			c0.418,0.019,0.835,0.036,1.268,0.036c20,0,25.068-17.229,25.363-26.846c0.024-0.211,0.04-0.426,0.04-0.654c0-4,0-12.916,0-16.496
			C89.383,40.747,78.01,30.004,63.979,30.004z"/>
		<path fill="#99724C" d="M85.736,38.255c-0.99-0.019-1.805,0.074-2.319,0.251c0,0,0.009,0.03,0.022,0.074
			c3.707,4.17,5.941,9.547,5.941,15.419c0,3.58,0,12.496,0,16.496c0,0.229-0.016,0.444-0.04,0.653
			c-0.016,0.506-0.048,1.035-0.091,1.578c0.629,1.379,1.379,2.439,2.186,3.25c0.301-1.728,0.457-3.365,0.502-4.828
			c0.023-0.209,0.041-0.426,0.041-0.653c0-4,0-12.916,0-16.496C91.979,47.973,89.621,42.47,85.736,38.255z"/>
		<path fill="#F5F5F5" d="M63.979,30.004c-1.235,0-2.449,0.088-3.64,0.249c0.841,3.831,1.64,8.584,1.64,11.743
			c0,29.089-14.207,37.783-14.455,49.889c3.879,3.617,9.229,6.111,16.455,6.111c7.318,0,12.632-2.313,16.449-5.71
			c0.063-12.317-14.449-20.884-14.449-50.29c0-3.159,0.799-7.913,1.64-11.743C66.43,30.092,65.215,30.004,63.979,30.004z"/>
		<path fill="#EDEDED" d="M57.052,64.378c0,2.548-2.065,4.618-4.618,4.618c-2.554,0-4.619-2.07-4.619-4.618
			c0-2.558,2.065-4.619,4.619-4.619C54.986,59.759,57.052,61.82,57.052,64.378z"/>
		<circle fill="#242424" cx="52.434" cy="64.378" r="2.31"/>
		<path fill="#EDEDED" d="M80.146,64.378c0,2.548-2.065,4.618-4.619,4.618c-2.553,0-4.618-2.07-4.618-4.618
			c0-2.558,2.065-4.619,4.618-4.619S80.146,61.82,80.146,64.378z"/>
		<circle fill="#242424" cx="75.527" cy="64.378" r="2.31"/>
		<path fill="#A67C52" d="M44.583,38.507c-2.667-0.917-13.187,0.323-16.104,8.573c-2.916,8.25-1.166,20.25-3,25.25
			c-1.832,5,2.334,6.418,3.834,6.334s10.5,0.666,11.166-14.251C41.146,49.496,44.583,38.507,44.583,38.507z"/>
		<path fill="#242424" d="M65.611,87.949l6.93-6.928c0.598-0.602,0.82-1.478,0.582-2.287c-0.239-0.813-0.904-1.428-1.732-1.605
			c-6.945-1.484-7.871-1.484-14.82,0c-0.828,0.178-1.493,0.794-1.732,1.605c-0.238,0.811-0.016,1.688,0.582,2.287l6.928,6.928
			c0.188,0.188,0.405,0.328,0.633,0.438v0.711c-2.279,0.465-4,2.484-4,4.898c0,0.553,0.446,1,1,1c0.553,0,1-0.447,1-1
			c0-1.654,1.346-3,3-3c1.653,0,3,1.346,3,3c0,0.553,0.445,1,1,1c0.553,0,1-0.447,1-1c0-2.414-1.723-4.436-4-4.898v-0.709
			C65.206,88.277,65.424,88.139,65.611,87.949z"/>
		<path fill="#99724C" d="M38.616,71.15c-0.024-0.211-0.04-0.426-0.04-0.654c0-4,0-12.916,0-16.496
			c0-5.904,2.262-11.306,6.005-15.486c0-0.001,0.002-0.007,0.002-0.007c-0.522-0.18-1.354-0.272-2.364-0.25
			c-3.884,4.214-6.24,9.717-6.24,15.743c0,3.58,0,12.496,0,16.496c0,0.229,0.017,0.443,0.041,0.654
			c0.045,1.457,0.225,3.093,0.56,4.813c0.787-0.795,1.522-1.833,2.144-3.175C38.669,72.225,38.632,71.675,38.616,71.15z"/>
	</g>
</g>
</svg>
