<?xml version="1.0" encoding="iso-8859-1"?>
<!-- Generator: Adobe Illustrator 20.1.0, SVG Export Plug-In . SVG Version: 6.00 Build 0)  -->
<svg version="1.1" xmlns="http://www.w3.org/2000/svg" xmlns:xlink="http://www.w3.org/1999/xlink" x="0px" y="0px"
	 viewBox="0 0 40.254 40.367" style="enable-background:new 0 0 40.254 40.367;" xml:space="preserve">
<g id="RAINBOW">
	<g>
		<path style="fill:#ED1C24;" d="M39.176,28.505V15.13C36.541,9.838,33.061,5.04,28.903,0.921H22.24
			C30.688,7.819,36.793,17.476,39.176,28.505z"/>
		<path style="fill:#F26522;" d="M22.24,0.921h-7.773c12.78,7.825,21.355,21.875,21.355,37.927c0,0.035-0.005,0.07-0.005,0.105
			h0.284c1.698,0,3.075-1.377,3.075-3.075v-7.374C36.793,17.476,30.688,7.819,22.24,0.921z"/>
		<path style="fill:#FFDE17;" d="M14.467,0.921H4.218c-0.052,0-0.1,0.013-0.152,0.015c15.839,5.335,27.292,20.297,27.292,37.912
			c0,0.035-0.005,0.07-0.005,0.105h4.464c0-0.035,0.005-0.07,0.005-0.105C35.822,22.797,27.247,8.746,14.467,0.921z"/>
		<path style="fill:#00A14B;" d="M4.066,0.936C2.44,1.017,1.143,2.35,1.143,3.996v0.7c14.847,4.272,25.751,17.95,25.751,34.153
			c0,0.035-0.005,0.07-0.005,0.105h4.464c0-0.035,0.005-0.07,0.005-0.105C31.358,21.234,19.905,6.271,4.066,0.936z"/>
		<path style="fill:#21409A;" d="M1.143,4.696v4.667c12.35,4.12,21.287,15.769,21.287,29.486c0,0.035-0.005,0.07-0.005,0.105h4.464
			c0-0.035,0.005-0.07,0.005-0.105C26.894,22.646,15.99,8.968,1.143,4.696z"/>
		<path style="fill:#7F3F98;" d="M1.143,9.362v4.742c9.85,3.909,16.824,13.503,16.824,24.744c0,0.035-0.005,0.07-0.005,0.105h4.464
			c0-0.035,0.005-0.07,0.005-0.105C22.431,25.131,13.493,13.482,1.143,9.362z"/>
	</g>
</g>
<g id="Layer_1">
</g>
</svg>
