<?xml version="1.0" encoding="utf-8"?>
<!-- Generator: Adobe Illustrator 21.1.0, SVG Export Plug-In . SVG Version: 6.00 Build 0)  -->
<svg version="1.1" id="Layer_1" xmlns="http://www.w3.org/2000/svg" xmlns:xlink="http://www.w3.org/1999/xlink" x="0px" y="0px"
	 width="62px" height="124px" viewBox="0 0 62 124" style="enable-background:new 0 0 62 124;" xml:space="preserve">
<style type="text/css">
	.st0{fill:#535252;}
	.st1{fill:#D1D1D1;}
	.st2{fill:none;}
	.st3{fill:#A0A0A0;}
	.st4{display:none;}
	.st5{display:inline;}
	.st6{fill:#FF3000;}
</style>
<path class="st0" d="M46.5,55H17c-5.3,0-9.6-4.3-9.6-9.6V15.9c0-0.9,0.8-1.7,1.7-1.7h1.4v29.9c0,1,0.2,2,0.6,2.9
	c0.4,0.9,0.9,1.7,1.6,2.4c0.7,0.7,1.5,1.2,2.4,1.6c0.9,0.4,1.9,0.6,2.9,0.6h30.2v1.7C48.2,54.3,47.4,55,46.5,55z"/>
<path class="st0" d="M52.4,43.5c0,1-0.8,1.8-1.8,1.8h-29l13.9-13.9v8.1h6.4v-19h-19v6.4H31L16.9,41V11.6c0-1,0.8-1.8,1.8-1.8h31.9
	c1,0,1.8,0.8,1.8,1.8C52.4,11.6,52.4,43.5,52.4,43.5z"/>
<path class="st0" d="M46,116.1H17.5c-5.1,0-9.3-4.2-9.3-9.3V78.3c0-0.9,0.7-1.6,1.6-1.6h1.4v29c0,1,0.2,1.9,0.6,2.8
	c0.4,0.9,0.9,1.6,1.5,2.3c0.7,0.7,1.4,1.2,2.3,1.5c0.9,0.4,1.8,0.6,2.8,0.6h29.2v1.6C47.6,115.4,46.9,116.1,46,116.1z"/>
<path class="st0" d="M51.7,104.9c0,1-0.8,1.7-1.7,1.7H22l13.4-13.4v7.8h6.2V82.7H23.2v6.2H31l-13.6,13.6V74.1c0-1,0.8-1.7,1.7-1.7
	h30.8c1,0,1.7,0.8,1.7,1.7L51.7,104.9L51.7,104.9z"/>
<g id="Duplicate-ON">
	<g>
		<g>
			<path class="st1" d="M50.7,3.4H18.8c-4.1,0-7.5,3-8.1,7H9.2c-3,0-5.5,2.5-5.5,5.5v29.4c0,1.8,0.4,3.6,1.1,5.2
				c0.7,1.6,1.6,3,2.9,4.3C8.9,56,10.4,57,12,57.7c1.7,0.7,3.4,1.1,5.2,1.1h29.4c3,0,5.5-2.5,5.5-5.5v-1.8c3.8-0.7,6.8-4,6.8-8V11.6
				C58.9,7.1,55.2,3.4,50.7,3.4z M38.8,23.7L38.8,23.7L38.8,23.7z M16.7,45.8L16.7,45.8L16.7,45.8z M46.6,55H17.1
				c-5.3,0-9.6-4.3-9.6-9.6V15.9c0-0.9,0.8-1.7,1.7-1.7h1.4v29.9c0,1,0.2,2,0.6,2.9c0.4,0.9,0.9,1.7,1.6,2.4
				c0.7,0.7,1.5,1.2,2.4,1.6c0.9,0.4,1.9,0.6,2.9,0.6h30.2v1.7C48.3,54.3,47.5,55,46.6,55z M52.5,43.5c0,1-0.8,1.8-1.8,1.8h-29
				l13.9-13.9v8.1H42v-19H23v6.4h8.1L17,41V11.6c0-1,0.8-1.8,1.8-1.8h31.9c1,0,1.8,0.8,1.8,1.8C52.5,11.6,52.5,43.5,52.5,43.5z"/>
		</g>
		<line class="st2" x1="38.8" y1="23.7" x2="38.8" y2="23.7"/>
		<line class="st2" x1="16.7" y1="45.8" x2="16.7" y2="45.8"/>
	</g>
</g>
<g id="Duplicate-DOWN">
	<g>
		<g>
			<path class="st3" d="M50,66.2H19.2c-4,0-7.3,2.9-7.8,6.8H9.9c-2.9,0-5.3,2.4-5.3,5.3v28.5c0,1.8,0.3,3.5,1,5.1
				c0.7,1.5,1.6,2.9,2.8,4.1s2.6,2.1,4.1,2.8c1.6,0.7,3.3,1,5.1,1h28.5c2.9,0,5.3-2.4,5.3-5.3v-1.7c3.7-0.6,6.5-3.9,6.5-7.8V74.1
				C57.9,69.8,54.4,66.2,50,66.2z M38.6,85.8L38.6,85.8L38.6,85.8z M17.2,107.1L17.2,107.1L17.2,107.1z M46.1,116.1H17.6
				c-5.1,0-9.3-4.2-9.3-9.3V78.3c0-0.9,0.7-1.6,1.6-1.6h1.4v29c0,1,0.2,1.9,0.6,2.8c0.4,0.9,0.9,1.6,1.5,2.3
				c0.7,0.7,1.4,1.2,2.3,1.5c0.9,0.4,1.8,0.6,2.8,0.6h29.2v1.6C47.7,115.4,47,116.1,46.1,116.1z M51.8,104.9c0,1-0.8,1.7-1.7,1.7
				h-28l13.4-13.4v7.8h6.2V82.7H23.3v6.2h7.8l-13.6,13.6V74.1c0-1,0.8-1.7,1.7-1.7H50c1,0,1.7,0.8,1.7,1.7L51.8,104.9L51.8,104.9z"
				/>
		</g>
		<line class="st2" x1="38.6" y1="85.8" x2="38.6" y2="85.8"/>
		<line class="st2" x1="17.2" y1="107.1" x2="17.2" y2="107.1"/>
	</g>
</g>
<g id="Layer_3" class="st4">
	<g class="st5">
		<path class="st6" d="M61.8,0.2v61.5H0.2V0.2H61.8 M62,0H0v62h62V0L62,0z"/>
	</g>
	<g class="st5">
		<path class="st6" d="M61.8,62.2v61.5H0.2V62.2H61.8 M62,62H0v62h62V62L62,62z"/>
	</g>
</g>
</svg>
