<?xml version="1.0" encoding="utf-8"?>
<!-- Generator: Adobe Illustrator 21.1.0, SVG Export Plug-In . SVG Version: 6.00 Build 0)  -->
<svg version="1.1" id="Layer_1" xmlns="http://www.w3.org/2000/svg" xmlns:xlink="http://www.w3.org/1999/xlink" x="0px" y="0px"
	 width="91.4px" height="92.7px" viewBox="0 0 91.4 92.7" style="enable-background:new 0 0 91.4 92.7;" xml:space="preserve">
<style type="text/css">
	.st0{fill:none;}
	.st1{fill:#D1D1D1;}
</style>
<g>
	<path class="st0" d="M15.3,73.1l5.1,5.1l14.7-1.6l2.6-2.6c-0.3-0.7-0.7-1.4-1.2-2c-1.1-1.1-2.4-1.6-3.8-1.5l31-31l-2.1-2.1l-31,31
		c0-1.4-0.5-2.8-1.5-3.8S26.5,63,25.1,63l31-31l-2.1-2.1l-31,31c0-1.4-0.5-2.8-1.5-3.8c-0.6-0.6-1.3-1-2-1.2l-2.6,2.6L15.3,73.1z"/>
	<g>
		<path class="st1" d="M81.1,34.8c2.1-2.1,2.1-5.7,0-7.8L66.5,12.4c-2.1-2.1-5.7-2.1-7.8,0l-6.9,6.9l22.4,22.4L81.1,34.8z"/>
	</g>
	<rect x="62.1" y="35.9" transform="matrix(0.7071 -0.7071 0.7071 0.7071 -7.8436 55.8993)" class="st1" width="3" height="3"/>
	<path class="st1" d="M15.3,73.1l1.6-14.7l2.6-2.6c-1.8-0.6-3.9-0.3-5.4,1.1L14,57.1l-2.7,25.2l1.3-11.8L15.3,73.1z"/>
	<rect x="54.6" y="28.4" transform="matrix(0.7071 -0.7071 0.7071 0.7071 -4.7432 48.4145)" class="st1" width="3" height="3"/>
	<path class="st1" d="M37.7,74l-2.6,2.6l-14.7,1.6l2.7,2.7l-11.8,1.3l25.2-2.7l35.7-35.7l0,0L36.4,79.5C37.9,78,38.3,75.9,37.7,74z"
		/>
	<g>
		<polygon class="st1" points="20.4,78.2 15.3,73.1 12.5,70.4 11.3,82.2 23.1,81 		"/>
	</g>
	<g>
		<path class="st1" d="M25.1,63c1.4,0,2.8,0.5,3.8,1.5s1.6,2.4,1.5,3.8l31-31l2.1-2.1l2.1,2.1l-2.1,2.1l-31,31
			c1.4,0,2.8,0.5,3.8,1.5c0.6,0.6,1,1.3,1.2,2c0.6,1.9,0.2,4-1.2,5.5l35.7-35.7h0L58.2,29.9l-2.1,2.1L25.1,63z"/>
	</g>
	<g>
		<path class="st1" d="M19.5,55.8c0.7,0.3,1.4,0.7,2,1.2c1.1,1.1,1.6,2.4,1.5,3.8l31-31l2.1-2.1l-6.4-6.4L14.1,57c0,0,0,0,0,0
			C15.6,55.6,17.7,55.2,19.5,55.8z"/>
	</g>
	<g>
		<path class="st1" d="M14,57.1L14,57.1C14,57,14,57,14,57.1L14,57.1L14,57.1z"/>
	</g>
</g>
</svg>
