<?xml version="1.0" encoding="iso-8859-1"?>
<!-- Generator: Adobe Illustrator 20.1.0, SVG Export Plug-In . SVG Version: 6.00 Build 0)  -->
<svg version="1.1" xmlns="http://www.w3.org/2000/svg" xmlns:xlink="http://www.w3.org/1999/xlink" x="0px" y="0px"
	 viewBox="0 0 89.25 88" style="enable-background:new 0 0 89.25 88;" xml:space="preserve">
<g id="INFO_ON">
	
		<circle style="fill:#FFFFFF;fill-opacity:0.3;stroke:#EFEFEF;stroke-width:2;stroke-miterlimit:10;" cx="44.221" cy="28.75" r="6.25"/>
	
		<rect x="39.25" y="39.25" style="fill:#FFFFFF;fill-opacity:0.3;stroke:#EFEFEF;stroke-width:2;stroke-miterlimit:10;" width="9.75" height="26.75"/>
	<path style="opacity:0.5;fill:none;stroke:#EFEFEF;stroke-width:4;stroke-miterlimit:10;enable-background:new    ;" d="
		M43.503,84.454c-35.935,0-38.331,1.797-38.331-45.158c0-27.55,0-34.258,38.331-34.258c39.648,0,39.648,6.708,39.648,34.498
		C83.151,86.371,80.037,84.454,43.503,84.454z"/>
</g>
<g id="INFO_DOWN" style="display:none;">
	<path style="display:inline;fill:none;stroke:#CCDADD;stroke-width:4;stroke-miterlimit:10;" d="M43.562,83.19
		c-34.855,0-37.129,1.711-37.129-43.697c0-26.628-0.056-33.124,37.129-33.124c38.389,0,38.369,6.496,38.369,33.381
		C81.931,85.129,78.954,83.19,43.562,83.19z"/>
	
		<circle style="display:inline;fill:#DDDDDD;fill-opacity:0.3;stroke:#BCCACC;stroke-width:2;stroke-miterlimit:10;" cx="44.221" cy="29.033" r="6.136"/>
	
		<rect x="39.341" y="39.341" style="display:inline;fill:#DDDDDD;fill-opacity:0.3;stroke:#BCCACC;stroke-width:2;stroke-miterlimit:10;" width="9.572" height="26.261"/>
</g>
</svg>
