<?xml version="1.0" encoding="iso-8859-1"?>
<!-- Generator: Adobe Illustrator 20.1.0, SVG Export Plug-In . SVG Version: 6.00 Build 0)  -->
<svg version="1.1" id="Layer_1" xmlns="http://www.w3.org/2000/svg" xmlns:xlink="http://www.w3.org/1999/xlink" x="0px" y="0px"
	 viewBox="0 0 31.301 49.069" style="enable-background:new 0 0 31.301 49.069;" xml:space="preserve">
<linearGradient id="SVGID_1_" gradientUnits="userSpaceOnUse" x1="15.6477" y1="40.6098" x2="15.6477" y2="-0.891" gradientTransform="matrix(1 0 0 -1 0 45.2196)">
	<stop  offset="0" style="stop-color:#31BED3"/>
	<stop  offset="1" style="stop-color:#1E9FB2"/>
</linearGradient>
<path style="fill:url(#SVGID_1_);" d="M14.646,25.991c-0.386-0.386-0.599-0.9-0.599-1.446c0-0.546,0.213-1.06,0.599-1.446
	L29.86,7.885c0.616-0.616,0.955-1.434,0.955-2.305s-0.339-1.689-0.955-2.305l-1.751-1.751c-0.616-0.616-1.434-0.955-2.305-0.955
	s-1.689,0.339-2.305,0.955L1.895,23.131l-1.414,1.414l1.414,1.414L23.5,47.564c0.616,0.616,1.434,0.955,2.305,0.955
	s1.689-0.339,2.305-0.955l1.751-1.751c1.271-1.271,1.271-3.338,0-4.609L14.646,25.991z"/>
</svg>
